<?xml version="1.0" encoding="utf-8"?>
<!-- Generator: Adobe Illustrator 27.5.0, SVG Export Plug-In . SVG Version: 6.00 Build 0)  -->
<svg version="1.1" xmlns="http://www.w3.org/2000/svg" xmlns:xlink="http://www.w3.org/1999/xlink" x="0px" y="0px"
	 viewBox="0 0 500 500" style="enable-background:new 0 0 500 500;" xml:space="preserve">
<g id="BACKGROUND">
	<rect style="fill:#FFFBF8;" width="500" height="500"/>
</g>
<g id="OBJECTS">
	<g>
		
			<polyline style="fill:none;stroke:#000000;stroke-width:0.75;stroke-linecap:round;stroke-linejoin:round;stroke-miterlimit:10;" points="
			444.241,138.731 442.905,134.681 446.761,134.541 444.949,129.648 449.378,129.754 448.987,125.551 		"/>
		
			<polyline style="fill:none;stroke:#000000;stroke-width:0.75;stroke-linecap:round;stroke-linejoin:round;stroke-miterlimit:10;" points="
			21.671,288.707 20.336,284.658 24.191,284.518 22.38,279.625 26.808,279.73 26.417,275.528 		"/>
		
			<polyline style="fill:none;stroke:#000000;stroke-width:0.75;stroke-linecap:round;stroke-linejoin:round;stroke-miterlimit:10;" points="
			384.276,22.932 388.401,21.852 388.3,25.709 393.297,24.207 392.914,28.62 397.133,28.494 		"/>
		
			<polyline style="fill:none;stroke:#000000;stroke-width:0.75;stroke-linecap:round;stroke-linejoin:round;stroke-miterlimit:10;" points="
			425.588,413.878 425.269,418.13 421.655,416.782 421.452,421.996 417.402,420.2 416.152,424.231 		"/>
		
			<polyline style="fill:none;stroke:#000000;stroke-width:0.75;stroke-linecap:round;stroke-linejoin:round;stroke-miterlimit:10;" points="
			52.983,97.792 55.27,101.39 51.567,102.472 54.523,106.771 		"/>
		
			<polyline style="fill:none;stroke:#000000;stroke-width:0.75;stroke-linecap:round;stroke-linejoin:round;stroke-miterlimit:10;" points="
			254.999,250 257.286,253.598 253.583,254.68 256.539,258.979 		"/>
		
			<rect x="442.576" y="311.47" transform="matrix(0.7901 -0.6129 0.6129 0.7901 -98.9076 338.4367)" style="fill:none;stroke:#000000;stroke-width:0.75;stroke-linecap:round;stroke-linejoin:round;stroke-miterlimit:10;" width="4.362" height="4.362"/>
		
			<rect x="316.126" y="464.605" transform="matrix(0.7901 -0.613 0.613 0.7901 -219.3123 293.0803)" style="fill:none;stroke:#000000;stroke-width:0.75;stroke-linecap:round;stroke-linejoin:round;stroke-miterlimit:10;" width="4.362" height="4.362"/>
		
			<rect x="29.648" y="156.844" transform="matrix(0.7901 -0.6129 0.6129 0.7901 -90.7933 52.8844)" style="fill:none;stroke:#000000;stroke-width:0.75;stroke-linecap:round;stroke-linejoin:round;stroke-miterlimit:10;" width="4.362" height="4.362"/>
		
			<rect x="211.049" y="19.671" transform="matrix(0.998 -0.0627 0.0627 0.998 -0.951 13.4222)" style="fill:none;stroke:#000000;stroke-width:0.75;stroke-linecap:round;stroke-linejoin:round;stroke-miterlimit:10;" width="4.362" height="4.362"/>
		
			<rect x="466.482" y="54.296" transform="matrix(0.998 -0.0627 0.0627 0.998 -2.6202 29.5176)" style="fill:none;stroke:#000000;stroke-width:0.75;stroke-linecap:round;stroke-linejoin:round;stroke-miterlimit:10;" width="4.362" height="4.362"/>
		
			<circle style="fill:none;stroke:#000000;stroke-width:0.75;stroke-linecap:round;stroke-linejoin:round;stroke-miterlimit:10;" cx="36.686" cy="32.952" r="4.856"/>
		
			<circle style="fill:none;stroke:#000000;stroke-width:0.75;stroke-linecap:round;stroke-linejoin:round;stroke-miterlimit:10;" cx="287.697" cy="40.564" r="4.856"/>
		<path d="M68.187,210.453c0-1.023,0.829-1.852,1.852-1.852c1.023,0,1.852,0.829,1.852,1.852s-0.829,1.852-1.852,1.852
			C69.016,212.304,68.187,211.475,68.187,210.453z"/>
		<path d="M138.285,38.712c0-1.023,0.829-1.852,1.852-1.852c1.023,0,1.851,0.829,1.851,1.852c0,1.023-0.829,1.852-1.851,1.852
			C139.114,40.564,138.285,39.735,138.285,38.712z"/>
		<path d="M464.757,371.979c0-1.023,0.829-1.852,1.852-1.852c1.022,0,1.851,0.829,1.851,1.852c0,1.022-0.829,1.852-1.851,1.852
			C465.586,373.831,464.757,373.002,464.757,371.979z"/>
		<path d="M442.905,464.934c0-1.023,0.829-1.852,1.852-1.852s1.852,0.829,1.852,1.852c0,1.023-0.829,1.852-1.852,1.852
			S442.905,465.957,442.905,464.934z"/>
		<path d="M472.487,213.568c0-1.023,0.829-1.851,1.852-1.851c1.023,0,1.852,0.829,1.852,1.851c0,1.023-0.829,1.852-1.852,1.852
			C473.316,215.42,472.487,214.591,472.487,213.568z"/>
		<path d="M233.743,182.291c0-1.023,0.829-1.852,1.852-1.852c1.023,0,1.852,0.829,1.852,1.852s-0.829,1.852-1.852,1.852
			C234.572,184.142,233.743,183.313,233.743,182.291z"/>
	</g>
	<g>
		<defs>
			<rect id="SVGID_1_" width="500" height="500"/>
		</defs>
		<clipPath id="SVGID_00000078034468580560182820000015336491541401342099_">
			<use xlink:href="#SVGID_1_"  style="overflow:visible;"/>
		</clipPath>
		<g style="clip-path:url(#SVGID_00000078034468580560182820000015336491541401342099_);">
			<path style="fill:#39D188;" d="M290.343,239.984c1.599,0.749,2.695,2.267,2.919,4.018c1.341,10.469,10.285,18.561,21.119,18.561
				l0,0h101.71c11.76,0,21.293-9.533,21.293-21.293v-48.702c0-11.76-9.533-21.293-21.293-21.293h-101.71
				c-11.76,0-21.293,9.533-21.293,21.293v16.659c0,1.995-1.152,3.81-2.956,4.661l-40.74,10.588
				c-1.456,0.686-1.454,2.759,0.004,3.442L290.343,239.984z"/>
			<g>
				
					<rect x="314.722" y="189.206" style="fill:none;stroke:#000000;stroke-width:0.75;stroke-linecap:round;stroke-linejoin:round;stroke-miterlimit:10;" width="34.318" height="52.666"/>
				
					<polyline style="fill:none;stroke:#000000;stroke-width:0.75;stroke-linecap:round;stroke-linejoin:round;stroke-miterlimit:10;" points="
					349.04,193.072 356.533,193.072 356.533,245.738 322.215,245.738 322.215,241.872 				"/>
				
					<line style="fill:none;stroke:#000000;stroke-width:0.75;stroke-linecap:round;stroke-linejoin:round;stroke-miterlimit:10;" x1="322.215" y1="200.34" x2="341.491" y2="200.34"/>
				
					<line style="fill:none;stroke:#000000;stroke-width:0.75;stroke-linecap:round;stroke-linejoin:round;stroke-miterlimit:10;" x1="322.215" y1="207.328" x2="341.491" y2="207.328"/>
				
					<line style="fill:none;stroke:#000000;stroke-width:0.75;stroke-linecap:round;stroke-linejoin:round;stroke-miterlimit:10;" x1="322.215" y1="214.315" x2="341.491" y2="214.315"/>
				
					<line style="fill:none;stroke:#000000;stroke-width:0.75;stroke-linecap:round;stroke-linejoin:round;stroke-miterlimit:10;" x1="322.215" y1="221.302" x2="341.491" y2="221.302"/>
				
					<line style="fill:none;stroke:#000000;stroke-width:0.75;stroke-linecap:round;stroke-linejoin:round;stroke-miterlimit:10;" x1="322.215" y1="228.289" x2="332.514" y2="228.289"/>
			</g>
			<g>
				
					<rect x="367.051" y="202.384" style="fill:none;stroke:#000000;stroke-width:0.75;stroke-linecap:round;stroke-linejoin:round;stroke-miterlimit:10;" width="43.445" height="29.469"/>
				
					<polyline style="fill:none;stroke:#000000;stroke-width:0.75;stroke-linecap:round;stroke-linejoin:round;stroke-miterlimit:10;" points="
					410.496,206.9 419.983,206.9 419.983,236.37 376.537,236.37 376.537,231.854 				"/>
				
					<line style="fill:none;stroke:#000000;stroke-width:0.75;stroke-linecap:round;stroke-linejoin:round;stroke-miterlimit:10;" x1="376.537" y1="211.003" x2="400.94" y2="211.003"/>
				
					<line style="fill:none;stroke:#000000;stroke-width:0.75;stroke-linecap:round;stroke-linejoin:round;stroke-miterlimit:10;" x1="376.537" y1="216.835" x2="400.94" y2="216.835"/>
				
					<line style="fill:none;stroke:#000000;stroke-width:0.75;stroke-linecap:round;stroke-linejoin:round;stroke-miterlimit:10;" x1="376.537" y1="222.667" x2="389.575" y2="222.667"/>
			</g>
		</g>
		<g style="clip-path:url(#SVGID_00000078034468580560182820000015336491541401342099_);">
			<path style="fill:#EF65C1;" d="M329.094,138.189L329.094,138.189h71.71c11.76,0,21.293-9.533,21.293-21.293V68.194
				c0-11.76-9.533-21.293-21.293-21.293h-71.71c-11.76,0-21.293,9.533-21.293,21.293l0.174,51.434l-29.918,26.513
				c-2.53,2.242-0.287,6.362,2.969,5.454L329.094,138.189z"/>
			<g>
				
					<polyline style="fill:none;stroke:#000000;stroke-width:0.75;stroke-linecap:round;stroke-linejoin:round;stroke-miterlimit:10;" points="
					332.64,63.779 332.64,119.707 399.51,119.707 				"/>
				
					<polyline style="fill:none;stroke:#000000;stroke-width:0.75;stroke-linecap:round;stroke-linejoin:round;stroke-miterlimit:10;" points="
					332.64,110.487 348.986,95.56 362.996,104.715 376.522,80.91 389.913,86.633 399.51,68.997 				"/>
				
					<polyline style="fill:none;stroke:#000000;stroke-width:0.75;stroke-linecap:round;stroke-linejoin:round;stroke-miterlimit:10;" points="
					391.327,73.567 399.51,68.997 400.915,78.117 				"/>
				
					<line style="fill:none;stroke:#000000;stroke-width:0.75;stroke-linecap:round;stroke-linejoin:round;stroke-miterlimit:10;" x1="346.181" y1="119.707" x2="346.181" y2="125.551"/>
				
					<line style="fill:none;stroke:#000000;stroke-width:0.75;stroke-linecap:round;stroke-linejoin:round;stroke-miterlimit:10;" x1="364.508" y1="119.707" x2="364.508" y2="125.551"/>
				
					<line style="fill:none;stroke:#000000;stroke-width:0.75;stroke-linecap:round;stroke-linejoin:round;stroke-miterlimit:10;" x1="383.033" y1="119.707" x2="383.033" y2="125.551"/>
				
					<line style="fill:none;stroke:#000000;stroke-width:0.75;stroke-linecap:round;stroke-linejoin:round;stroke-miterlimit:10;" x1="332.64" y1="66.239" x2="326.796" y2="66.239"/>
				
					<line style="fill:none;stroke:#000000;stroke-width:0.75;stroke-linecap:round;stroke-linejoin:round;stroke-miterlimit:10;" x1="332.64" y1="84.567" x2="326.796" y2="84.567"/>
				
					<line style="fill:none;stroke:#000000;stroke-width:0.75;stroke-linecap:round;stroke-linejoin:round;stroke-miterlimit:10;" x1="332.64" y1="103.091" x2="326.796" y2="103.091"/>
				<g>
					<g>
						
							<line style="fill:none;stroke:#000000;stroke-width:0.75;stroke-linecap:round;stroke-linejoin:round;" x1="332.64" y1="91.743" x2="335.14" y2="91.743"/>
						
							<line style="fill:none;stroke:#000000;stroke-width:0.75;stroke-linecap:round;stroke-linejoin:round;stroke-dasharray:4.7593,4.7593;" x1="339.899" y1="91.743" x2="394.631" y2="91.743"/>
						
							<line style="fill:none;stroke:#000000;stroke-width:0.75;stroke-linecap:round;stroke-linejoin:round;" x1="397.01" y1="91.743" x2="399.51" y2="91.743"/>
					</g>
				</g>
			</g>
		</g>
		<g style="clip-path:url(#SVGID_00000078034468580560182820000015336491541401342099_);">
			<path style="fill:#FF5E43;" d="M250.918,114.951c10.775,0,19.51-8.735,19.51-19.51V72.243c0-10.775-8.735-19.51-19.51-19.51
				h-150.3c-10.775,0-19.51,8.735-19.51,19.51v23.198c0,10.775,8.735,19.51,19.51,19.51h118.407l0.673,33.826
				c0.068,3.428,4.488,4.762,6.44,1.943L250.918,114.951z"/>
			<g>
				
					<line style="fill:none;stroke:#000000;stroke-width:0.75;stroke-linecap:round;stroke-linejoin:round;stroke-miterlimit:10;" x1="174.471" y1="80.742" x2="240.446" y2="80.742"/>
				
					<line style="fill:none;stroke:#000000;stroke-width:0.75;stroke-linecap:round;stroke-linejoin:round;stroke-miterlimit:10;" x1="108.497" y1="80.742" x2="147.884" y2="80.742"/>
				
					<line style="fill:none;stroke:#000000;stroke-width:0.75;stroke-linecap:round;stroke-linejoin:round;stroke-miterlimit:10;" x1="240.446" y1="74.777" x2="240.446" y2="86.495"/>
				
					<line style="fill:none;stroke:#000000;stroke-width:0.75;stroke-linecap:round;stroke-linejoin:round;stroke-miterlimit:10;" x1="174.471" y1="74.777" x2="174.471" y2="86.495"/>
				
					<line style="fill:none;stroke:#000000;stroke-width:0.75;stroke-linecap:round;stroke-linejoin:round;stroke-miterlimit:10;" x1="108.497" y1="74.777" x2="108.497" y2="86.495"/>
				
					<polyline style="fill:none;stroke:#000000;stroke-width:0.75;stroke-linecap:round;stroke-linejoin:round;stroke-miterlimit:10;" points="
					141.285,84.845 141.285,97.479 123.009,97.479 				"/>
				
					<polyline style="fill:none;stroke:#000000;stroke-width:0.75;stroke-linecap:round;stroke-linejoin:round;stroke-miterlimit:10;" points="
					117.515,95.258 120.114,93.828 120.114,99.676 				"/>
				
					<polyline style="fill:none;stroke:#000000;stroke-width:0.75;stroke-linecap:round;stroke-linejoin:round;stroke-miterlimit:10;" points="
					235.448,90.41 238.047,88.98 238.047,94.828 				"/>
				
					<path style="fill:none;stroke:#000000;stroke-width:0.75;stroke-linecap:round;stroke-linejoin:round;stroke-miterlimit:10;" d="
					M176.927,69.204c0,1.356-1.099,2.455-2.455,2.455c-1.356,0-2.456-1.099-2.456-2.455c0-1.356,1.099-2.456,2.456-2.456
					C175.827,66.748,176.927,67.848,176.927,69.204z"/>
				
					<path style="fill:none;stroke:#000000;stroke-width:0.75;stroke-linecap:round;stroke-linejoin:round;stroke-miterlimit:10;" d="
					M243.435,91.862c0,1.659-0.405,3.005-1.858,3.005c-1.366,0-1.858-1.345-1.858-3.005c0-1.659,0.538-3.005,1.858-3.005
					C242.999,88.857,243.435,90.202,243.435,91.862z"/>
				
					<polyline style="fill:none;stroke:#000000;stroke-width:0.75;stroke-linecap:round;stroke-linejoin:round;stroke-miterlimit:10;" points="
					201.563,74.777 201.563,67.78 221.912,67.78 				"/>
				
					<polyline style="fill:none;stroke:#000000;stroke-width:0.75;stroke-linecap:round;stroke-linejoin:round;stroke-miterlimit:10;" points="
					224.334,66.077 224.334,68.303 227.214,68.303 				"/>
				
					<line style="fill:none;stroke:#000000;stroke-width:0.75;stroke-linecap:round;stroke-linejoin:round;stroke-miterlimit:10;" x1="227.214" y1="66.077" x2="227.214" y2="70.685"/>
				<g>
					
						<polyline style="fill:none;stroke:#000000;stroke-width:0.75;stroke-linecap:round;stroke-linejoin:round;stroke-miterlimit:10;" points="
						223.947,88.746 227.214,91.711 224.249,94.978 					"/>
					
						<polyline style="fill:none;stroke:#000000;stroke-width:0.75;stroke-linecap:round;stroke-linejoin:round;stroke-miterlimit:10;" points="
						188.116,94.978 184.85,91.711 187.815,88.746 					"/>
					
						<line style="fill:none;stroke:#000000;stroke-width:0.75;stroke-linecap:round;stroke-linejoin:round;stroke-miterlimit:10;" x1="184.85" y1="91.711" x2="227.214" y2="91.711"/>
				</g>
				<g>
					
						<polyline style="fill:none;stroke:#000000;stroke-width:0.75;stroke-linecap:round;stroke-linejoin:round;stroke-miterlimit:10;" points="
						149.201,68.162 152.468,71.127 149.503,74.394 					"/>
					
						<polyline style="fill:none;stroke:#000000;stroke-width:0.75;stroke-linecap:round;stroke-linejoin:round;stroke-miterlimit:10;" points="
						133.37,74.394 130.103,71.127 133.068,68.162 					"/>
					
						<line style="fill:none;stroke:#000000;stroke-width:0.75;stroke-linecap:round;stroke-linejoin:round;stroke-miterlimit:10;" x1="130.103" y1="71.127" x2="152.468" y2="71.127"/>
				</g>
				
					<line style="fill:none;stroke:#000000;stroke-width:0.75;stroke-linecap:round;stroke-linejoin:round;stroke-miterlimit:10;stroke-dasharray:2;" x1="150.46" y1="80.742" x2="172.887" y2="80.742"/>
			</g>
		</g>
		<g style="clip-path:url(#SVGID_00000078034468580560182820000015336491541401342099_);">
			<g>
				<path d="M291.998,458.494H237.05c-0.835,0-1.406-0.842-1.098-1.618l15.738-39.579c0.179-0.45,0.614-0.745,1.098-0.745h54.947
					c0.835,0,1.406,0.842,1.098,1.618l-15.738,39.579C292.916,458.199,292.482,458.494,291.998,458.494z"/>
				<path style="fill:#7B11CE;" d="M380.889,429.412H148.722c-5.632,0-9.488-5.683-7.407-10.916L192.8,289.023
					c1.206-3.034,4.142-5.026,7.407-5.026h232.167c5.632,0,9.488,5.683,7.407,10.916l-51.485,129.473
					C387.089,427.42,384.154,429.412,380.889,429.412z"/>
				<path style="fill:#FFFBF8;" d="M384.653,407.064H159.428c-2.638,0-4.443-2.661-3.469-5.112l43.376-109.167
					c0.565-1.421,1.94-2.354,3.469-2.354h225.225c2.638,0,4.443,2.661,3.469,5.112L388.122,404.71
					C387.557,406.131,386.182,407.064,384.653,407.064z"/>
				<path style="fill:#FF5E43;" d="M283.496,387.863h-56.872c-1.486,0-2.503-1.499-1.954-2.88l24.434-61.495
					c0.318-0.801,1.093-1.326,1.954-1.326h56.872c1.486,0,2.503,1.499,1.954,2.88l-24.434,61.495
					C285.132,387.338,284.358,387.863,283.496,387.863z"/>
				<path style="fill:#39D188;" d="M368.498,387.863h-56.872c-1.486,0-2.503-1.499-1.954-2.88l24.434-61.495
					c0.318-0.801,1.093-1.326,1.954-1.326h56.872c1.486,0,2.503,1.499,1.954,2.88l-24.434,61.495
					C370.134,387.338,369.36,387.863,368.498,387.863z"/>
				<path style="fill:#FFFBF8;" d="M380.498,340.929h-43.615c-1.14,0-1.92-1.15-1.499-2.208l3.169-7.884
					c0.244-0.614,0.838-1.017,1.499-1.017h43.615c1.14,0,1.92,1.15,1.499,2.208l-3.169,7.883
					C381.752,340.526,381.159,340.929,380.498,340.929z"/>
				<path style="fill:#FFFBF8;" d="M374.363,356.261h-43.615c-1.139,0-1.92-1.15-1.499-2.208l3.169-7.883
					c0.244-0.614,0.838-1.017,1.499-1.017h43.615c1.139,0,1.92,1.15,1.498,2.209l-3.169,7.883
					C375.618,355.858,375.024,356.261,374.363,356.261z"/>
				<path style="fill:#FFFBF8;" d="M348.202,371.594h-23.615c-1.139,0-1.919-1.15-1.499-2.208l3.169-7.883
					c0.244-0.614,0.838-1.017,1.499-1.017h23.615c1.139,0,1.919,1.15,1.498,2.208l-3.169,7.883
					C349.457,371.191,348.863,371.594,348.202,371.594z"/>
				<path style="fill:#FFFBF8;" d="M296.303,340.375h-43.615c-1.139,0-1.92-1.15-1.499-2.208l3.169-7.884
					c0.244-0.614,0.838-1.017,1.499-1.017h43.615c1.139,0,1.92,1.15,1.498,2.208l-3.169,7.883
					C297.558,339.972,296.964,340.375,296.303,340.375z"/>
				<path style="fill:#FFFBF8;" d="M270.142,355.707h-23.615c-1.14,0-1.92-1.15-1.499-2.208l3.169-7.884
					c0.244-0.614,0.838-1.017,1.499-1.017h23.615c1.139,0,1.919,1.15,1.498,2.208l-3.169,7.883
					C271.397,355.305,270.803,355.707,270.142,355.707z"/>
				<path style="fill:#EF65C1;" d="M309.032,311.603h-65.265c-1.486,0-2.503-1.499-1.954-2.88l2.612-6.492
					c0.318-0.8,1.093-1.326,1.954-1.326h65.265c1.486,0,2.503,1.499,1.954,2.88l-2.612,6.492
					C310.668,311.078,309.894,311.603,309.032,311.603z"/>
				<path style="fill:#39D188;" d="M338.545,311.603H323.28c-1.486,0-2.503-1.499-1.954-2.88l2.612-6.492
					c0.318-0.8,1.093-1.326,1.954-1.326h15.265c1.486,0,2.503,1.499,1.954,2.88l-2.612,6.492
					C340.18,311.078,339.406,311.603,338.545,311.603z"/>
				<path style="fill:#7B11CE;" d="M367.285,311.603H352.02c-1.486,0-2.503-1.499-1.954-2.88l2.612-6.492
					c0.318-0.8,1.093-1.326,1.954-1.326h15.265c1.486,0,2.503,1.499,1.954,2.88l-2.612,6.492
					C368.921,311.078,368.147,311.603,367.285,311.603z"/>
				<path style="fill:#FF5E43;" d="M397.043,311.603h-15.265c-1.486,0-2.503-1.499-1.954-2.88l2.612-6.492
					c0.318-0.8,1.093-1.326,1.954-1.326h15.265c1.486,0,2.503,1.499,1.954,2.88l-2.612,6.492
					C398.679,311.078,397.905,311.603,397.043,311.603z"/>
				<path style="fill:#7B11CE;" d="M307.113,458.494h-82.092c-2.044,0-3.433-2.075-2.655-3.964l1.635-3.971
					c0.443-1.076,1.491-1.778,2.655-1.778h82.092c2.044,0,3.433,2.075,2.655,3.965l-1.635,3.971
					C309.325,457.792,308.276,458.494,307.113,458.494z"/>
			</g>
			<g>
				<g>
					<path style="fill:#94332A;" d="M92.27,261.399l12.749-38.666c-8.462-47.208,11.702-75.491,30.83-74.254l21.794,0.601
						c0,0,24.11,0.616,31.861,30.782c1.676,6.521-1.067,13.924,5.505,21.271c9.077,10.146-6.314,10.514-6.601,15.711
						c-1.496,27.098-13.37,35.969-42.793,19.852l-0.154,43.821C145.461,280.517,104.965,284.605,92.27,261.399z"/>
					<path d="M181.059,185.124c-0.635-0.108-1.566-0.153-2.379-0.169c-0.842-0.015-1.696,0.002-2.549,0.059
						c-1.708,0.105-3.417,0.357-5.104,0.75l-0.047,0.011c-0.981,0.228-1.961-0.382-2.189-1.363
						c-0.191-0.821,0.207-1.642,0.917-2.021c1.722-0.92,3.531-1.703,5.403-2.329c0.935-0.319,1.887-0.594,2.857-0.836
						c1-0.24,1.89-0.45,3.083-0.592l0.169-0.02c1.804-0.215,3.441,1.074,3.656,2.877c0.215,1.804-1.074,3.442-2.878,3.657
						C181.683,185.185,181.358,185.174,181.059,185.124z"/>
					
						<path style="fill:none;stroke:#000000;stroke-width:0.75;stroke-linecap:round;stroke-linejoin:round;stroke-miterlimit:10;" d="
						M183.226,209.592c0,0-0.911,2.175,1.507,3.379"/>
					<g>
						<path d="M169.479,200.601c0.271-2.116,1.072-4.031,2.381-5.78c1.277-1.735,3.253-3.23,5.59-3.765
							c2.333-0.566,4.726-0.118,6.645,0.786c1.956,0.885,3.572,2.176,4.885,3.684c0.344,0.396,0.303,0.996-0.093,1.34
							c-0.285,0.248-0.676,0.296-1.001,0.156l-0.021-0.009c-1.724-0.748-3.362-1.483-4.975-1.895
							c-1.613-0.414-3.139-0.537-4.507-0.18c-1.372,0.333-2.644,1.124-3.845,2.236c-1.178,1.11-2.285,2.547-3.29,3.996l-0.061,0.088
							c-0.297,0.428-0.883,0.533-1.311,0.237C169.578,201.287,169.437,200.938,169.479,200.601z"/>
					</g>
					<path d="M145.615,236.697c0,0-5.901-2.594-11.86-6.998c0,0,3.713,11.351,11.808,21.887L145.615,236.697z"/>
					<path d="M97.952,174.279c2.987,23.251,6.15,42.608,6.15,42.608s9.687,2.061,19.588-4.052c2.619-1.617,2.666-5.387,0.164-7.181
						c-2.082-1.493-3.692-4.534-3.18-10.551c1.252-14.708,12.954-15.625,15.675-11.523l0.125,0.269
						c0.958,2.066,2.149,4.023,3.622,5.759c3.434,4.047,8.877,7.578,8.545-11.268c-0.155-8.809,15.197-17.535,23.948-12.904
						c8.751,4.631,11.886,1.722,11.886,1.722l2.361,4.763c0,0,17.841-28.039,0.391-30.773c0,0-6.834-13.588-17.733-7.858
						c0,0-4.765-9.099-16.476,0.928c0,0-10.575-6.899-16.472,2.413c0,0-12.566-4.327-16.147,5.939c0,0-14.452-2.537-15.168,9.4
						C105.232,151.971,95.253,153.266,97.952,174.279z"/>
					
						<path style="fill:none;stroke:#000000;stroke-width:0.75;stroke-linecap:round;stroke-linejoin:round;stroke-miterlimit:10;" d="
						M133.987,187.088c0,0-4.311-2.966-7.51,2.194c-3.198,5.16-0.745,9.939-0.745,9.939"/>
					
						<path style="fill:none;stroke:#000000;stroke-width:0.75;stroke-linecap:round;stroke-linejoin:round;stroke-miterlimit:10;" d="
						M134.92,193.569c0,0-1.888,0.738-2.978,1.805c-1.091,1.067,1.418,3.092,0.485,4.861"/>
					
						<path style="fill:none;stroke:#000000;stroke-width:0.75;stroke-linecap:round;stroke-linejoin:round;stroke-miterlimit:10;" d="
						M184.314,223.391c0,0-8.897-0.691-11.6-7.05"/>
				</g>
				<g>
					<path style="fill:#EF65C1;" d="M208.534,243.238l-25.793,29.002c-1.48,1.664-4.03,1.814-5.694,0.333l-50.324-44.757
						c-1.664-1.48-1.814-4.029-0.333-5.694l25.793-29.002c1.48-1.664,4.029-1.814,5.694-0.333l50.324,44.757
						C209.865,239.024,210.014,241.573,208.534,243.238z"/>
					<g>
						<path style="fill:#94332A;" d="M181.751,287.552c0,0-8.514-11.763-13.326-17.723c-4.811-5.96-8.882-10.495-14.852-13.603
							c-5.969-3.108-1.766-19.479,14.198-3.079c0,0-1.244-21.002,3.655-24.464c4.899-3.463,9.984,1.54,10.587,4.396
							c0,0,5.778-5.227,9.771,0.376c0,0,5.428-0.998,9.459,6.124c0,0,4.869-0.568,5.409,8.955c0.541,9.523,2.671,21.16-0.564,29.771
							C202.854,286.915,189.408,299.442,181.751,287.552z"/>
						
							<path style="fill:none;stroke:#000000;stroke-width:0.75;stroke-linecap:round;stroke-linejoin:round;stroke-miterlimit:10;" d="
							M182.014,233.079c0,0,0.61,12.212-0.666,20.399"/>
						
							<path style="fill:none;stroke:#000000;stroke-width:0.75;stroke-linecap:round;stroke-linejoin:round;stroke-miterlimit:10;" d="
							M191.785,233.455c0,0,2.641,8.655,1.808,17.923"/>
						
							<path style="fill:none;stroke:#000000;stroke-width:0.75;stroke-linecap:round;stroke-linejoin:round;stroke-miterlimit:10;" d="
							M201.243,239.579c0,0,1.702,6.718,1.354,13.124"/>
						
							<path style="fill:none;stroke:#000000;stroke-width:0.75;stroke-linecap:round;stroke-linejoin:round;stroke-miterlimit:10;" d="
							M158.693,259.558c0,0,5.885,4.846,13.782,15.473"/>
					</g>
					
						<line style="fill:none;stroke:#000000;stroke-width:0.75;stroke-linecap:round;stroke-linejoin:round;stroke-miterlimit:10;" x1="165.101" y1="199.212" x2="206.107" y2="235.682"/>
					
						<line style="fill:none;stroke:#000000;stroke-width:0.75;stroke-linecap:round;stroke-linejoin:round;stroke-miterlimit:10;" x1="196.102" y1="220.243" x2="198.066" y2="213.442"/>
					
						<line style="fill:none;stroke:#000000;stroke-width:0.75;stroke-linecap:round;stroke-linejoin:round;stroke-miterlimit:10;" x1="201.944" y1="222.359" x2="211.819" y2="207.699"/>
					
						<line style="fill:none;stroke:#000000;stroke-width:0.75;stroke-linecap:round;stroke-linejoin:round;stroke-miterlimit:10;" x1="206.882" y1="226.137" x2="215.598" y2="219.639"/>
				</g>
				<g>
					<path style="fill:#FFCA36;" d="M85.675,262.987c0,0-22.565,1.669-40.926,55.084S27.223,476.645,65.615,476.645
						c38.392,0,128.559,0,128.559,0l4.173-20.865c0,0,60.741,3.84,51.561-68.77c-9.181-72.61-35.703-118.181-35.703-118.181
						l-26.731,14.86c0,0-19.846-11.038-36.378-15.018c0,0,4.898-11.327-4.286-13.776c-9.184-2.449-44.085-10.409-48.371-10.409
						C94.152,244.487,90.975,244.138,85.675,262.987z"/>
					<g>
						<defs>
							<path id="SVGID_00000023270631926891042260000009314830775433726105_" d="M85.675,262.987c0,0-22.565,1.669-40.926,55.084
								S27.223,476.645,65.615,476.645c38.392,0,128.559,0,128.559,0l4.173-20.865c0,0,60.741,3.84,51.561-68.77
								c-9.181-72.61-35.703-118.181-35.703-118.181l-26.731,14.86c0,0-19.846-11.038-36.378-15.018c0,0,4.898-11.327-4.286-13.776
								c-9.184-2.449-44.085-10.409-48.371-10.409C94.152,244.487,90.975,244.138,85.675,262.987z"/>
						</defs>
						<clipPath id="SVGID_00000033346759653599495040000005609123479164589239_">
							<use xlink:href="#SVGID_00000023270631926891042260000009314830775433726105_"  style="overflow:visible;"/>
						</clipPath>
						<g style="clip-path:url(#SVGID_00000033346759653599495040000005609123479164589239_);">
							
								<path style="fill:none;stroke:#FF5E43;stroke-width:0.75;stroke-linecap:round;stroke-linejoin:round;stroke-miterlimit:10;" d="
								M63.888,262.275c0,0-15.745,69.903,27.412,100.903s-29.844,64.586-69.354,63.293"/>
							
								<path style="fill:none;stroke:#FF5E43;stroke-width:0.75;stroke-linecap:round;stroke-linejoin:round;stroke-miterlimit:10;" d="
								M41.829,298.746c0,0,8.078,42.188,33,61.82c24.922,19.632-3.647,42.122-52.883,42.122"/>
							
								<path style="fill:none;stroke:#FF5E43;stroke-width:0.75;stroke-linecap:round;stroke-linejoin:round;stroke-miterlimit:10;" d="
								M33.572,341.673c0,0,35.944,35.416-3.236,35.076"/>
							
								<path style="fill:none;stroke:#FF5E43;stroke-width:0.75;stroke-linecap:round;stroke-linejoin:round;stroke-miterlimit:10;" d="
								M64.005,250c0,0,2.832,72.391,36.241,82.413c33.409,10.023,106.835-39.797,165.429,33.446"/>
							
								<path style="fill:none;stroke:#FF5E43;stroke-width:0.75;stroke-linecap:round;stroke-linejoin:round;stroke-miterlimit:10;" d="
								M87.699,238.189c0,0-9.259,78.744,24.443,69.74c33.701-9.004,99.979-11.302,144.805,23.957"/>
							
								<path style="fill:none;stroke:#FF5E43;stroke-width:0.75;stroke-linecap:round;stroke-linejoin:round;stroke-miterlimit:10;" d="
								M110.29,232.634c0,0-19.628,62.959,11.851,52.404c31.479-10.555,83.876-4.709,117.859,13.708"/>
							
								<path style="fill:none;stroke:#FF5E43;stroke-width:0.75;stroke-linecap:round;stroke-linejoin:round;stroke-miterlimit:10;" d="
								M133.622,242.633c0,0-33.701,39.817,26.294,23.056"/>
							
								<path style="fill:none;stroke:#FF5E43;stroke-width:0.75;stroke-linecap:round;stroke-linejoin:round;stroke-miterlimit:10;" d="
								M272.499,402.064c0,0-47.014-72.612-123.085-45.326c-76.071,27.286,82.51,42.997-119.078,93.435"/>
							
								<path style="fill:none;stroke:#FF5E43;stroke-width:0.75;stroke-linecap:round;stroke-linejoin:round;stroke-miterlimit:10;" d="
								M265.675,424.412c0,0-34.898-50.114-83.236-47.661c-48.339,2.453,6.459,36.56-74.866,68.333
								c-81.325,31.773-80.199,25.571-80.199,25.571"/>
							
								<path style="fill:none;stroke:#FF5E43;stroke-width:0.75;stroke-linecap:round;stroke-linejoin:round;stroke-miterlimit:10;" d="
								M252.998,438.356c0,0-37.493-39.463-58.481-35.668c-33.639,6.082,13.973,49.124-125.759,79.658"/>
							
								<path style="fill:none;stroke:#FF5E43;stroke-width:0.75;stroke-linecap:round;stroke-linejoin:round;stroke-miterlimit:10;" d="
								M240,458.174c0,0-19.33-30.029-34.573-29.567c-15.243,0.462-14.338,36.085-79.006,53.739"/>
							
								<path style="fill:none;stroke:#FF5E43;stroke-width:0.75;stroke-linecap:round;stroke-linejoin:round;stroke-miterlimit:10;" d="
								M201.641,463.226c0,0-8.755,9.037-24.006,17.228"/>
						</g>
					</g>
					
						<path style="fill:none;stroke:#000000;stroke-width:0.75;stroke-linecap:round;stroke-linejoin:round;stroke-miterlimit:10;" d="
						M147.956,340.374c0,0,13.3,134.941,68.153,112.848"/>
					
						<path style="fill:none;stroke:#000000;stroke-width:0.75;stroke-linecap:round;stroke-linejoin:round;stroke-miterlimit:10;" d="
						M187.473,283.69c0,0,23.628,21.363,38.187,103.32"/>
					
						<path style="fill:none;stroke:#000000;stroke-width:0.75;stroke-linecap:round;stroke-linejoin:round;stroke-miterlimit:10;" d="
						M151.095,268.672c0,0-31.389-6.152-65.42-5.685"/>
				</g>
			</g>
		</g>
	</g>
</g>
</svg>
