<?xml version="1.0" encoding="utf-8"?>
<!-- Generator: Adobe Illustrator 27.5.0, SVG Export Plug-In . SVG Version: 6.00 Build 0)  -->
<svg version="1.1" xmlns="http://www.w3.org/2000/svg" xmlns:xlink="http://www.w3.org/1999/xlink" x="0px" y="0px"
	 viewBox="0 0 500 500" style="enable-background:new 0 0 500 500;" xml:space="preserve">
<g id="Background_Complete">
	<g>
		<g>
			<g>
				<g>
					<g>
						<path style="fill:#F5F5F5;" d="M111.866,198.587l-59.439-8.722c-2.952-0.433-4.994-3.177-4.561-6.13l8.722-59.439
							c0.433-2.952,3.177-4.994,6.13-4.561l59.439,8.722c2.952,0.433,4.994,3.177,4.561,6.13l-8.722,59.439
							C117.562,196.978,114.818,199.02,111.866,198.587z"/>
					</g>
				</g>
			</g>
		</g>
		<path style="fill:#FFFFFF;" d="M90.695,135.967c-11.92-1.749-23.107,7.217-24.987,20.027c-1.88,12.81,6.26,24.612,18.18,26.361
			s23.107-7.217,24.987-20.027C110.755,149.519,102.615,137.716,90.695,135.967z M91.036,174.297
			c-1.854,2.647-4.486,2.909-6.278,2.646c-2.025-0.297-5.483-2.518-5.91-6.378c-0.405-3.664-0.05-7.839,0.692-12.894
			c0.761-5.186,2.147-10.638,3.94-13.846c1.793-3.208,4.643-4.077,6.618-3.788c1.882,0.276,4.892,1.661,5.756,6.516
			c0.656,3.686,0.236,8-0.56,13.43C94.462,165.649,93.27,171.107,91.036,174.297z"/>
	</g>
	<g>
		<g>
			<g>
				<g>
					<path style="fill:#F5F5F5;" d="M414.042,96.051c-0.66-1.491-0.809-3.141-1.246-4.706c-0.234-0.841-0.628-1.736-1.416-2.108
						c-0.522-0.245-1.139-0.213-1.693-0.383c-1.991-0.596-2.534-3.375-4.419-4.238c-0.596-0.266-1.257-0.319-1.895-0.394
						c-2.523-0.298-5.132-1.171-6.719-3.152c-0.522-0.639-0.916-1.395-1.555-1.917c-0.65-0.522-1.65-0.745-2.279-0.213
						c0.532,1.065,1.054,2.13,1.576,3.184c0.479,0.958,0.969,1.949,1.767,2.651c0.809,0.713,2.002,1.086,2.971,0.639
						c0.32-0.149,0.639-0.394,1.001-0.351c0.255,0.032,0.479,0.213,0.65,0.415c1.373,1.522,0.926,4.046-0.415,5.601
						c-1.331,1.544-3.312,2.353-5.217,3.109c-0.681,0.266-1.405,0.543-2.129,0.415c-1.32-0.245-2.023-1.682-2.406-2.971
						c-0.862-2.854-1.278-5.952-3.045-8.359c-0.564-0.756-1.267-1.448-1.608-2.332c-0.362-0.958-0.277-2.076-0.852-2.918
						c-0.596-0.884-1.863-1.395-1.948-2.46c-0.053-0.745,0.564-1.406,1.246-1.725c0.681-0.33,1.448-0.426,2.151-0.713
						c0.277-0.117,0.586-0.32,0.596-0.618c0-0.447-0.618-0.628-0.777-1.044c-0.17-0.469,0.309-0.905,0.511-1.363
						c0.437-1.044-0.65-2.098-1.704-2.523c-1.043-0.426-2.311-0.735-2.8-1.757c-0.224-0.468-0.245-1.011-0.341-1.522
						c-0.245-1.288-1.193-2.534-2.492-2.747c-1.31-0.213-2.758,0.948-2.545,2.247c0.128,0.713,0.66,1.267,0.948,1.927
						c0.298,0.66,0.213,1.64-0.468,1.853c-1.118,0.341-2.194-1.704-3.13-1.001c0.383,1.31,0.756,2.619,1.139,3.94
						c-1.469,0.745-3.226-0.607-3.855-2.14c-0.628-1.523-0.65-3.269-1.395-4.739c-0.745-1.48-2.758-2.576-4.036-1.533
						c-0.064,1.895,2.439,2.662,3.546,4.195c0.799,1.107,0.681,2.907-0.501,3.609c-1.171,0.703-3.034-0.522-2.587-1.81
						c0.16-0.447,0.532-0.82,0.575-1.299c0.043-0.596-0.458-1.076-0.916-1.459c-0.714-0.607-1.427-1.203-2.14-1.8
						c-0.458-0.383-0.948-0.788-1.523-0.958c-1.469-0.426-2.939,0.767-3.716,2.076c-0.777,1.32-1.214,2.864-2.289,3.961
						c-1.544,1.597-4.472,1.693-5.92,0.021c-1.459-1.672-0.714-4.802,1.427-5.409c0.809-0.224,1.832-0.202,2.258-0.916
						c0.745-1.267-1.384-2.886-0.65-4.163c0.564-0.979,2.055-0.532,3.141-0.862c1.075-0.33,1.682-1.416,2.321-2.353
						c0.628-0.926,1.619-1.863,2.726-1.619c-0.085-0.649-0.17-1.352,0.117-1.938c0.287-0.596,1.097-0.98,1.629-0.596
						c-0.543,0.894,0.107,2.14,1.054,2.587c0.948,0.447,2.055,0.341,3.098,0.224c1.044-0.128,2.353-0.511,2.438-1.555
						c0.032-0.341-0.096-0.703,0.032-1.022c0.458-1.246,2.758,0.469,3.641-0.532c0.511-0.522-0.053-1.448-0.767-1.618
						c-0.703-0.181-1.437,0.085-2.161,0.106c-0.724,0.032-1.608-0.351-1.64-1.075c-0.032-0.713,0.767-1.225,0.852-1.927
						c0.138-1.193-1.885-1.501-2.598-0.532c-0.703,0.969-0.458,2.3-0.245,3.482c0.224,1.182,0.33,2.577-0.543,3.407
						c-0.373,0.564-1.341,0.266-1.661-0.33c-0.33-0.596-0.255-1.321-0.309-1.991c-0.053-0.682-0.351-1.448-1.011-1.629
						c-0.458-0.128-0.948,0.096-1.416,0.16c-1.853,0.224-3.141-2.172-2.556-3.939c0.575-1.778,2.257-2.918,3.887-3.823
						c1.192-0.66,2.672-1.278,3.854-0.607c0.554,0.309,0.937,0.841,1.48,1.161c0.937,0.554,2.098,0.351,3.173,0.373
						c1.693,0.042,3.365,0.692,4.632,1.8c0.479,0.436,0.926,1.161,0.554,1.682c-0.405,0.554-1.565,0.671-1.363,1.32
						c1.256,0.415,2.758-0.554,2.896-1.863c0.617,0.277,1.065,0.905,1.118,1.576c1.352-1.374,3.951-1.171,5.058,0.415
						c0.298,0.415,0.511,0.916,0.937,1.203c0.426,0.277,1.171,0.138,1.224-0.362c0.021-0.16-0.032-0.319-0.085-0.469
						c-0.256-0.724-0.522-1.437-0.777-2.151c0.99-0.532,2.161,0.298,2.832,1.193c2.492,3.333,4.27,1.331,7.784,1.874
						c2.374,0.362,3.418,1.885,4.76,3.727c4.11,5.665,9.541,10.307,13.278,16.227c0.394,0.618,0.756,1.246,1.096,1.884
						c-0.064-0.16-0.117-0.319-0.181-0.479c-1.469-3.865-3.29-7.56-5.43-11.042c-0.458-0.745-0.926-1.48-1.406-2.204
						c-0.298-0.447-0.607-0.905-0.916-1.342c-0.394-0.575-0.809-1.129-1.225-1.682c-0.33-0.447-0.66-0.884-1.001-1.31
						c-0.234-0.298-0.479-0.596-0.724-0.894c-0.256-0.341-0.533-0.671-0.831-1.001l-0.894-1.033
						c-0.085-0.106-0.181-0.213-0.288-0.319c-0.309-0.362-0.639-0.713-0.969-1.065c-0.021-0.042-0.053-0.074-0.096-0.106
						c-0.085-0.096-0.181-0.192-0.277-0.287c-0.266-0.298-0.554-0.586-0.83-0.873c-0.458-0.469-0.926-0.937-1.406-1.384
						c-0.394-0.394-0.799-0.767-1.214-1.139c-0.362-0.33-0.724-0.66-1.097-0.98c-0.362-0.319-0.724-0.628-1.097-0.937
						c-0.447-0.383-0.905-0.756-1.374-1.129h-0.011c-1.288-1.033-2.619-2.012-3.982-2.928c-0.341-0.234-0.671-0.458-1.012-0.681
						c-0.341-0.234-0.692-0.447-1.033-0.66c-0.351-0.213-0.692-0.436-1.044-0.639c-0.351-0.224-0.703-0.426-1.054-0.628
						c-0.288-0.17-0.564-0.33-0.852-0.479c-0.149-0.096-0.287-0.17-0.437-0.245c-0.607-0.341-1.225-0.671-1.842-0.979
						c-0.309-0.16-0.618-0.319-0.937-0.469c-0.394-0.202-0.799-0.394-1.203-0.575c-0.053-0.032-0.117-0.064-0.181-0.085
						c-0.362-0.17-0.724-0.341-1.097-0.5c-0.522-0.224-1.043-0.447-1.565-0.66c-0.596-0.245-1.193-0.49-1.799-0.713
						c-0.671-0.255-1.342-0.5-2.023-0.724c-0.682-0.234-1.374-0.458-2.066-0.671c-0.692-0.213-1.384-0.405-2.087-0.596
						c-1.384-0.373-2.79-0.703-4.206-0.99c-0.021-0.011-0.053-0.011-0.074-0.021c-0.543-0.106-1.086-0.213-1.629-0.298
						c-0.043-0.011-0.075-0.021-0.107-0.021c-0.234-0.043-0.479-0.085-0.724-0.117c-1.012-0.17-2.034-0.309-3.067-0.426
						c-0.117-0.021-0.245-0.032-0.373-0.042c-0.298-0.043-0.596-0.064-0.905-0.096c-0.681-0.064-1.363-0.117-2.055-0.16
						c-0.713-0.053-1.437-0.085-2.161-0.106c-0.756-0.032-1.512-0.043-2.268-0.043c-2.002,0-3.982,0.085-5.942,0.266
						c-0.469,0.032-0.926,0.075-1.384,0.128c-0.479,0.053-0.958,0.106-1.437,0.17c-0.479,0.064-0.958,0.128-1.427,0.202
						c-0.479,0.074-0.948,0.149-1.427,0.234c-0.405,0.064-0.82,0.138-1.224,0.224c-1.001,0.192-1.991,0.405-2.971,0.639
						c-0.458,0.106-0.916,0.224-1.374,0.351c-0.458,0.117-0.916,0.245-1.363,0.373c-0.756,0.213-1.491,0.447-2.225,0.681h-0.011
						c-0.596,0.202-1.203,0.405-1.789,0.607c-0.011,0-0.032,0.01-0.043,0.021c-0.607,0.213-1.193,0.437-1.789,0.671
						c-0.032,0.011-0.064,0.021-0.096,0.032c-0.543,0.213-1.086,0.437-1.618,0.66c-0.671,0.277-1.331,0.575-1.981,0.873
						c-0.553,0.256-1.097,0.511-1.629,0.777c-0.575,0.287-1.15,0.575-1.714,0.873c-0.021,0.011-0.043,0.021-0.064,0.032
						c-0.543,0.287-1.086,0.586-1.618,0.894c-0.554,0.309-1.097,0.628-1.64,0.969h-0.011c-0.511,0.309-1.012,0.617-1.512,0.937
						c-0.192,0.117-0.373,0.245-0.564,0.373c-0.533,0.341-1.044,0.692-1.565,1.054c-0.639,0.437-1.257,0.894-1.874,1.352
						c-0.543,0.405-1.076,0.82-1.597,1.235c-3.013,2.406-5.824,5.058-8.369,7.933c-0.905,1.001-1.757,2.023-2.587,3.067
						c-0.703,0.894-1.384,1.8-2.034,2.737c-0.585,0.814-1.15,1.645-1.694,2.489c0.544-0.844,1.109-1.674,1.694-2.489
						c0.171-0.021,0.341-0.043,0.511-0.053c0.958-0.074,1.97-0.042,2.832-0.458c0.799-0.394,1.363-1.108,2.087-1.618
						c1.853-1.32,4.887-1.565,5.388-3.78c0.17-0.745-0.032-1.555,0.245-2.268c0.522-1.331,2.3-1.523,3.727-1.501
						c0.607,0,1.32,0.085,1.597,0.617c0.202,0.373,0.085,0.841-0.064,1.235c-0.873,2.491-2.641,4.643-4.887,6.005
						c-1.853,1.129-4.27,2.002-4.781,4.11c0.256,0.714,1.555,0.66,1.661,1.406c0.075,0.596-0.692,0.905-0.969,1.438
						c-0.405,0.777,0.522,1.725,1.406,1.682c0.884-0.042,1.618-0.681,2.268-1.278c1.938-1.799,3.972-3.737,4.674-6.293
						c0.298-1.054,0.405-2.289,1.256-2.992c1.012-0.83,2.822-0.255,3.162,1.012c0.841-0.468,2.151-0.82,2.588,0.053
						c0.149,0.309,0.106,0.671,0.181,1.001c0.277,1.363,2.14,1.98,2.332,3.354c0.224,1.587-1.81,2.406-3.397,2.651
						c-1.438,0.223-2.875,0.447-4.313,0.681c-0.628,0.096-1.278,0.202-1.789,0.575c-0.511,0.383-0.83,1.107-0.532,1.672
						c0.171,0.309,0.501,0.511,0.745,0.767c1.193,1.192,0.213,3.652-1.469,3.706c-0.575,0.021-1.14-0.192-1.714-0.213
						c-1.704-0.075-3.056,1.427-3.865,2.928c-0.809,1.501-1.416,3.216-2.779,4.238c-2.194,1.65-5.974,1.267-7.038,3.801
						c-0.426,1.022-0.202,2.172-0.032,3.269c0.171,1.086,0.245,2.3-0.394,3.205c-0.628,0.894-2.268,1.086-2.736,0.085
						c-0.202-0.437-0.138-0.948-0.064-1.416c0.255-1.576,0.5-3.152,0.745-4.727c0.181-1.172,0.341-2.481-0.351-3.44
						c-0.969-1.342-3.141-1.214-4.398-0.138c-1.246,1.076-1.767,2.758-2.119,4.366c-0.256,1.193-0.554,2.875-1.214,4.238
						c0,0,0,0,0,0c-0.224,1.32-0.405,2.662-0.543,4.014c-0.138,1.384-0.234,2.758-0.287,4.163c0.17-0.139,0.351-0.309,0.543-0.511
						c0.671-0.692,2.023-3.62,3.237-2.183c0.309,0.362,0.319,0.948,0.021,1.331c-0.373,0.479-1.118,0.586-1.405,1.107
						c-0.351,0.618,0.138,1.384,0.713,1.789c0.575,0.415,1.278,0.671,1.682,1.257c0.777,1.118,0.032,2.811,0.788,3.95
						c0.649,0.98,2.034,1.043,3.216,1.171c0.138,0.021,0.266,0.043,0.405,0.064c0.33-2.342,1.427-4.249,4.621-4.973
						c4.408-1.001,10.201,2.651,12.681,5.974c2.768,3.716,4.078,8.976,8.316,10.84c3.035,1.331,7.347,0.852,8.827,3.823
						c1.32,2.662-0.979,5.654-1.331,8.604c-0.224,1.949,0.415,3.886,0.564,5.835c0.139,1.959-0.437,4.238-2.215,5.058
						c-0.99,0.447-2.236,0.394-3.035,1.139c-1.416,1.342-0.255,4.11-1.672,5.452c-0.5,0.469-1.193,0.639-1.8,0.948
						c-3.184,1.608-3.098,6.293-1.618,9.54c0.053,0.117,0.107,0.224,0.16,0.341c4.706,2.822,9.775,5.079,15.131,6.676
						c6.133,1.863,12.639,2.854,19.379,2.854c11.404,0,22.158-2.843,31.571-7.858h0.011c2.045-1.097,4.036-2.289,5.952-3.588
						c2.971-1.991,5.76-4.216,8.358-6.644c1.799-1.682,3.514-3.461,5.111-5.335c1.129-1.299,2.194-2.651,3.216-4.036
						c0.522-0.713,1.033-1.427,1.512-2.161c1.469-2.151,2.811-4.397,4.014-6.719c1.746-3.343,3.205-6.857,4.355-10.499
						c1.182-3.674,2.044-7.486,2.566-11.404c0.202-1.512,0.362-3.045,0.468-4.589c-0.735,0.713-1.693,1.224-2.704,1.203
						C416.023,98.895,414.692,97.542,414.042,96.051z"/>
				</g>
				<g>
					<path style="fill:#EBEBEB;" d="M337.145,43.606c-1.333,0.797-2.042,2.301-3.07,3.465c-1.028,1.164-2.873,1.994-4.087,1.025
						c-0.584-0.466-0.847-1.236-0.913-1.98c-0.095-1.069,0.163-2.167,0.724-3.083c0.58-0.944,1.464-1.688,1.955-2.681
						c0.491-0.994,0.39-2.448-0.615-2.914c-0.544-0.252-1.228-0.153-1.711-0.509c-0.867-0.639-0.246-2.149,0.761-2.531
						c1.008-0.381,2.126-0.086,3.201-0.017c3.9,0.249,6.768-2.305,9.7-4.426c2.28-1.65,7.137-3.598,9.776-1.913
						c1.053,0.672,1.465,2.401,0.472,3.161c-0.444,0.34-1.056,0.416-1.469,0.792c-0.496,0.451-0.566,1.193-0.85,1.801
						c-0.738,1.578-2.867,2.152-3.552,3.754c-0.413,0.965-0.227,2.164-0.862,2.999c-0.504,0.661-1.379,0.895-2.188,1.087
						c-1.695,0.403-3.391,0.806-5.086,1.209C338.577,43.024,337.81,43.209,337.145,43.606z"/>
				</g>
				<g>
					<path style="fill:#EBEBEB;" d="M382.612,126.426c-1.687,2.542-1.993,5.72-2.462,8.735c-0.468,3.015-1.272,6.22-3.59,8.205
						c-2.317,1.986-6.572,1.868-7.848-0.904c-0.692-1.505-0.337-3.279-0.715-4.893c-0.492-2.101-2.164-3.722-2.958-5.729
						c-0.677-1.712-0.679-3.603-0.734-5.443c-0.302-10.055-2.754-20.549-9.599-27.919c-0.841-0.905-1.796-1.787-2.99-2.105
						c-1.42-0.377-3.042,0.183-3.928,1.355c-0.549,0.728-0.833,1.656-1.506,2.271c-1.463,1.336-4.017,0.379-4.994-1.345
						c-0.977-1.723-0.842-3.835-0.678-5.809c0.202-2.448,0.405-4.896,0.608-7.344c0.106-1.28,0.25-2.655,1.09-3.627
						c1.195-1.382,3.338-1.447,4.8-2.542c1.917-1.436,2.172-4.175,3.381-6.243c1.209-2.068,4.992-2.942,5.552-0.613
						c4.002-8.565,12.845,4.16,18.104,3.203c1.527-0.278,3.019-1.011,4.556-0.796c2.715,0.38,4.116,3.371,5.04,5.951
						c1.533,4.284,3.066,8.567,4.599,12.851c0.584,1.632,1.338,3.446,2.954,4.072c1.239,0.48,2.677,0.114,3.926,0.568
						c3.3,1.201,2.227,6.394-0.428,8.692c-2.655,2.297-6.383,3.747-7.645,7.024c-0.951,2.469-0.192,5.361-1.216,7.801
						C385.199,123.588,383.659,124.849,382.612,126.426z"/>
				</g>
				<g>
					<path style="fill:#EBEBEB;" d="M395.139,129.218c-1.085,0.152-2.364-0.383-3.189,0.338c-0.481,0.421-0.587,1.111-0.778,1.721
						c-0.265,0.846-0.773,1.647-1.536,2.099c-0.763,0.452-1.801,0.49-2.508-0.046c-0.707-0.535-0.923-1.677-0.345-2.349
						c0.263-0.306,0.643-0.488,0.936-0.765c1.439-1.36,0.454-3.883,1.548-5.5c0.645-0.953,1.661-1.921,2.37-2.887
						c0.545-0.743,0.745-1.332,1.747-1.529C397.771,119.436,399.753,128.572,395.139,129.218z"/>
				</g>
				<g style="opacity:0.6;">
					<path style="fill:#263238;" d="M315.758,149.154c0.566,0.382,1.138,0.755,1.718,1.117c0.405,0.256,0.809,0.5,1.224,0.745
						c-0.415-0.245-0.82-0.49-1.224-0.745C316.896,149.908,316.324,149.536,315.758,149.154z"/>
				</g>
				<g style="opacity:0.6;">
					<path style="fill:#263238;" d="M286.002,90.472v-0.011l0,0l0,0V90.472c-0.011,0.128-0.021,0.245-0.021,0.373
						c-0.016,0.399-0.015,0.808-0.021,1.214c0.007-0.406,0.005-0.815,0.021-1.214C285.98,90.717,285.991,90.6,286.002,90.472z"/>
				</g>
				<g>
					<g>
						<path style="fill:#EBEBEB;" d="M294.722,110.959c-0.213-1.927,0.426-3.855,0.458-5.803c0.021-1.342-0.074-2.758-0.096-4.11
							c-1.15-0.053-2.3-0.213-3.418-0.479c-0.234-0.053-0.49-0.128-0.628-0.32c-0.149-0.202-0.128-0.468-0.139-0.713
							c-0.085-1.512-1.544-2.513-2.854-3.269c-0.671-0.394-1.352-0.777-2.076-1.022c0,0.16,0,0.309,0.011,0.469
							c0.266,7.485,1.757,14.673,4.28,21.349c1.15,3.045,2.524,5.995,4.11,8.816c0.66,1.224,1.384,2.428,2.14,3.609
							c0.937,1.459,1.917,2.886,2.971,4.259c0.98,1.32,2.023,2.609,3.12,3.844c1.501,1.714,3.088,3.343,4.76,4.898
							c1.48,1.384,3.024,2.694,4.632,3.94c-3.674-9.86-7.134-19.922-13.416-28.313C296.926,115.92,295.031,113.684,294.722,110.959z
							"/>
					</g>
					<g>
						<path style="fill:#EBEBEB;" d="M295.201,98.437c-0.138-0.021-0.266-0.043-0.405-0.064c-1.182-0.128-2.566-0.192-3.216-1.171
							c-0.756-1.139-0.011-2.832-0.788-3.95c-0.405-0.586-1.108-0.841-1.682-1.257c-0.575-0.405-1.065-1.171-0.713-1.789
							c0.287-0.522,1.033-0.628,1.405-1.107c0.298-0.383,0.287-0.969-0.021-1.331c-1.214-1.437-2.566,1.491-3.237,2.183
							c-0.192,0.202-0.373,0.372-0.543,0.511v0.011c-0.011,0.128-0.021,0.245-0.021,0.373c-0.016,0.399-0.015,0.808-0.021,1.214
							c-0.007,0.406-0.021,0.809-0.021,1.214c0,0.33-0.005,0.313,0,0.642c0.005,0.329,0.021,1.003,0.032,1.328
							c0.724,0.245,1.405,0.628,2.076,1.022c1.31,0.756,2.768,1.757,2.854,3.269c0.011,0.245-0.011,0.511,0.139,0.713
							c0.138,0.192,0.394,0.266,0.628,0.32c1.118,0.266,2.268,0.426,3.418,0.479"/>
					</g>
					<g>
						<path style="fill:#EBEBEB;" d="M295.084,101.045c0.021,1.352,0.117,2.768,0.096,4.11c-0.032,1.949-0.671,3.876-0.458,5.803
							c0.309,2.726,2.204,4.962,3.855,7.155c6.282,8.39,9.743,18.453,13.416,28.313h0.011c0.681,0.543,1.374,1.054,2.076,1.555
							c0.554,0.399,1.113,0.791,1.678,1.173c0.566,0.382,1.138,0.755,1.718,1.117c0.405,0.256,0.809,0.501,1.224,0.745
							c-0.053-0.117-0.107-0.224-0.16-0.341c-1.48-3.248-1.565-7.933,1.618-9.54c0.607-0.309,1.299-0.479,1.8-0.948
							c1.416-1.342,0.256-4.11,1.672-5.452c0.799-0.745,2.045-0.692,3.035-1.139c1.778-0.82,2.353-3.098,2.215-5.058
							c-0.149-1.948-0.788-3.886-0.564-5.835c0.352-2.95,2.651-5.941,1.331-8.604c-1.48-2.971-5.792-2.492-8.827-3.823
							c-4.238-1.863-5.548-7.123-8.316-10.84c-2.481-3.322-8.273-6.974-12.681-5.974c-3.194,0.724-4.291,2.63-4.621,4.973"/>
					</g>
					<g>
						<path style="fill:#EBEBEB;" d="M290.165,73.68c1.257-1.075,3.429-1.203,4.398,0.138c0.692,0.959,0.532,2.268,0.351,3.44
							c-0.245,1.576-0.49,3.152-0.745,4.727c-0.075,0.469-0.139,0.98,0.064,1.416c0.468,1.001,2.108,0.809,2.736-0.085
							c0.639-0.905,0.565-2.119,0.394-3.205c-0.17-1.097-0.394-2.247,0.032-3.269c1.065-2.534,4.845-2.151,7.038-3.801
							c1.363-1.022,1.97-2.736,2.779-4.238c0.809-1.501,2.162-3.003,3.865-2.928c0.575,0.021,1.139,0.234,1.714,0.213
							c1.682-0.053,2.662-2.513,1.469-3.706c-0.245-0.256-0.575-0.458-0.745-0.767c-0.298-0.564,0.021-1.288,0.532-1.672
							c0.511-0.373,1.161-0.479,1.789-0.575c1.438-0.234,2.875-0.458,4.313-0.681c1.587-0.245,3.62-1.065,3.397-2.651
							c-0.192-1.374-2.055-1.991-2.332-3.354c-0.074-0.33-0.032-0.692-0.181-1.001c-0.437-0.873-1.746-0.522-2.588-0.053
							c-0.341-1.267-2.151-1.842-3.162-1.012c-0.852,0.703-0.958,1.938-1.256,2.992c-0.703,2.555-2.737,4.493-4.674,6.293
							c-0.649,0.596-1.384,1.235-2.268,1.278c-0.884,0.043-1.81-0.905-1.406-1.682c0.277-0.532,1.043-0.841,0.969-1.438
							c-0.106-0.745-1.405-0.692-1.661-1.406c0.511-2.108,2.928-2.981,4.781-4.11c2.247-1.363,4.014-3.514,4.887-6.005
							c0.149-0.394,0.266-0.863,0.064-1.235c-0.277-0.532-0.99-0.617-1.597-0.617c-1.427-0.021-3.205,0.17-3.727,1.501
							c-0.277,0.713-0.074,1.523-0.245,2.268c-0.5,2.215-3.535,2.46-5.388,3.78c-0.724,0.511-1.288,1.224-2.087,1.618
							c-0.862,0.415-1.874,0.383-2.832,0.458c-0.17,0.011-0.341,0.032-0.511,0.053c-0.585,0.814-1.15,1.645-1.694,2.489
							c-0.544,0.844-1.069,1.701-1.574,2.569c-2.385,4.078-4.344,8.433-5.835,13.012c-0.522,1.592-0.982,3.21-1.382,4.853
							c-0.399,1.643-0.737,3.309-1.014,4.997c0.66-1.363,0.958-3.045,1.214-4.238C288.397,76.438,288.919,74.756,290.165,73.68z"/>
					</g>
					<g>
						<path style="fill:#EBEBEB;" d="M420.346,97.702c0,0-1.693,1.235-2.704,1.214c-1.618-0.021-2.95-1.374-3.599-2.864
							c-0.66-1.491-0.809-3.141-1.246-4.706c-0.234-0.841-0.628-1.736-1.416-2.108c-0.522-0.245-1.139-0.213-1.693-0.383
							c-1.991-0.596-2.534-3.375-4.419-4.238c-0.596-0.266-1.257-0.319-1.895-0.394c-2.523-0.298-5.132-1.171-6.719-3.152
							c-0.522-0.639-0.916-1.395-1.555-1.917c-0.65-0.522-1.65-0.745-2.279-0.213c0.532,1.065,1.054,2.13,1.576,3.184
							c0.479,0.958,0.969,1.949,1.767,2.651c0.809,0.713,2.002,1.086,2.971,0.639c0.32-0.149,0.639-0.394,1.001-0.351
							c0.255,0.032,0.479,0.213,0.65,0.415c1.373,1.522,0.926,4.046-0.415,5.601c-1.331,1.544-3.312,2.353-5.217,3.109
							c-0.681,0.266-1.405,0.543-2.129,0.415c-1.32-0.245-2.023-1.682-2.406-2.971c-0.862-2.854-1.278-5.952-3.045-8.359
							c-0.564-0.756-1.267-1.448-1.608-2.332c-0.362-0.958-0.277-2.076-0.852-2.918c-0.596-0.884-1.863-1.395-1.948-2.46
							c-0.053-0.745,0.564-1.406,1.246-1.725c0.681-0.33,1.448-0.426,2.151-0.713c0.277-0.117,0.586-0.32,0.596-0.618
							c0-0.447-0.618-0.628-0.777-1.044c-0.17-0.469,0.309-0.905,0.511-1.363c0.437-1.044-0.65-2.098-1.704-2.523
							c-1.043-0.426-2.311-0.735-2.8-1.757c-0.224-0.468-0.245-1.011-0.341-1.522c-0.245-1.288-1.193-2.534-2.492-2.747
							c-1.31-0.213-2.758,0.948-2.545,2.247c0.128,0.713,0.66,1.267,0.948,1.927c0.298,0.66,0.213,1.64-0.468,1.853
							c-1.118,0.341-2.194-1.704-3.13-1.001c0.383,1.31,0.756,2.619,1.139,3.94c-1.469,0.745-3.226-0.607-3.855-2.14
							c-0.628-1.523-0.65-3.269-1.395-4.739c-0.745-1.48-2.758-2.576-4.036-1.533c-0.064,1.895,2.439,2.662,3.546,4.195
							c0.799,1.107,0.681,2.907-0.501,3.609c-1.171,0.703-3.034-0.522-2.587-1.81c0.16-0.447,0.532-0.82,0.575-1.299
							c0.043-0.596-0.458-1.076-0.916-1.459c-0.714-0.607-1.427-1.203-2.14-1.8c-0.458-0.383-0.948-0.788-1.523-0.958
							c-1.469-0.426-2.939,0.767-3.716,2.076c-0.777,1.32-1.214,2.864-2.289,3.961c-1.544,1.597-4.472,1.693-5.92,0.021
							c-1.459-1.672-0.714-4.802,1.427-5.409c0.809-0.224,1.832-0.202,2.258-0.916c0.745-1.267-1.384-2.886-0.65-4.163
							c0.564-0.979,2.055-0.532,3.141-0.862c1.075-0.33,1.682-1.416,2.321-2.353c0.628-0.926,1.619-1.863,2.726-1.619
							c-0.085-0.649-0.17-1.352,0.117-1.938c0.287-0.596,1.097-0.98,1.629-0.596c-0.543,0.894,0.107,2.14,1.054,2.587
							c0.948,0.447,2.055,0.341,3.098,0.224c1.044-0.128,2.353-0.511,2.438-1.555c0.032-0.341-0.096-0.703,0.032-1.022
							c0.458-1.246,2.758,0.469,3.641-0.532c0.511-0.522-0.053-1.448-0.767-1.618c-0.703-0.181-1.437,0.085-2.161,0.106
							c-0.724,0.032-1.608-0.351-1.64-1.075c-0.032-0.713,0.767-1.225,0.852-1.927c0.138-1.193-1.885-1.501-2.598-0.532
							c-0.703,0.969-0.458,2.3-0.245,3.482c0.224,1.182,0.33,2.577-0.543,3.407c-0.373,0.564-1.341,0.266-1.661-0.33
							c-0.33-0.596-0.255-1.321-0.309-1.991c-0.053-0.682-0.351-1.448-1.011-1.629c-0.458-0.128-0.948,0.096-1.416,0.16
							c-1.853,0.224-3.141-2.172-2.556-3.939c0.575-1.778,2.257-2.918,3.887-3.823c1.192-0.66,2.672-1.278,3.854-0.607
							c0.554,0.309,0.937,0.841,1.48,1.161c0.937,0.554,2.098,0.351,3.173,0.373c1.693,0.042,3.365,0.692,4.632,1.8
							c0.479,0.436,0.926,1.161,0.554,1.682c-0.405,0.554-1.565,0.671-1.363,1.32c1.256,0.415,2.758-0.554,2.896-1.863
							c0.617,0.277,1.065,0.905,1.118,1.576c1.352-1.374,3.951-1.171,5.058,0.415c0.298,0.415,0.511,0.916,0.937,1.203
							c0.426,0.277,1.171,0.138,1.224-0.362c0.021-0.16-0.032-0.319-0.085-0.469c-0.256-0.724-0.522-1.437-0.777-2.151
							c0.99-0.532,2.161,0.298,2.832,1.193c2.492,3.333,4.27,1.331,7.784,1.874c2.374,0.362,3.418,1.885,4.76,3.727
							c4.11,5.665,9.541,10.307,13.278,16.227c0.394,0.618,0.756,1.246,1.096,1.884c0,0,0,0,0,0c0,0.011,0,0.011,0,0.011
							c0.32,0.852,0.62,1.709,0.904,2.573c0.284,0.864,0.55,1.734,0.8,2.613c0.647,2.284,1.215,4.233,1.613,6.604
							c0,0,0.467,3.805,0.58,5.044c0.086,0.949,0.17,1.898,0.222,2.854c0.052,0.956,0.081,1.917,0.087,2.886L420.346,97.702z"/>
					</g>
				</g>
			</g>
		</g>
	</g>
</g>
<g id="Background_Simple" style="display:none;">
	<path style="display:inline;fill:#E0E0E0;" d="M443.787,147.781l-2.367-3.852c-19.954-32.471-56.033-52.045-94.071-49.67
		c-4.89,0.305-9.758,0.959-14.562,1.974c-34.585,7.31-64.677,33.136-77.151,66.21c-7.336,19.452-9.385,41.848-23.306,57.288
		c-18.117,20.094-48.876,20.725-75.919,19.893c-27.043-0.833-57.822-0.122-75.852,20.051c-11.291,12.634-14.88,30.601-13.969,47.521
		c2.411,44.796,34.022,84.851,74.223,104.76c40.201,19.909,87.534,21.692,131.532,12.934
		c61.636-12.269,120.251-45.962,155.483-98.003S471.976,203.949,443.787,147.781z"/>
</g>
<g id="Floor">
	<g>
		<g>
			<g>
				<path style="fill:#263238;" d="M467.057,462.427c0,0.144-97.188,0.26-217.047,0.26c-119.901,0-217.067-0.117-217.067-0.26
					c0-0.144,97.167-0.26,217.067-0.26C369.869,462.167,467.057,462.283,467.057,462.427z"/>
			</g>
		</g>
	</g>
</g>
<g id="Browsers">
	<g>
		<g>
			<g>
				<g>
					<g>
						<path style="fill:#E8505B;" d="M479.637,256.63l-88.953,30.664c-2.821,0.972-5.896-0.526-6.868-3.347l-30.664-88.953
							c-0.972-2.821,0.526-5.896,3.347-6.868l88.953-30.664c2.821-0.972,5.896,0.526,6.868,3.347l30.664,88.953
							C483.956,252.583,482.458,255.658,479.637,256.63z"/>
					</g>
				</g>
			</g>
			<g>
				<path style="fill:#FFFFFF;" d="M409.716,194.357c-1.362,0.457-2.668,1.004-3.926,1.617c-0.043-0.078-0.094-0.148-0.145-0.219
					c0.291-0.825,0.335-1.742,0.036-2.634c-0.713-2.126-3.022-3.275-5.148-2.562c-2.126,0.713-3.275,3.023-2.562,5.149
					c0.536,1.597,1.973,2.642,3.557,2.76c-11.571,8.024-16.978,22.993-12.274,37.014c5.706,17.007,24.118,26.168,41.124,20.462
					c17.007-5.706,26.168-24.118,20.462-41.124C445.135,197.812,426.723,188.651,409.716,194.357z M398.877,195.404
					c-0.546-1.627,0.333-3.394,1.961-3.94c1.626-0.546,3.393,0.334,3.939,1.96c0.184,0.549,0.194,1.11,0.08,1.639
					c-0.52-0.268-1.142-0.336-1.74-0.135c-1.091,0.366-1.703,1.488-1.47,2.588C400.416,197.442,399.292,196.642,398.877,195.404z
					 M435.677,244.72l-3.851-2.292c-0.6-0.357-1.348,0.136-1.255,0.829l0.567,4.218c-0.837,0.39-1.701,0.742-2.597,1.043
					c-10.487,3.518-21.678-0.44-27.793-8.993l1.926-2.839c0.385-0.567-0.137-1.308-0.801-1.138l-3.055,0.785
					c-0.529-1.048-0.993-2.144-1.378-3.29c-3.492-10.41,0.382-21.514,8.805-27.657l3.415,2.376c0.533,0.371,1.251-0.075,1.155-0.717
					l-0.599-4.01c0.868-0.41,1.766-0.779,2.699-1.092c10.489-3.519,21.683,0.441,27.797,8.998l-2.427,3.195
					c-0.354,0.466,0.048,1.125,0.624,1.023l3.895-0.688c0.459,0.944,0.869,1.924,1.212,2.946
					C447.443,227.631,443.773,238.511,435.677,244.72z"/>
				<path style="fill:#FFFFFF;" d="M432.173,205.823c0,0-4.044,4.491-8.769,10.95l-0.268-2.561c0,0-2.722,2.46-3.103,3.077
					c-0.723,0.006-1.455,0.116-2.18,0.328l-5.16-5.561l2.358,7.029c-0.955,0.776-1.711,1.753-2.221,2.849l-3.617,0.504
					c0,0,1.954,2.02,2.865,2.767c-0.014,0.885,0.111,1.787,0.408,2.673c0.024,0.072,0.057,0.139,0.083,0.21l-5.606,5.407
					l7.344-2.623c0.023,0.023,0.045,0.047,0.068,0.07c-2.405,4.531-4.338,9.18-5.172,13.486c0,0,3.554-3.864,7.892-9.629
					l0.315,1.976c0,0,3.172-3.189,2.972-3.376c-0.013-0.012-0.039-0.026-0.077-0.043c0.783-0.019,1.576-0.153,2.356-0.415
					c0.088-0.03,0.17-0.068,0.256-0.101l5.693,5.251l-2.958-6.967c0.485-0.465,0.914-0.981,1.266-1.546l3.951-0.383
					c0,0-1.934-2.174-2.793-2.926c0.132-1.096,0.042-2.233-0.309-3.35l5.626-4.874l-6.703,1.997
					C429.217,215.337,431.275,210.439,432.173,205.823z M417.963,218.938c1.327-0.445,2.696-0.451,3.952-0.098
					c-2.347,3.323-4.771,7.05-6.891,10.894c-0.563-0.646-1.012-1.41-1.302-2.271C412.542,223.943,414.444,220.119,417.963,218.938z
					 M419.164,231.979c2.228-3.113,4.538-6.615,6.609-10.276c0.29,0.453,0.535,0.944,0.714,1.477
					c1.181,3.519-0.722,7.343-4.241,8.523C421.22,232.047,420.169,232.122,419.164,231.979z"/>
			</g>
		</g>
		<polygon style="opacity:0.3;" points="388.11,177.229 383.397,282.734 378.418,268.289 378.871,180.414 		"/>
	</g>
	<g>
		<g>
			<g>
				<g>
					<g>
						<g>
							<path style="fill:#E8505B;" d="M417.305,381.042l-58.523-17.275c-2.862-0.845-4.497-3.849-3.652-6.711l17.275-58.523
								c0.845-2.862,3.849-4.497,6.711-3.652l58.523,17.275c2.862,0.845,4.497,3.849,3.652,6.711l-17.275,58.523
								C423.172,380.251,420.167,381.886,417.305,381.042z"/>
						</g>
					</g>
				</g>
			</g>
			<g style="opacity:0.3;">
				<g>
					<g>
						<g>
							<path d="M417.305,381.042l-58.523-17.275c-2.862-0.845-4.497-3.849-3.652-6.711l17.275-58.523
								c0.845-2.862,3.849-4.497,6.711-3.652l58.523,17.275c2.862,0.845,4.497,3.849,3.652,6.711l-17.275,58.523
								C423.172,380.251,420.167,381.886,417.305,381.042z"/>
						</g>
					</g>
				</g>
			</g>
		</g>
		<g>
			<path style="fill:#FFFFFF;" d="M390.725,337.543c-0.258,4.622,3.292,8.592,7.915,8.851c4.622,0.258,8.592-3.292,8.851-7.914
				c0.258-4.623-3.292-8.593-7.914-8.851C394.954,329.37,390.983,332.921,390.725,337.543z"/>
			<path style="fill:#FFFFFF;" d="M388.047,334.632c1.52-4.974,6.287-8.472,11.706-8.169c0.307,0.017,0.609,0.05,0.908,0.09
				l0.002-0.039l19.118,1.068c-3.61-7.139-10.82-12.214-19.382-12.692c-7.411-0.414-14.198,2.709-18.733,7.895L388.047,334.632z"/>
			<path style="fill:#FFFFFF;" d="M407.507,330.072c2.108,2.231,3.333,5.286,3.149,8.585c-0.159,2.849-1.344,5.401-3.174,7.322
				l-10.011,15.127c0.115,0.008,0.229,0.022,0.345,0.028c12.77,0.713,23.7-9.06,24.414-21.83c0.165-2.958-0.238-5.814-1.105-8.471
				L407.507,330.072z"/>
			<path style="fill:#FFFFFF;" d="M401.458,349.336c-0.963,0.2-1.967,0.281-2.995,0.224c-5.422-0.303-9.514-4.228-10.982-9.29
				l-7.911-14.69c-2.065,3.238-3.355,7.032-3.585,11.139c-0.64,11.465,7.174,21.441,18.019,23.878L401.458,349.336z"/>
		</g>
	</g>
	<g>
		<g>
			<g>
				<g>
					<g>
						<g>
							<g>
								<path style="fill:#E8505B;" d="M218.288,119.915l-64.283,13.534c-2.92,0.615-5.785-1.254-6.4-4.173l-13.534-64.283
									c-0.615-2.92,1.254-5.785,4.173-6.399l64.283-13.534c2.92-0.615,5.785,1.254,6.4,4.173l13.534,64.283
									C223.076,116.435,221.208,119.3,218.288,119.915z"/>
							</g>
						</g>
					</g>
				</g>
			</g>
		</g>
		<path style="fill:#FFFFFF;" d="M169.732,69.878c0,0-2.699,3.897-2.046,5.897c0.652,2,3.324,1.624,3.869,1.61
			c0.545-0.014,3.798-0.645,3.798-0.645s0.473,1.405-0.41,2.649c-0.883,1.244-4.242,4.472-4.242,4.472l0.34,3.381
			c0,0-3.573-0.331-3.479,1.607c0.095,1.938,3.142,4.234,6.029,3.744c2.887-0.49,4.184-2.977,6.097-2.755
			c1.914,0.222,4.299,1.38,4.299,1.38s0.171,1.925-2.603,2.162c0,0-2.925,4.405-8.7,4.917c0,0,3.155,4.31,11.887,1.42
			c7.689-2.545,7.593-9.889,7.461-11.607c-0.021-0.278,0.284-0.477,0.518-0.326c0.277,0.179,0.548,0.585,0.817,1.137l-1.19-8.658
			c-0.091-0.66,0.742-1.039,1.168-0.527c0.173,0.208,0.342,0.498,0.49,0.899c0,0-0.295-5.757-5.975-10.018
			c-0.388-0.291-0.176-0.909,0.309-0.899c0.965,0.02,2.125,0.124,2.72,0.475c0,0-8.126-5.967-7.494-6.387
			c0.632-0.42,13.81,3.538,17.664,15.182c0,0,0.138-1.975,0.86-2.034c0.147-0.012,0.656,0.36,1.157,2.242
			c1.358,5.101,1.295,10.479-0.13,15.562l0,0c-4.079,13.862-18.623,21.792-32.484,17.713c-13.862-4.079-21.792-18.623-17.713-32.484
			c0,0-1.844-6.618,1.301-9.29c0,0,0.632,4.054,3.194,4.237l6.367-1.25C163.61,73.683,165.321,69.943,169.732,69.878z"/>
	</g>
	<g>
		<g>
			<g>
				<g>
					<path style="fill:#E8505B;" d="M190.604,462.427l-109.212-0.054c-2.984-0.001-5.401-2.421-5.4-5.405l0.054-109.212
						c0.001-2.984,2.421-5.401,5.405-5.4l109.212,0.054c2.984,0.001,5.401,2.421,5.4,5.405l-0.053,109.212
						C196.007,460.011,193.587,462.429,190.604,462.427z"/>
				</g>
			</g>
		</g>
		<g>
			<g>
				<path style="fill:#FFFFFF;" d="M169.823,368.501c-7.108-6.108-22.008-0.846-27.379,1.358
					c-5.603-0.348-11.269,0.653-16.468,2.963c-7.281,3.234-15.687,9.613-18.715,22.133l16.681-13.659
					c0,0-19.417,18.032-24.073,36.617c-4.656,18.585,2.45,20.229,6.277,21.051c3.826,0.822,14.488-1.36,19.137-4.911
					c0,0,16.397,7.935,31.435-0.531c15.038-8.466,14.77-18.854,14.77-18.854l-17.221-0.009c0,0-5.102,8.009-14.218,7.647
					c-13.94-0.554-15.027-13.948-15.027-13.948l48.656,0.024l0.003-5.328c0.003-5.299-1.216-10.495-3.526-15.143
					C171.683,385.491,177.522,375.117,169.823,368.501z M106.501,431.764c-5.689-4.429,0.008-15.493,0.008-15.493
					s2.442,4.889,5.529,8.065c3.746,3.853,9.639,8.225,9.639,8.225S112.19,436.194,106.501,431.764z M126.188,399.928
					c0.004-7.874,6.39-14.254,14.264-14.25c7.874,0.004,14.254,6.39,14.25,14.264L126.188,399.928z M162.374,377.863
					c-2.503-2.147-5.525-4.092-9.153-5.562c4.468-1.887,12.389-4.211,16.186,0.913c3.018,4.074,1.426,8.827-0.597,12.262
					C167.089,382.645,164.94,380.065,162.374,377.863z"/>
			</g>
		</g>
		<g style="opacity:0.3;">
			<g>
				<g>
					<path d="M75.694,416.359c5.366-6.127,8.647-13.883,10.307-21.857c1.956-9.396,1.76-19.135,1.094-28.672
						c-0.173-2.472,0.061-4.973,0.889-7.309c3.377-9.528,12.461-8.492,20.094-7.672c21.475,2.308,43.495-0.641,63.606-8.516H81.222
						c-2.882,0-5.222,2.33-5.234,5.212L75.694,416.359z"/>
				</g>
			</g>
		</g>
	</g>
</g>
<g id="Character">
	<g>
		<g>
			<g>
				<g>
					<path style="fill:#263238;" d="M139.051,196.421c-1.98,4.746-7.939,7.266-8.996,12.299c-0.873,4.159,1.954,8.893-0.251,12.527
						c-2.041,3.364-7.042,3.428-9.876,6.158c-1.798,1.732-2.482,4.316-2.76,6.797c-0.332,2.966-0.126,6.182,1.639,8.589
						c1.639,2.236,4.424,3.432,7.188,3.649s5.524-0.444,8.151-1.33c7.307-2.464,14.098-6.838,18.662-13.053
						c4.564-6.216,6.716-14.357,4.965-21.867c-1.751-7.51-7.684-14.103-15.194-15.853"/>
				</g>
			</g>
			<g>
				<g>
					<g>
						<path style="fill:#455A64;" d="M122.266,242.922c-0.018,0.003-0.051-0.134-0.099-0.399c-0.043-0.265-0.125-0.657-0.149-1.169
							c-0.086-1.018-0.088-2.523,0.299-4.325c0.37-1.8,1.144-3.895,2.508-5.926c0.678-1.015,1.521-1.995,2.502-2.892
							c0.977-0.908,2.139-1.672,3.311-2.401c1.165-0.742,2.271-1.506,3.081-2.486c0.822-0.962,1.322-2.126,1.285-3.277
							c-0.024-1.155-0.398-2.245-0.634-3.299c-0.262-1.048-0.329-2.113-0.124-3.033c0.398-1.857,1.492-3.047,2.3-3.661
							c0.41-0.317,0.771-0.498,1.018-0.61c0.252-0.101,0.386-0.145,0.393-0.128c0.027,0.052-0.522,0.238-1.283,0.896
							c-0.743,0.639-1.739,1.819-2.066,3.574c-0.168,0.871-0.09,1.839,0.183,2.863c0.245,1.025,0.65,2.125,0.694,3.389
							c0.057,1.277-0.501,2.587-1.373,3.612c-0.863,1.053-2.022,1.853-3.193,2.598c-2.403,1.4-4.359,3.146-5.698,5.126
							c-1.347,1.958-2.138,3.985-2.545,5.736c-0.424,1.752-0.479,3.227-0.455,4.235
							C122.236,242.355,122.316,242.915,122.266,242.922z"/>
					</g>
				</g>
			</g>
		</g>
		<g>
			<g>
				<path style="fill:#263238;" d="M140.597,181.711c-2.33-1.634-3.416-4.846-2.555-7.558c0.861-2.713,3.6-4.71,6.446-4.701
					c3.148,0.01,5.862,2.167,8.916,2.929c2.394,0.597,4.905,0.317,7.371,0.381c2.466,0.064,5.11,0.573,6.811,2.359
					c2.123,2.229,2.195,5.803,4.151,8.179c1.397,1.697,3.552,2.544,5.309,3.864c2.679,2.011,4.418,5.224,4.638,8.566
					c0.22,3.342-1.083,6.756-3.475,9.101c-1.174,1.15-2.63,2.106-3.317,3.599c-1.044,2.271-0.056,5.279-1.643,7.21
					c-1.574,1.915-4.957,1.763-6.158,3.932c-0.482,0.871-0.605,2.092-1.523,2.476c-0.717,0.3-1.517-0.108-2.186-0.505
					c-3.056-1.812-6.112-3.624-9.168-5.436"/>
			</g>
		</g>
		<g>
			<g>
				<g>
					<g>
						<path style="fill:#E8505B;" d="M152.272,225.815l-9.425,1.258c-3.557,1.166-6.774,3.188-9.366,5.888l-26.072,27.156
							l-6.608-40.261l-13.51,1.733l4.058,48.035c0.649,7.683,6.841,13.966,14.549,14.158c0.357,0.009,0.717,0.006,1.079-0.01
							c4.042-0.174,7.826-2.047,10.658-4.936l17.093-14.901"/>
					</g>
				</g>
			</g>
			<g>
				<g>
					<g>
						<g>
							<g>
								<g>
									<path style="fill:#263238;" d="M89.891,225.169c-0.123,0.015-0.338-0.893-0.48-2.028c-0.143-1.136-0.159-2.068-0.036-2.084
										c0.123-0.015,0.338,0.892,0.48,2.028C89.997,224.221,90.013,225.154,89.891,225.169z"/>
								</g>
							</g>
						</g>
					</g>
					<g>
						<g>
							<g>
								<g>
									<path style="fill:#263238;" d="M93.863,225.132c-0.123,0.011-0.313-0.957-0.424-2.162
										c-0.111-1.206-0.101-2.192,0.022-2.204c0.123-0.011,0.313,0.957,0.424,2.163C93.996,224.135,93.986,225.121,93.863,225.132
										z"/>
								</g>
							</g>
						</g>
					</g>
					<g>
						<g>
							<g>
								<g>
									<path style="fill:#263238;" d="M97.795,224.718c-0.123,0.012-0.328-1.067-0.458-2.409c-0.13-1.343-0.136-2.44-0.013-2.452
										c0.123-0.012,0.328,1.066,0.458,2.409C97.913,223.608,97.918,224.706,97.795,224.718z"/>
								</g>
							</g>
						</g>
					</g>
				</g>
				<g>
					<g>
						<g>
							<g>
								<g>
									<path style="fill:#455A64;" d="M108.087,188.876c0.265,0.475,8.066,33.351,8.066,33.351l-15.171,1.331l-7.05-28.257
										L108.087,188.876z"/>
								</g>
							</g>
						</g>
						<g>
							<g>
								<g>
									<polygon style="fill:#263238;" points="116.153,222.227 117.864,221.419 109.951,189.022 107.882,188.969 									"/>
								</g>
							</g>
						</g>
						<g>
							<g>
								<g>
									<path style="fill:#263238;" d="M102.272,196.369c0.071,0.429-0.22,0.835-0.65,0.906c-0.43,0.071-0.835-0.22-0.906-0.65
										c-0.071-0.429,0.22-0.835,0.65-0.906C101.795,195.649,102.201,195.94,102.272,196.369z"/>
								</g>
							</g>
						</g>
					</g>
					<g>
						<g>
							<g>
								<path style="fill:#B78876;" d="M100.115,220.087l-0.433-4.656l6.384-2.94l-2.777-5.911
									c-1.348-2.754-4.762-3.768-7.395-2.197c-0.848,0.506-1.741,1.039-2.547,1.52c-1.815,1.084-3.093,2.882-3.499,4.956
									c-0.701,3.578-1.14,10.996-1.075,10.66"/>
							</g>
						</g>
					</g>
				</g>
			</g>
		</g>
		<g>
			<g>
				<g>
					<g>
						<g>
							<g>
								<g>
									<path style="fill:#E8505B;" d="M148.962,225.368c-12.06,1.352-15.977,10.357-21.602,18.426l-8.129,15.006l15.497,5.135
										l-1.066,27.067l-7.124,21.956l55.556-3.281l-4.499-20.85l3.167-23.798l2.957-19.848c1.006-6.751-2.592-13.527-8.95-16.012
										c-7.479-2.923-7.679-3.469-13.63-3.732C159.255,225.355,150.491,224.994,148.962,225.368"/>
								</g>
							</g>
						</g>
					</g>
				</g>
			</g>
			<g>
				<g>
					<g>
						<g>
							<g>
								<path style="fill:#263238;" d="M133.677,290.371c0.036,0.001,0.088-0.582,0.151-1.636c0.056-1.144,0.129-2.648,0.218-4.464
									c0.161-3.77,0.348-8.979,0.522-14.732c0.174-5.756,0.303-10.967,0.37-14.74c0.021-1.818,0.039-3.324,0.052-4.469
									c0.001-1.056-0.016-1.641-0.052-1.642c-0.036-0.002-0.088,0.58-0.151,1.633c-0.056,1.144-0.129,2.648-0.218,4.463
									c-0.161,3.77-0.348,8.98-0.523,14.738c-0.174,5.755-0.303,10.967-0.37,14.74c-0.021,1.818-0.039,3.323-0.053,4.469
									C133.624,289.786,133.641,290.37,133.677,290.371z"/>
							</g>
						</g>
					</g>
				</g>
			</g>
			<g style="opacity:0.3;">
				<g>
					<g>
						<g>
							<g>
								<path style="fill:none;stroke:#000000;stroke-width:0.25;stroke-miterlimit:10;" d="M155.882,275.454"/>
							</g>
						</g>
					</g>
				</g>
			</g>
		</g>
		<g>
			<g>
				<g>
					<g>
						<g>
							<g>
								<g>
									<g>
										<g>
											<g>
												<g>
													<path style="fill:#E8505B;" d="M47.314,424.925l-0.202-9.895l18.979-6.741l0.785,13.777l-1.067,0.515
														c-4.765,2.252-24.389,11.114-28.05,11.451C33.676,434.406,47.314,424.925,47.314,424.925z"/>
												</g>
											</g>
										</g>
									</g>
								</g>
							</g>
						</g>
					</g>
					<g style="opacity:0.4;">
						<g>
							<g>
								<g>
									<g>
										<g>
											<g>
												<path style="fill:#FFFFFF;" d="M40.757,429.819c0,0-4.645,3.656-3.636,4.256c1.008,0.6,21.177-7.61,29.756-12.01
													l-0.189-0.383l-23.443,9.777C43.245,431.459,41.803,429.444,40.757,429.819z"/>
											</g>
										</g>
									</g>
								</g>
							</g>
						</g>
					</g>
					<g>
						<g>
							<g>
								<g>
									<g>
										<g>
											<g>
												<g>
													<path style="fill:#263238;" d="M66.961,421.558c0.003,0.007-0.097,0.061-0.29,0.156
														c-0.255,0.122-0.535,0.257-0.851,0.408c-0.857,0.393-1.911,0.875-3.154,1.445c-2.672,1.201-6.386,2.812-10.524,4.501
														c-4.141,1.688-7.922,3.135-10.672,4.145c-1.287,0.463-2.378,0.855-3.265,1.174c-0.332,0.112-0.625,0.213-0.893,0.304
														c-0.205,0.067-0.314,0.099-0.317,0.091c-0.003-0.007,0.101-0.054,0.301-0.135c0.264-0.104,0.552-0.217,0.878-0.344
														c0.88-0.337,1.962-0.752,3.238-1.242c2.734-1.049,6.503-2.519,10.642-4.206c4.137-1.688,7.858-3.274,10.546-4.437
														c1.255-0.543,2.318-1.003,3.183-1.378c0.322-0.137,0.608-0.258,0.869-0.368
														C66.851,421.591,66.957,421.551,66.961,421.558z"/>
												</g>
											</g>
										</g>
									</g>
								</g>
							</g>
						</g>
					</g>
					<g>
						<g>
							<g>
								<g>
									<g>
										<g>
											<g>
												<g>
													<path style="fill:#263238;" d="M43.361,431.731c-0.062,0.035-0.424-0.712-1.223-1.288
														c-0.789-0.591-1.61-0.714-1.595-0.784c-0.009-0.059,0.884-0.034,1.732,0.597
														C43.13,430.878,43.419,431.723,43.361,431.731z"/>
												</g>
											</g>
										</g>
									</g>
								</g>
							</g>
						</g>
					</g>
					<g>
						<g>
							<g>
								<g>
									<g>
										<g>
											<g>
												<g>
													<path style="fill:#263238;" d="M47.496,426.965c-0.037,0.052-0.41-0.15-0.833-0.451
														c-0.423-0.301-0.736-0.587-0.699-0.639c0.037-0.052,0.41,0.15,0.833,0.451
														C47.221,426.627,47.534,426.913,47.496,426.965z"/>
												</g>
											</g>
										</g>
									</g>
								</g>
							</g>
						</g>
					</g>
					<g>
						<g>
							<g>
								<g>
									<g>
										<g>
											<g>
												<g>
													<path style="fill:#263238;" d="M48.619,425.627c-0.022,0.06-0.376-0.012-0.792-0.162
														c-0.416-0.15-0.735-0.32-0.714-0.379c0.022-0.06,0.376,0.012,0.792,0.162C48.321,425.397,48.64,425.567,48.619,425.627
														z"/>
												</g>
											</g>
										</g>
									</g>
								</g>
							</g>
						</g>
					</g>
					<g>
						<g>
							<g>
								<g>
									<g>
										<g>
											<g>
												<g>
													<path style="fill:#263238;" d="M48.845,423.592c0.025,0.059-0.367,0.279-0.874,0.493
														c-0.507,0.213-0.939,0.338-0.963,0.279c-0.025-0.059,0.366-0.279,0.874-0.492
														C48.389,423.658,48.82,423.533,48.845,423.592z"/>
												</g>
											</g>
										</g>
									</g>
								</g>
							</g>
						</g>
					</g>
					<g>
						<g>
							<g>
								<g>
									<g>
										<g>
											<g>
												<g>
													<path style="fill:#263238;" d="M48.676,422.29c0.041,0.045-0.326,0.43-0.907,0.718c-0.58,0.291-1.109,0.351-1.12,0.291
														c-0.015-0.065,0.466-0.221,1.016-0.497C48.219,422.528,48.633,422.238,48.676,422.29z"/>
												</g>
											</g>
										</g>
									</g>
								</g>
							</g>
						</g>
					</g>
					<g>
						<g>
							<g>
								<g>
									<g>
										<g>
											<g>
												<g>
													<path style="fill:#263238;" d="M46.27,425.668c0.011,0.023-0.403,0.254-1.138,0.455
														c-0.367,0.1-0.814,0.186-1.317,0.225c-0.253,0.011-0.509,0.047-0.808-0.003c-0.143-0.029-0.311-0.084-0.424-0.238
														c-0.116-0.151-0.103-0.379-0.013-0.524c0.856-1.004,2.191-0.836,2.822-0.439c0.338,0.196,0.553,0.434,0.679,0.607
														c0.124,0.176,0.166,0.288,0.154,0.294c-0.034,0.031-0.259-0.415-0.911-0.758c-0.321-0.167-0.751-0.282-1.226-0.235
														c-0.449,0.044-1.033,0.244-1.315,0.643c-0.126,0.207,0.031,0.39,0.28,0.428c0.236,0.044,0.507,0.019,0.749,0.013
														c0.49-0.027,0.929-0.094,1.293-0.172C45.823,425.808,46.256,425.633,46.27,425.668z"/>
												</g>
											</g>
										</g>
									</g>
								</g>
							</g>
						</g>
					</g>
					<g>
						<g>
							<g>
								<g>
									<g>
										<g>
											<g>
												<g>
													<path style="fill:#263238;" d="M45.999,425.844c-0.011,0.019-0.297-0.203-0.452-0.735
														c-0.074-0.262-0.103-0.596-0.028-0.956c0.098-0.333,0.214-0.786,0.71-0.963c0.277-0.073,0.527,0.174,0.563,0.382
														c0.06,0.207,0.04,0.415,0.014,0.586c-0.054,0.352-0.151,0.659-0.257,0.905c-0.215,0.493-0.441,0.74-0.463,0.724
														c-0.031-0.02,0.143-0.296,0.31-0.783c0.082-0.243,0.159-0.54,0.198-0.874c0.058-0.303-0.011-0.777-0.316-0.713
														c-0.295,0.088-0.47,0.489-0.552,0.786c-0.078,0.318-0.07,0.623-0.021,0.869
														C45.808,425.569,46.033,425.82,45.999,425.844z"/>
												</g>
											</g>
										</g>
									</g>
								</g>
							</g>
						</g>
					</g>
					<g>
						<g>
							<g>
								<g>
									<g>
										<g>
											<g>
												<g>
													<path style="fill:#263238;" d="M64.633,416.872c0.012,0.042-0.526,0.158-1.286,0.577
														c-0.755,0.41-1.723,1.182-2.37,2.333c-0.645,1.152-0.8,2.381-0.756,3.239c0.039,0.867,0.22,1.386,0.178,1.398
														c-0.013,0.004-0.071-0.12-0.145-0.356c-0.075-0.236-0.154-0.588-0.195-1.031c-0.088-0.878,0.044-2.161,0.717-3.362
														c0.674-1.2,1.7-1.981,2.495-2.364c0.399-0.196,0.741-0.312,0.982-0.371C64.493,416.874,64.629,416.858,64.633,416.872z
														"/>
												</g>
											</g>
										</g>
									</g>
								</g>
							</g>
						</g>
					</g>
					<g>
						<g>
							<g>
								<g>
									<g>
										<g>
											<g>
												<g>
													<path style="fill:#263238;" d="M59.809,410.266c0.059-0.025,0.789,1.572,1.63,3.566
														c0.842,1.995,1.476,3.631,1.417,3.656c-0.059,0.025-0.788-1.572-1.63-3.566
														C60.385,411.928,59.751,410.291,59.809,410.266z"/>
												</g>
											</g>
										</g>
									</g>
								</g>
							</g>
						</g>
					</g>
					<g>
						<g>
							<g>
								<g>
									<g>
										<g>
											<g>
												<g>
													<path style="fill:#263238;" d="M57.49,423.713c0.03,0.052-1.044,0.71-2.474,1.305c-1.429,0.6-2.652,0.903-2.668,0.845
														c-0.02-0.064,1.163-0.463,2.578-1.058C56.343,424.215,57.458,423.654,57.49,423.713z"/>
												</g>
											</g>
										</g>
									</g>
								</g>
							</g>
						</g>
					</g>
					<g>
						<g>
							<g>
								<g>
									<g>
										<g>
											<g>
												<g>
													<path style="fill:#263238;" d="M60.95,422.298c0.061,0.026,0.005,0.283-0.005,0.595
														c-0.014,0.313,0.021,0.573-0.042,0.594c-0.057,0.023-0.205-0.242-0.19-0.603
														C60.727,422.523,60.894,422.271,60.95,422.298z"/>
												</g>
											</g>
										</g>
									</g>
								</g>
							</g>
						</g>
					</g>
					<g>
						<g>
							<g>
								<g>
									<g>
										<g>
											<g>
												<g>
													<path style="fill:#263238;" d="M61.594,420.143c0.059,0.024,0.02,0.255-0.088,0.514
														c-0.107,0.26-0.242,0.45-0.301,0.426c-0.059-0.024-0.02-0.255,0.088-0.514C61.4,420.31,61.535,420.119,61.594,420.143z
														"/>
												</g>
											</g>
										</g>
									</g>
								</g>
							</g>
						</g>
					</g>
					<g>
						<g>
							<g>
								<g>
									<g>
										<g>
											<g>
												<g>
													<path style="fill:#263238;" d="M63.158,418.641c0.012,0.065-0.223,0.158-0.446,0.355
														c-0.227,0.192-0.353,0.411-0.416,0.39c-0.061-0.013-0.014-0.325,0.264-0.565
														C62.838,418.581,63.154,418.579,63.158,418.641z"/>
												</g>
											</g>
										</g>
									</g>
								</g>
							</g>
						</g>
					</g>
					<g>
						<g>
							<g>
								<g>
									<g>
										<g>
											<g>
												<g>
													<path style="fill:#263238;" d="M64.345,417.75c0.044,0.047-0.021,0.178-0.144,0.295
														c-0.123,0.117-0.259,0.173-0.303,0.127c-0.044-0.046,0.021-0.178,0.144-0.295
														C64.166,417.761,64.301,417.704,64.345,417.75z"/>
												</g>
											</g>
										</g>
									</g>
								</g>
							</g>
						</g>
					</g>
				</g>
			</g>
		</g>
		<g>
			<g>
				<g>
					<g>
						<g>
							<g>
								<path style="fill:#263238;" d="M123.491,313.827l-55.725,1.042c-8.909,0.167-16.338,6.862-17.426,15.706l-11.05,89.803
									h30.265l9.241-77.565h43.94L123.491,313.827z"/>
							</g>
						</g>
					</g>
				</g>
				<g>
					<g>
						<g>
							<g>
								<g>
									<path style="fill:#455A64;" d="M39.667,414.669c-0.001,0.144,6.629,0.302,14.806,0.353
										c8.18,0.051,14.668-0.154,14.811-0.168c0.939-0.092-6.627-0.302-14.808-0.353C46.299,414.45,39.668,414.526,39.667,414.669
										z"/>
								</g>
							</g>
						</g>
					</g>
				</g>
			</g>
			<g>
				<g>
					<g>
						<g>
							<g>
								<g>
									<path style="fill:#263238;" d="M175.798,342.814c22.243-7.364,6.297-33.135,6.297-33.135l-84.823,4.948
										c-7.805-0.053-14.16,6.26-14.16,14.064l0.31,2.264c0,7.768,5.987,11.801,13.755,11.801L175.798,342.814"/>
								</g>
							</g>
						</g>
					</g>
				</g>
				<g>
					<g>
						<g>
							<g>
								<g>
									<path style="fill:#455A64;" d="M162.652,310.994c-0.001-0.009-0.095-0.012-0.279-0.011
										c-0.212,0.005-0.481,0.011-0.816,0.019c-0.753,0.029-1.801,0.07-3.134,0.122c-2.758,0.13-6.684,0.314-11.52,0.541
										c-9.756,0.507-23.174,1.204-37.995,1.973c-1.854,0.083-3.69,0.236-5.493,0.26c-1.814,0.027-3.599,0.098-5.351,0.198
										c-1.752,0.101-3.471,0.225-5.153,0.397c-1.667,0.184-3.361,0.354-4.897,0.951c-1.535,0.566-2.939,1.397-4.072,2.471
										c-1.136,1.075-1.947,2.4-2.47,3.754c-0.529,1.357-0.819,2.734-1.006,4.058c-0.182,1.325-0.279,2.608-0.269,3.836
										c0.01,2.453,0.463,4.684,1.292,6.46c0.822,1.783,1.967,3.082,3.045,3.93c1.083,0.854,2.084,1.279,2.773,1.483
										c0.692,0.207,0.705,0.139,0.032-0.096c-0.67-0.232-1.639-0.679-2.681-1.539c-1.038-0.853-2.135-2.144-2.913-3.894
										c-0.786-1.745-1.205-3.931-1.193-6.345c0.002-1.207,0.108-2.474,0.298-3.78c0.194-1.303,0.488-2.65,1.009-3.96
										c0.515-1.309,1.297-2.566,2.386-3.587c1.088-1.022,2.442-1.816,3.928-2.358c1.483-0.571,3.112-0.728,4.786-0.909
										c1.672-0.166,3.386-0.285,5.132-0.383c1.747-0.096,3.525-0.164,5.33-0.19c1.816-0.023,3.643-0.174,5.501-0.258
										c14.822-0.827,28.24-1.576,37.997-2.121c4.833-0.294,8.757-0.533,11.514-0.7c1.33-0.092,2.377-0.164,3.129-0.216
										c0.334-0.028,0.602-0.051,0.813-0.069C162.559,311.017,162.653,311.003,162.652,310.994z"/>
								</g>
							</g>
						</g>
					</g>
				</g>
			</g>
		</g>
		<g>
			<g>
				<g>
					<g>
						<g>
							<g>
								<g>
									<g>
										<g>
											<g>
												<g>
													<path style="fill:#B78876;" d="M164.419,181.109c1.681,0.178,2.947,1.612,2.913,3.303l0,0l-1.845,43.976
														c-0.07,5.193-9.493,11.334-15.053,11.217l0,0c-5.615-0.118-4.429-6.092-4.045-11.018
														c0.435-5.586-0.135-11.306-0.135-11.306s-7.095-1.178-8.565-10.435c-0.731-4.604-0.5-12.152-0.111-18.322
														c0.35-5.554,5.248-9.699,10.782-9.114L164.419,181.109z"/>
												</g>
											</g>
										</g>
									</g>
								</g>
								<g>
									<g>
										<g>
											<g>
												<g>
													<g>
														<path style="fill:#263238;" d="M139.981,194.516c-0.022,0.627,0.491,1.163,1.145,1.198
															c0.653,0.035,1.202-0.443,1.224-1.07c0.022-0.627-0.49-1.163-1.144-1.199
															C140.552,193.41,140.003,193.889,139.981,194.516z"/>
													</g>
												</g>
											</g>
										</g>
									</g>
									<g>
										<g>
											<g>
												<g>
													<g>
														<g>
															<path style="fill:#263238;" d="M139.214,192.451c0.147,0.155,1.047-0.511,2.324-0.507
																c1.276-0.015,2.214,0.642,2.352,0.486c0.068-0.069-0.082-0.349-0.49-0.646c-0.402-0.296-1.087-0.584-1.883-0.581
																c-0.796,0.004-1.465,0.297-1.85,0.597C139.274,192.101,139.141,192.381,139.214,192.451z"/>
														</g>
													</g>
												</g>
											</g>
										</g>
									</g>
								</g>
								<g>
									<g>
										<g>
											<g>
												<g>
													<g>
														<path style="fill:#263238;" d="M152.471,194.516c-0.022,0.627,0.491,1.163,1.145,1.198
															c0.653,0.035,1.202-0.443,1.224-1.07c0.022-0.627-0.49-1.163-1.144-1.199
															C153.041,193.41,152.493,193.889,152.471,194.516z"/>
													</g>
												</g>
											</g>
										</g>
									</g>
									<g>
										<g>
											<g>
												<g>
													<g>
														<g>
															<path style="fill:#263238;" d="M151.771,192.689c0.148,0.155,1.048-0.511,2.325-0.507
																c1.276-0.015,2.214,0.642,2.352,0.486c0.068-0.069-0.081-0.348-0.49-0.646c-0.402-0.296-1.087-0.584-1.883-0.581
																c-0.796,0.005-1.465,0.297-1.85,0.597C151.833,192.34,151.699,192.62,151.771,192.689z"/>
														</g>
													</g>
												</g>
											</g>
										</g>
									</g>
								</g>
								<g>
									<g>
										<g>
											<g>
												<g>
													<g>
														<path style="fill:#263238;" d="M147.135,202.163c0.006-0.073-0.788-0.21-2.075-0.374
															c-0.326-0.034-0.635-0.098-0.69-0.321c-0.077-0.236,0.06-0.587,0.218-0.967c0.307-0.789,0.628-1.617,0.965-2.484
															c1.34-3.537,2.309-6.445,2.167-6.498c-0.143-0.053-1.345,2.771-2.684,6.308c-0.322,0.872-0.631,1.703-0.924,2.499
															c-0.123,0.371-0.336,0.791-0.169,1.28c0.088,0.244,0.327,0.421,0.536,0.477c0.209,0.064,0.393,0.067,0.554,0.077
															C146.327,202.23,147.13,202.236,147.135,202.163z"/>
													</g>
												</g>
											</g>
										</g>
									</g>
								</g>
								<g>
									<g>
										<g>
											<g>
												<g>
													<path style="fill:#AA6550;" d="M146.253,217.281c0,0,6.228,0.401,12.398-3.307c0,0-3.008,6.359-12.273,5.493
														L146.253,217.281z"/>
												</g>
											</g>
										</g>
									</g>
								</g>
								<g>
									<g>
										<g>
											<g>
												<g>
													<path style="fill:#AA6550;" d="M147.675,205.242c0.459-0.607,1.264-0.941,2.064-0.855
														c0.554,0.06,1.115,0.327,1.451,0.778c0.337,0.451,0.407,1.092,0.101,1.523c-0.345,0.485-1.065,0.597-1.675,0.423
														c-0.61-0.173-1.134-0.575-1.633-0.975c-0.138-0.111-0.279-0.226-0.365-0.378c-0.086-0.152-0.104-0.35,0.002-0.476"/>
												</g>
											</g>
										</g>
									</g>
								</g>
								<g>
									<g>
										<g>
											<g>
												<g>
													<g>
														<path style="fill:#263238;" d="M150.895,203.047c-0.208-0.012-0.21,1.375-1.397,2.359
															c-1.185,0.988-2.663,0.832-2.674,1.026c-0.019,0.087,0.329,0.269,0.953,0.286c0.612,0.021,1.506-0.176,2.232-0.778
															c0.724-0.604,1.036-1.409,1.083-1.978C151.145,203.383,150.99,203.039,150.895,203.047z"/>
													</g>
												</g>
											</g>
										</g>
									</g>
								</g>
							</g>
						</g>
					</g>
					<g>
						<g>
							<g>
								<g>
									<g>
										<path style="fill:#263238;" d="M151.197,190.452c0.126,0.347,1.402,0.183,2.9,0.363c1.503,0.15,2.711,0.589,2.91,0.278
											c0.089-0.149-0.122-0.476-0.611-0.812c-0.484-0.336-1.257-0.655-2.157-0.755c-0.9-0.098-1.724,0.044-2.27,0.267
											C151.42,190.014,151.143,190.287,151.197,190.452z"/>
									</g>
								</g>
							</g>
						</g>
					</g>
					<g>
						<g>
							<g>
								<g>
									<g>
										<path style="fill:#263238;" d="M139.684,188.753c0.225,0.29,1.105-0.011,2.163-0.025c1.058-0.051,1.954,0.195,2.161-0.109
											c0.09-0.147-0.051-0.438-0.442-0.713c-0.386-0.274-1.031-0.497-1.759-0.475c-0.727,0.023-1.357,0.286-1.725,0.583
											C139.707,188.313,139.584,188.611,139.684,188.753z"/>
									</g>
								</g>
							</g>
						</g>
					</g>
				</g>
			</g>
			<g>
				<g>
					<g>
						<path style="fill:#263238;" d="M137.576,188.524c1.336-4.46,2.404-5.82,6.975-7.345c2.272,10.024,11.225,6.658,16.283,7.484
							c0.517,0.084,1.06,0.162,1.481,0.473c0.78,0.579,0.841,1.702,0.838,2.673c-0.009,2.742,0.043,5.509,0.674,8.177
							c0.631,2.668,1.888,5.258,3.955,7.06c3.053-6.434,3.357-13.921,1.992-20.91c-0.558-2.855-1.504-5.846-3.778-7.66
							c-1.628-1.298-3.731-1.82-5.78-2.196c-5.059-0.928-12.929-7.583-17.866-6.136c-3.728,1.093-5.39,3.263-6.245,5.862
							c-1.148,3.49-0.791,7.303,0.671,10.673L137.576,188.524z"/>
					</g>
				</g>
			</g>
		</g>
		<g>
			<g>
				<g>
					<g>
						<path style="fill:#455A64;" d="M175.541,323.061c0.012,0.027-0.252,0.185-0.77,0.383c-0.517,0.2-1.306,0.402-2.303,0.469
							c-1.957,0.155-4.925-0.456-7.125-2.687c-2.176-2.256-2.711-5.239-2.507-7.192c0.091-0.995,0.314-1.778,0.527-2.29
							c0.211-0.513,0.375-0.773,0.402-0.76c0.102,0.034-0.478,1.143-0.561,3.074c-0.104,1.885,0.472,4.692,2.512,6.805
							c2.061,2.092,4.852,2.739,6.739,2.682C174.385,323.51,175.509,322.959,175.541,323.061z"/>
					</g>
				</g>
			</g>
		</g>
		<g>
			<g>
				<path style="fill:#E8505B;" d="M143.951,227.463v-5.616c0-1.347,1.069-2.45,2.415-2.493l19.51-0.623
					c1.378-0.044,2.531,1.039,2.573,2.417l0.278,9.113l-11.397,10.459l-11.078,1.151l-1.891-6.14L143.951,227.463z"/>
			</g>
		</g>
		<g>
			<g>
				<g>
					<g>
						<g>
							<path style="fill:#E8505B;" d="M169.292,228.084c-2.872,2.401-5.11,5.471-6.517,8.94l-13.301,32.056l-9.494-30.745
								l-12.208,2.437c-2.958,0.59-4.771,3.592-3.916,6.485l11.911,40.339c3.458,6.911,13.028,9.542,20.267,6.836
								c0.321-0.12,0.639-0.251,0.956-0.393c3.69-1.659,6.51-4.802,8.07-8.535l10.354-20.174l6.905-15.78
								c0.145-0.331,0.277-0.664,0.398-0.998c3.278-9.115-3.032-18.905-12.611-20.346L169.292,228.084"/>
						</g>
					</g>
				</g>
				<g>
					<g>
						<g>
							<g>
								<g>
									<g>
										<path style="fill:#263238;" d="M150.804,275.843c-0.122,0.02-0.48-1.547-0.799-3.501c-0.32-1.954-0.48-3.553-0.358-3.573"
											/>
									</g>
								</g>
							</g>
						</g>
					</g>
				</g>
			</g>
			<g>
				<g>
					<g>
						<path style="fill:#263238;" d="M127.252,240.905c0.009,0.031-0.402,0.088-1.091,0.419c-0.671,0.331-1.617,1.089-2.068,2.479
							c-0.234,0.681-0.364,1.484-0.285,2.357c0.058,0.873,0.407,1.779,0.697,2.782c0.602,1.999,1.285,4.268,2.04,6.772
							c1.503,5.033,3.287,11.008,5.267,17.64c0.99,3.319,2.028,6.802,3.104,10.413c1.117,3.541,3.456,6.85,6.717,9.072
							c3.256,2.198,7.248,3.185,10.912,2.595c3.676-0.554,6.912-2.596,8.983-5.293c1.059-1.332,1.74-2.882,2.518-4.334
							c0.758-1.455,1.495-2.868,2.207-4.235c1.426-2.729,2.754-5.272,3.969-7.598c2.428-4.613,4.398-8.357,5.78-10.984
							c0.679-1.266,1.213-2.262,1.595-2.974c0.176-0.316,0.316-0.569,0.426-0.767c0.099-0.172,0.153-0.257,0.161-0.253
							c0.008,0.004-0.031,0.098-0.114,0.278c-0.098,0.204-0.224,0.465-0.38,0.791c-0.361,0.723-0.866,1.734-1.508,3.019
							c-1.347,2.645-3.267,6.415-5.633,11.06c-1.198,2.334-2.508,4.888-3.913,7.627c-0.705,1.371-1.434,2.788-2.184,4.247
							c-0.763,1.439-1.446,3.018-2.545,4.416c-2.131,2.798-5.477,4.924-9.285,5.505c-3.805,0.617-7.919-0.4-11.283-2.669
							c-3.364-2.293-5.768-5.703-6.91-9.348c-1.067-3.617-2.097-7.106-3.078-10.432c-1.94-6.644-3.688-12.63-5.16-17.672
							c-0.727-2.512-1.386-4.788-1.966-6.794c-0.273-0.995-0.616-1.925-0.665-2.845c-0.068-0.909,0.084-1.747,0.341-2.444
							c0.498-1.433,1.513-2.201,2.213-2.506C126.836,240.922,127.252,240.905,127.252,240.905z"/>
					</g>
				</g>
			</g>
		</g>
		<g>
			<g>
				<g>
					<path style="fill:#263238;" d="M139.981,238.335c0.017-0.005,0.1,0.197,0.241,0.585c0.154,0.442,0.35,1.006,0.592,1.703
						c0.513,1.548,1.22,3.681,2.084,6.289c1.729,5.379,4.084,12.703,6.685,20.795c0.107,0.337,0.213,0.672,0.312,0.983l-0.488-0.02
						c3.188-7.632,6.056-14.497,8.157-19.528c1.042-2.433,1.893-4.419,2.512-5.862c0.288-0.646,0.522-1.169,0.705-1.58
						c0.166-0.359,0.261-0.544,0.278-0.537c0.016,0.007-0.047,0.205-0.183,0.576c-0.16,0.421-0.365,0.956-0.617,1.617
						c-0.581,1.458-1.381,3.466-2.36,5.924c-2.064,5.047-4.88,11.933-8.011,19.588l-0.271,0.663l-0.217-0.684
						c-0.099-0.311-0.206-0.647-0.313-0.983c-2.546-8.115-4.851-15.46-6.543-20.853c-0.798-2.627-1.451-4.776-1.925-6.335
						c-0.204-0.708-0.369-1.281-0.498-1.729C140.012,238.55,139.963,238.34,139.981,238.335z"/>
				</g>
			</g>
		</g>
		<g>
			<g>
				<g>
					<path style="fill:#263238;" d="M174.201,230.962c-0.009,0.086-0.83-0.003-2.13,0.137c-1.293,0.134-3.078,0.566-4.776,1.591
						c-1.698,1.025-2.914,2.403-3.634,3.484c-0.73,1.084-1.034,1.852-1.114,1.82c-0.055-0.017,0.128-0.842,0.802-2.016
						c0.662-1.167,1.892-2.658,3.677-3.735c1.784-1.077,3.676-1.47,5.018-1.512C173.397,230.683,174.212,230.906,174.201,230.962z"
						/>
				</g>
			</g>
		</g>
		<g>
			<g>
				<g>
					<path style="fill:#263238;" d="M147.789,227.575c-0.144-0.006-0.177-1.864-0.075-4.148c0.102-2.285,0.302-4.132,0.445-4.126
						c0.144,0.006,0.177,1.864,0.075,4.149C148.132,225.734,147.933,227.581,147.789,227.575z"/>
				</g>
			</g>
		</g>
		<g>
			<g>
				<g>
					<path style="fill:#263238;" d="M152.958,227.073c-0.14,0.014-0.423-1.734-0.451-3.912c-0.032-2.178,0.205-3.933,0.345-3.923
						c0.147,0.01,0.144,1.761,0.176,3.916C153.054,225.308,153.104,227.06,152.958,227.073z"/>
				</g>
			</g>
		</g>
		<g>
			<g>
				<g>
					<path style="fill:#263238;" d="M158.181,226.962c-0.14,0.009-0.369-1.77-0.351-3.976c0.014-2.207,0.269-3.982,0.409-3.971
						c0.146,0.011,0.126,1.788,0.111,3.975C158.333,225.176,158.328,226.953,158.181,226.962z"/>
				</g>
			</g>
		</g>
		<g>
			<g>
				<g>
					<path style="fill:#263238;" d="M163.68,226.739c-0.144-0.006-0.267-1.758-0.275-3.914c-0.008-2.156,0.102-3.91,0.246-3.916
						c0.144-0.007,0.267,1.745,0.275,3.915C163.934,224.991,163.824,226.745,163.68,226.739z"/>
				</g>
			</g>
		</g>
		<g>
			<g>
				<g>
					<path style="fill:#263238;" d="M106.479,270.169c-0.114,0.055-0.969-2.379-0.658-5.479c0.284-3.104,1.586-5.331,1.687-5.255
						c0.151,0.063-0.899,2.313-1.169,5.305C106.036,267.727,106.639,270.137,106.479,270.169z"/>
				</g>
			</g>
		</g>
		<g>
			<g>
				<g>
					<g>
						<path style="fill:#B78876;" d="M138.457,238.863c0,0-0.686-7.66-1.195-11.615c-0.509-3.955-2.927-3.486-3.15-5.63
							c-0.222-2.144-1.2-2.036-1.2-2.036c-1.168-0.425-0.901,2.76-0.901,2.76s-9.429-2.279-10.138-2.575
							c-0.709-0.297-1.849,0.511-1.431,1.58c0.147,0.376,5.407,2.578,5.407,2.578s-4.319,4.16-4.413,5.916
							c-0.094,1.755,5.693,5.846,5.693,5.846l0.123,5.219L138.457,238.863z"/>
					</g>
				</g>
			</g>
			<g>
				<g>
					<g>
						<path style="fill:#AA6550;" d="M130.104,226.234c-0.073,0.018-0.19-0.218-0.571-0.386c-0.373-0.167-0.995-0.374-1.619-0.66
							c-1.269-0.561-2.25-1.121-2.192-1.253s1.133,0.216,2.402,0.777c0.635,0.293,1.193,0.529,1.604,0.824
							C130.153,225.842,130.179,226.235,130.104,226.234z"/>
					</g>
				</g>
			</g>
			<g>
				<g>
					<g>
						<path style="fill:#AA6550;" d="M127.89,228.378c-0.103,0.107-0.913-0.525-1.97-1.193c-1.053-0.675-1.968-1.141-1.914-1.28
							c0.046-0.131,1.089,0.134,2.194,0.841C127.308,227.448,127.989,228.281,127.89,228.378z"/>
					</g>
				</g>
			</g>
			<g>
				<g>
					<g>
						<path style="fill:#AA6550;" d="M126.454,230.051c-0.064,0.129-1.04-0.227-2.18-0.795c-1.14-0.568-2.012-1.133-1.947-1.261
							c0.064-0.129,1.04,0.227,2.18,0.795C125.646,229.357,126.518,229.922,126.454,230.051z"/>
					</g>
				</g>
			</g>
			<g>
				<g>
					<g>
						<path style="fill:#AA6550;" d="M138.457,238.639c-0.076,0.006-0.212-1.075-0.415-2.82c-0.212-1.742-0.449-4.16-0.912-6.785
							c-0.236-1.308-0.512-2.555-0.958-3.583c-0.229-0.52-0.511-0.924-0.916-1.204c-0.402-0.3-0.81-0.54-1.191-0.745
							c-1.547-0.782-2.595-1.127-2.56-1.214c0.012-0.033,0.28,0.022,0.754,0.159c0.473,0.14,1.158,0.353,1.97,0.726
							c0.404,0.19,0.841,0.421,1.278,0.723c0.466,0.292,0.857,0.813,1.1,1.353c0.504,1.099,0.794,2.366,1.035,3.694
							c0.469,2.66,0.648,5.089,0.767,6.845C138.519,237.544,138.524,238.634,138.457,238.639z"/>
					</g>
				</g>
			</g>
		</g>
		<g>
			<g>
				<g>
					<path style="fill:#455A64;" d="M173.569,208.301c-0.017-0.006,0.045-0.23,0.177-0.652c0.15-0.472,0.344-1.083,0.585-1.841
						c0.484-1.599,1.246-3.921,1.599-6.881c0.162-1.475,0.217-3.121-0.07-4.834c-0.288-1.709-0.904-3.504-1.98-5.127
						c-1.059-1.618-2.629-3.062-4.616-3.761c-1.993-0.711-4.246-0.651-6.538-0.776c-2.282-0.12-4.663-0.584-6.402-2.075
						c-0.866-0.733-1.432-1.756-1.745-2.763c-0.333-1.007-0.528-2.004-0.885-2.9c-0.661-1.83-2.341-2.93-3.999-3.321
						c-1.67-0.417-3.338-0.29-4.736,0.142c-1.404,0.426-2.543,1.219-3.213,2.163c-0.671,0.944-0.867,1.988-0.829,2.799
						c0.037,0.822,0.295,1.43,0.522,1.797c0.227,0.372,0.403,0.53,0.381,0.551c0,0-0.204-0.128-0.468-0.493
						c-0.262-0.36-0.566-0.983-0.636-1.842c-0.071-0.848,0.099-1.95,0.793-2.978c0.689-1.021,1.88-1.879,3.34-2.347
						c1.453-0.473,3.185-0.63,4.952-0.21c0.88,0.211,1.766,0.583,2.549,1.172c0.779,0.588,1.424,1.432,1.791,2.389
						c0.384,0.949,0.586,1.958,0.912,2.921c0.31,0.968,0.816,1.866,1.608,2.537c1.589,1.361,3.86,1.827,6.097,1.939
						c2.257,0.128,4.566,0.059,6.678,0.816c2.111,0.75,3.757,2.288,4.847,3.979c1.109,1.698,1.726,3.555,2.005,5.32
						c0.278,1.775,0.198,3.45,0.01,4.948c-0.406,3.003-1.228,5.317-1.772,6.901c-0.282,0.792-0.515,1.401-0.678,1.812
						C173.68,208.094,173.586,208.307,173.569,208.301z"/>
				</g>
			</g>
		</g>
		<g>
			<g>
				<g>
					<path style="fill:#455A64;" d="M167.478,217.858c-0.104-0.078,1.34-1.293,2.477-3.971c0.552-1.33,0.996-3.019,1.044-4.922
						c0.048-1.897-0.318-4.006-1.31-5.968c-0.487-0.989-1.046-1.932-1.486-2.911c-0.454-0.974-0.719-2.004-0.869-2.966
						c-0.297-1.922-0.436-3.668-1.1-4.937c-0.639-1.281-1.579-2.055-2.313-2.345c-0.739-0.31-1.215-0.226-1.211-0.287
						c-0.001-0.018,0.111-0.036,0.331-0.053c0.218-0.001,0.551,0.011,0.951,0.151c0.806,0.249,1.851,1.032,2.568,2.364
						c0.752,1.341,0.927,3.146,1.247,5.026c0.162,0.947,0.418,1.899,0.861,2.836c0.43,0.942,0.988,1.877,1.488,2.892
						c1.03,2.037,1.401,4.252,1.322,6.212c-0.076,1.971-0.574,3.706-1.186,5.054c-0.625,1.348-1.33,2.334-1.888,2.942
						c-0.258,0.322-0.512,0.525-0.664,0.678C167.58,217.801,167.49,217.871,167.478,217.858z"/>
				</g>
			</g>
		</g>
		<g>
			<g>
				<g>
					<path style="fill:#FAFAFA;" d="M159.772,242.716c0.023,0.064-0.935,0.505-2.53,1.118c-1.594,0.6-3.849,1.391-6.467,1.722
						c-2.621,0.332-5.053-0.023-6.669-0.641c-0.811-0.302-1.432-0.632-1.833-0.899c-0.403-0.265-0.602-0.443-0.584-0.47
						c0.049-0.081,0.928,0.524,2.535,1.02c1.596,0.511,3.94,0.794,6.488,0.473c2.55-0.322,4.791-1.043,6.409-1.553
						C158.739,242.965,159.746,242.645,159.772,242.716z"/>
				</g>
			</g>
		</g>
		<g>
			<g>
				<g>
					<path style="fill:#FAFAFA;" d="M181.653,249.742c-0.115,0.035-0.214-1.427-1.469-3.273c-1.214-1.835-3.727-3.873-7.004-4.758
						c-3.29-0.871-6.437-0.693-8.666-0.559c-2.243,0.157-3.634,0.289-3.643,0.21c-0.004-0.035,0.338-0.112,0.96-0.217
						c0.623-0.105,1.527-0.238,2.651-0.36c2.232-0.227,5.433-0.475,8.834,0.424c3.407,0.919,5.992,3.095,7.175,5.059
						c0.604,0.979,0.922,1.866,1.049,2.492C181.673,249.385,181.679,249.739,181.653,249.742z"/>
				</g>
			</g>
		</g>
		<g>
			<g>
				<g>
					<path style="fill:#FAFAFA;" d="M170.435,272.658c-0.096,0.029-0.427-1.217-1.351-3.049c-0.453-0.919-1.099-1.959-1.901-3.047
						c-0.825-1.07-1.822-2.179-2.993-3.21c-1.186-1.016-2.423-1.847-3.599-2.514c-1.19-0.642-2.309-1.135-3.283-1.455
						c-1.943-0.658-3.223-0.811-3.208-0.91c0.004-0.036,0.325-0.017,0.904,0.048c0.291,0.027,0.645,0.075,1.048,0.172
						c0.404,0.092,0.872,0.171,1.367,0.34c1.008,0.281,2.169,0.749,3.4,1.384c1.217,0.66,2.496,1.501,3.712,2.543
						c1.202,1.057,2.214,2.206,3.038,3.318c0.801,1.13,1.427,2.214,1.847,3.172c0.237,0.466,0.381,0.919,0.528,1.306
						c0.153,0.386,0.249,0.729,0.317,1.014C170.406,272.334,170.47,272.649,170.435,272.658z"/>
				</g>
			</g>
		</g>
		<g>
			<g>
				<g>
					<path style="fill:#FAFAFA;" d="M154.553,294.727c-0.095-0.026,0.341-1.53,0.662-4.018c0.169-1.243,0.262-2.735,0.263-4.389
						c-0.026-1.655-0.161-3.472-0.475-5.356c-0.334-1.882-0.816-3.64-1.346-5.208c-0.555-1.559-1.143-2.934-1.718-4.048
						c-1.136-2.237-2.05-3.508-1.969-3.564c0.029-0.021,0.275,0.283,0.696,0.853c0.43,0.563,0.984,1.43,1.599,2.54
						c0.624,1.106,1.256,2.484,1.844,4.059c0.563,1.583,1.067,3.368,1.407,5.28c0.32,1.915,0.442,3.765,0.442,5.445
						c-0.027,1.681-0.161,3.191-0.378,4.442c-0.209,1.251-0.44,2.254-0.657,2.929C154.717,294.368,154.587,294.737,154.553,294.727z
						"/>
				</g>
			</g>
		</g>
		<g>
			<g>
				<g>
					<path style="fill:#FAFAFA;" d="M131.966,271.719c-0.007-0.094,1.074-0.161,2.748-0.581c1.672-0.413,3.921-1.273,6.092-2.757
						c2.165-1.494,3.775-3.286,4.76-4.698c0.992-1.412,1.443-2.397,1.528-2.357c0.033,0.015-0.055,0.271-0.244,0.725
						c-0.18,0.458-0.511,1.091-0.978,1.837c-0.926,1.495-2.543,3.385-4.771,4.922c-2.233,1.528-4.577,2.359-6.305,2.687
						c-0.864,0.168-1.574,0.25-2.066,0.254C132.239,271.765,131.968,271.755,131.966,271.719z"/>
				</g>
			</g>
		</g>
		<g>
			<g>
				<g>
					<path style="fill:#FAFAFA;" d="M143.25,249.179c0.023,0.023-0.14,0.234-0.484,0.568c-0.343,0.336-0.885,0.777-1.615,1.233
						c-1.452,0.925-3.733,1.782-6.345,2.06c-2.611,0.279-4.977,0.061-6.662-0.132c-1.689-0.205-2.721-0.396-2.714-0.464
						c0.008-0.075,1.058-0.013,2.747,0.098c1.687,0.099,4.026,0.254,6.572-0.019c2.544-0.272,4.76-1.044,6.217-1.861
						C142.435,249.857,143.188,249.11,143.25,249.179z"/>
				</g>
			</g>
		</g>
		<g>
			<g>
				<g>
					<path style="fill:#FAFAFA;" d="M167.556,229.004c0.014,0.033-0.335,0.214-0.979,0.509c-0.644,0.295-1.583,0.704-2.764,1.168
						c-2.351,0.908-5.72,2.109-9.64,2.304c-3.929,0.185-7.449-1.016-9.539-2.499c-1.055-0.732-1.797-1.472-2.238-2.033
						c-0.445-0.559-0.638-0.904-0.615-0.92c0.087-0.08,0.94,1.298,3.056,2.646c2.079,1.36,5.496,2.464,9.314,2.286
						c3.82-0.188,7.162-1.311,9.535-2.129c1.105-0.396,2.044-0.734,2.815-1.011C167.167,229.088,167.542,228.97,167.556,229.004z"/>
				</g>
			</g>
		</g>
		<g>
			<g>
				<g>
					<path style="fill:#FAFAFA;" d="M125.187,272.347c-0.088,0.02-0.369-1.207-1.056-3.105c-0.683-1.897-1.847-4.445-3.581-6.985
						c-1.742-2.536-3.696-4.543-5.218-5.866c-1.52-1.328-2.562-2.033-2.512-2.108c0.02-0.03,0.297,0.12,0.783,0.419
						c0.491,0.292,1.166,0.771,1.966,1.407c1.601,1.267,3.637,3.272,5.411,5.854c1.765,2.586,2.898,5.21,3.499,7.161
						c0.304,0.976,0.505,1.779,0.6,2.342C125.182,272.027,125.222,272.34,125.187,272.347z"/>
				</g>
			</g>
		</g>
		<g>
			<g>
				<g>
					<path style="fill:#FAFAFA;" d="M109.396,283.79c-0.079-0.009,0.028-1.337,0.138-3.482c0.111-2.145,0.194-5.111,0.088-8.383
						c-0.11-3.274-0.389-6.228-0.641-8.361c-0.25-2.133-0.445-3.451-0.367-3.465c0.035-0.007,0.126,0.315,0.26,0.904
						c0.137,0.588,0.3,1.446,0.472,2.511c0.347,2.13,0.686,5.099,0.796,8.394c0.107,3.294-0.036,6.279-0.241,8.427
						c-0.102,1.074-0.208,1.941-0.306,2.537C109.501,283.467,109.432,283.794,109.396,283.79z"/>
				</g>
			</g>
		</g>
		<g>
			<g>
				<g>
					<path style="fill:#FAFAFA;" d="M106.687,256.354c0.043,0.04-0.592,0.825-1.816,1.898c-1.22,1.073-3.068,2.393-5.317,3.466
						c-2.252,1.067-4.443,1.665-6.046,1.933c-1.605,0.271-2.615,0.268-2.619,0.21c-0.035-0.174,4.016-0.481,8.441-2.613
						C103.777,259.164,106.574,256.217,106.687,256.354z"/>
				</g>
			</g>
		</g>
		<g>
			<g>
				<g>
					<path style="fill:#FAFAFA;" d="M104.469,243.871c0.032,0.048-0.676,0.6-1.973,1.239c-1.292,0.64-3.202,1.31-5.398,1.594
						c-2.198,0.277-4.215,0.107-5.626-0.187c-1.416-0.292-2.239-0.648-2.221-0.703c0.028-0.174,3.473,0.953,7.781,0.374
						C101.347,245.667,104.399,243.71,104.469,243.871z"/>
				</g>
			</g>
		</g>
		<g>
			<g>
				<g>
					<path style="fill:#FAFAFA;" d="M101.109,227.546c0.028,0.055-0.633,0.485-1.81,0.972c-1.173,0.488-2.879,0.989-4.819,1.188
						c-1.941,0.193-3.713,0.043-4.96-0.2c-1.25-0.242-1.985-0.532-1.968-0.59c0.031-0.167,3.078,0.678,6.875,0.272
						C98.229,228.826,101.046,227.389,101.109,227.546z"/>
				</g>
			</g>
		</g>
		<g>
			<g>
				<g>
					<path style="fill:#FAFAFA;" d="M178.049,289.516c-0.003,0.047-0.666,0.001-1.854,0.082c-1.186,0.082-2.899,0.338-4.926,0.99
						c-2.031,0.642-4.351,1.679-6.872,2.958c-2.53,1.256-5.294,2.744-8.432,3.779c-3.139,1.047-6.334,1.329-9.181,1.147
						c-2.854-0.191-5.374-0.84-7.384-1.618c-2.009-0.789-3.535-1.656-4.523-2.342c-0.511-0.318-0.864-0.629-1.118-0.816
						c-0.248-0.196-0.373-0.305-0.362-0.32c0.07-0.12,2.123,1.659,6.132,3.133c1.996,0.723,4.482,1.322,7.284,1.484
						c2.796,0.151,5.916-0.139,8.99-1.163c3.079-1.015,5.834-2.478,8.381-3.714c2.539-1.258,4.906-2.275,6.977-2.88
						c2.069-0.616,3.822-0.82,5.025-0.841c0.602-0.012,1.071,0.009,1.385,0.045C177.886,289.473,178.05,289.498,178.049,289.516z"/>
				</g>
			</g>
		</g>
		<g>
			<g>
				<g>
					<path style="fill:#FAFAFA;" d="M178.772,275.376c0.047,0.127-2.215,1.044-5.159,1.62c-2.943,0.587-5.383,0.599-5.388,0.464
						c-0.01-0.152,2.385-0.396,5.287-0.975C176.416,275.918,178.724,275.232,178.772,275.376z"/>
				</g>
			</g>
		</g>
		<g>
			<g>
				<g>
					<path style="fill:#FAFAFA;" d="M180.485,301.215c0.006,0.017-0.162,0.088-0.485,0.207c-0.382,0.133-0.852,0.297-1.425,0.497
						c-1.238,0.429-3.053,0.983-5.313,1.604c-4.517,1.247-10.864,2.633-17.977,3.455c-7.117,0.81-13.613,0.897-18.295,0.704
						c-2.342-0.093-4.235-0.222-5.538-0.36c-0.603-0.065-1.098-0.118-1.5-0.162c-0.342-0.043-0.521-0.074-0.52-0.092
						s0.184-0.022,0.528-0.013c0.403,0.017,0.901,0.038,1.506,0.064c1.306,0.076,3.197,0.148,5.534,0.194
						c4.672,0.097,11.138-0.047,18.226-0.854c7.084-0.818,13.414-2.141,17.943-3.294c2.265-0.573,4.092-1.072,5.346-1.441
						c0.583-0.162,1.063-0.295,1.452-0.403C180.302,301.235,180.48,301.198,180.485,301.215z"/>
				</g>
			</g>
		</g>
		<g style="opacity:0.3;">
			<g>
				<g>
					<path d="M152.285,295.692c2.739,1.033,5.624,1.798,8.551,1.77c2.928-0.028,5.917-0.91,8.113-2.846
						c2.681-2.365,3.879-5.954,4.837-9.398c1.632-5.865,3.074-17.236,2.895-23.318c0,0-5.809,12.014-7.896,15.689
						c-1.847,3.251-3.743,6.57-5.981,11.307C161,292.716,156.691,295.344,152.285,295.692"/>
				</g>
			</g>
		</g>
		<g style="opacity:0.3;">
			<g>
				<g>
					<path d="M123.35,245.261c-3.994,8.947-3.901,19.625,0.247,28.502l6.427-5.726L123.35,245.261z"/>
				</g>
			</g>
		</g>
	</g>
</g>
<g id="Plant">
	<g>
		<g>
			<g>
				<path style="fill:#E8505B;" d="M426.568,443.31c0.677-2.687-1.098-5.371-3.081-7.307c-1.983-1.936-4.352-3.667-5.393-6.235
					c-1.686-4.161,0.518-9.574-2.339-13.038c-1.681-2.038-4.677-2.705-6.171-4.884c-0.783-1.143-1.043-2.551-1.356-3.901
					c-1.596-6.884-5.083-13.32-9.977-18.418c-0.304,6.14,1.086,12.355,3.974,17.782c1.161,2.181,2.584,4.306,2.979,6.746
					c0.641,3.961-1.549,8.059-0.553,11.946c1.139,4.446,6.157,7.397,6.421,11.98c0.223,3.874-3.136,7.294-2.862,11.164
					c0.117,1.648,0.891,3.174,1.75,4.585c3.025,4.964,7.445,8.369,14.115,8.22l8.172,0.24L426.568,443.31z"/>
			</g>
		</g>
		<g style="opacity:0.3;">
			<g>
				<g>
					<path d="M426.568,443.31c0.677-2.687-1.098-5.371-3.081-7.307c-1.983-1.936-4.352-3.667-5.393-6.235
						c-1.686-4.161,0.518-9.574-2.339-13.038c-1.681-2.038-4.677-2.705-6.171-4.884c-0.783-1.143-1.043-2.551-1.356-3.901
						c-1.596-6.884-5.083-13.32-9.977-18.418c-0.304,6.14,1.086,12.355,3.974,17.782c1.161,2.181,2.584,4.306,2.979,6.746
						c0.641,3.961-1.549,8.059-0.553,11.946c1.139,4.446,6.157,7.397,6.421,11.98c0.223,3.874-3.136,7.294-2.862,11.164
						c0.117,1.648,0.891,3.174,1.75,4.585c3.025,4.964,7.445,8.369,14.115,8.22l8.172,0.24L426.568,443.31z"/>
				</g>
			</g>
		</g>
		<g>
			<g>
				<g>
					<g>
						<g>
							<path style="fill:#263238;" d="M433.905,462.395c0,0,0.195-0.007,0.571,0.004c0.376-0.013,0.938-0.034,1.661-0.17
								c0.723-0.127,1.611-0.341,2.614-0.725c0.996-0.387,2.129-0.934,3.191-1.823c0.508-0.459,1.005-1.02,1.258-1.727
								c0.254-0.71,0.298-1.535,0.335-2.377c0.031-0.848,0.019-1.745,0.157-2.676c0.13-0.934,0.491-1.871,0.998-2.738
								c0.973-1.746,2.518-3.342,2.978-5.54c0.514-2.176,0.104-4.568-0.304-7.026c-0.404-2.441-0.818-5.197,0.13-7.866
								c0.885-2.642,2.655-4.971,3.486-7.756c0.837-2.799,0.41-5.879,0.57-9.033c0.073-1.577,0.375-3.216,1.068-4.71
								c0.672-1.497,1.58-2.87,2.262-4.354c1.38-2.98,1.616-6.414,1.987-9.85c0.181-1.725,0.365-3.468,0.55-5.228
								c0.18-1.746,0.332-3.573,0.89-5.317c0.503-1.753,1.233-3.438,1.941-5.123c0.346-0.842,0.708-1.692,0.902-2.553
								c0.138-0.861,0.188-1.816,0.236-2.728c0.079-1.846-0.008-3.707-0.248-5.569c-0.23-1.862-0.582-3.734-0.798-5.645
								c-0.013-0.113-0.027-0.226-0.039-0.329l0.375,0.205c-1.663,0.846-3.089,2.098-4.194,3.584
								c-1.123,1.474-1.947,3.152-2.604,4.865c-1.321,3.446-1.792,7.089-2.467,10.626c-0.659,3.529-1.538,7.053-3.378,10.065
								c-0.913,1.497-1.995,2.833-2.92,4.232c-0.925,1.389-1.707,2.875-1.934,4.466c-0.473,3.217,1.434,6.262,1.059,9.523
								c-0.146,1.611-0.778,3.094-1.534,4.422c-0.755,1.337-1.631,2.557-2.451,3.771c-0.819,1.212-1.589,2.427-2.147,3.707
								c-0.568,1.275-0.876,2.618-0.962,3.965c-0.193,2.692,0.202,5.313,0.001,7.834c-0.169,2.536-1.057,4.827-2.048,6.845
								c-0.998,2.029-2.099,3.845-3.017,5.598c-0.462,0.874-0.889,1.731-1.232,2.577c-0.361,0.837-0.541,1.704-0.708,2.527
								c-0.268,1.665-0.25,3.223-0.078,4.597c0.336,2.766,1.346,4.761,2.252,5.895C433.23,461.982,433.941,462.353,433.905,462.395
								c0,0-0.163-0.102-0.469-0.325c-0.156-0.108-0.346-0.247-0.539-0.452c-0.197-0.199-0.448-0.411-0.665-0.712
								c-0.945-1.128-2-3.137-2.371-5.934c-0.19-1.39-0.224-2.968,0.034-4.664c0.163-0.84,0.339-1.724,0.703-2.587
								c0.344-0.865,0.766-1.728,1.224-2.611c0.911-1.768,2-3.592,2.977-5.608c0.971-2.008,1.826-4.254,1.979-6.727
								c0.188-2.469-0.218-5.081-0.035-7.837c0.082-1.376,0.399-2.783,0.981-4.101c0.572-1.322,1.352-2.56,2.172-3.782
								c0.82-1.222,1.686-2.437,2.42-3.747c0.737-1.302,1.334-2.727,1.467-4.25c0.379-3.064-1.542-6.089-1.079-9.547
								c0.24-1.7,1.063-3.253,2.001-4.668c0.94-1.425,2.016-2.759,2.903-4.22c1.784-2.929,2.65-6.387,3.301-9.902
								c0.668-3.514,1.139-7.196,2.484-10.714c0.67-1.748,1.513-3.468,2.674-4.995c1.142-1.537,2.632-2.85,4.377-3.736l0.331-0.168
								l0.044,0.373c0.012,0.103,0.025,0.214,0.039,0.326c0.213,1.889,0.564,3.756,0.797,5.64c0.243,1.883,0.331,3.781,0.25,5.654
								c-0.052,0.946-0.093,1.848-0.248,2.811c-0.215,0.944-0.584,1.795-0.933,2.646c-0.712,1.692-1.432,3.353-1.926,5.068
								c-0.547,1.703-0.694,3.464-0.878,5.231c-0.187,1.759-0.373,3.501-0.556,5.224c-0.377,3.421-0.613,6.911-2.046,9.997
								c-0.707,1.527-1.616,2.896-2.269,4.346c-0.671,1.44-0.962,2.992-1.039,4.544c-0.171,3.088,0.263,6.215-0.613,9.129
								c-0.879,2.885-2.658,5.203-3.52,7.763c-0.923,2.559-0.54,5.23-0.147,7.678c0.394,2.454,0.809,4.897,0.263,7.16
								c-0.504,2.301-2.094,3.911-3.048,5.609c-0.502,0.847-0.85,1.733-0.983,2.634c-0.141,0.901-0.137,1.79-0.176,2.644
								c-0.047,0.853-0.093,1.685-0.371,2.443c-0.281,0.761-0.81,1.337-1.338,1.805c-1.102,0.902-2.255,1.438-3.269,1.815
								c-1.019,0.373-1.919,0.572-2.651,0.684C434.685,462.571,433.905,462.395,433.905,462.395z"/>
						</g>
					</g>
				</g>
				<g>
					<g>
						<g>
							<path style="fill:#263238;" d="M459.176,365.989c0.009,0.002,0,0.089-0.025,0.258c-0.033,0.198-0.074,0.444-0.125,0.747
								c-0.125,0.656-0.275,1.619-0.551,2.864c-0.294,1.253-1.003,2.642-1.595,4.328c-0.62,1.68-1.249,3.621-1.826,5.801
								c-0.585,2.177-1.1,4.593-1.645,7.196c-0.558,2.58-1.14,5.443-2.562,8.117c-0.663,1.345-1.397,2.686-1.967,4.122
								c-0.582,1.429-0.889,2.979-1.107,4.582c-0.365,3.223-0.946,6.573-1.702,9.936c-1.616,6.707-3.155,13.095-4.556,18.912
								c-1.463,5.785-2.782,10.999-3.893,15.393c-1.119,4.346-2.028,7.877-2.669,10.367c-0.318,1.19-0.569,2.129-0.751,2.812
								c-0.085,0.295-0.153,0.535-0.208,0.728c-0.05,0.163-0.08,0.246-0.088,0.244c-0.009-0.002,0.004-0.089,0.036-0.257
								c0.042-0.197,0.094-0.44,0.158-0.741c0.159-0.688,0.379-1.636,0.656-2.836c0.602-2.499,1.457-6.044,2.508-10.407
								c1.081-4.402,2.363-9.625,3.785-15.42c1.388-5.815,2.912-12.202,4.513-18.907c0.756-3.366,1.331-6.656,1.705-9.895
								c0.222-1.614,0.544-3.222,1.15-4.695c0.59-1.473,1.337-2.82,1.999-4.151c1.411-2.626,1.989-5.405,2.57-7.995
								c0.563-2.595,1.101-5.019,1.712-7.201c0.602-2.184,1.26-4.129,1.909-5.807c0.624-1.691,1.358-3.065,1.672-4.277
								c0.301-1.216,0.488-2.189,0.644-2.833c0.071-0.299,0.129-0.541,0.176-0.737C459.141,366.071,459.167,365.987,459.176,365.989
								z"/>
						</g>
					</g>
				</g>
			</g>
			<g>
				<g>
					<g>
						<path style="fill:#E8505B;" d="M435.347,462.412c5.319-3.203,6.796-12.841,4.537-18.624
							c-2.259-5.783-6.186-11.057-6.822-17.233c-0.489-4.748,1.039-9.632-0.094-14.268c-1.529-6.257-7.673-11.076-7.64-17.517
							c0.019-3.614,2.056-7.026,1.872-10.635c-0.226-4.427-3.645-7.921-5.772-11.81c-3.256-5.953-3.508-13.011-4.648-19.7
							c-1.14-6.689-3.732-13.844-9.685-17.101c-0.844,5.689-2.318,9.591-1.804,17.288c0.185,2.764,3.427,8.04,3.898,14.099
							c0.282,3.621,0.484,7.248,0.725,10.872c0.235,3.527,0.484,7.117,1.768,10.41c0.983,2.524,2.553,4.812,3.288,7.419
							c1.382,4.905-0.367,10.236,0.754,15.206c0.95,4.211,3.889,7.824,4.509,12.096c0.872,6.003-2.981,12.267-0.958,17.985
							c1.004,2.838,3.356,5.108,4.036,8.04c0.528,2.275-0.02,4.69,0.46,6.976c0.772,3.683,7.821,6.506,11.575,6.257"/>
					</g>
				</g>
				<g>
					<g>
						<g>
							<path style="fill:#263238;" d="M408.599,341.157c0.009-0.002,0.035,0.104,0.078,0.312c0.045,0.236,0.103,0.541,0.177,0.925
								c0.16,0.81,0.34,2.026,0.652,3.555c0.329,1.526,1.171,3.271,1.861,5.402c0.722,2.117,1.442,4.564,2.082,7.307
								c0.65,2.74,1.2,5.777,1.772,9.03c0.594,3.246,1.179,6.737,2.806,10.074c0.759,1.688,1.62,3.397,2.28,5.251
								c0.678,1.854,0.999,3.861,1.197,5.875c0.308,4.041,0.864,8.164,1.641,12.383c1.667,8.41,3.255,16.421,4.7,23.713
								c1.494,7.273,2.839,13.825,3.972,19.341c1.107,5.484,2.005,9.933,2.634,13.049c0.295,1.516,0.526,2.707,0.69,3.553
								c0.069,0.385,0.124,0.69,0.167,0.927c0.035,0.209,0.048,0.318,0.039,0.319c-0.009,0.002-0.04-0.103-0.091-0.309
								c-0.056-0.234-0.127-0.536-0.217-0.916c-0.187-0.842-0.45-2.025-0.786-3.533c-0.668-3.107-1.621-7.545-2.796-13.015
								c-1.164-5.509-2.547-12.054-4.082-19.319c-1.459-7.293-3.061-15.306-4.743-23.719c-0.777-4.215-1.337-8.399-1.636-12.423
								c-0.194-2.004-0.502-3.952-1.159-5.761c-0.641-1.816-1.49-3.518-2.249-5.22c-1.637-3.386-2.223-6.961-2.794-10.195
								c-0.553-3.259-1.08-6.287-1.705-9.022c-0.615-2.736-1.306-5.18-1.999-7.297c-0.658-2.124-1.475-3.884-1.783-5.449
								c-0.286-1.557-0.431-2.762-0.558-3.582c-0.052-0.387-0.094-0.695-0.126-0.933
								C408.598,341.267,408.59,341.159,408.599,341.157z"/>
						</g>
					</g>
				</g>
			</g>
		</g>
	</g>
</g>
<g id="Device">
	<g>
		<g>
			<g>
				<g>
					<g>
						<g>
							<path style="fill:#263238;" d="M346.638,462.825l-131.532-0.078c-15.819-0.008-28.638-12.837-28.635-28.657l0.064-329.753
								c0.003-15.828,12.84-28.655,28.668-28.646l131.532,0.077c15.819,0.01,28.637,12.838,28.634,28.657l-0.065,329.754
								C375.303,450.008,362.466,462.835,346.638,462.825z"/>
						</g>
					</g>
				</g>
				<g>
					<g>
						<g>
							<path style="fill:#FFFFFF;" d="M346.597,87.432l-25.502-0.015c-3.42-0.002-6.193,2.895-6.193,6.47l-0.002,4.626
								c0,3.575-2.774,6.472-6.193,6.47l-49.709-0.029c-3.42-0.002-6.192-2.902-6.191-6.477l0.001-4.626
								c0-3.575-2.772-6.475-6.192-6.477l-8.969-0.006l-22.32-0.013c-11.085-0.006-20.075,8.977-20.077,20.062l-0.063,321.863
								c-0.002,11.08,8.975,20.064,20.054,20.071l131.269,0.077c11.084,0.007,20.075-8.976,20.078-20.062l0.063-321.864
								C366.652,96.422,357.676,87.438,346.597,87.432z"/>
						</g>
					</g>
				</g>
			</g>
		</g>
		<g>
			<g>
				<g>
					<g>
						<path style="fill:#263238;" d="M350.476,119.932c0.001,0.086-3.316,0.184-7.406,0.217c-4.092,0.034-7.409-0.009-7.409-0.095
							c-0.001-0.086,3.315-0.184,7.407-0.217C347.158,119.803,350.475,119.846,350.476,119.932z"/>
					</g>
				</g>
			</g>
			<g>
				<g>
					<g>
						<path style="fill:#263238;" d="M350.507,123.723c0.001,0.086-3.315,0.184-7.406,0.217c-4.092,0.034-7.409-0.009-7.409-0.095
							c-0.001-0.086,3.315-0.184,7.407-0.217C347.189,123.594,350.507,123.636,350.507,123.723z"/>
					</g>
				</g>
			</g>
			<g>
				<g>
					<g>
						<path style="fill:#263238;" d="M350.539,127.513c0.001,0.086-3.316,0.184-7.406,0.217c-4.092,0.034-7.409-0.009-7.409-0.095
							c-0.001-0.086,3.315-0.184,7.407-0.217C347.221,127.384,350.538,127.427,350.539,127.513z"/>
					</g>
				</g>
			</g>
		</g>
		<g>
			<g>
				<g>
					<path style="fill:#263238;" d="M215.726,131.84c0.006-0.006,0.111-0.012,0.308-0.02c0.243-0.008,0.524-0.017,0.857-0.028
						c0.808-0.019,1.866-0.044,3.163-0.075l-0.088,0.089c-0.011-0.701-0.024-1.467-0.037-2.294c0.004-0.426-0.036-0.828,0.005-1.321
						c0.085-0.491,0.523-0.925,1.061-0.975c0.51-0.01,0.959-0.033,1.511-0.008c0.57,0.07,1.055,0.618,1.038,1.222
						c0.012,1.07,0.025,2.187,0.038,3.346l-0.147-0.144c1.281-0.013,2.616-0.026,3.991-0.04l-0.152,0.154
						c-0.014-1.607-0.029-3.269-0.044-4.972c-0.004-0.425-0.007-0.847-0.011-1.266c-0.002-0.391-0.239-0.652-0.561-0.943
						c-0.59-0.582-1.173-1.156-1.745-1.719c-0.571-0.564-1.133-1.118-1.683-1.661c-0.275-0.271-0.547-0.54-0.815-0.806
						c-0.28-0.27-0.501-0.549-0.825-0.616c-0.315-0.085-0.662-0.018-0.916,0.175c-0.242,0.204-0.499,0.493-0.743,0.73
						c-0.491,0.496-0.969,0.978-1.432,1.445c-0.901,0.936-1.839,1.79-2.521,2.598c-0.287,0.446-0.18,0.992-0.201,1.489
						c-0.001,0.494-0.002,0.964-0.003,1.406c-0.005,0.862-0.01,1.618-0.014,2.265c-0.007,0.579-0.012,1.057-0.016,1.449
						C215.739,131.652,215.733,131.832,215.726,131.84c-0.008,0.008-0.016-0.157-0.027-0.48c-0.011-0.386-0.024-0.856-0.04-1.426
						c-0.015-0.653-0.032-1.414-0.052-2.283c-0.008-0.451-0.017-0.93-0.027-1.434c-0.004-0.255-0.008-0.517-0.012-0.785
						c-0.002-0.283,0.071-0.576,0.22-0.835c0.738-0.905,1.619-1.705,2.527-2.668c0.459-0.47,0.933-0.956,1.421-1.456
						c0.256-0.251,0.465-0.501,0.77-0.763c0.319-0.245,0.757-0.333,1.157-0.228c0.424,0.094,0.701,0.442,0.958,0.685
						c0.27,0.264,0.543,0.532,0.819,0.802c0.552,0.541,1.115,1.093,1.688,1.655c0.573,0.563,1.156,1.135,1.748,1.716
						c0.14,0.148,0.309,0.274,0.446,0.483c0.129,0.199,0.203,0.434,0.209,0.673c0.004,0.422,0.008,0.846,0.011,1.273
						c0.013,1.703,0.026,3.365,0.038,4.972l0.001,0.153l-0.153,0.001c-1.375,0.009-2.709,0.017-3.991,0.025l-0.146,0.001
						l-0.001-0.145c-0.006-1.159-0.012-2.276-0.018-3.346c0.017-0.482-0.358-0.907-0.806-0.969c-0.459-0.024-1-0.008-1.447-0.004
						c-0.429,0.035-0.787,0.38-0.861,0.776c-0.038,0.401-0.009,0.869-0.017,1.275c0,0.827,0.001,1.593,0.001,2.294l0,0.09
						l-0.088-0.001c-1.319-0.009-2.394-0.017-3.216-0.023c-0.325-0.006-0.6-0.01-0.838-0.014
						C215.814,131.851,215.72,131.846,215.726,131.84z"/>
				</g>
			</g>
		</g>
		<g>
			<g>
				<g>
					<g>
						<path style="fill:#F5F5F5;" d="M338.966,177.327H220.504c-5.928,0-10.733-4.805-10.733-10.733v-3.987
							c0-5.928,4.805-10.733,10.733-10.733h118.463c5.928,0,10.733,4.805,10.733,10.733v3.987
							C349.699,172.522,344.894,177.327,338.966,177.327z"/>
					</g>
				</g>
				<g>
					<g>
						<g>
							<path style="fill:#263238;" d="M338.966,177.327c0,0,0.273-0.032,0.803-0.067c0.529-0.039,1.315-0.16,2.309-0.449
								c0.98-0.322,2.17-0.843,3.366-1.771c1.199-0.912,2.385-2.257,3.191-4.046c0.39-0.893,0.722-1.885,0.842-2.966
								c0.143-1.072,0.094-2.225,0.097-3.428c-0.019-1.203,0.058-2.463-0.165-3.729c-0.213-1.268-0.669-2.549-1.389-3.731
								c-1.421-2.358-3.959-4.337-7.061-4.907c-1.536-0.292-3.185-0.157-4.865-0.184c-1.681,0.003-3.405,0.006-5.171,0.009
								c-28.271,0.02-67.303,0.046-110.413,0.076c-2.637-0.002-5.229,1.028-7.126,2.806c-1.911,1.763-3.105,4.241-3.311,6.796
								c-0.088,1.268-0.025,2.608-0.045,3.901c-0.031,1.315,0.038,2.563,0.397,3.786c0.677,2.432,2.262,4.566,4.335,5.929
								c1.032,0.689,2.191,1.176,3.389,1.445c1.201,0.284,2.424,0.285,3.682,0.277c2.495,0.001,4.966,0.002,7.411,0.003
								c4.89,0.003,9.677,0.006,14.349,0.009c18.681,0.021,35.505,0.04,49.639,0.056c14.12,0.035,25.548,0.063,33.465,0.083
								c3.94,0.021,7.003,0.038,9.098,0.049c1.029,0.011,1.818,0.02,2.366,0.026C338.693,177.309,338.966,177.327,338.966,177.327
								s-0.273,0.018-0.806,0.027c-0.548,0.006-1.337,0.015-2.366,0.026c-2.095,0.011-5.158,0.028-9.098,0.049
								c-7.916,0.02-19.345,0.048-33.465,0.083c-14.134,0.016-30.958,0.035-49.639,0.056c-4.671,0.003-9.458,0.006-14.349,0.009
								c-2.445,0.001-4.916,0.002-7.411,0.003c-1.233,0.009-2.538,0.011-3.796-0.286c-1.257-0.281-2.473-0.792-3.556-1.514
								c-2.176-1.428-3.839-3.664-4.551-6.217c-0.378-1.263-0.45-2.639-0.418-3.925c0.02-1.312-0.046-2.59,0.045-3.943
								c0.215-2.681,1.468-5.284,3.474-7.134c1.989-1.866,4.714-2.949,7.48-2.946c43.11,0.03,82.142,0.057,110.413,0.076
								c1.766,0.003,3.49,0.006,5.171,0.009c1.673,0.035,3.324-0.099,4.927,0.209c3.198,0.601,5.8,2.651,7.248,5.081
								c0.734,1.218,1.196,2.536,1.407,3.838c0.222,1.311,0.135,2.577,0.147,3.773c-0.01,1.199,0.033,2.355-0.121,3.458
								c-0.13,1.103-0.477,2.112-0.881,3.019c-0.836,1.817-2.056,3.172-3.281,4.085c-1.223,0.928-2.435,1.439-3.43,1.748
								c-1.009,0.275-1.803,0.38-2.336,0.402C339.239,177.331,338.966,177.327,338.966,177.327z"/>
						</g>
					</g>
				</g>
			</g>
			<g>
				<g>
					<g>
						<g>
							<path style="fill:#263238;" d="M341.126,163.993c-0.05,0.002-0.045-0.41-0.243-1.101c-0.195-0.678-0.667-1.664-1.69-2.417
								c-0.989-0.756-2.607-1.172-4.166-0.586c-1.547,0.538-2.878,2.184-2.861,4.104c-0.018,1.92,1.314,3.567,2.861,4.105
								c1.56,0.586,3.178,0.169,4.167-0.586c1.023-0.753,1.495-1.74,1.69-2.417C341.081,164.404,341.076,163.991,341.126,163.993
								c0.018,0,0.03,0.101,0.038,0.297c0.011,0.195-0.007,0.487-0.083,0.853c-0.143,0.722-0.585,1.804-1.663,2.661
								c-1.04,0.857-2.811,1.369-4.553,0.745c-1.727-0.568-3.239-2.404-3.218-4.556c-0.02-2.152,1.491-3.986,3.218-4.555
								c1.743-0.624,3.513-0.113,4.553,0.745c1.078,0.856,1.521,1.938,1.663,2.661c0.076,0.366,0.094,0.658,0.083,0.853
								C341.157,163.892,341.144,163.993,341.126,163.993z"/>
						</g>
					</g>
				</g>
				<g>
					<g>
						<g>
							<path style="fill:#263238;" d="M343.664,171.943c-0.106,0.098-1.116-0.824-2.256-2.058c-1.141-1.235-1.979-2.314-1.874-2.412
								c0.106-0.098,1.116,0.824,2.256,2.059C342.931,170.766,343.77,171.846,343.664,171.943z"/>
						</g>
					</g>
				</g>
			</g>
			<g>
				<g>
					<path style="fill:#E0E0E0;" d="M228.662,162.055h-2.496v-0.649h5.743v0.649h-2.496v6.454h-0.751V162.055z"/>
				</g>
				<g>
					<path style="fill:#E0E0E0;" d="M237.043,166.063h-4.465c0.081,1.116,0.934,1.857,2.1,1.857c0.65,0,1.228-0.233,1.634-0.7
						l0.406,0.467c-0.477,0.568-1.218,0.873-2.06,0.873c-1.665,0-2.801-1.137-2.801-2.719c0-1.583,1.106-2.71,2.608-2.71
						c1.501,0,2.587,1.106,2.587,2.71C237.053,165.9,237.043,165.981,237.043,166.063z M232.578,165.525h3.785
						c-0.091-1.045-0.852-1.775-1.897-1.775C233.431,163.749,232.67,164.48,232.578,165.525z"/>
				</g>
				<g>
					<path style="fill:#E0E0E0;" d="M241.771,168.508l-1.694-2.232l-1.705,2.232h-0.811l2.11-2.74l-2.009-2.598h0.812l1.604,2.09
						l1.603-2.09h0.792l-2.009,2.598l2.131,2.74H241.771z"/>
				</g>
				<g>
					<path style="fill:#E0E0E0;" d="M246.601,168.183c-0.284,0.254-0.71,0.376-1.127,0.376c-1.004,0-1.563-0.568-1.563-1.553v-3.227
						h-0.954v-0.609h0.954v-1.167h0.72v1.167h1.624v0.609h-1.624v3.186c0,0.629,0.325,0.974,0.923,0.974
						c0.294,0,0.589-0.091,0.792-0.274L246.601,168.183z"/>
				</g>
			</g>
		</g>
		<g>
			<g>
				<rect x="215.673" y="198.27" style="fill:#E8505B;" width="30.628" height="30.628"/>
			</g>
		</g>
		<g>
			<g>
				<g>
					<g>
						<path style="fill:#E8505B;" d="M305.221,201.566c0,0.144-10.242,0.26-22.872,0.26c-12.635,0-22.874-0.117-22.874-0.26
							s10.239-0.26,22.874-0.26C294.98,201.305,305.221,201.422,305.221,201.566z"/>
					</g>
				</g>
			</g>
			<g>
				<g>
					<g>
						<path style="fill:#263238;" d="M341.698,210.954c0,0.144-18.408,0.26-41.11,0.26c-22.71,0-41.113-0.117-41.113-0.26
							c0-0.144,18.404-0.26,41.113-0.26C323.29,210.694,341.698,210.81,341.698,210.954z"/>
					</g>
				</g>
			</g>
			<g>
				<g>
					<g>
						<path style="fill:#263238;" d="M340.731,217.659c0,0.144-18.191,0.26-40.626,0.26c-22.443,0-40.63-0.117-40.63-0.26
							s18.187-0.26,40.63-0.26C322.539,217.399,340.731,217.516,340.731,217.659z"/>
					</g>
				</g>
			</g>
			<g>
				<g>
					<g>
						<path style="fill:#263238;" d="M307.45,224.055c0,0.144-10.741,0.26-23.987,0.26c-13.251,0-23.989-0.117-23.989-0.26
							c0-0.144,10.738-0.26,23.989-0.26C296.71,223.795,307.45,223.912,307.45,224.055z"/>
					</g>
				</g>
			</g>
		</g>
		<g>
			<g>
				<rect x="215.673" y="249.298" style="fill:#E8505B;" width="30.628" height="30.628"/>
			</g>
		</g>
		<g>
			<g>
				<g>
					<g>
						<path style="fill:#E8505B;" d="M305.221,252.593c0,0.144-10.242,0.26-22.872,0.26c-12.635,0-22.874-0.117-22.874-0.26
							c0-0.144,10.239-0.26,22.874-0.26C294.98,252.333,305.221,252.45,305.221,252.593z"/>
					</g>
				</g>
			</g>
			<g>
				<g>
					<g>
						<path style="fill:#263238;" d="M341.698,261.982c0,0.144-18.408,0.26-41.11,0.26c-22.71,0-41.113-0.116-41.113-0.26
							c0-0.144,18.404-0.26,41.113-0.26C323.29,261.722,341.698,261.838,341.698,261.982z"/>
					</g>
				</g>
			</g>
			<g>
				<g>
					<g>
						<path style="fill:#263238;" d="M340.731,268.687c0,0.144-18.191,0.26-40.626,0.26c-22.443,0-40.63-0.117-40.63-0.26
							c0-0.144,18.187-0.26,40.63-0.26C322.539,268.427,340.731,268.543,340.731,268.687z"/>
					</g>
				</g>
			</g>
			<g>
				<g>
					<g>
						<path style="fill:#263238;" d="M307.45,275.083c0,0.144-10.741,0.26-23.987,0.26c-13.251,0-23.989-0.117-23.989-0.26
							c0-0.144,10.738-0.26,23.989-0.26C296.71,274.823,307.45,274.94,307.45,275.083z"/>
					</g>
				</g>
			</g>
		</g>
		<g>
			<g>
				<rect x="215.673" y="300.326" style="fill:#E8505B;" width="30.628" height="30.628"/>
			</g>
		</g>
		<g>
			<g>
				<g>
					<g>
						<path style="fill:#E8505B;" d="M305.221,303.621c0,0.144-10.242,0.26-22.872,0.26c-12.635,0-22.874-0.117-22.874-0.26
							c0-0.144,10.239-0.26,22.874-0.26C294.98,303.361,305.221,303.478,305.221,303.621z"/>
					</g>
				</g>
			</g>
			<g>
				<g>
					<g>
						<path style="fill:#263238;" d="M341.698,313.01c0,0.144-18.408,0.26-41.11,0.26c-22.71,0-41.113-0.117-41.113-0.26
							c0-0.144,18.404-0.26,41.113-0.26C323.29,312.75,341.698,312.866,341.698,313.01z"/>
					</g>
				</g>
			</g>
			<g>
				<g>
					<g>
						<path style="fill:#263238;" d="M340.731,319.715c0,0.144-18.191,0.26-40.626,0.26c-22.443,0-40.63-0.117-40.63-0.26
							s18.187-0.26,40.63-0.26C322.539,319.455,340.731,319.571,340.731,319.715z"/>
					</g>
				</g>
			</g>
			<g>
				<g>
					<g>
						<path style="fill:#263238;" d="M307.45,326.111c0,0.144-10.741,0.26-23.987,0.26c-13.251,0-23.989-0.117-23.989-0.26
							c0-0.144,10.738-0.26,23.989-0.26C296.71,325.851,307.45,325.967,307.45,326.111z"/>
					</g>
				</g>
			</g>
		</g>
		<g>
			<g>
				<rect x="215.673" y="351.354" style="fill:#E8505B;" width="30.628" height="30.628"/>
			</g>
		</g>
		<g>
			<g>
				<g>
					<g>
						<path style="fill:#455A64;" d="M305.221,354.649c0,0.144-10.242,0.26-22.872,0.26c-12.635,0-22.874-0.116-22.874-0.26
							c0-0.144,10.239-0.26,22.874-0.26C294.98,354.389,305.221,354.506,305.221,354.649z"/>
					</g>
				</g>
			</g>
			<g>
				<g>
					<g>
						<path style="fill:#263238;" d="M341.698,364.038c0,0.144-18.408,0.26-41.11,0.26c-22.71,0-41.113-0.117-41.113-0.26
							s18.404-0.26,41.113-0.26C323.29,363.778,341.698,363.894,341.698,364.038z"/>
					</g>
				</g>
			</g>
			<g>
				<g>
					<g>
						<path style="fill:#263238;" d="M340.731,370.743c0,0.144-18.191,0.26-40.626,0.26c-22.443,0-40.63-0.117-40.63-0.26
							c0-0.144,18.187-0.26,40.63-0.26C322.539,370.483,340.731,370.599,340.731,370.743z"/>
					</g>
				</g>
			</g>
			<g>
				<g>
					<g>
						<path style="fill:#263238;" d="M307.45,377.139c0,0.144-10.741,0.26-23.987,0.26c-13.251,0-23.989-0.117-23.989-0.26
							s10.738-0.26,23.989-0.26C296.71,376.879,307.45,376.995,307.45,377.139z"/>
					</g>
				</g>
			</g>
		</g>
		<g>
			<g>
				<rect x="215.673" y="402.382" style="fill:#E0E0E0;" width="30.628" height="30.628"/>
			</g>
		</g>
		<g>
			<g>
				<g>
					<g>
						<path style="fill:#E0E0E0;" d="M305.221,405.677c0,0.144-10.242,0.26-22.872,0.26c-12.635,0-22.874-0.117-22.874-0.26
							s10.239-0.26,22.874-0.26C294.98,405.417,305.221,405.534,305.221,405.677z"/>
					</g>
				</g>
			</g>
			<g>
				<g>
					<g>
						<path style="fill:#EBEBEB;" d="M341.698,415.066c0,0.144-18.408,0.26-41.11,0.26c-22.71,0-41.113-0.117-41.113-0.26
							c0-0.144,18.404-0.26,41.113-0.26C323.29,414.806,341.698,414.922,341.698,415.066z"/>
					</g>
				</g>
			</g>
			<g>
				<g>
					<g>
						<path style="fill:#EBEBEB;" d="M340.731,421.771c0,0.144-18.191,0.26-40.626,0.26c-22.443,0-40.63-0.117-40.63-0.26
							s18.187-0.26,40.63-0.26C322.539,421.511,340.731,421.627,340.731,421.771z"/>
					</g>
				</g>
			</g>
			<g>
				<g>
					<g>
						<path style="fill:#EBEBEB;" d="M307.45,428.167c0,0.144-10.741,0.26-23.987,0.26c-13.251,0-23.989-0.117-23.989-0.26
							c0-0.144,10.738-0.26,23.989-0.26C296.71,427.907,307.45,428.023,307.45,428.167z"/>
					</g>
				</g>
			</g>
		</g>
		<g style="opacity:0.3;">
			<g>
				<rect x="215.673" y="351.354" width="30.628" height="30.628"/>
			</g>
		</g>
		<g style="opacity:0.3;">
			<g>
				<rect x="215.673" y="249.298" width="30.628" height="30.628"/>
			</g>
		</g>
	</g>
</g>
</svg>
