<?xml version="1.0" encoding="utf-8"?>
<!-- Generator: Adobe Illustrator 27.5.0, SVG Export Plug-In . SVG Version: 6.00 Build 0)  -->
<svg version="1.1" xmlns="http://www.w3.org/2000/svg" xmlns:xlink="http://www.w3.org/1999/xlink" x="0px" y="0px"
	 viewBox="0 0 2000 2000" style="enable-background:new 0 0 2000 2000;" xml:space="preserve">
<g id="BACKGROUND">
	<rect x="-0.085" y="1.577" style="fill:#FFFFFF;" width="2000" height="2000"/>
	<path style="fill:#FDEEBD;" d="M1715.53,1401.82c-88.658,97.349-207.902,125.803-311.812,87.394
		c-9.544-2.747-19.447-7.029-29.739-13.041c-5.123-2.618-10.196-5.399-15.21-8.363c-160.768-84.13-321.8-16.589-413.615,39.903
		c-24.716,21.696-50.553,40.396-77.187,56.112c-0.059,0.054-0.129,0.117-0.129,0.117l-0.012-0.033
		c-195.645,115.356-433.934,69.835-582.243-130.898c-181.16-245.198-165.676-634.907,48.505-857.405
		c418.195-434.434,1510.664-330.067,1501.177,558.726C1834.314,1223.454,1795.524,1313.984,1715.53,1401.82z"/>
</g>
<g id="OBJECTS">
	<path style="fill:#FFFFFF;" d="M140.451,1147.055l147.973,135.052c3.604,3.289,8.809,4.14,13.273,2.171s7.344-6.388,7.344-11.267
		v-70.398c0-6.801,5.514-12.315,12.315-12.315h1542.923c5.88,0,10.94-4.157,12.081-9.925l6.59-33.317H140.451z"/>
	<g>
		<circle style="fill:#09293A;" cx="1042.96" cy="1015.546" r="48.849"/>
		<g>
			<path style="fill:#F8BB7E;" d="M1070.964,1346.842l-42.646-10.39c-3.663-0.892-5.93-4.62-5.038-8.283l14.477-59.421
				c0.892-3.663,4.62-5.93,8.283-5.038l42.646,10.39c3.663,0.892,5.93,4.62,5.038,8.283l-14.477,59.421
				C1078.354,1345.468,1074.627,1347.734,1070.964,1346.842z"/>
			<path style="fill:#1581A7;" d="M1070.757,1405.332c2.664,0.805,5.477-0.702,6.282-3.366l23.884-79.021l-72.797-22.002
				c-104.357,25.587-117.555,13.434-127.426,46.092c-1.055,3.493,0.919,7.177,4.411,8.232L1070.757,1405.332z"/>
			<path style="fill:#1D4554;" d="M1006.519,1411.378c4.328-2.319,9.715-0.69,12.034,3.637l6.926,12.926
				c1.114,2.078,3.007,3.629,5.264,4.311l39.587,11.965c2.501,0.756,5.209,0.373,7.402-1.047c2.194-1.42,3.652-3.733,3.986-6.325
				l2.691-20.852c0.556-4.31-2.085-8.39-6.245-9.647l-176.415-53.32c-4.011-1.212-8.325,0.541-10.352,4.209l-10.261,18.564
				c-1.299,2.35-1.466,5.161-0.455,7.649s3.093,4.384,5.663,5.161l100.477,30.368c2.257,0.682,4.692,0.44,6.77-0.674
				L1006.519,1411.378z"/>
			<polygon style="fill:#09293A;" points="1025.326,1283.727 985.484,1042.555 1037.502,1034.366 1087.897,1115.219 
				1100.435,1302.779 			"/>
		</g>
	</g>
	<path style="fill:#F7C319;" d="M292.36,1037.845c-3.348,0.133-6.607-1.104-9.023-3.426c-2.416-2.322-3.782-5.528-3.782-8.88v-76.28
		c0-4.879-2.88-9.298-7.344-11.267c-4.464-1.969-9.669-1.118-13.273,2.171L93.719,1090.954c-2.557,2.333-4.013,5.635-4.013,9.096
		s1.457,6.763,4.013,9.096l165.218,150.791c3.604,3.289,8.809,4.14,13.273,2.171s7.344-6.388,7.344-11.267v-70.398
		c0-6.801,5.514-12.315,12.315-12.315h1542.923c5.88,0,10.94-4.157,12.081-9.925l33.301-168.354
		c0.732-3.699-0.272-7.53-2.723-10.395c-2.451-2.865-6.08-4.45-9.848-4.3L292.36,1037.845z"/>
	<path style="fill:#093F58;" d="M321.034,864.131c0.206-1.349,0.317-2.689,0.362-4.019c0.041-1.222,0.807-2.303,1.946-2.747
		l9.771-3.81c1.573-0.613,2.351-2.386,1.738-3.959l-7.18-18.413c-0.613-1.573-2.386-2.351-3.959-1.738l-9.744,3.799
		c-1.129,0.44-2.414,0.172-3.272-0.684c-1.909-1.905-4.041-3.597-6.35-5.054c-1.028-0.649-1.574-1.847-1.391-3.049l1.586-10.368
		c0.255-1.669-0.891-3.229-2.559-3.484l-19.536-2.989c-1.669-0.255-3.229,0.891-3.484,2.559l-1.586,10.368
		c-0.184,1.202-1.064,2.182-2.239,2.494c-2.639,0.7-5.179,1.678-7.571,2.925c-1.075,0.56-2.38,0.433-3.326-0.325l-8.162-6.539
		c-1.318-1.056-3.241-0.843-4.297,0.475l-12.356,15.424c-1.056,1.318-0.843,3.242,0.475,4.297l8.185,6.557
		c0.954,0.764,1.362,2.025,1.035,3.203c-0.355,1.283-0.65,2.595-0.857,3.944c-0.206,1.349-0.317,2.688-0.362,4.019
		c-0.041,1.222-0.807,2.303-1.946,2.747l-9.771,3.81c-1.573,0.613-2.351,2.386-1.738,3.959l7.18,18.413
		c0.613,1.573,2.386,2.351,3.959,1.738l9.744-3.799c1.129-0.44,2.414-0.172,3.271,0.684c1.909,1.905,4.041,3.597,6.35,5.055
		c1.028,0.649,1.575,1.847,1.391,3.049l-1.586,10.368c-0.255,1.669,0.891,3.229,2.559,3.484l19.536,2.989
		c1.669,0.255,3.229-0.891,3.484-2.559l1.586-10.368c0.184-1.202,1.064-2.182,2.239-2.494c2.639-0.7,5.179-1.678,7.571-2.925
		c1.075-0.56,2.38-0.433,3.326,0.325l8.162,6.539c1.318,1.056,3.241,0.843,4.297-0.474l12.357-15.424
		c1.056-1.318,0.843-3.241-0.474-4.297l-8.185-6.557c-0.954-0.764-1.362-2.025-1.035-3.203
		C320.533,866.791,320.827,865.48,321.034,864.131z M282.235,874.339c-8.712-1.333-14.694-9.476-13.361-18.188
		s9.476-14.693,18.188-13.361c8.712,1.333,14.693,9.476,13.361,18.187C299.089,869.69,290.947,875.672,282.235,874.339z"/>
	<path style="fill:#1BB7D9;" d="M373.597,773.983c0.079-0.517,0.134-1.032,0.169-1.545c0.081-1.181,0.838-2.21,1.941-2.641
		l3.597-1.402c1.573-0.613,2.351-2.386,1.738-3.959l-3.167-8.122c-0.613-1.573-2.386-2.351-3.959-1.738l-3.591,1.4
		c-1.091,0.425-2.333,0.19-3.191-0.607c-0.769-0.713-1.595-1.37-2.469-1.965c-0.974-0.663-1.48-1.827-1.302-2.991l0.585-3.823
		c0.255-1.669-0.891-3.229-2.559-3.484l-8.617-1.318c-1.669-0.255-3.229,0.891-3.484,2.559l-0.585,3.823
		c-0.178,1.163-1.01,2.124-2.136,2.465c-1.012,0.307-1.997,0.686-2.944,1.137c-1.058,0.503-2.312,0.357-3.227-0.375l-3.008-2.41
		c-1.318-1.056-3.241-0.843-4.297,0.475l-5.45,6.803c-1.056,1.318-0.843,3.242,0.475,4.297l3.013,2.414
		c0.924,0.74,1.339,1.949,1.063,3.1c-0.12,0.5-0.222,1.007-0.301,1.524c-0.079,0.517-0.134,1.032-0.169,1.544
		c-0.081,1.181-0.838,2.21-1.941,2.641l-3.597,1.403c-1.573,0.613-2.351,2.386-1.738,3.959l3.167,8.122
		c0.613,1.573,2.386,2.351,3.959,1.738l3.59-1.4c1.091-0.425,2.333-0.19,3.191,0.607c0.769,0.713,1.595,1.37,2.47,1.965
		c0.973,0.663,1.48,1.827,1.302,2.991l-0.585,3.823c-0.255,1.669,0.891,3.229,2.559,3.484l8.617,1.318
		c1.669,0.255,3.229-0.891,3.484-2.559l0.585-3.823c0.178-1.163,1.01-2.124,2.137-2.465c1.013-0.307,1.997-0.686,2.944-1.137
		c1.058-0.503,2.312-0.357,3.227,0.375l3.008,2.409c1.318,1.056,3.241,0.843,4.297-0.475l5.45-6.803
		c1.056-1.318,0.843-3.241-0.474-4.297l-3.013-2.414c-0.924-0.74-1.338-1.949-1.063-3.1
		C373.416,775.008,373.517,774.501,373.597,773.983z M351.359,779.834c-4.993-0.764-8.422-5.431-7.658-10.424
		c0.764-4.993,5.431-8.421,10.424-7.657c4.993,0.764,8.421,5.431,7.658,10.424C361.019,777.169,356.352,780.598,351.359,779.834z"/>
	<path style="fill:#1BB7D9;" d="M979.247,748.941c0.079-0.517,0.134-1.032,0.169-1.545c0.081-1.181,0.838-2.21,1.941-2.641
		l3.597-1.402c1.573-0.613,2.351-2.386,1.738-3.959l-3.167-8.122c-0.613-1.573-2.386-2.351-3.959-1.738l-3.591,1.4
		c-1.091,0.425-2.333,0.19-3.191-0.607c-0.769-0.713-1.595-1.37-2.469-1.965c-0.973-0.663-1.48-1.827-1.302-2.991l0.585-3.823
		c0.255-1.669-0.891-3.229-2.559-3.484l-8.617-1.318c-1.669-0.255-3.229,0.891-3.484,2.56l-0.585,3.823
		c-0.178,1.163-1.01,2.124-2.136,2.465c-1.013,0.307-1.997,0.686-2.944,1.137c-1.058,0.503-2.312,0.357-3.227-0.375l-3.008-2.41
		c-1.318-1.056-3.241-0.843-4.297,0.475l-5.45,6.803c-1.056,1.318-0.843,3.242,0.474,4.297l3.013,2.414
		c0.924,0.74,1.338,1.949,1.063,3.1c-0.12,0.5-0.222,1.007-0.301,1.524c-0.079,0.517-0.134,1.032-0.169,1.544
		c-0.081,1.181-0.838,2.21-1.941,2.641l-3.597,1.403c-1.573,0.613-2.351,2.386-1.738,3.959l3.167,8.122
		c0.613,1.573,2.386,2.351,3.959,1.738l3.59-1.4c1.091-0.425,2.333-0.19,3.191,0.607c0.769,0.713,1.595,1.37,2.47,1.965
		c0.974,0.663,1.48,1.827,1.302,2.991l-0.585,3.823c-0.255,1.669,0.891,3.229,2.56,3.484l8.617,1.318
		c1.669,0.255,3.229-0.891,3.484-2.559l0.585-3.823c0.178-1.163,1.01-2.124,2.136-2.465c1.013-0.307,1.997-0.686,2.944-1.137
		c1.058-0.503,2.312-0.357,3.227,0.375l3.008,2.409c1.318,1.056,3.242,0.843,4.297-0.475l5.45-6.803
		c1.056-1.318,0.843-3.241-0.474-4.297l-3.013-2.414c-0.924-0.74-1.338-1.949-1.063-3.1
		C979.066,749.966,979.168,749.458,979.247,748.941z M957.01,754.791c-4.993-0.764-8.422-5.431-7.658-10.424
		c0.764-4.993,5.431-8.421,10.424-7.657s8.421,5.431,7.658,10.424C966.67,752.127,962.003,755.555,957.01,754.791z"/>
	<path style="fill:#E9465C;" d="M754.712,479.751c0.622-0.218,1.227-0.462,1.818-0.726c1.362-0.609,2.954-0.376,4.085,0.597
		l3.687,3.171c1.612,1.387,4.043,1.204,5.43-0.409l7.16-8.325c1.387-1.612,1.204-4.043-0.409-5.43l-3.68-3.165
		c-1.118-0.962-1.591-2.482-1.213-3.908c0.338-1.277,0.58-2.584,0.725-3.908c0.161-1.475,1.157-2.726,2.557-3.217l4.597-1.61
		c2.007-0.703,3.064-2.9,2.361-4.907l-3.63-10.363c-0.703-2.007-2.9-3.064-4.907-2.361l-4.597,1.61
		c-1.399,0.49-2.96,0.133-4.005-0.918c-0.94-0.945-1.944-1.815-3.005-2.602c-1.186-0.879-1.765-2.36-1.491-3.811l0.901-4.77
		c0.395-2.09-0.979-4.104-3.069-4.498l-10.79-2.038c-2.09-0.395-4.104,0.979-4.498,3.069l-0.903,4.778
		c-0.277,1.465-1.376,2.641-2.819,3.015c-0.626,0.162-1.251,0.349-1.873,0.567c-0.622,0.218-1.227,0.462-1.817,0.726
		c-1.362,0.609-2.954,0.376-4.084-0.597l-3.687-3.171c-1.612-1.387-4.043-1.204-5.43,0.409l-7.16,8.325
		c-1.387,1.612-1.204,4.043,0.409,5.43l3.68,3.165c1.118,0.962,1.591,2.482,1.213,3.908c-0.338,1.277-0.58,2.584-0.725,3.909
		c-0.161,1.475-1.157,2.726-2.557,3.217l-4.597,1.61c-2.007,0.703-3.064,2.9-2.361,4.907l3.63,10.363
		c0.703,2.007,2.9,3.064,4.907,2.361l4.598-1.61c1.399-0.49,2.96-0.133,4.005,0.918c0.94,0.945,1.944,1.815,3.005,2.602
		c1.186,0.879,1.765,2.36,1.491,3.811l-0.901,4.77c-0.395,2.09,0.979,4.104,3.069,4.498l10.79,2.038
		c2.09,0.395,4.104-0.979,4.498-3.069l0.903-4.778c0.277-1.465,1.376-2.641,2.819-3.015
		C753.466,480.156,754.09,479.969,754.712,479.751z M735.055,458.48c-2.103-6.005,1.06-12.578,7.064-14.681
		c6.005-2.103,12.578,1.06,14.681,7.064s-1.059,12.578-7.064,14.681C743.731,467.647,737.158,464.485,735.055,458.48z"/>
	<g>
		<path style="fill:#FFFFFF;" d="M973.265,369.554c-4.223-7.216-13.458-9.703-20.734-5.585l-78.529,44.445
			c-3.564,2.017-6.17,5.379-7.235,9.333s-0.5,8.17,1.568,11.704l18.271,31.217c4.193,7.163,13.333,9.675,20.598,5.661l15.549-8.591
			c5.012-2.769,11.152-2.507,15.909,0.68l22.431,15.025c1.143,0.765,2.623,0.81,3.81,0.116c1.187-0.695,1.872-2.007,1.765-3.378
			l-2.081-26.466c-0.467-5.942,2.559-11.613,7.755-14.533l13.387-7.523c3.577-2.01,6.196-5.373,7.27-9.333s0.51-8.186-1.562-11.727
			L973.265,369.554z"/>
		<circle style="fill:#CDDDE8;" cx="897.215" cy="432.476" r="8.144"/>
		<circle style="fill:#CDDDE8;" cx="929.885" cy="414.492" r="8.144"/>
		<circle style="fill:#CDDDE8;" cx="960.222" cy="397.786" r="8.144"/>
	</g>
	<g>
		<path style="fill:#FFFFFF;" d="M1401.014,534.397c-1.327-8.255-9.037-13.914-17.31-12.707l-89.288,13.03
			c-4.052,0.591-7.698,2.783-10.121,6.084c-2.423,3.301-3.422,7.436-2.771,11.479l5.742,35.713
			c1.318,8.195,8.93,13.843,17.155,12.729l17.603-2.385c5.675-0.769,11.303,1.696,14.586,6.388l15.477,22.121
			c0.789,1.127,2.152,1.704,3.51,1.486c1.358-0.218,2.472-1.194,2.867-2.511l7.633-25.427c1.714-5.708,6.587-9.901,12.487-10.744
			l15.201-2.171c4.062-0.58,7.72-2.768,10.153-6.072c2.433-3.304,3.437-7.447,2.785-11.498L1401.014,534.397z"/>
		<circle style="fill:#CDDDE8;" cx="1308.83" cy="567.837" r="8.144"/>
		<circle style="fill:#CDDDE8;" cx="1345.608" cy="561.667" r="8.144"/>
		<circle style="fill:#CDDDE8;" cx="1379.763" cy="555.932" r="8.144"/>
	</g>
	<g>
		<path style="fill:#FFFFFF;" d="M435.411,589.481c-5.169-6.681-14.776-7.907-21.457-2.738l-100.262,77.572
			c-6.681,5.169-7.907,14.776-2.738,21.457l22.042,28.49c5.169,6.681,14.776,7.907,21.457,2.738l27.472-21.255
			c4.637-3.588,10.917-4.209,16.167-1.6l23.942,11.899c1.232,0.612,2.705,0.466,3.793-0.375s1.599-2.231,1.316-3.577l-5.506-26.163
			c-1.207-5.737,0.971-11.66,5.608-15.247l27.471-21.254c6.681-5.169,7.907-14.776,2.738-21.457L435.411,589.481z"/>
		<circle style="fill:#CDDDE8;" cx="342.251" cy="681.808" r="8.144"/>
		<circle style="fill:#CDDDE8;" cx="370.169" cy="657.083" r="8.144"/>
		<circle style="fill:#CDDDE8;" cx="396.092" cy="634.117" r="8.144"/>
		<circle style="fill:#CDDDE8;" cx="422.896" cy="610.171" r="8.144"/>
	</g>
	<g>
		<path style="fill:#0E5F53;" d="M1189.805,528.268h-22.775v-22.775c0-3.152-2.579-5.731-5.731-5.731h-4.359
			c-3.152,0-5.731,2.579-5.731,5.731v22.775h-22.775c-3.152,0-5.731,2.579-5.731,5.731v4.359c0,3.152,2.579,5.731,5.731,5.731
			h22.775v22.775c0,3.152,2.579,5.731,5.731,5.731h4.359c3.152,0,5.731-2.579,5.731-5.731v-22.775h22.775
			c3.152,0,5.731-2.579,5.731-5.731v-4.359C1195.536,530.847,1192.957,528.268,1189.805,528.268z"/>
		<path style="fill:#093F58;" d="M1102.577,394.687h-22.775v-22.775c0-3.152-2.579-5.731-5.731-5.731h-4.359
			c-3.152,0-5.731,2.579-5.731,5.731v22.775h-22.775c-3.152,0-5.731,2.579-5.731,5.731v4.359c0,3.152,2.579,5.731,5.731,5.731
			h22.775v22.775c0,3.152,2.579,5.731,5.731,5.731h4.359c3.152,0,5.731-2.579,5.731-5.731v-22.775h22.775
			c3.152,0,5.731-2.579,5.731-5.731v-4.359C1108.307,397.265,1105.729,394.687,1102.577,394.687z"/>
		<path style="fill:#1BB7D9;" d="M1282.439,455.345h-29.824v-29.824c0-4.128-3.377-7.505-7.505-7.505h-5.708
			c-4.127,0-7.505,3.377-7.505,7.505v29.824h-29.824c-4.128,0-7.505,3.377-7.505,7.505v5.708c0,4.128,3.377,7.505,7.505,7.505
			h29.824v29.824c0,4.128,3.377,7.505,7.505,7.505h5.708c4.128,0,7.505-3.377,7.505-7.505v-29.824h29.824
			c4.127,0,7.505-3.377,7.505-7.505v-5.708C1289.944,458.722,1286.567,455.345,1282.439,455.345z"/>
	</g>
	<g>
		<rect x="1638.047" y="1471.462" style="fill:#F8BB7E;" width="58.491" height="76.023"/>
		<rect x="1758.448" y="1471.462" style="fill:#F8BB7E;" width="58.491" height="76.023"/>
		<path style="fill:#109AAC;" d="M1703.823,1612.616c2.826,0,5.117-2.291,5.117-5.117v-83.824h-77.221
			c-93.917,55.528-110.316,47.593-110.316,82.236c0,3.705,3.002,6.706,6.706,6.706H1703.823z"/>
		<path style="fill:#12718E;" d="M1643.161,1637.365c3.525-3.525,9.24-3.525,12.766,0l10.53,10.53
			c1.693,1.693,3.989,2.644,6.383,2.644h41.993c2.653,0,5.172-1.167,6.888-3.192c1.715-2.025,2.453-4.701,2.016-7.319l-3.51-21.059
			c-0.725-4.353-4.491-7.543-8.904-7.543h-187.138c-4.255,0-7.933,2.972-8.826,7.132l-4.52,21.059
			c-0.572,2.666,0.091,5.447,1.805,7.568s4.294,3.353,7.021,3.353h106.584c2.394,0,4.69-0.951,6.383-2.644L1643.161,1637.365z"/>
		<path style="fill:#17B6D7;" d="M1828.914,1612.616c2.826,0,5.117-2.291,5.117-5.117v-83.824h-77.221
			c-93.917,55.528-110.316,47.593-110.316,82.236c0,3.705,3.002,6.706,6.706,6.706H1828.914z"/>
		<path style="fill:#107DA8;" d="M1768.252,1637.365c3.525-3.525,9.24-3.525,12.766,0l10.53,10.53
			c1.693,1.693,3.989,2.644,6.383,2.644h41.993c2.653,0,5.172-1.167,6.888-3.192c1.715-2.025,2.453-4.701,2.016-7.319l-3.51-21.059
			c-0.725-4.353-4.491-7.543-8.904-7.543h-187.138c-4.255,0-7.933,2.972-8.826,7.132l-4.52,21.059
			c-0.572,2.666,0.091,5.447,1.805,7.568s4.294,3.353,7.021,3.353h106.584c2.394,0,4.69-0.951,6.383-2.644L1768.252,1637.365z"/>
		<path d="M1835.028,1494.198h-80.334l-40.444-172.87c8.789,13.354,23.934,22.142,41.127,22.142
			c25.768,0,46.929-19.753,49.105-44.967L1835.028,1494.198z"/>
		<path style="fill:#211F21;" d="M1804.481,1298.503c-2.176,25.214-23.336,44.967-49.105,44.967
			c-17.193,0-32.339-8.789-41.127-22.142l-7.765-33.149l-37.97-162.162c-1.45-6.101-6.826-10.495-13.097-10.708l2.901,30.547
			l54.352,348.343h-80.334c-92.621-395.613-97.058-357.387-72.74-513.576l-0.043-34.6h67.578l21.758,18.089v-18.089h100.599
			l5.461,34.856c6.357,13.738,34.856,54.267,25.299,92.365c-4.437,17.705-5.29,35.794-2.517,53.798l23.081,147.955
			c0,0.043,0,0.043,0,0.043L1804.481,1298.503z"/>
		<g>
			<path style="fill:#126B9E;" d="M1579.238,745.067c2.217-17.905-10.501-34.217-28.407-36.434
				c-14.128-1.749-27.257,5.804-33.26,17.862l-86.532,97.41l0,0c-6.045,3.714-10.798,9.572-12.933,16.922
				c-4.556,15.689,4.47,32.1,20.158,36.655c10.251,2.977,10.628,9.929,17.987,3.239v0l0.002-0.002
				c0.967-0.879,1.886-1.813,2.735-2.821L1570.04,764.02c0.208-0.21,0.414-0.422,0.617-0.638l0.036-0.038l-0.001-0.001
				C1575.243,758.477,1578.357,752.184,1579.238,745.067z"/>
			<polygon style="fill:#0E7DA8;" points="1711.541,707.025 1661.116,694.072 1619.08,692.642 1560.867,704.251 1537.892,708.837 
				1551.525,994.747 1771.651,986.248 1750.023,716.913 			"/>
			<path style="fill:#126B9E;" d="M1699.789,699.293c2.349,29.246-60.214,71.5-60.214,71.5s-67.568-31.804-69.916-61.05
				c-2.349-29.246,24.878-55.295,60.813-58.18C1666.406,648.677,1697.441,670.046,1699.789,699.293z"/>
			<path style="fill:#211F21;" d="M1666.04,699.962c1.53,19.055-29.301,45.788-29.301,45.788s-34.234-21.508-35.764-40.563
				c-1.53-19.055,11.795-35.672,29.762-37.115C1648.704,666.629,1664.51,680.907,1666.04,699.962z"/>
			<path style="fill:#211F21;" d="M1679.804,630.169l-83.314,6.69l24.13-85.789l17.341-1.393
				c19.414-1.559,36.416,12.915,37.975,32.329L1679.804,630.169z"/>
			
				<rect x="1468.818" y="593.467" transform="matrix(0.942 -0.3356 0.3356 0.942 -130.4842 539.8254)" style="fill:#211F21;" width="55.299" height="107.871"/>
			<path style="fill:#0E7DA8;" d="M1412.958,860.287l0.23,0.055c-1.835,6.444-1.032,13.608,2.856,19.7
				c7.21,11.298,22.213,14.612,33.511,7.403c5.83-3.721,9.966-7.242,11.195-13.534l0.261-2.107l14.874-132.344
				c-11.223-0.383-21.714-5.269-31.415-11.951L1412.958,860.287z"/>
			<path style="fill:#F8BB7E;" d="M1479.392,693.779c-4.688-7.347-14.445-9.502-21.792-4.813c-4.874,3.11-7.445,8.451-7.267,13.839
				l-5.863,24.706c9.701,6.682,20.192,11.568,31.415,11.951l3.168-28.193C1482.57,706.197,1482.919,699.307,1479.392,693.779z"/>
			<path style="fill:#F7A962;" d="M1460.26,629.115c0.168,2.201,2.089,3.849,4.29,3.681c2.201-0.168,3.849-2.089,3.681-4.289
				c-0.168-2.201-2.089-3.849-4.29-3.681C1461.74,624.993,1460.092,626.914,1460.26,629.115z"/>
			<polygon style="fill:#F7A962;" points="1456.82,652.284 1451.809,652.667 1451.666,650.788 1445.255,650.124 1460.777,626.824 
				1465.465,628.717 1468.036,630.081 1457.346,659.175 			"/>
			<circle style="fill:#F7A962;" cx="1536.679" cy="616.376" r="3.829"/>
			<polygon style="fill:#F7A962;" points="1539.216,619.244 1518.341,637.772 1510.344,628.551 1534.854,613.009 			"/>
			<circle style="fill:#F7A962;" cx="1536.585" cy="638.566" r="3.829"/>
			<polygon style="fill:#F7A962;" points="1520.48,646.794 1515.14,647.202 1534.761,635.199 1539.122,641.434 1522.185,656.108 			
				"/>
			<path style="fill:#F7A962;" d="M1526.443,659.585c-0.038,1.808,1.397,3.305,3.206,3.342c1.808,0.038,3.305-1.398,3.342-3.206
				c0.038-1.808-1.397-3.305-3.206-3.342C1527.977,656.341,1526.481,657.777,1526.443,659.585z"/>
			<polygon style="fill:#F7A962;" points="1515.393,666.454 1511.922,665.251 1528.443,656.636 1531.638,662.305 1515.23,674.238 
							"/>
			<path style="fill:#F7A962;" d="M1512.802,652.241c0.239,3.129,2.97,5.473,6.099,5.234c3.13-0.239,5.473-2.97,5.234-6.099
				c-0.239-3.13-2.97-5.473-6.099-5.234C1514.906,646.381,1512.563,649.112,1512.802,652.241z"/>
			<path style="fill:#F7A962;" d="M1508.443,670.21c0.197,2.577,2.446,4.507,5.023,4.31c2.577-0.197,4.507-2.446,4.31-5.023
				c-0.197-2.577-2.446-4.507-5.023-4.31C1510.176,665.384,1508.246,667.633,1508.443,670.21z"/>
			<circle style="fill:#F7A962;" cx="1513.265" cy="634.098" r="6.268"/>
			<path style="fill:#F7A962;" d="M1443.801,655.114c0.311,4.07,3.863,7.118,7.933,6.807c4.07-0.311,7.118-3.863,6.807-7.933
				c-0.311-4.07-3.863-7.118-7.933-6.807C1446.538,647.492,1443.49,651.044,1443.801,655.114z"/>
			<polygon style="fill:#F7A962;" points="1509.987,673.494 1494.828,701.086 1445.648,694.057 1443.801,655.114 1458.385,656.166 
							"/>
			<polygon style="fill:#F7A962;" points="1513.373,635.514 1509.115,629.4 1481.552,653.81 1480.686,652.931 1488.684,628.31 
				1475.524,623.42 1458.385,656.166 1469.941,678.053 1504.934,674.535 1501.607,668.373 1522.185,656.108 1514.365,647.878 
				1495.703,659.072 1495.119,658.099 1517.472,638.763 			"/>
			<path style="fill:#F7A962;" d="M1511.922,665.251l4.346,8.171l-24.788,16.443c-2.091-2.988,1.51-11.165,0.391-14.697
				L1511.922,665.251z"/>
			<polygon style="fill:#F7A962;" points="1498.259,596.267 1500.536,597.475 1488.684,628.31 1476.391,621.857 1494.105,594.59 			
				"/>
			<path style="fill:#F7A962;" d="M1475.052,626.539c0.295,3.866,3.669,6.761,7.535,6.465c3.866-0.295,6.76-3.669,6.465-7.535
				c-0.295-3.866-3.669-6.761-7.535-6.465C1477.652,619.299,1474.757,622.673,1475.052,626.539z"/>
			
				<ellipse transform="matrix(0.3112 -0.9503 0.9503 0.3112 355.468 1874.6884)" style="fill:#F7A962;" cx="1471.015" cy="692.119" rx="25.441" ry="25.441"/>
			<path style="fill:#382920;" d="M1456.887,663.209c-0.054,0.004-0.109,0.005-0.163,0.001c-0.545-0.05-0.954-0.531-0.908-1.076
				c0.463-5.438,2.554-10.524,6.049-14.714c0.355-0.422,0.982-0.48,1.399-0.128c0.422,0.352,0.48,0.978,0.128,1.399
				c-3.232,3.877-5.167,8.58-5.593,13.61C1457.757,662.793,1457.363,663.171,1456.887,663.209z"/>
			<path style="fill:#F7A962;" d="M1493.648,596.619c0.149,1.95,1.85,3.41,3.8,3.261c1.95-0.149,3.409-1.85,3.26-3.8
				c-0.149-1.95-1.85-3.409-3.8-3.26C1494.958,592.968,1493.499,594.669,1493.648,596.619z"/>
			<path style="fill:#211F21;" d="M1623.394,614.242c-1.893-2.391-4.329-4.094-6.994-5.078c-3.576-1.32-6.24-4.392-7.035-8.12
				c-0.421-1.974-1.29-3.883-2.629-5.574c-1.823-2.303-4.241-3.855-6.863-4.612c-2.943-0.85-5.408-2.878-6.808-5.602
				c-0.241-0.469-0.531-0.921-0.87-1.35c-2.828-3.572-8.016-4.175-11.589-1.347c-3.572,2.828-4.175,8.016-1.347,11.588
				c0.126,0.159,0.256,0.312,0.391,0.459c2.072,2.258,3.119,5.271,2.897,8.328c-0.238,3.266,0.698,6.626,2.892,9.397
				c1.081,1.366,2.372,2.466,3.79,3.292c3.297,1.921,5.378,5.401,5.517,9.215c0.12,3.29,1.249,6.571,3.45,9.352
				c5.508,6.957,15.614,8.132,22.571,2.624C1627.727,631.305,1628.902,621.199,1623.394,614.242z"/>
			<path style="fill:#F7A962;" d="M1660.148,705.031c1.316,12.916-8.169,24.551-21.075,25.867l-3.401,0.345
				c-12.905,1.325-24.551-8.159-25.867-21.075c-3.111-30.513-3.837-38.519-4.019-41.303c2.414,0.353,4.872,0.487,7.343,0.391
				c10.695-0.425,20.781-5.087,28.038-12.97c-7.682,5.543-16.591,8.014-25.429,6.235c-3.999-0.804-7.65-2.68-10.892-5.373
				c-0.193-2.019-0.442-4.477-0.744-7.468c-1.316-12.916,8.169-24.552,21.075-25.867l3.4-0.356
				c12.117-1.231,23.108,7.035,25.503,18.729c0.165,0.772,0.28,1.557,0.365,2.356
				C1661.859,717.203,1656.052,664.828,1660.148,705.031z"/>
			<path style="fill:#F8BB7E;" d="M1637.173,578.478l-51.489,4.135l3.909,48.68l0.074-0.006
				c0.663,16.356,6.814,32.446,16.829,40.751c3.242,2.693,6.893,4.568,10.892,5.373c8.838,1.779,17.747-0.692,25.429-6.235
				c0.01-0.001,0.01-0.001,0.02-0.012c4.921-3.534,9.327-8.329,12.892-14.088c1.746-2.815,3.288-5.861,4.587-9.105
				c7.233-18.051,4.324-31.244,3.329-43.634C1662.152,585.753,1643.289,577.987,1637.173,578.478z"/>
			<path style="fill:#382920;" d="M1603.281,620.039c0.459,1.659-0.513,3.377-2.172,3.836c-1.659,0.459-3.377-0.513-3.836-2.172
				c-0.459-1.659,0.513-3.377,2.172-3.836S1602.821,618.38,1603.281,620.039z"/>
			<path style="fill:#382920;" d="M1632.059,616.319c0.459,1.659-0.513,3.377-2.172,3.836c-1.659,0.459-3.377-0.513-3.836-2.172
				s0.513-3.377,2.172-3.836C1629.882,613.687,1631.599,614.66,1632.059,616.319z"/>
			<path style="fill:#ED6D79;" d="M1618.069,640.882l-6.609,0.597c-0.374,0.034-0.708-0.245-0.742-0.619l-1.358-15.019
				c-0.034-0.374,0.245-0.708,0.619-0.742l6.609-0.597c0.374-0.034,0.708,0.245,0.742,0.619l1.358,15.019
				C1618.722,640.514,1618.443,640.848,1618.069,640.882z"/>
			<path style="fill:#382920;" d="M1593.288,614.095c-0.354,0.028-0.717-0.06-1.027-0.275c-0.727-0.497-0.912-1.489-0.415-2.214
				c2.026-2.955,5.519-4.587,9.065-4.269c0.877,0.078,1.523,0.852,1.447,1.727c-0.079,0.88-0.871,1.517-1.729,1.445
				c-2.404-0.203-4.779,0.896-6.154,2.899C1594.19,613.821,1593.75,614.058,1593.288,614.095z"/>
			<path style="fill:#382920;" d="M1634.908,608.483c-0.468,0.038-0.95-0.133-1.299-0.506c-1.631-1.764-4.219-2.316-6.425-1.374
				c-0.806,0.344-1.741-0.032-2.09-0.842c-0.343-0.809,0.035-1.745,0.844-2.089c3.453-1.47,7.474-0.603,10.014,2.141
				c0.595,0.647,0.558,1.655-0.091,2.252C1635.591,608.317,1635.253,608.455,1634.908,608.483z"/>
			<path style="fill:#FFFFFF;" d="M1633.594,645.085c0.562,5.35-2.76,10.473-8.108,11.986c-5.705,1.614-11.61-1.486-13.6-6.967
				C1619.668,653.144,1628.236,650.912,1633.594,645.085z"/>
			
				<ellipse transform="matrix(0.7661 -0.6427 0.6427 0.7661 -23.1451 1202.9535)" style="opacity:0.47;fill:#ED6D79;" cx="1641.12" cy="633.275" rx="10.284" ry="10.284"/>
			
				<ellipse transform="matrix(0.0807 -0.9967 0.9967 0.0807 831.8286 2183.1882)" style="opacity:0.47;fill:#ED6D79;" cx="1599.409" cy="640.664" rx="8.213" ry="8.213"/>
			<path style="fill:#382920;" d="M1642.366,671.212c-7.256,7.884-17.343,12.545-28.038,12.97c-2.471,0.095-4.929-0.038-7.343-0.391
				c-0.195-2.938,0.226-0.018-0.941-11.717c3.242,2.693,6.893,4.568,10.892,5.373
				C1625.775,679.226,1634.684,676.755,1642.366,671.212z"/>
			<path style="fill:none;stroke:#000000;stroke-miterlimit:10;" d="M1642.386,671.2c-0.009,0.011-0.009,0.011-0.02,0.012"/>
			<path style="fill:#211F21;" d="M1618.756,551.219c-4.162,0.376-7.942,1.891-11.069,4.208c-4.196,3.109-9.717,3.859-14.586,1.973
				c-2.578-0.999-5.42-1.434-8.362-1.168c-4.007,0.362-7.601,1.97-10.436,4.407c-3.182,2.736-7.357,4.04-11.53,3.601
				c-0.718-0.076-1.454-0.083-2.201-0.015c-6.217,0.562-10.801,6.057-10.239,12.274c0.562,6.217,6.057,10.801,12.274,10.239
				c0.276-0.025,0.55-0.06,0.819-0.104c4.143-0.681,8.383,0.379,11.72,2.927c3.566,2.723,8.12,4.171,12.943,3.735
				c2.377-0.215,4.606-0.869,6.618-1.875c4.676-2.339,10.227-2.113,14.703,0.589c3.862,2.331,8.47,3.498,13.309,3.061
				c12.109-1.095,21.037-11.798,19.943-23.907C1641.568,559.053,1630.865,550.125,1618.756,551.219z"/>
			
				<ellipse transform="matrix(0.121 -0.9927 0.9927 0.121 844.9595 2204.3308)" style="fill:#F8BB7E;" cx="1667.138" cy="625.066" rx="16.308" ry="16.308"/>
			<path style="fill:none;stroke:#382920;stroke-width:2;stroke-linecap:round;stroke-linejoin:round;stroke-miterlimit:10;" d="
				M1661.997,636.521c3.306-0.3,5.786-3.157,5.618-6.472c-0.12-2.382-1.577-4.391-3.619-5.32c-1.366-0.622-2.38-1.826-2.76-3.278
				c-2.304-8.795,14.982-10.833,17.77-1.217"/>
			<path style="fill:none;stroke:#382920;stroke-width:2;stroke-linecap:round;stroke-linejoin:round;stroke-miterlimit:10;" d="
				M1660.92,609.988"/>
			<path style="fill:none;stroke:#382920;stroke-width:2;stroke-linecap:round;stroke-linejoin:round;stroke-miterlimit:10;" d="
				M1646.419,617.165"/>
			<path style="fill:#126B9E;" d="M1899.728,795.951l-147.376-77.805c-0.299-0.163-0.6-0.323-0.904-0.477l-0.053-0.028l-0.001,0.001
				c-6.846-3.471-14.809-4.895-22.967-3.583c-20.523,3.3-34.485,22.612-31.185,43.135c2.604,16.193,15.179,28.294,30.449,31.061
				l131.204,47.698L1899.728,795.951z"/>
			<path style="fill:#F8BB7E;" d="M1791.596,953.5c-5.475,3.4-8.669,9.859-7.582,16.621c1.445,8.986,9.901,15.1,18.888,13.655
				c5.961-0.958,10.642-5.01,12.707-10.247l21.331-28.555c-8.757-7.557-19.027-13.791-29.239-19.57L1791.596,953.5z"/>
			<path style="fill:#0E7DA8;" d="M1916.575,837.955c4.432-5.415,6.635-12.614,5.437-20.066
				c-2.222-13.819-15.226-23.221-29.046-20.999c-7.131,1.147-13.068,5.177-16.856,10.697l-0.613-0.46l-67.796,118.277
				c10.212,5.779,20.482,12.013,29.239,19.57l79.832-106.871L1916.575,837.955z"/>
			<path style="fill:#F7A962;" d="M1717.962,973.539c2.366-0.119,4.381,1.704,4.5,4.07c0.118,2.366-1.704,4.381-4.07,4.499
				c-2.366,0.119-4.381-1.704-4.499-4.07C1713.773,975.672,1715.596,973.658,1717.962,973.539z"/>
			<polygon style="fill:#F7A962;" points="1742.171,966.744 1741.901,961.356 1739.88,961.457 1738.307,954.72 1715.593,974.399 
				1718.242,979.136 1720.042,981.689 1749.58,966.373 			"/>
			
				<ellipse transform="matrix(0.7286 -0.6849 0.6849 0.7286 -258.3729 1461.1776)" style="fill:#F7A962;" cx="1714.727" cy="1056.639" rx="4.111" ry="4.111"/>
			<polygon style="fill:#F7A962;" points="1718.124,1058.953 1735.033,1034.219 1724.132,1026.95 1710.895,1055.151 			"/>
			
				<ellipse transform="matrix(0.7286 -0.6849 0.6849 0.7286 -249.8408 1476.5131)" style="fill:#F7A962;" cx="1738.345" cy="1053.54" rx="4.111" ry="4.111"/>
			<polygon style="fill:#F7A962;" points="1744.929,1035.277 1744.642,1029.535 1734.513,1052.052 1741.742,1055.854 
				1755.078,1035.834 			"/>
			<path style="fill:#F7A962;" d="M1759.356,1039.898c1.92-0.285,3.708,1.042,3.993,2.962c0.285,1.92-1.042,3.708-2.962,3.992
				c-1.921,0.285-3.708-1.042-3.993-2.962C1756.11,1041.97,1757.436,1040.183,1759.356,1039.898z"/>
			<polygon style="fill:#F7A962;" points="1765.177,1027.202 1763.427,1023.669 1756.487,1042.427 1762.955,1045.063 
				1773.444,1025.977 			"/>
			<path style="fill:#F7A962;" d="M1749.692,1026.365c3.365-0.169,6.229,2.423,6.398,5.788c0.168,3.365-2.423,6.23-5.788,6.398
				c-3.365,0.169-6.23-2.423-6.398-5.788C1743.736,1029.398,1746.327,1026.533,1749.692,1026.365z"/>
			<path style="fill:#F7A962;" d="M1768.238,1019.293c2.771-0.139,5.13,1.995,5.269,4.766c0.139,2.771-1.995,5.13-4.766,5.269
				c-2.771,0.139-5.13-1.995-5.269-4.766C1763.333,1021.791,1765.467,1019.432,1768.238,1019.293z"/>
			
				<ellipse transform="matrix(0.7512 -0.6601 0.6601 0.7512 -248.8943 1398.2815)" style="fill:#F7A962;" cx="1730.433" cy="1029.31" rx="6.729" ry="6.728"/>
			<path style="fill:#F7A962;" d="M1743.424,952.497c4.377-0.219,8.102,3.151,8.321,7.528c0.219,4.377-3.151,8.102-7.528,8.321
				c-4.376,0.219-8.102-3.151-8.321-7.528C1735.677,956.442,1739.048,952.717,1743.424,952.497z"/>
			<polygon style="fill:#F7A962;" points="1771.944,1020.494 1799.277,1000.621 1785.144,949.2 1743.424,952.497 1746.516,967.886 
							"/>
			<polygon style="fill:#F7A962;" points="1731.957,1029.233 1724.87,1025.526 1747.138,992.875 1728.823,1016.346 
				1718.505,1005.662 1746.516,967.886 1771.385,977.233 1772.37,1014.972 1767.135,1012.95 1755.078,1035.834 1745.257,1028.619 
				1754.655,1007.232 1735.971,1033.16 			"/>
			<path style="fill:#F7A962;" d="M1763.427,1023.669l9.289,3.523l14.159-28.619c-3.465-1.823-11.686,3.117-15.598,2.403
				L1763.427,1023.669z"/>
			<polygon style="fill:#F7A962;" points="1699.292,1039.718 1701.387,1041.525 1727.616,1017.662 1716.374,1007.878 
				1695.997,1036.217 			"/>
			<path style="fill:#F7A962;" d="M1720.536,1004.716c3.982-1.21,8.191,1.037,9.401,5.019c1.21,3.982-1.037,8.191-5.019,9.401
				c-3.982,1.21-8.191-1.037-9.401-5.019C1714.307,1010.136,1716.554,1005.926,1720.536,1004.716z"/>
			
				<ellipse transform="matrix(0.8022 -0.597 0.597 0.8022 -229.6588 1259.6466)" style="fill:#F7A962;" cx="1786.51" cy="976.475" rx="27.309" ry="27.309"/>
			<path style="fill:#382920;" d="M1738.452,974.57c-0.258,0-0.521-0.094-0.725-0.285c-0.433-0.402-0.458-1.077-0.054-1.508
				c3.987-4.289,9.124-7.206,14.849-8.433c0.567-0.102,1.15,0.244,1.267,0.821c0.125,0.575-0.242,1.142-0.817,1.267
				c-5.3,1.135-10.049,3.831-13.74,7.799C1739.023,974.456,1738.739,974.57,1738.452,974.57z"/>
			<path style="fill:#382920;" d="M1712.825,1039.671c-0.229,0-0.462-0.073-0.654-0.225c-0.467-0.362-0.55-1.033-0.188-1.498
				l33.955-43.513c0.363-0.465,1.037-0.55,1.496-0.185c0.467,0.362,0.55,1.033,0.188,1.498l-33.955,43.513
				C1713.454,1039.529,1713.141,1039.671,1712.825,1039.671z"/>
			<path style="fill:#382920;" d="M1742.351,1028.266c-0.192,0-0.387-0.052-0.563-0.16c-0.5-0.31-0.654-0.969-0.346-1.469
				l14.457-23.306c0.317-0.502,0.971-0.652,1.471-0.344c0.5,0.31,0.654,0.969,0.346,1.469l-14.457,23.306
				C1743.056,1028.086,1742.706,1028.266,1742.351,1028.266z"/>
			<path style="fill:#382920;" d="M1748.605,1053.597c-0.146,0-0.296-0.029-0.438-0.092c-0.537-0.242-0.775-0.875-0.537-1.412
				l18.428-41.09c0.242-0.535,0.871-0.781,1.412-0.537c0.537,0.242,0.775,0.871,0.537,1.41l-18.428,41.092
				C1749.401,1053.363,1749.013,1053.597,1748.605,1053.597z"/>
			<path style="fill:#382920;" d="M1752.746,798.432c-0.117,0-0.233-0.019-0.35-0.058l-31.039-10.73
				c-0.554-0.192-0.85-0.8-0.658-1.356c0.196-0.558,0.804-0.848,1.358-0.66l31.039,10.73c0.554,0.192,0.85,0.8,0.658,1.356
				C1753.6,798.154,1753.188,798.432,1752.746,798.432z"/>
		</g>
	</g>
	<g>
		<path style="fill:#FDFDF9;" d="M1390.525,945.37l14.617,35.042l-187.812,8.059c-81.027-113.184-86.36-135.979-94.577-199.505
			c-2.212-17.067,9.837-32.671,26.943-34.884l12.523-1.62c-1.501,4.622-2.094,9.482-1.62,14.42
			c2.41,25.679,32.474,43.852,67.081,40.573c34.647-3.24,60.76-26.706,58.35-52.385c-0.593-6.479-2.963-12.444-6.716-17.738
			l35.121-4.543v0.197c13.551-0.277,25.639,8.257,30.024,20.859l95.447,199.11L1390.525,945.37z"/>
		<path style="fill:#F7A962;" d="M1286.031,755.07c-0.593-6.479-2.963-12.444-6.716-17.738l-40.454,5.227
			c-0.197-1.523-0.547-3.047-1.092-4.547l-10.337-28.455c-4.022-11.073-16.373-16.842-27.446-12.819
			c-11.073,4.022-16.841,16.373-12.819,27.446l8.693,23.931l-33.641,4.347c-1.501,4.622-2.094,9.482-1.62,14.42
			c2.41,25.679,32.474,43.852,67.081,40.573C1262.328,804.215,1288.441,780.749,1286.031,755.07z"/>
		<path style="fill:#F8BB7E;" d="M1332.161,1284.349l-36.239,24.766c-3.113,2.127-7.4,1.321-9.527-1.792l-34.507-50.494
			c-2.127-3.113-1.321-7.4,1.792-9.527l36.239-24.765c3.113-2.127,7.4-1.321,9.527,1.792l34.507,50.494
			C1336.08,1277.935,1335.274,1282.222,1332.161,1284.349z"/>
		<path style="fill:#1581A7;" d="M1384.471,1323.466c1.046-0.88,1.689-2.147,1.783-3.511s-0.371-2.707-1.286-3.721l-52.247-57.893
			l-58.843,43.713c-35.558,101.393-52.947,105.813-30.979,131.917c2.349,2.791,6.515,3.149,9.305,0.801L1384.471,1323.466z"/>
		<path style="fill:#F8BB7E;" d="M1109.893,733.751c0.163-0.279,0.324-0.554,0.473-0.842l0.16-0.284l-0.033-0.016
			c1.03-2.077,1.76-4.343,2-6.788c1.063-10.813-6.841-20.439-17.653-21.502c-8.619-0.847-16.407,4.048-19.782,11.528l-0.066-0.03
			l-84.516,139.607l38.402,22.595L1109.893,733.751z"/>
		<path style="fill:#0C3E56;" d="M1347.369,935.057c-3.397-0.474-6.795-0.672-10.232-0.632c-5.689,0.079-11.378,0.869-16.909,2.37
			l-166.557,25.284l-54.36,2.054c-21.057,0-39.111,16.553-46.814,36.662c-2.568,6.716-3.99,13.827-3.99,20.859
			c0,16.869,20.306,41.56,20.306,41.56L1153,1163.402l100.085,119.887l62.222-49.896l-120.747-160.657l130.528-2.133
			c13.195-0.395,20.504,0.04,30.815-2.766c25.639-6.953,45.55-28.602,49.382-56.217
			C1410.421,974.524,1384.426,940.193,1347.369,935.057z"/>
		<path style="fill:#137DB1;" d="M1261.187,970.373h-218.652c-0.93,0-1.684-0.754-1.684-1.684v-24.02
			c0-0.93,0.754-1.684,1.684-1.684h218.652c0.93,0,1.684,0.754,1.684,1.684v24.02C1262.87,969.62,1262.116,970.373,1261.187,970.373
			z"/>
		<path style="fill:#113B4D;" d="M1128.035,942.986h94.798l-73.384-122.768c-1.201-2.009-3.369-3.239-5.709-3.239h-15.705V942.986z"
			/>
		<path style="fill:#8FAACB;" d="M1203.658,942.986h-160.587l-69.304-115.943c-1.228-2.055-1.258-4.612-0.076-6.694
			c1.181-2.083,3.391-3.369,5.785-3.369h145.089c2.34,0,4.508,1.23,5.709,3.239L1203.658,942.986z"/>
		<path style="fill:#F7A962;" d="M1428.833,942.408c-0.772-0.368-1.553-0.688-2.339-0.97l-134.461-63.42l-10.833,34.261
			l125.551,67.854c1.008,0.678,2.06,1.311,3.193,1.852c11.693,5.581,25.4,1.246,30.616-9.683
			C1445.776,961.373,1440.526,947.989,1428.833,942.408z"/>
		<path style="fill:#F8BB7E;" d="M1079.525,664.513c0,0,15.234,9.805,14.519-1.711s9.292,1.108,9.292,1.108l-2.861,20.51
			l-21.138-2.28L1079.525,664.513z"/>
		<path style="fill:#F8BB7E;" d="M1122.165,714.252c0,16.016-12.983,28.999-28.999,28.999c-16.016,0-41.958-29.455-41.958-45.471
			s25.943-12.526,41.958-12.526C1109.182,685.253,1122.165,698.237,1122.165,714.252z"/>
		<polygon style="fill:#F8BB7E;" points="1093.638,654.505 1095.944,691.619 1116.41,686.89 1109.686,650.428 		"/>
		<path style="fill:#F8BB7E;" d="M1086.548,680.63c0-2.745,3.008-4.971,6.718-4.971s6.718,2.226,6.718,4.971
			c0,2.745-3.008,4.971-6.718,4.971S1086.548,683.376,1086.548,680.63z"/>
		<path style="fill:#F8BB7E;" d="M1105.084,621.988c0,4.127-3.345,7.472-7.472,7.472c-4.127,0-7.472-3.345-7.472-7.472
			c0-4.127,3.345-7.472,7.472-7.472C1101.739,614.516,1105.084,617.861,1105.084,621.988z"/>
		<polygon style="fill:#F8BB7E;" points="1090.283,623.443 1093.166,651.744 1109.686,650.428 1105.084,621.988 		"/>
		<circle style="fill:#F8BB7E;" cx="1101.478" cy="651.744" r="8.312"/>
		<path style="fill:#F8BB7E;" d="M1064.251,695.949l-7.987-6.153l-0.047,0.086c-1.199-0.679-2.585-1.069-4.062-1.069
			c-4.561,0-8.259,3.698-8.259,8.259c0,3.183,1.801,5.943,4.439,7.322l20.186,13.644l0,0c1.213,0.846,2.688,1.343,4.279,1.343
			c4.139,0,7.494-3.355,7.494-7.493c0-2.822-1.561-5.279-3.865-6.557L1064.251,695.949"/>
		<path style="fill:#F8BB7E;" d="M1089.318,695.466L1089.318,695.466L1089.318,695.466c-0.126-0.122-0.256-0.239-0.391-0.351
			l-22.255-19.93c-0.015-0.013-0.03-0.027-0.045-0.04v0l0,0c-1.723-1.553-4.004-2.5-6.507-2.5c-5.369,0-9.722,4.353-9.722,9.722
			c0,4.108,2.549,7.618,6.151,9.042l23.839,13.744l0,0c1.161,1.024,2.686,1.647,4.356,1.647c3.64,0,6.591-2.951,6.591-6.591
			C1091.336,698.347,1090.561,696.665,1089.318,695.466z"/>
		<path style="fill:#382920;" d="M1072.803,720.431c-1.76,0-3.447-0.529-4.883-1.53l-20.173-13.636
			c-0.48-0.324-0.607-0.977-0.281-1.459c0.326-0.48,0.983-0.607,1.459-0.281l20.185,13.645c1.096,0.763,2.367,1.161,3.693,1.161
			c3.553,0,6.442-2.891,6.442-6.442c0-2.341-1.272-4.501-3.323-5.638l-21.147-15.684c-0.464-0.345-0.562-1.003-0.217-1.469
			c0.353-0.466,1.009-0.56,1.473-0.217l21.028,15.608c2.601,1.43,4.288,4.296,4.288,7.4
			C1081.345,716.599,1077.513,720.431,1072.803,720.431z"/>
		<path style="fill:#F8BB7E;" d="M1086.798,671.473l-7.217-7.04l-0.056,0.08c-1.112-0.814-2.443-1.362-3.91-1.534
			c-4.53-0.53-8.633,2.712-9.163,7.242c-0.37,3.161,1.098,6.112,3.557,7.788l18.462,15.899l0,0c1.107,0.981,2.513,1.646,4.094,1.832
			c4.111,0.481,7.833-2.461,8.314-6.571c0.328-2.803-0.936-5.424-3.076-6.962L1086.798,671.473"/>
		<path style="fill:#382920;" d="M1093.437,696.843c-0.328,0-0.661-0.018-0.997-0.057c-1.744-0.205-3.356-0.927-4.665-2.091
			l-18.451-15.889c-0.439-0.38-0.488-1.042-0.111-1.481c0.382-0.435,1.046-0.486,1.481-0.111l18.464,15.899
			c0.997,0.886,2.216,1.432,3.529,1.584c3.492,0.445,6.737-2.119,7.152-5.65c0.271-2.324-0.743-4.618-2.646-5.986l-19.174-18.035
			c-0.423-0.398-0.443-1.063-0.045-1.485c0.394-0.421,1.063-0.441,1.481-0.045l19.067,17.947c2.421,1.725,3.762,4.768,3.401,7.851
			C1101.413,693.634,1097.708,696.843,1093.437,696.843z"/>
		<path style="fill:#382920;" d="M1084.747,707.851c-1.863,0-3.66-0.679-5.051-1.91l-26.842-16.554
			c-0.492-0.306-0.644-0.952-0.341-1.446c0.308-0.494,0.956-0.644,1.444-0.343l26.982,16.66c1.157,0.999,2.458,1.491,3.808,1.491
			c3.053,0,5.539-2.484,5.539-5.539c0-1.518-0.603-2.934-1.699-3.988c-0.103-0.101-0.213-0.203-0.332-0.302l-13.651-12.863
			c-0.419-0.398-0.439-1.063-0.041-1.485c0.394-0.425,1.059-0.443,1.485-0.045l13.602,12.822c0.103,0.086,0.246,0.217,0.39,0.355
			c1.514,1.459,2.347,3.414,2.347,5.506C1092.387,704.423,1088.961,707.851,1084.747,707.851z"/>
		<path style="fill:#F8BB7E;" d="M1125.552,691.177c-2.888-9.029-9.892-16.15-18.872-19.188c-4.141-1.807-8.728-0.45-10.246,3.029
			s0.608,7.765,4.749,9.571c0.685,0.299,1.382,0.509,2.076,0.64c2.207,0.975,3.973,2.792,4.859,5.098
			c1.044,2.717,0.727,5.748-0.808,8.181c-3.398,1.202-6.377,3.86-7.997,7.571c-2.964,6.794-0.25,14.535,6.062,17.289
			c5.766,2.516,12.538-0.002,15.927-5.636l0.018,0.023C1126.869,710.07,1128.44,700.206,1125.552,691.177z"/>
		<path style="fill:#382920;" d="M1105.373,724.417c-0.139,0-0.283-0.029-0.418-0.088c-6.832-2.979-9.794-11.355-6.606-18.671
			c1.621-3.707,4.616-6.606,8.251-8.007c1.202-2.105,1.407-4.677,0.538-6.949c-0.767-1.998-2.335-3.643-4.304-4.513
			c-0.554-0.074-1.325-0.314-2.072-0.638c-2.228-0.97-4.009-2.624-5.014-4.653c-1.038-2.091-1.136-4.329-0.279-6.3
			c1.752-4.005,6.963-5.609,11.632-3.572c7.303,2.468,13.429,7.615,17.159,14.461c0.275,0.509,0.09,1.147-0.423,1.426
			c-0.492,0.269-1.141,0.092-1.424-0.421c-3.475-6.38-9.183-11.179-16.068-13.509c-3.693-1.61-7.673-0.488-8.949,2.456
			c-0.611,1.393-0.525,2.999,0.23,4.526c0.788,1.586,2.199,2.887,3.976,3.662c0.599,0.261,1.223,0.451,1.85,0.57
			c2.704,1.165,4.677,3.235,5.646,5.753c1.149,2.995,0.812,6.405-0.899,9.119c-0.127,0.199-0.316,0.351-0.542,0.431
			c-3.25,1.151-5.941,3.701-7.381,7c-2.729,6.253-0.254,13.388,5.515,15.905c0.533,0.232,0.776,0.851,0.546,1.383
			C1106.165,724.181,1105.779,724.417,1105.373,724.417z"/>
		<polygon style="fill:#F7A962;" points="1254.832,871.913 1226.214,858.594 1229.459,847.278 1276.359,863.229 		"/>
		<path style="fill:#F7A962;" d="M1200.356,895.374c0.09-0.024,0.177-0.051,0.268-0.072l0.165-0.044l17.231-4.249l-8.403,0.385
			c-0.951,0.242-1.965,0.303-2.996,0.138l-33.932,3.06c-0.71,0.237-1.478,0.331-2.269,0.205c-2.618-0.42-4.401-2.883-3.981-5.501
			c0.42-2.618,2.883-4.401,5.501-3.981l34.042-8.29c0.031-0.008,0.061-0.015,0.092-0.022l0.155-0.038l41.765-11.448l-5.881,24.388
			l-0.977,0.045l-0.879,5.482l2.111-0.886l2.801,12.616l5.072-2.179l22.164,16.504c0,0-31.332,10.243-61.434,12.428
			c-0.026,0.002-0.048,0.003-0.075,0.005c-0.342,0.145-0.698,0.254-1.069,0.329l0.004,0.026l-0.356,0.047
			c-0.085,0.012-0.169,0.026-0.256,0.034l-23.505,3.096c-0.64,0.226-1.332,0.335-2.032,0.268c-2.31-0.222-3.761-2.096-3.539-4.406
			c0.187-1.944,1.676-3.436,3.519-3.732l0-0.151l22.188-5.74l-0.084-0.3c-0.482,0.179-0.984,0.3-1.507,0.356l0.004,0.025
			l-27.135,3.909l-0.003-0.02c-1.845,0.293-3.782-0.416-4.952-2.033c-1.657-2.29-1.144-5.49,1.146-7.148
			c0.672-0.486,1.425-0.764,2.192-0.887l-0.003-0.02l26.554-6.159c0.023-0.006,0.046-0.01,0.068-0.016l0.26-0.06l0.003,0.023
			c0.001,0,0.002,0,0.003,0l-0.006-0.022l16.472-4.614l-14.994,2.24c-0.001,0-0.003,0-0.004,0.001l-0.041,0.009l-38.615,5.594
			v-0.005c-0.6,0.139-1.234,0.172-1.88,0.069c-2.677-0.429-4.499-2.947-4.07-5.624
			C1159.847,905.348,1164.134,905.172,1200.356,895.374z"/>
		
			<ellipse transform="matrix(0.7071 -0.7071 0.7071 0.7071 -260.1847 1155.2117)" style="fill:#F7A962;" cx="1264.372" cy="891.677" rx="30.865" ry="30.865"/>
		<path style="fill:#382920;" d="M1183.663,930.48c-0.472,0-0.899-0.318-1.018-0.794c-0.144-0.562,0.197-1.134,0.763-1.276
			l51.313-12.9c0.578-0.15,1.132,0.203,1.272,0.763c0.144,0.562-0.197,1.135-0.763,1.276l-51.313,12.9
			C1183.831,930.47,1183.745,930.48,1183.663,930.48z"/>
		<path style="fill:#382920;" d="M1175.051,928.618c-0.086,0-0.172-0.01-0.258-0.033c-2.811-0.718-4.755-3.344-4.624-6.241
			c0.135-2.901,2.31-5.336,5.178-5.791l54.074-13.505c0.578-0.15,1.132,0.203,1.272,0.765c0.144,0.562-0.201,1.132-0.763,1.274
			l-54.164,13.524c-1.978,0.318-3.41,1.92-3.496,3.828c-0.09,1.91,1.19,3.637,3.04,4.111c0.562,0.144,0.903,0.716,0.759,1.278
			C1175.945,928.302,1175.518,928.618,1175.051,928.618z"/>
		<path style="fill:#382920;" d="M1242.932,867.954c-0.382,0-0.751-0.211-0.936-0.576c-0.263-0.517-0.057-1.149,0.464-1.411
			c3.664-1.855,7.96-2.027,11.767-0.488c0.537,0.219,0.796,0.831,0.579,1.368c-0.218,0.535-0.841,0.79-1.366,0.581
			c-3.241-1.317-6.901-1.165-10.036,0.414C1243.252,867.917,1243.092,867.954,1242.932,867.954z"/>
		<path style="fill:#382920;" d="M1163.328,915.679c-0.053,0-0.111-0.004-0.168-0.012c-1.567-0.252-2.95-1.102-3.881-2.39
			c-0.931-1.29-1.305-2.866-1.054-4.437c0.033-0.199,0.045-0.378,0.057-0.544c0.218-2.936,0.218-2.936,31.228-11.142
			c9.244-2.445,21.307-5.64,37.063-9.868c0.562-0.144,1.141,0.183,1.284,0.741c0.152,0.56-0.181,1.137-0.743,1.286
			c-15.756,4.232-27.823,7.427-37.067,9.872c-27.478,7.273-29.567,7.857-29.669,9.267c-0.016,0.219-0.037,0.455-0.078,0.72
			c-0.164,1.018,0.078,2.039,0.681,2.872c0.603,0.835,1.498,1.385,2.515,1.547c0.57,0.092,0.96,0.632,0.87,1.204
			C1164.284,915.311,1163.837,915.679,1163.328,915.679z"/>
		<path style="fill:#F7A962;" d="M1219.131,848.898c-2.28,4.82,2.874,7.419,5.616,9.069c2.742,1.651,6.302,0.766,7.953-1.976
			c1.651-2.742,0.766-6.302-1.976-7.953C1227.982,846.389,1220.5,846.006,1219.131,848.898z"/>
		<path style="fill:#382920;" d="M1357.259,909.834c-0.382,0-0.755-0.211-0.94-0.578l-31.979-63.466
			c-0.259-0.517-0.049-1.149,0.468-1.409c0.517-0.254,1.149-0.055,1.411,0.466l31.979,63.466c0.259,0.517,0.049,1.149-0.468,1.409
			C1357.579,909.797,1357.419,909.834,1357.259,909.834z"/>
		<path style="fill:#1D4554;" d="M1354.59,1380.466c0.421-4.891,4.728-8.516,9.619-8.095l14.611,1.257
			c2.349,0.202,4.682-0.537,6.486-2.055l31.643-26.628c1.999-1.682,3.157-4.159,3.166-6.773s-1.133-5.098-3.121-6.793
			l-15.998-13.643c-3.307-2.82-8.167-2.836-11.492-0.038l-141.011,118.664c-3.206,2.698-4.093,7.269-2.128,10.971l9.947,18.734
			c1.259,2.372,3.523,4.047,6.159,4.558s5.362-0.196,7.416-1.925l80.313-67.585c1.804-1.518,2.931-3.691,3.133-6.04
			L1354.59,1380.466z"/>
		<ellipse style="fill:#137DB1;" cx="1088.242" cy="884.112" rx="17.87" ry="11.795"/>
		<g>
			<path style="fill:#E9465C;" d="M1167.194,669.132c0,29.633-16.495,46.461,9.253,52.757
				c38.741,9.473,109.739-18.027,109.739-18.027s-25.546-94.86-60.583-103.114C1199.803,594.67,1167.194,639.499,1167.194,669.132z"
				/>
			<path style="fill:#E9465C;" d="M1145.017,639.506c-3.654,29.407,4.338,96.125,4.338,96.125s103.322-15.432,103.229-25.366
				c-0.439-47.12-28.03-104.153-54.334-107.422C1171.946,599.575,1148.672,610.099,1145.017,639.506z"/>
			<circle style="fill:#E9465C;" cx="1199.157" cy="650.212" r="56.087"/>
			<path style="fill:#F7A962;" d="M1222.37,735.233c-10.642,0.18-21.216-1.131-31.836-1.252l-5.608-21.917
				c-3.006-11.749,4.147-23.821,15.896-26.827c11.749-3.006,23.821,4.147,26.827,15.896l7.725,30.192
				c0.168,0.657,4.282,13.124,4.382,13.781C1235.377,746.201,1226.938,735.156,1222.37,735.233z"/>
			
				<ellipse transform="matrix(0.9699 -0.2433 0.2433 0.9699 -118.3967 307.2262)" style="fill:#15B5D7;" cx="1184.351" cy="632.843" rx="29.885" ry="11.564"/>
			<path style="fill:#382920;" d="M1199.933,727.256c-3.107,1.587-7.406,3.268-10.69,4.105l-2.38-7.873
				c4.027,0.427,7.478,0.279,11.869-0.929c5.703-1.548,11.646-5.337,16.434-10.144
				C1211.996,718.912,1206.202,724.089,1199.933,727.256z"/>
			<path style="fill:#15B5D7;" d="M1196.947,621.863c-3.464,5.74,1.529,15.101,11.152,20.908c9.623,5.807,20.232,5.861,23.696,0.12
				c3.464-5.74-1.529-15.101-11.152-20.908C1211.02,616.177,1200.411,616.123,1196.947,621.863z"/>
			<path style="fill:#F8BB7E;" d="M1156.597,682.821c-1.459-7.863-1.474-14.938-0.389-21.176l0.698-21.301l72.896-18.288
				l-1.527,46.618l-0.098-0.003c0.847,6.203,0.743,13.033-0.818,20.352c-4.404,20.651-19.122,35.724-36.223,35.261
				C1174.471,723.831,1160.557,704.157,1156.597,682.821z"/>
			
				<ellipse transform="matrix(0.4044 -0.9146 0.9146 0.4044 144.6694 1488.4858)" style="fill:#E9465C;" cx="1215.187" cy="633.166" rx="26.95" ry="35.385"/>
			<path style="fill:#E9465C;" d="M1153.669,638.631c0.334-0.547,0.566-1.193,0.626-1.961c0.075-0.963,0.159-1.921,0.27-2.88
				c0.015-0.188-0.004-0.354-0.009-0.529c0.168-0.192,0.322-0.385,0.493-0.576c10.889-12.176,23.649-18.529,28.5-14.191
				c4.851,4.338-0.044,17.726-10.933,29.901c-6.693,7.484-14.087,12.755-19.923,14.708l-3.338-13.304
				C1150.812,646.067,1152.591,642.487,1153.669,638.631z"/>
			<path style="fill:#F8BB7E;" d="M1214.571,674.264c-1.125,8.368,1.36,23.533,9.728,24.657
				c8.368,1.125,19.451-12.217,20.576-20.585c1.125-8.368-4.748-16.063-13.116-17.188S1215.696,665.896,1214.571,674.264z"/>
			<path style="fill:none;stroke:#382920;stroke-width:2;stroke-linecap:round;stroke-linejoin:round;stroke-miterlimit:10;" d="
				M1227.951,687.463c2.562-0.083,4.602-2.175,4.621-4.738c0.014-1.842-1.019-3.456-2.552-4.263
				c-1.026-0.541-1.753-1.514-1.981-2.651c-1.383-6.884,12.035-7.682,13.754-0.143"/>
			<path style="fill:#382920;" d="M1173.26,673.295c0.372,1.63-0.648,3.253-2.278,3.625c-1.63,0.372-3.253-0.648-3.625-2.278
				c-0.372-1.63,0.648-3.253,2.278-3.625C1171.264,670.645,1172.888,671.665,1173.26,673.295z"/>
			<path style="fill:#382920;" d="M1207.37,671.486c0.372,1.63-0.648,3.253-2.278,3.625c-1.63,0.372-3.253-0.648-3.625-2.278
				c-0.372-1.63,0.648-3.253,2.278-3.625C1205.375,668.836,1206.998,669.856,1207.37,671.486z"/>
			<path style="fill:#ED6D79;" d="M1190.418,693.872l-6.399,0.284c-0.375,0.017-0.696-0.277-0.713-0.652l-0.649-14.592
				c-0.017-0.375,0.277-0.696,0.652-0.713l6.399-0.284c0.375-0.017,0.696,0.277,0.713,0.652l0.649,14.592
				C1191.087,693.534,1190.793,693.855,1190.418,693.872z"/>
			<path style="fill:#382920;" d="M1164.259,669.858c0.392-0.098,0.752-0.325,1.016-0.672c1.546-2.046,4.078-3.099,6.621-2.759
				c0.988,0.145,1.926-0.561,2.061-1.567c0.136-1.003-0.565-1.927-1.569-2.062c-3.843-0.521-7.693,1.076-10.037,4.177
				c-0.609,0.808-0.45,1.958,0.356,2.567C1163.168,669.89,1163.742,669.988,1164.259,669.858z"/>
			<path style="fill:#382920;" d="M1210.237,666.348c0.285-0.071,0.559-0.212,0.79-0.423c0.748-0.682,0.8-1.843,0.118-2.589
				c-2.743-3.007-7.1-3.973-10.862-2.406c-0.935,0.391-1.375,1.463-0.985,2.397c0.39,0.935,1.478,1.347,2.395,0.988
				c2.318-0.969,5.042-0.376,6.743,1.491C1208.91,666.322,1209.606,666.507,1210.237,666.348z"/>
			
				<ellipse transform="matrix(0.1233 -0.9924 0.9924 0.1233 372.7846 1808.9171)" style="opacity:0.47;fill:#ED6D79;" cx="1210.205" cy="693.47" rx="9.543" ry="9.542"/>
			<path style="opacity:0.47;fill:#ED6D79;" d="M1162.934,698.255c0.995,3.968,5.019,6.378,8.987,5.382
				c3.968-0.996,6.378-5.019,5.382-8.987c-0.995-3.968-5.019-6.378-8.987-5.382C1164.349,690.264,1161.939,694.287,1162.934,698.255
				z"/>
			<path style="fill:#FDFDF9;" d="M1199.18,700.508c0.854,5.062-2.309,10.011-7.373,11.281c-5.065,1.271-10.189-1.599-11.826-6.465
				L1199.18,700.508z"/>
			<path style="fill:none;stroke:#382920;stroke-width:2;stroke-linecap:round;stroke-linejoin:round;stroke-miterlimit:10;" d="
				M1176.354,613.715c1.576,13.048,5.719,28.343,16.083,36.426c10.364,8.082,23.524,11.698,36.563,10.047"/>
			<path style="fill:#F7C319;" d="M1202.855,638.324l-1.231-0.808c-1.591-1.044-2.038-3.2-0.994-4.791l11.06-16.849
				c1.044-1.591,3.2-2.038,4.791-0.994l1.23,0.808c1.591,1.044,2.038,3.2,0.994,4.791l-11.06,16.849
				C1206.602,638.921,1204.446,639.368,1202.855,638.324z"/>
			<path style="fill:#1BB7D9;" d="M1217.721,648.083l-1.231-0.808c-1.591-1.044-2.038-3.2-0.994-4.791l11.06-16.849
				c1.044-1.591,3.2-2.038,4.791-0.994l1.231,0.808c1.591,1.044,2.038,3.2,0.994,4.791l-11.06,16.849
				C1221.468,648.68,1219.312,649.127,1217.721,648.083z"/>
			<path style="fill:none;stroke:#382920;stroke-width:2;stroke-linecap:round;stroke-linejoin:round;stroke-miterlimit:10;" d="
				M1156.655,661.645c11.272-5.556,19.917-15.309,24.079-27.167"/>
		</g>
	</g>
	<g>
		<circle style="fill:#17B6D7;" cx="355.696" cy="1468.971" r="130.019"/>
		<circle style="fill:#FFFFFF;" cx="355.696" cy="1468.971" r="99.74"/>
		
			<line style="fill:#1D4554;stroke:#000000;stroke-width:9;stroke-miterlimit:10;" x1="355.817" y1="1406.837" x2="355.817" y2="1468.971"/>
		
			<line style="fill:#1D4554;stroke:#000000;stroke-width:18;stroke-miterlimit:10;" x1="304.045" y1="1468.971" x2="355.817" y2="1468.971"/>
		<circle style="fill:#1D4554;" cx="355.817" cy="1468.971" r="9.183"/>
		<circle style="fill:#1D4554;" cx="355.696" cy="1557.776" r="3.817"/>
		<circle style="fill:#1D4554;" cx="378.549" cy="1554.882" r="3.817"/>
		<circle style="fill:#1D4554;" cx="399.873" cy="1546.171" r="3.817"/>
		<circle style="fill:#1D4554;" cx="418.217" cy="1532.237" r="3.817"/>
		<circle style="fill:#1D4554;" cx="432.329" cy="1514.031" r="3.817"/>
		<circle style="fill:#1D4554;" cx="441.248" cy="1492.792" r="3.817"/>
		<circle style="fill:#1D4554;" cx="444.367" cy="1469.969" r="3.817"/>
		<circle style="fill:#1D4554;" cx="441.472" cy="1447.116" r="3.817"/>
		<circle style="fill:#1D4554;" cx="432.761" cy="1425.792" r="3.817"/>
		<circle style="fill:#1D4554;" cx="418.828" cy="1407.448" r="3.817"/>
		<circle style="fill:#1D4554;" cx="400.621" cy="1393.336" r="3.817"/>
		<circle style="fill:#1D4554;" cx="379.383" cy="1384.417" r="3.817"/>
		<circle style="fill:#1D4554;" cx="356.559" cy="1381.298" r="3.817"/>
		<circle style="fill:#1D4554;" cx="333.707" cy="1384.193" r="3.817"/>
		<circle style="fill:#1D4554;" cx="312.382" cy="1392.904" r="3.817"/>
		<circle style="fill:#1D4554;" cx="294.038" cy="1406.837" r="3.817"/>
		<circle style="fill:#1D4554;" cx="279.926" cy="1425.044" r="3.817"/>
		<circle style="fill:#1D4554;" cx="271.007" cy="1446.282" r="3.817"/>
		<circle style="fill:#1D4554;" cx="267.888" cy="1469.105" r="3.817"/>
		<circle style="fill:#1D4554;" cx="270.783" cy="1491.958" r="3.817"/>
		<circle style="fill:#1D4554;" cx="279.494" cy="1513.283" r="3.817"/>
		<circle style="fill:#1D4554;" cx="293.428" cy="1531.626" r="3.817"/>
		<circle style="fill:#1D4554;" cx="311.634" cy="1545.739" r="3.817"/>
		<circle style="fill:#1D4554;" cx="332.873" cy="1554.658" r="3.817"/>
		<polygon points="355.696,1391.036 344.788,1409.929 366.604,1409.929 		"/>
		<polygon points="280.836,1469.969 306.019,1484.509 306.019,1455.43 		"/>
	</g>
	<g>
		<path style="fill:#FCC11B;" d="M947.996,612.957c-9.254-3.392-16.945-9.145-22.659-16.327
			c-7.669-9.639-19.791-14.709-32.036-13.377c-6.483,0.705-13.224-0.032-19.765-2.429c-8.91-3.266-16.12-9.118-21.095-16.397
			c-5.585-8.171-14.303-13.685-24.079-15.226c-1.682-0.265-3.364-0.697-5.024-1.306c-13.823-5.066-20.922-20.379-15.856-34.203
			c5.066-13.824,20.379-20.923,34.203-15.856c0.615,0.225,1.216,0.471,1.803,0.736c9.026,4.074,19.332,4.241,28.487,0.467
			c9.784-4.033,21.043-4.559,31.766-0.629c5.285,1.937,9.966,4.786,13.937,8.303c9.231,8.176,22.017,11.043,33.862,7.612
			c10.218-2.96,21.431-2.813,32.191,1.13c26.924,9.868,40.752,39.694,30.884,66.618
			C1004.747,608.998,974.921,622.825,947.996,612.957z"/>
		<path style="fill:#E08634;" d="M564.631,600.211c-1.588,1.758-1.451,4.471,0.307,6.06c1.758,1.588,4.471,1.451,6.06-0.307
			s1.451-4.471-0.307-6.06C568.932,598.316,566.219,598.453,564.631,600.211z"/>
		<polygon style="fill:#F8BB7E;" points="544.057,614.665 540.054,611.049 541.41,609.548 537.186,604.068 566.796,598.92 
			568.789,603.968 569.628,606.977 539.083,620.17 		"/>
		<path style="fill:#F7A962;" d="M556.854,701.854l-19.446-35.749c-0.024-6.625-3.955-12.902-10.458-15.595
			c-8.643-3.58-18.552,0.524-22.132,9.168c-2.375,5.734-1.353,12.014,2.118,16.645l13.571,34.266
			c12.255-0.826,24.27-2.987,35.361-8.532C556.189,701.975,556.52,701.911,556.854,701.854z"/>
		<path style="fill:#C54C69;" d="M619.537,818.726l0.733-0.288l-63.416-116.584c-0.334,0.057-0.664,0.121-0.986,0.201
			c-11.092,5.546-23.106,7.706-35.361,8.532l50.405,127.271l0.236-0.093c2.349,6.798,7.461,12.607,14.629,15.576
			c13.291,5.505,28.529-0.806,34.035-14.098C622.651,832.385,622.325,825.017,619.537,818.726z"/>
		<path style="fill:#F8BB7E;" d="M495.492,935.224h-44.781c-3.77,0-6.855-3.085-6.855-6.855v-62.313c0-3.77,3.085-6.855,6.855-6.855
			h44.781c3.77,0,6.855,3.085,6.855,6.855v62.313C502.347,932.139,499.263,935.224,495.492,935.224z"/>
		<path style="fill:#F8BB7E;" d="M763.176,1438.954l-42.09,15.29c-3.544,1.287-7.496-0.559-8.784-4.103l-37.372-102.88
			c-1.287-3.544,0.559-7.496,4.103-8.784l42.09-15.29c3.544-1.287,7.496,0.559,8.784,4.103l37.372,102.88
			C768.566,1433.714,766.72,1437.667,763.176,1438.954z"/>
		<path style="fill:#C54C69;" d="M695.783,699.597c-13.882-5.337-28.497,2.001-34.799,15.473
			c-5.918,12.652-12.247,25.526-55.236,110.061c10.433,10.622,21.42,20.674,32.347,30.789
			c35.472-58.256,72.011-118.534,73.16-121.524C716.592,720.513,709.665,704.933,695.783,699.597z"/>
		<path style="fill:#F8BB7E;" d="M802.84,1000.425c-0.294,3.436,0.867,6.838,3.199,9.378s5.623,3.986,9.071,3.986h19.682
			c0,0,4.706-38.088,11.164-85.713c-12.394,0.304-24.794,1.107-37.132,2.309L802.84,1000.425z"/>
		<path style="fill:#C54C69;" d="M882.57,699.086c0-14.883-12.035-26.957-26.917-26.957c-5.014,0-9.708,1.364-13.719,3.771
			c-7.903,4.693-13.198,13.318-13.198,23.186c0,1.324,0.12,2.647,0.321,3.971l-4.373,41.84l-0.08,0.842l-15.779,184.644
			c12.338-1.203,24.738-2.005,37.132-2.309c6.276-46.284,14.208-101.574,21.088-139.693
			C875.63,740.726,882.57,701.453,882.57,699.086z"/>
		<path style="fill:#E9465C;" d="M497.23,991.855c2.826,0,5.117-2.291,5.117-5.117v-83.824h-77.221
			c-93.917,55.528-110.316,47.592-110.316,82.236c0,3.705,3.002,6.706,6.706,6.706H497.23z"/>
		<path style="fill:#C54C69;" d="M436.568,1016.604c3.525-3.525,9.24-3.525,12.766,0l10.53,10.529
			c1.693,1.693,3.989,2.644,6.383,2.644h41.993c2.653,0,5.172-1.167,6.888-3.192c1.715-2.025,2.453-4.701,2.016-7.319l-3.51-21.059
			c-0.725-4.353-4.491-7.543-8.904-7.543H317.592c-4.255,0-7.933,2.972-8.826,7.132l-4.52,21.059
			c-0.572,2.666,0.091,5.447,1.805,7.568s4.294,3.353,7.021,3.353h106.584c2.394,0,4.69-0.951,6.383-2.644L436.568,1016.604z"/>
		<path style="fill:#E9465C;" d="M766.926,1489.877c2.826,0,5.117-2.291,5.117-5.117v-83.824h-77.221
			c-93.917,55.528-110.316,47.592-110.316,82.236c0,3.705,3.002,6.706,6.706,6.706H766.926z"/>
		<path style="fill:#C54C69;" d="M706.264,1514.626c3.525-3.525,9.24-3.525,12.766,0l10.53,10.53
			c1.693,1.693,3.989,2.644,6.383,2.644h41.993c2.653,0,5.172-1.167,6.888-3.192c1.715-2.025,2.453-4.701,2.016-7.319l-3.51-21.059
			c-0.725-4.353-4.491-7.543-8.904-7.543H587.288c-4.255,0-7.933,2.972-8.826,7.132l-4.52,21.059
			c-0.572,2.666,0.091,5.447,1.805,7.568s4.294,3.353,7.021,3.353h106.584c2.394,0,4.69-0.951,6.383-2.644L706.264,1514.626z"/>
		<path style="fill:#0D4139;" d="M482.587,720.632c-48.068,0-44.14,51.011-56.145,166.152h90.824l-1.524-50.658l122.283,178.815
			l42.327-141.579C547.357,741.541,502.732,720.632,482.587,720.632z"/>
		<path style="fill:#0E5F53;" d="M670.749,1366.56h82.872l-86.263-169.076c-5.526-10.831-4.395-23.864,2.913-33.581l121.506-161.57
			l-0.012-0.04c55.874-44.537,7.358-110.857-0.85-128.93H680.352c-87.394,246.262-102.142,286.217-105.683,295.031
			c-1.006,3.631-1.586,7.439-1.586,11.39c0,7.436,1.913,14.422,5.26,20.507l-0.002,0L670.749,1366.56z"/>
		<path style="fill:none;stroke:#FFFFFF;stroke-width:3;stroke-miterlimit:10;" d="M702.812,1357.744l-80.061-150.264
			c-5.883-8.695-0.005-19.882,3.845-26.471c23.88-40.877,154.333-201.337,145.448-299.054"/>
		<path style="fill:none;stroke:#FFFFFF;stroke-width:3;stroke-miterlimit:10;" d="M719.5,1357.744l-80.061-150.264
			c-5.883-8.695-0.005-19.882,3.845-26.471c23.88-40.877,154.333-201.337,145.448-299.054"/>
		
			<rect x="554.979" y="516.639" transform="matrix(0.9999 0.0126 -0.0126 0.9999 7.6473 -7.6469)" style="fill:#AAB9DF;" width="113.027" height="174.474"/>
		<polygon points="634.924,506.265 635.019,498.728 595.763,498.234 595.668,505.771 585.147,505.639 584.863,528.251 
			645.16,529.009 645.445,506.398 		"/>
		<path style="fill:#F7A962;" d="M922.957,1013.788c4.144,0,7.504-3.36,7.504-7.504c0-2.883-2.124-5.326-4.979-5.727l-98.974-13.905
			c-6.726-0.945-13.531,1.071-18.657,5.527c-3.878,3.372-5.255,8.797-3.455,13.61s6.401,8,11.539,8H922.957z"/>
		<circle style="fill:#F8BB7E;" cx="631.046" cy="650.262" r="4.111"/>
		<polygon style="fill:#F8BB7E;" points="630.69,654.357 600.837,651.811 602.101,638.77 632.317,646.353 		"/>
		<circle style="fill:#F8BB7E;" cx="613.708" cy="666.596" r="4.111"/>
		<polygon style="fill:#F8BB7E;" points="595.398,660.146 591.132,656.292 614.98,662.687 613.352,670.691 589.411,668.359 		"/>
		<path style="fill:#F8BB7E;" d="M589.853,674.244c-1.435,1.308-1.538,3.531-0.231,4.966c1.308,1.435,3.531,1.538,4.966,0.231
			c1.435-1.308,1.538-3.531,0.231-4.966C593.511,673.039,591.288,672.936,589.853,674.244z"/>
		<polygon style="fill:#F8BB7E;" points="576.337,670.723 574.708,667.133 593.626,673.62 591.578,680.298 570.16,676.352 		"/>
		<path style="fill:#F8BB7E;" d="M585.482,658.199c-2.259,2.5-2.063,6.357,0.437,8.616c2.5,2.259,6.358,2.063,8.616-0.437
			c2.259-2.5,2.063-6.358-0.437-8.616S587.741,655.699,585.482,658.199z"/>
		<path style="fill:#F8BB7E;" d="M568.275,668.092c-1.86,2.059-1.699,5.236,0.36,7.096c2.059,1.86,5.236,1.699,7.096-0.36
			c1.86-2.059,1.699-5.236-0.36-7.096C573.312,665.872,570.135,666.033,568.275,668.092z"/>
		<circle style="fill:#F8BB7E;" cx="599.943" cy="645.143" r="6.729"/>
		<path style="fill:#F8BB7E;" d="M532.229,606.626c-2.938,3.251-2.683,8.269,0.568,11.207c3.251,2.938,8.269,2.683,11.207-0.568
			c2.938-3.252,2.683-8.269-0.568-11.207C540.184,603.12,535.166,603.375,532.229,606.626z"/>
		<polygon style="fill:#F8BB7E;" points="566.862,671.722 534.181,680.326 503.289,636.857 532.229,606.626 542.193,618.754 		"/>
		<polygon style="fill:#F8BB7E;" points="598.921,646.275 600.531,638.441 561.156,635.04 561.199,633.715 586.273,621.735 
			580.349,607.879 542.193,618.754 533.705,643.928 562.315,668.559 564.652,661.414 589.411,668.359 590.034,656.189 
			567.523,649.942 567.849,648.769 599.424,651.868 		"/>
		<path style="fill:#F8BB7E;" d="M574.708,667.133l-3.146,9.423l-31.123-7.133c0.779-3.836,9.805-7.08,11.726-10.563
			L574.708,667.133z"/>
		<polygon style="fill:#F8BB7E;" points="618.288,605.495 619.031,608.16 586.273,621.735 582.206,607.397 616.522,601.023 		"/>
		<path style="fill:#F8BB7E;" d="M577.572,609.818c-2.79,3.088-2.549,7.854,0.54,10.644c3.088,2.79,7.853,2.549,10.644-0.54
			c2.79-3.088,2.549-7.854-0.539-10.644C585.128,606.488,580.363,606.73,577.572,609.818z"/>
		
			<ellipse transform="matrix(0.9033 -0.429 0.429 0.9033 -230.4288 287.9312)" style="fill:#F8BB7E;" cx="523.553" cy="655.165" rx="27.309" ry="27.309"/>
		<path style="fill:#382920;" d="M536.316,623.065c-0.312,0-0.623-0.138-0.833-0.4c-0.367-0.46-0.294-1.131,0.167-1.5
			c4.577-3.66,10.085-5.793,15.926-6.17c0.54-0.052,1.096,0.406,1.133,0.996c0.037,0.587-0.408,1.096-0.996,1.133
			c-5.404,0.348-10.497,2.321-14.73,5.708C536.784,622.988,536.549,623.065,536.316,623.065z"/>
		<path style="fill:#F8BB7E;" d="M614.605,602.167c-1.407,1.557-1.285,3.961,0.272,5.368c1.557,1.407,3.961,1.285,5.368-0.272
			s1.285-3.961-0.272-5.368C618.415,600.488,616.012,600.609,614.605,602.167z"/>
		<path style="fill:#F8BB7E;" d="M865.587,1001.359c-1.174-0.442-7.661,0.636-46.647-8.16c-1.379-0.639-2.901-1.02-4.52-1.02
			c-5.967,0-10.805,4.837-10.805,10.805c0,5.542,4.188,10.056,9.563,10.68l-0.037,0.125l51.432,1.067
			c3.755,0,6.799-3.044,6.799-6.799C871.372,1004.648,868.857,1001.852,865.587,1001.359z"/>
		<path style="fill:#E9465C;" d="M842.134,675.138l-0.201,0.762l-14.281,58.287l-2.929,11.032l-0.12,0.521l-33.697,127.606H680.35
			l4.774-62.78c-12.195-5.054-20.739-17.049-20.739-31.049c0-18.533,29.284-82.035,29.284-82.035l6.739-1.003
			c0,0.281,0.04,0.562,0.08,0.843c2.647,18.533,31.57,29.725,64.585,25.032c33.055-4.693,57.685-23.547,55.038-42.04
			c-0.08-0.602-0.201-1.203-0.361-1.805L842.134,675.138z"/>
		<path style="fill:#382920;" d="M758.367,816.057c-10.153,0-20.154-3.16-28.16-9.205c-0.469-0.356-0.562-1.025-0.208-1.496
			c0.356-0.471,1.021-0.558,1.496-0.208c11.653,8.803,27.766,11.193,42.053,6.227c14.23-4.943,24.148-16.326,25.883-29.706
			c0.077-0.583,0.596-0.996,1.196-0.921c0.583,0.077,0.996,0.61,0.921,1.196c-1.839,14.186-12.301,26.235-27.3,31.447
			C769.093,815.18,763.708,816.057,758.367,816.057z"/>
		<path style="fill:#F7A962;" d="M768.657,718.671c-33.656,10.109-69.924,1.623-75.613-17.268c-0.086-0.286-0.172-0.573-0.217-0.865
			l42.716-13.237c4.818-1.501,8.326-5.71,8.893-10.713l2.233-19.665l1.009-9.132l3.375-29.887l38.619-5.86l-1.251,10.922
			l-2.527,22.233l-2.059,18.271c-0.204,2.041,0.615,4.054,2.181,5.356c2.6,2.161,18.435,13.447,41.265,9.682
			c0.263,0.602-7.286,16.177-7.108,16.791C825.856,714.148,802.355,708.556,768.657,718.671z"/>
		<path style="fill:#F7A962;" d="M772.579,693.715c-7.451,5.815-15.347,11.003-23.224,16.218c-2.31,1.529-4.628,3.047-6.951,4.558
			c-1.695-3.436-2.556-7.334-2.316-11.414c1.745-29.746,2.29-37.537,2.547-40.235c2.26,0.713,4.597,1.222,6.981,1.513
			c10.323,1.25,20.719-1.658,28.9-8.094c-8.226,4.125-17.154,5.114-25.354,2.038c-3.711-1.391-6.922-3.756-9.614-6.841
			c0.128-1.966,0.27-4.362,0.444-7.278c0.74-12.591,11.64-22.28,24.221-21.541l3.316,0.186c11.812,0.697,22.59-2.907,23.075,8.679
			c0.039,0.766-1.492,14.773-1.534,15.552c-0.97,16.56-1.574,26.452-1.96,32.392C784.722,683.917,778.731,688.914,772.579,693.715z"
			/>
		<path style="fill:#382920;" d="M778.517,656.262c-8.181,6.436-18.577,9.344-28.9,8.094c-2.384-0.292-4.721-0.8-6.981-1.513
			c0.269-2.848,0.219,0.018,0.914-11.383c2.692,3.085,5.903,5.45,9.614,6.841C761.363,661.376,770.29,660.387,778.517,656.262z"/>
		<polygon style="fill:#E9465C;" points="756.206,724.885 684.053,724.885 693.668,697.482 708.221,695.298 		"/>
		<polygon style="fill:#E9465C;" points="823.283,720.632 746.469,724.885 819.75,678.507 836.881,678.507 		"/>
		<path style="fill:#FCC11B;" d="M848.192,516.873c1.828,12.047-20.969,30.121-26.401,39.94c-5.379,9.723-17.177,9.495-19.005-2.552
			c-4.854-31.994,11.217-54.517,22.203-56.184C835.976,496.411,846.364,504.826,848.192,516.873z"/>
		<path style="fill:#EC654B;" d="M832.164,547.845c-6.513,7.588-12.624,16.335-22.564,15.239s-14.554-15.694-13.458-25.634
			C799.762,504.636,840.265,538.407,832.164,547.845z"/>
		<path style="fill:#FCC11B;" d="M728.68,594.506c9.986,27.19,42.69,40.194,69.88,30.208c27.19-9.986,46.998-37.859,37.012-65.048
			c-9.986-27.19-45.983-43.401-73.173-33.415C735.209,536.237,717.29,563.491,728.68,594.506z"/>
		<path style="fill:#F8BB7E;" d="M738.519,651.494c2.687,3.083,5.901,5.45,9.606,6.838c8.205,3.08,17.131,2.092,25.353-2.035
			c0.013,0.006,0.013,0.006,0.028-0.01c5.267-2.627,10.233-6.539,14.544-11.509c2.113-2.427,4.066-5.115,5.81-8.025
			c0.25-0.422,0.506-0.857,0.745-1.307c4.634-8.499,7.88-22.229,6.671-35.208c-1.165-12.686-6.588-24.639-19.107-30.3l0.267-3.422
			l-50.019-4.012l-3.797,47.299l0.076,0.004C726.789,625.59,730.198,641.979,738.519,651.494z"/>
		<circle style="fill:#382920;" cx="740.48" cy="601.458" r="3.028"/>
		<circle style="fill:#382920;" cx="768.657" cy="602.351" r="3.028"/>
		<path style="fill:#ED6D79;" d="M754.424,623.406l-6.392-0.449c-0.375-0.026-0.66-0.355-0.634-0.73l1.023-14.575
			c0.026-0.375,0.355-0.66,0.73-0.634l6.392,0.449c0.375,0.026,0.66,0.355,0.634,0.73l-1.023,14.575
			C755.127,623.147,754.799,623.432,754.424,623.406z"/>
		<path style="fill:#382920;" d="M734.829,593.876c-0.344-0.028-0.678-0.168-0.943-0.423c-0.62-0.59-0.644-1.57-0.055-2.188
			c2.401-2.52,6.004-3.544,9.356-2.69c0.829,0.211,1.329,1.053,1.12,1.881c-0.212,0.832-1.07,1.32-1.882,1.118
			c-2.274-0.568-4.722,0.118-6.351,1.827C735.736,593.753,735.278,593.912,734.829,593.876z"/>
		<path style="fill:#382920;" d="M775.614,594.945c-0.455-0.037-0.891-0.275-1.167-0.687c-1.291-1.944-3.687-2.875-5.949-2.314
			c-0.826,0.205-1.665-0.3-1.874-1.131c-0.203-0.829,0.304-1.668,1.133-1.873c3.539-0.874,7.262,0.58,9.272,3.605
			c0.47,0.713,0.278,1.674-0.436,2.145C776.295,594.891,775.949,594.971,775.614,594.945z"/>
		<path style="fill:#ED6D79;" d="M765.372,631.89c-1.299,5.062-6.058,8.603-11.44,8.171c-5.742-0.461-10.07-5.282-10.026-10.947
			C749.962,634.515,758.52,635.383,765.372,631.89z"/>
		
			<ellipse transform="matrix(0.7071 -0.7071 0.7071 0.7071 -213.3511 732.3956)" style="opacity:0.47;fill:#ED6D79;" cx="777.404" cy="623.735" rx="9.991" ry="9.991"/>
		<circle style="opacity:0.47;fill:#ED6D79;" cx="736.58" cy="620.306" r="7.979"/>
		<path style="fill:none;stroke:#382920;stroke-width:2;stroke-linecap:round;stroke-linejoin:round;stroke-miterlimit:10;" d="
			M743.043,628.46c2.69,3.257,6.667,5.399,11.043,5.948c4.376,0.549,8.785-0.541,12.241-3.026"/>
		<path style="fill:#F7A962;" d="M794.604,635.446l0.009-0.003c8.715,0.698,23.21-10.74,23.918-19.458
			c0.695-8.724-4.592-15.231-13.307-15.929c-1.351-0.111-2.678-0.039-3.949,0.183C802.484,613.216,799.238,626.947,794.604,635.446z
			"/>
		<path style="fill:none;stroke:#382920;stroke-width:2;stroke-linecap:round;stroke-linejoin:round;stroke-miterlimit:10;" d="
			M799.492,624.373c2.65,0.185,4.973-1.755,5.264-4.395c0.209-1.897-0.685-3.67-2.179-4.664c-1-0.666-1.646-1.746-1.761-2.942
			c-0.697-7.241,13.217-6.644,14.191,1.307"/>
		
			<ellipse transform="matrix(0.7037 -0.7105 0.7105 0.7037 -175.6409 729.2331)" style="fill:#FCC11B;" cx="786.548" cy="575.214" rx="13.784" ry="31.688"/>
		
			<ellipse transform="matrix(0.8641 -0.5034 0.5034 0.8641 -181.6953 453.0904)" style="fill:#FCC11B;" cx="748.125" cy="562.984" rx="24.332" ry="10.584"/>
		<path style="fill:none;stroke:#382920;stroke-width:2;stroke-linecap:round;stroke-linejoin:round;stroke-miterlimit:10;" d="
			M801.052,598.198c-23.402-4.127-39.877-25.306-38.118-49.005"/>
		<path style="fill:none;stroke:#382920;stroke-width:2;stroke-linecap:round;stroke-linejoin:round;stroke-miterlimit:10;" d="
			M763.617,565.969c-9.634,7.932-21.902,11.946-34.361,11.244"/>
		
			<polyline style="fill:none;stroke:#382920;stroke-width:2;stroke-linecap:round;stroke-linejoin:round;stroke-miterlimit:10;" points="
			561.156,635.04 600.531,638.441 632.317,646.353 		"/>
		
			<line style="fill:none;stroke:#382920;stroke-width:2;stroke-linecap:round;stroke-linejoin:round;stroke-miterlimit:10;" x1="567.523" y1="649.942" x2="614.98" y2="662.687"/>
		
			<line style="fill:none;stroke:#382920;stroke-width:2;stroke-linecap:round;stroke-linejoin:round;stroke-miterlimit:10;" x1="564.783" y1="663.491" x2="594.819" y2="674.474"/>
	</g>
</g>
</svg>
