<?xml version="1.0" encoding="utf-8"?>
<!-- Generator: Adobe Illustrator 27.5.0, SVG Export Plug-In . SVG Version: 6.00 Build 0)  -->
<svg version="1.1" xmlns="http://www.w3.org/2000/svg" xmlns:xlink="http://www.w3.org/1999/xlink" x="0px" y="0px"
	 viewBox="0 0 500 500" style="enable-background:new 0 0 500 500;" xml:space="preserve">
<g id="Background_Complete">
	<g>
		<g>
			<g>
				<g>
					<g>
						<g>
							<g>
								<path style="fill:none;" d="M402.475,259.818c-2.167,1.808-4.542,3.292-7.05,4.439l-0.411,7.714l-12.598,2.156l-2.954-7.138
									c-2.747-0.247-5.481-0.856-8.127-1.841l-5.743,5.163l-10.432-7.384l2.957-7.133c-1.81-2.167-3.293-4.543-4.439-7.052
									l-7.715-0.411l-2.157-12.596l7.138-2.955c0.247-2.747,0.857-5.48,1.843-8.127l-5.163-5.742l7.383-10.434l7.134,2.958
									c2.167-1.809,4.542-3.292,7.051-4.439l0.411-7.715l12.598-2.156l2.953,7.139c2.747,0.247,5.48,0.857,8.126,1.841
									l5.743-5.161l10.433,7.383l-2.958,7.133c1.81,2.167,3.294,4.543,4.439,7.052l7.715,0.411l2.157,12.596l-7.139,2.954
									c-0.247,2.747-0.857,5.48-1.842,8.127l5.162,5.742l-7.383,10.432L402.475,259.818L402.475,259.818z M393.164,244.021
									c4.374-6.18,2.91-14.738-3.272-19.112c-6.181-4.374-14.738-2.909-19.112,3.272c-4.374,6.182-2.909,14.738,3.272,19.112
									C380.234,251.667,388.79,250.202,393.164,244.021z"/>
							</g>
						</g>
					</g>
				</g>
			</g>
			<g>
				<g>
					<g>
						<g>
							<g>
								<g>
									<path style="fill:#E0E0E0;" d="M393.164,244.021c0,0-0.555,1.108-2.184,2.601c-1.599,1.46-4.51,3.257-8.522,3.445
										c-1.977,0.079-4.201-0.229-6.336-1.215c-2.114-0.988-4.205-2.536-5.698-4.731c-0.774-1.072-1.385-2.301-1.816-3.615
										c-0.45-1.309-0.702-2.72-0.715-4.161c-0.091-2.884,0.821-5.879,2.565-8.39c1.787-2.482,4.309-4.339,7.06-5.213
										c1.363-0.467,2.778-0.699,4.163-0.71c1.383-0.031,2.745,0.136,4.014,0.51c2.568,0.678,4.723,2.135,6.358,3.8
										c1.64,1.686,2.67,3.681,3.253,5.572c1.157,3.846,0.43,7.189-0.415,9.182C394.024,243.129,393.164,244.021,393.164,244.021
										c-0.083-0.051,0.682-1.015,1.441-3.035c0.741-1.985,1.348-5.234,0.169-8.905c-0.593-1.806-1.607-3.697-3.19-5.284
										c-1.58-1.567-3.642-2.934-6.081-3.555c-1.205-0.346-2.497-0.495-3.806-0.458c-1.311,0.017-2.648,0.243-3.935,0.69
										c-2.599,0.836-4.97,2.592-6.661,4.936c-1.646,2.374-2.513,5.194-2.437,7.922c0.007,1.362,0.239,2.699,0.658,3.94
										c0.401,1.247,0.971,2.415,1.698,3.436c1.398,2.093,3.372,3.584,5.375,4.552c2.023,0.965,4.144,1.292,6.044,1.251
										c3.854-0.109,6.717-1.762,8.342-3.121C392.434,245.001,393.089,243.959,393.164,244.021z"/>
								</g>
							</g>
						</g>
					</g>
				</g>
			</g>
			<g>
				<g>
					<g>
						<g>
							<g>
								<g>
									<path style="fill:#E0E0E0;" d="M402.475,259.819c-0.001-0.011,0.151,0.042,0.456,0.158
										c0.334,0.131,0.782,0.305,1.362,0.531c1.245,0.499,3.037,1.218,5.364,2.151l-0.15,0.043
										c1.875-2.682,4.34-6.209,7.322-10.475l0.015,0.248c-1.571-1.733-3.317-3.66-5.185-5.721l-0.094-0.103l0.049-0.132
										c0.897-2.438,1.547-5.156,1.801-8.069l0.013-0.155l0.145-0.061c2.222-0.927,4.628-1.93,7.13-2.974l-0.169,0.306
										c-0.689-3.965-1.419-8.173-2.186-12.591l0.289,0.257c-2.388-0.123-5.019-0.257-7.715-0.396l-0.196-0.01l-0.082-0.18
										c-1.067-2.332-2.548-4.76-4.404-6.97l-0.132-0.157l0.079-0.191c0.914-2.212,1.921-4.652,2.947-7.137l0.121,0.421
										c-3.28-2.315-6.817-4.811-10.442-7.37l0.456-0.027c-1.787,1.609-3.749,3.376-5.737,5.167l-0.168,0.151l-0.212-0.079
										c-2.419-0.9-5.185-1.562-8.03-1.812l-0.229-0.02l-0.088-0.214c-0.926-2.235-1.937-4.674-2.958-7.137l0.421,0.232
										c-3.988,0.684-8.263,1.418-12.597,2.161l0.324-0.365c-0.129,2.437-0.269,5.067-0.41,7.715l-0.012,0.238l-0.217,0.099
										c-2.38,1.085-4.79,2.566-6.957,4.379l-0.003,0.003l-0.001,0.001c-0.18,0.028,0.401-0.06-0.404,0.062l-0.007-0.003
										l-0.014-0.006l-0.028-0.012l-0.056-0.023l-0.112-0.047l-0.225-0.093l-0.449-0.186l-0.897-0.372l-1.789-0.742
										c-1.19-0.493-2.376-0.985-3.556-1.475l0.471-0.136c-2.496,3.525-4.958,7.004-7.385,10.432l-0.029-0.485
										c1.737,1.934,3.457,3.848,5.16,5.744l0.156,0.174l-0.082,0.219c-0.974,2.609-1.58,5.318-1.825,8.026l-0.021,0.23
										l-0.213,0.088c-2.415,0.997-4.792,1.979-7.14,2.949l0.226-0.41c0.732,4.301,1.447,8.502,2.144,12.598l-0.338-0.3
										c2.617,0.143,5.188,0.283,7.714,0.421l0.214,0.012l0.088,0.194c1.166,2.562,2.656,4.909,4.379,6.98l0.133,0.159
										l-0.079,0.19c-1.018,2.444-2.005,4.813-2.969,7.127l-0.113-0.392c3.664,2.605,7.124,5.064,10.417,7.405l-0.375,0.022
										c2.024-1.811,3.924-3.51,5.755-5.148l0.128-0.115l0.159,0.06c2.762,1.034,5.461,1.605,8.052,1.848l0.157,0.015l0.059,0.144
										c1.065,2.597,2.024,4.937,2.93,7.147l-0.254-0.14c4.884-0.814,9.045-1.507,12.607-2.101l-0.146,0.164
										c0.184-3.08,0.335-5.606,0.46-7.711l0.005-0.077l0.069-0.031c2.559-1.155,4.305-2.316,5.436-3.106
										c0.537-0.394,0.948-0.696,1.25-0.917C402.339,259.903,402.473,259.808,402.475,259.819c0.002,0.01-0.127,0.131-0.377,0.351
										c-0.262,0.221-0.659,0.555-1.214,0.971c-1.11,0.828-2.844,2.03-5.407,3.232l0.073-0.108
										c-0.098,2.106-0.217,4.634-0.361,7.716l-0.007,0.14l-0.14,0.025c-3.557,0.625-7.712,1.355-12.588,2.212l-0.182,0.032
										l-0.072-0.172c-0.921-2.204-1.896-4.537-2.978-7.128l0.216,0.158c-2.635-0.231-5.384-0.796-8.202-1.834l0.287-0.055
										c-1.824,1.648-3.715,3.356-5.73,5.177l-0.178,0.161l-0.197-0.139c-3.303-2.327-6.772-4.773-10.447-7.363l-0.213-0.15
										l0.1-0.242c0.956-2.317,1.935-4.69,2.945-7.138l0.053,0.348c-1.768-2.111-3.298-4.507-4.498-7.124l0.302,0.205
										c-2.526-0.132-5.097-0.265-7.715-0.401l-0.289-0.015l-0.049-0.286c-0.705-4.095-1.429-8.294-2.169-12.594l-0.051-0.295
										l0.277-0.115c2.346-0.973,4.722-1.959,7.135-2.96l-0.233,0.318c0.247-2.774,0.865-5.551,1.86-8.227l0.074,0.393
										c-1.705-1.894-3.426-3.807-5.165-5.74l-0.208-0.231l0.18-0.254c2.425-3.43,4.886-6.91,7.38-10.436l0.181-0.257l0.29,0.12
										c1.18,0.489,2.366,0.981,3.556,1.474l1.789,0.742l0.897,0.372l0.449,0.186l0.225,0.093l0.112,0.047l0.056,0.023
										l0.028,0.012l0.014,0.006l0.007,0.003c-0.804,0.123-0.222,0.033-0.401,0.06l0.001-0.001l0.003-0.002
										c2.222-1.86,4.695-3.378,7.134-4.489l-0.229,0.336c0.142-2.648,0.283-5.278,0.413-7.715l0.017-0.312l0.308-0.053
										c4.334-0.74,8.61-1.47,12.599-2.151l0.304-0.052l0.117,0.285c1.018,2.465,2.025,4.904,2.949,7.141l-0.317-0.233
										c2.915,0.261,5.747,0.944,8.222,1.87l-0.38,0.072c1.992-1.786,3.958-3.55,5.748-5.156l0.218-0.196l0.238,0.169
										c3.619,2.567,7.15,5.072,10.424,7.395l0.229,0.163l-0.107,0.259c-1.034,2.481-2.048,4.918-2.968,7.128l-0.053-0.347
										c1.889,2.264,3.394,4.749,4.474,7.134l-0.278-0.19c2.696,0.149,5.326,0.294,7.714,0.426l0.248,0.013l0.041,0.244
										c0.747,4.422,1.458,8.633,2.128,12.601l0.037,0.222l-0.207,0.085c-2.508,1.03-4.919,2.02-7.147,2.934l0.159-0.215
										c-0.275,2.96-0.955,5.717-1.883,8.184l-0.045-0.234c1.851,2.076,3.582,4.016,5.139,5.763l0.107,0.12l-0.092,0.129
										c-3.031,4.231-5.537,7.729-7.443,10.39l-0.059,0.082l-0.091-0.039c-2.285-0.978-4.044-1.731-5.266-2.254
										c-0.578-0.254-1.024-0.449-1.357-0.595C402.632,259.904,402.476,259.829,402.475,259.819z"/>
								</g>
							</g>
						</g>
					</g>
				</g>
			</g>
		</g>
		<g>
			<g>
				<g>
					<g>
						<g>
							<path style="fill-rule:evenodd;clip-rule:evenodd;fill:#E0E0E0;" d="M390.202,164.694c-3.064,2.556-6.422,4.655-9.969,6.276
								l-0.581,10.907l-17.812,3.049l-4.176-10.092c-3.884-0.349-7.75-1.21-11.491-2.603l-8.12,7.299l-14.75-10.44l4.181-10.085
								c-2.559-3.064-4.656-6.424-6.276-9.971l-10.908-0.581l-3.049-17.81l10.092-4.178c0.349-3.884,1.212-7.748,2.605-11.49
								l-7.3-8.119l10.439-14.753l10.086,4.183c3.064-2.559,6.422-4.655,9.97-6.276l0.581-10.909l17.812-3.049l4.176,10.094
								c3.884,0.349,7.748,1.212,11.49,2.603l8.12-7.298l14.752,10.439l-4.182,10.085c2.559,3.063,4.657,6.424,6.277,9.971
								l10.908,0.581l3.049,17.81l-10.094,4.177c-0.349,3.884-1.211,7.748-2.604,11.491l7.299,8.119l-10.439,14.751L390.202,164.694
								L390.202,164.694z M377.037,142.358c6.184-8.738,4.115-20.838-4.626-27.023c-8.739-6.185-20.838-4.112-27.023,4.626
								c-6.185,8.74-4.113,20.838,4.626,27.023C358.755,153.168,370.853,151.098,377.037,142.358z"/>
						</g>
					</g>
				</g>
			</g>
		</g>
	</g>
	<g>
		<g>
			<g>
				<g>
					<g>
						<g>
							<g>
								<g>
									<path style="fill-rule:evenodd;clip-rule:evenodd;fill:#E0E0E0;" d="M166.502,161.413c2.577,2.754,4.738,5.809,6.459,9.069
										l10.323-0.039l3.836,16.644l-9.298,4.485c-0.12,3.684-0.724,7.378-1.837,10.983l7.325,7.269l-9.057,14.481l-9.742-3.402
										c-2.753,2.579-5.811,4.739-9.071,6.459l0.039,10.324l-16.641,3.837l-4.486-9.298c-3.684-0.12-7.376-0.727-10.983-1.84
										l-7.268,7.326l-14.484-9.056l3.403-9.743c-2.579-2.753-4.738-5.809-6.459-9.07l-10.325,0.039l-3.836-16.644l9.3-4.484
										c0.12-3.683,0.727-7.376,1.837-10.982l-7.324-7.269l9.056-14.482l9.742,3.403c2.753-2.579,5.811-4.74,9.071-6.46
										l-0.039-10.324l16.642-3.837l4.485,9.3c3.684,0.12,7.377,0.725,10.983,1.838l7.268-7.325l14.481,9.055L166.502,161.413
										L166.502,161.413z M146.133,175.039c-8.579-5.365-19.885-2.76-25.25,5.82c-5.365,8.58-2.758,19.885,5.82,25.25
										c8.581,5.365,19.885,2.759,25.25-5.82C157.319,191.708,154.714,180.404,146.133,175.039z"/>
								</g>
							</g>
						</g>
					</g>
				</g>
			</g>
			<g>
				<g>
					<g>
						<g>
							<g>
								<g>
									<path style="fill-rule:evenodd;clip-rule:evenodd;fill:#E0E0E0;" d="M176.558,91.412c1.426,1.525,2.623,3.216,3.576,5.021
										l5.715-0.022l2.124,9.215l-5.148,2.483c-0.066,2.039-0.401,4.085-1.017,6.081l4.056,4.024l-5.015,8.017l-5.393-1.883
										c-1.524,1.428-3.217,2.624-5.022,3.576l0.022,5.716l-9.213,2.124l-2.484-5.148c-2.039-0.067-4.084-0.402-6.081-1.019
										l-4.024,4.056l-8.019-5.014l1.884-5.394c-1.428-1.524-2.623-3.216-3.576-5.021l-5.716,0.022l-2.124-9.215l5.149-2.483
										c0.067-2.039,0.402-4.084,1.017-6.08l-4.055-4.024l5.014-8.018l5.393,1.884c1.524-1.428,3.217-2.625,5.022-3.577
										l-0.022-5.716l9.214-2.124l2.483,5.149c2.039,0.067,4.084,0.402,6.081,1.018l4.024-4.055l8.017,5.014L176.558,91.412
										L176.558,91.412z M165.281,98.955c-4.749-2.97-11.009-1.528-13.979,3.222c-2.97,4.75-1.527,11.009,3.223,13.979
										c4.751,2.971,11.009,1.528,13.979-3.222C171.474,108.184,170.031,101.926,165.281,98.955z"/>
								</g>
							</g>
						</g>
					</g>
				</g>
			</g>
			<g>
				<g>
					<g>
						<g>
							<g>
								<g>
									<g>
										<path style="fill:none;" d="M105.523,102.332c1.156,1.235,2.125,2.606,2.898,4.068l4.631-0.018l1.721,7.466l-4.171,2.012
											c-0.054,1.652-0.325,3.31-0.824,4.927l3.286,3.261L109,130.544l-4.37-1.526c-1.235,1.157-2.607,2.126-4.069,2.898
											l0.018,4.631l-7.465,1.721l-2.012-4.171c-1.652-0.054-3.309-0.326-4.927-0.825l-3.26,3.286l-6.497-4.063l1.527-4.37
											c-1.157-1.235-2.126-2.606-2.898-4.068l-4.632,0.017l-1.721-7.466l4.172-2.011c0.054-1.652,0.326-3.309,0.824-4.927
											l-3.285-3.261l4.062-6.497l4.37,1.527c1.235-1.157,2.607-2.126,4.069-2.898l-0.018-4.631l7.465-1.721l2.012,4.172
											c1.652,0.054,3.309,0.325,4.927,0.825l3.26-3.286l6.496,4.062L105.523,102.332L105.523,102.332z M96.386,108.444
											c-3.848-2.407-8.92-1.238-11.327,2.611c-2.407,3.849-1.237,8.92,2.611,11.327c3.849,2.407,8.92,1.238,11.327-2.611
											C101.403,115.922,100.235,110.851,96.386,108.444z"/>
									</g>
									<g>
										<g>
											<path style="fill:#E0E0E0;" d="M96.386,108.444c0.009-0.015,0.167,0.073,0.461,0.257
												c0.296,0.178,0.709,0.489,1.178,0.954c0.931,0.906,2.111,2.588,2.363,4.988c0.116,1.183,0.009,2.528-0.509,3.843
												c-0.52,1.302-1.376,2.61-2.642,3.582c-0.617,0.501-1.333,0.91-2.107,1.214c-0.77,0.315-1.608,0.515-2.473,0.572
												c-1.728,0.154-3.557-0.291-5.124-1.252c-1.551-0.988-2.752-2.438-3.37-4.059c-0.327-0.802-0.514-1.643-0.568-2.474
												c-0.066-0.829-0.012-1.652,0.169-2.426c0.32-1.564,1.121-2.907,2.064-3.944c0.956-1.041,2.118-1.727,3.233-2.14
												c2.268-0.823,4.296-0.499,5.519-0.058c0.623,0.218,1.084,0.452,1.373,0.641
												C96.247,108.326,96.395,108.429,96.386,108.444c-0.029,0.054-0.634-0.368-1.869-0.749
												c-1.213-0.372-3.175-0.621-5.326,0.21c-1.058,0.417-2.152,1.087-3.045,2.087c-0.881,0.997-1.626,2.275-1.913,3.752
												c-0.165,0.731-0.21,1.507-0.143,2.287c0.055,0.782,0.236,1.572,0.547,2.325c0.588,1.522,1.716,2.877,3.172,3.806
												c1.473,0.901,3.184,1.323,4.81,1.185c0.813-0.05,1.602-0.234,2.329-0.526c0.731-0.281,1.408-0.661,1.993-1.129
												c1.202-0.905,2.025-2.134,2.536-3.362c0.508-1.241,0.632-2.518,0.544-3.651c-0.194-2.298-1.277-3.954-2.143-4.881
												C96.994,108.853,96.349,108.494,96.386,108.444z"/>
										</g>
									</g>
									<g>
										<g>
											<path style="fill:#E0E0E0;" d="M105.523,102.332c-0.007,0.001,0.019-0.092,0.077-0.278
												c0.067-0.207,0.156-0.482,0.269-0.834c0.257-0.767,0.624-1.864,1.101-3.287l0.034,0.098
												c-1.672-1.031-3.868-2.384-6.522-4.021l0.164-0.019c-0.984,1-2.076,2.112-3.245,3.3l-0.064,0.066l-0.089-0.027
												c-1.489-0.452-3.136-0.748-4.887-0.8l-0.103-0.003l-0.046-0.094c-0.631-1.298-1.314-2.704-2.025-4.165l0.209,0.1
												c-2.35,0.548-4.843,1.129-7.461,1.74l0.159-0.201c0.009,1.434,0.018,3.013,0.028,4.631l0.001,0.13l-0.116,0.061
												c-1.358,0.718-2.758,1.687-4.016,2.871l-0.099,0.093l-0.129-0.045c-1.355-0.471-2.85-0.99-4.372-1.519l0.273-0.096
												c-1.273,2.042-2.646,4.245-4.054,6.502l-0.035-0.3c1.024,1.014,2.149,2.128,3.289,3.257l0.106,0.105l-0.044,0.143
												c-0.455,1.477-0.756,3.152-0.809,4.862l-0.005,0.152l-0.138,0.066c-1.306,0.631-2.731,1.319-4.17,2.014l0.138-0.287
												c0.546,2.364,1.131,4.897,1.724,7.465l-0.253-0.201c1.463-0.006,3.042-0.012,4.632-0.019l0.158-0.001l0.073,0.139
												c0.73,1.385,1.697,2.776,2.855,4.009l0.001,0.002l0.001,0.001c0.025,0.118-0.055-0.263,0.056,0.265l-0.002,0.004
												l-0.003,0.009l-0.006,0.017l-0.012,0.034l-0.024,0.069l-0.048,0.138l-0.096,0.275l-0.192,0.549l-0.383,1.096
												c-0.255,0.729-0.509,1.456-0.761,2.179l-0.108-0.306c2.195,1.373,4.361,2.729,6.496,4.064l-0.32,0.037
												c1.098-1.106,2.185-2.201,3.262-3.285l0.109-0.11l0.148,0.046c1.593,0.493,3.233,0.763,4.859,0.817l0.153,0.005
												l0.066,0.137c0.679,1.411,1.348,2.801,2.009,4.173l-0.279-0.134c2.549-0.585,5.039-1.156,7.467-1.713l-0.186,0.234
												c-0.004-1.571-0.007-3.115-0.011-4.631l0-0.142l0.125-0.066c1.492-0.784,2.844-1.755,4.024-2.855l0.1-0.093l0.128,0.045
												c1.497,0.526,2.949,1.036,4.367,1.534l-0.255,0.09c1.434-2.282,2.789-4.436,4.078-6.487l0.029,0.247
												c-1.152-1.15-2.234-2.229-3.277-3.27l-0.08-0.08l0.034-0.108c0.524-1.687,0.774-3.32,0.832-4.877l0.004-0.104
												l0.093-0.044c1.518-0.725,2.886-1.379,4.178-1.996l-0.083,0.173c-0.652-2.895-1.208-5.362-1.685-7.474l0.114,0.09
												c-1.848-0.006-3.366-0.011-4.631-0.015l-0.051,0l-0.023-0.045c-0.778-1.492-1.531-2.498-2.041-3.148
												c-0.252-0.307-0.446-0.542-0.59-0.718C105.576,102.41,105.516,102.333,105.523,102.332
												c0.007-0.001,0.085,0.071,0.225,0.212c0.142,0.149,0.356,0.374,0.624,0.692c0.534,0.636,1.315,1.632,2.123,3.124
												l-0.074-0.045c1.265-0.014,2.782-0.03,4.631-0.051l0.093-0.001l0.022,0.092c0.497,2.108,1.077,4.57,1.757,7.458
												l0.028,0.119l-0.111,0.054c-1.288,0.627-2.651,1.291-4.164,2.027l0.097-0.148c-0.048,1.587-0.292,3.253-0.817,4.977
												l-0.047-0.188c1.049,1.035,2.136,2.108,3.295,3.252l0.113,0.112l-0.085,0.136c-1.28,2.057-2.624,4.217-4.049,6.505
												l-0.091,0.147l-0.164-0.057c-1.42-0.493-2.873-0.997-4.373-1.518l0.228-0.048c-1.204,1.132-2.587,2.131-4.114,2.939
												l0.124-0.207c0.008,1.516,0.016,3.06,0.024,4.631l0.001,0.191l-0.187,0.043c-2.427,0.562-4.915,1.139-7.463,1.729
												l-0.193,0.045l-0.086-0.179c-0.663-1.371-1.334-2.759-2.016-4.169l0.219,0.142c-1.671-0.053-3.356-0.328-4.994-0.833
												l0.257-0.064c-1.076,1.085-2.162,2.181-3.259,3.288l-0.145,0.146l-0.175-0.109c-2.136-1.334-4.302-2.688-6.498-4.061
												l-0.176-0.11l0.068-0.196c0.253-0.723,0.506-1.45,0.761-2.179l0.383-1.096l0.192-0.549l0.096-0.275l0.048-0.138
												l0.024-0.069l0.012-0.035l0.006-0.017l0.003-0.009l0.002-0.004c0.112,0.527,0.03,0.146,0.055,0.263l-0.001-0.001
												L77.75,128.3c-1.19-1.268-2.185-2.698-2.934-4.122l0.231,0.138c-1.59,0.006-3.169,0.011-4.632,0.016l-0.207,0.001
												l-0.046-0.201c-0.591-2.569-1.174-5.103-1.717-7.467l-0.046-0.199l0.184-0.088c1.44-0.693,2.866-1.379,4.173-2.008
												l-0.142,0.219c0.057-1.756,0.369-3.476,0.839-4.991l0.062,0.248c-1.137-1.131-2.259-2.247-3.282-3.264l-0.138-0.137
												l0.103-0.164c1.413-2.253,2.792-4.452,4.071-6.491l0.099-0.158l0.175,0.061c1.521,0.534,3.013,1.058,4.367,1.534
												l-0.228,0.048c1.292-1.209,2.73-2.196,4.122-2.924l-0.115,0.191c-0.003-1.618-0.005-3.197-0.007-4.631l0-0.165
												l0.159-0.036c2.621-0.597,5.117-1.166,7.469-1.702l0.145-0.033l0.064,0.133c0.701,1.466,1.376,2.876,1.999,4.178
												l-0.148-0.097c1.783,0.064,3.457,0.377,4.966,0.85l-0.153,0.038c1.18-1.178,2.282-2.28,3.275-3.271l0.075-0.075
												l0.089,0.056c2.633,1.67,4.811,3.051,6.47,4.104l0.057,0.036l-0.023,0.062c-0.507,1.396-0.899,2.473-1.173,3.226
												c-0.132,0.351-0.235,0.626-0.312,0.832C105.57,102.234,105.53,102.33,105.523,102.332z"/>
										</g>
									</g>
								</g>
							</g>
						</g>
					</g>
				</g>
			</g>
		</g>
	</g>
</g>
<g id="Background_Simple" style="display:none;">
	<g style="display:inline;">
		<path style="fill:#EBEBEB;" d="M461.379,105.282l-2.417-3.933c-20.373-33.151-57.207-53.135-96.042-50.71
			c-4.992,0.312-9.963,0.979-14.867,2.016c-35.309,7.463-66.032,33.83-78.767,67.598c-7.489,19.859-9.582,42.725-23.795,58.488
			c-18.497,20.515-49.9,21.159-77.51,20.309c-27.61-0.85-59.034-0.125-77.441,20.471C79.014,232.42,75.35,250.764,76.28,268.038
			c2.461,45.735,34.734,86.628,75.778,106.955s89.368,22.147,134.287,13.205c62.927-12.526,122.77-46.925,158.741-100.056
			C481.056,235.012,490.159,162.627,461.379,105.282z"/>
	</g>
</g>
<g id="Device">
	<g>
		<g>
			<g>
				<g>
					<g>
						<g>
							<g>
								<g>
									<path style="fill:#455A64;" d="M333.657,445.872l-132.862-0.615c-15.979-0.073-28.875-13.084-28.808-29.063l1.408-333.089
										c0.068-15.989,13.086-28.893,29.075-28.82l132.863,0.614c15.979,0.074,28.875,13.085,28.807,29.064l-1.408,333.09
										C362.664,433.041,349.645,445.946,333.657,445.872z"/>
								</g>
							</g>
							<g>
								<g>
									<path style="fill:#FAFAFA;" d="M335.142,66.395l-25.76-0.119c-3.454-0.016-6.268,2.899-6.282,6.51l-0.021,4.673
										c-0.014,3.611-2.828,6.526-6.282,6.51l-50.212-0.232c-3.454-0.015-6.243-2.956-6.227-6.568l0.02-4.673
										c0.015-3.611-2.774-6.552-6.228-6.568l-9.06-0.042l-22.546-0.104c-11.197-0.051-20.315,8.986-20.362,20.184l-1.374,325.119
										c-0.048,11.192,8.984,20.304,20.175,20.356l132.597,0.612c11.196,0.052,20.314-8.985,20.362-20.183l1.375-325.12
										C355.365,75.558,346.333,66.447,335.142,66.395z"/>
								</g>
							</g>
						</g>
					</g>
				</g>
			</g>
			<g>
				<path style="fill:#E8505B;" d="M296.372,224.715h-52.042c-5.392,0-9.763-4.371-9.763-9.763V162.91
					c0-5.392,4.371-9.763,9.763-9.763h52.042c5.392,0,9.763,4.371,9.763,9.763v52.042
					C306.135,220.344,301.764,224.715,296.372,224.715z"/>
			</g>
			<g>
				<polygon style="fill:#E8505B;" points="215.683,179.181 217.409,182.677 221.267,183.238 218.475,185.959 219.134,189.802 
					215.683,187.988 212.232,189.802 212.891,185.959 210.1,183.238 213.958,182.677 				"/>
			</g>
			<g>
				<polygon style="fill:#E8505B;" points="327.181,144.529 328.515,147.232 331.499,147.666 329.34,149.77 329.849,152.742 
					327.181,151.339 324.512,152.742 325.022,149.77 322.863,147.666 325.847,147.232 				"/>
			</g>
			<g>
				<polygon style="fill:#E8505B;" points="324.558,209.382 325.715,210.951 327.663,210.887 326.528,212.473 327.191,214.306 
					325.333,213.717 323.794,214.913 323.78,212.964 322.166,211.87 324.016,211.255 				"/>
			</g>
			<g>
				<path style="fill:#E8505B;" d="M214.358,155.973c-1.006,0-1.825-0.819-1.825-1.825c0-1.006,0.819-1.825,1.825-1.825
					c1.006,0,1.825,0.819,1.825,1.825C216.183,155.155,215.364,155.973,214.358,155.973z M214.358,153.323
					c-0.455,0-0.825,0.37-0.825,0.825c0,0.455,0.37,0.825,0.825,0.825c0.455,0,0.825-0.37,0.825-0.825
					C215.183,153.693,214.813,153.323,214.358,153.323z"/>
			</g>
			<g>
				<path style="fill:#E8505B;" d="M317.538,181.202c-1.007,0-1.825-0.819-1.825-1.825c0-1.006,0.818-1.825,1.825-1.825
					c1.007,0,1.825,0.819,1.825,1.825C319.363,180.383,318.545,181.202,317.538,181.202z M317.538,178.551
					c-0.455,0-0.825,0.37-0.825,0.825c0,0.455,0.37,0.825,0.825,0.825c0.455,0,0.825-0.37,0.825-0.825
					C318.363,178.921,317.993,178.551,317.538,178.551z"/>
			</g>
			<g>
				<path style="fill:#E8505B;" d="M293.72,142.682c-1.007,0-1.825-0.819-1.825-1.825c0-1.006,0.818-1.825,1.825-1.825
					c1.007,0,1.825,0.819,1.825,1.825C295.546,141.863,294.727,142.682,293.72,142.682z M293.72,140.032
					c-0.455,0-0.825,0.37-0.825,0.825c0,0.455,0.37,0.825,0.825,0.825c0.455,0,0.825-0.37,0.825-0.825
					C294.546,140.402,294.175,140.032,293.72,140.032z"/>
			</g>
			<g>
				<circle style="fill:#E8505B;" cx="204.429" cy="213.473" r="1.325"/>
			</g>
			<g>
				<path style="fill:#E8505B;" d="M266.869,232.387c0,0.732-0.593,1.325-1.325,1.325c-0.732,0-1.325-0.593-1.325-1.325
					s0.593-1.325,1.325-1.325C266.275,231.062,266.869,231.655,266.869,232.387z"/>
			</g>
			<g>
				<circle style="fill:#E8505B;" cx="252.691" cy="127.409" r="1.325"/>
			</g>
			<g>
				<path style="fill:#263238;" d="M238.894,332.982v-5.617h1.037v5.575c0,2.325,1.093,3.39,2.998,3.39
					c1.919,0,3.012-1.064,3.012-3.39v-5.575h1.009v5.617c0,2.815-1.513,4.272-4.021,4.272
					C240.421,337.254,238.894,335.797,238.894,332.982z"/>
				<path style="fill:#263238;" d="M257.743,330.727c0,2.087-1.513,3.348-4.006,3.348h-2.634v3.096h-1.037v-9.806h3.671
					C256.23,327.365,257.743,328.625,257.743,330.727z M256.707,330.727c0-1.569-1.037-2.466-2.998-2.466h-2.605v4.903h2.605
					C255.67,333.164,256.707,332.268,256.707,330.727z"/>
				<path style="fill:#263238;" d="M259.979,327.365h3.992c3.138,0,5.253,2.018,5.253,4.903c0,2.885-2.115,4.902-5.253,4.902h-3.992
					V327.365z M263.916,336.274c2.605,0,4.286-1.653,4.286-4.006c0-2.354-1.681-4.007-4.286-4.007h-2.899v8.013H263.916z"/>
				<path style="fill:#263238;" d="M277.552,334.551h-5.463l-1.177,2.619h-1.078l4.482-9.806h1.022l4.482,9.806h-1.093
					L277.552,334.551z M277.174,333.71l-2.354-5.267l-2.354,5.267H277.174z"/>
				<path style="fill:#263238;" d="M282.857,328.261h-3.446v-0.897h7.929v0.897h-3.446v8.909h-1.036V328.261z"/>
				<path style="fill:#263238;" d="M295.921,336.274v0.896h-6.934v-9.806h6.724v0.897h-5.687v3.488h5.07v0.883h-5.07v3.642H295.921z
					"/>
			</g>
			<g>
				<g>
					<g>
						<g>
							<g>
								<g>
									<path style="fill:#FAFAFA;" d="M280.037,176.397c1.095,0.818,2.061,1.77,2.882,2.823l3.68-0.672l2.429,5.693l-3.031,2.192
										c0.192,1.322,0.212,2.678,0.045,4.035l3.076,2.126l-2.308,5.743l-3.692-0.593c-0.818,1.096-1.771,2.061-2.824,2.882
										l0.672,3.68l-5.692,2.429l-2.193-3.031c-1.322,0.192-2.678,0.211-4.035,0.044l-2.126,3.076l-5.744-2.307l0.593-3.692
										c-1.096-0.817-2.061-1.77-2.882-2.824l-3.681,0.672l-2.429-5.693l3.032-2.192c-0.192-1.322-0.211-2.677-0.044-4.035
										l-3.076-2.126l2.307-5.743l3.692,0.593c0.818-1.095,1.771-2.061,2.824-2.882l-0.672-3.68l5.692-2.429l2.193,3.031
										c1.322-0.192,2.677-0.211,4.035-0.044l2.126-3.076l5.743,2.307L280.037,176.397L280.037,176.397z M273.64,182.555
										c-3.402-1.367-7.269,0.283-8.636,3.686c-1.367,3.402,0.283,7.269,3.685,8.636c3.403,1.367,7.269-0.283,8.636-3.685
										C278.693,187.788,277.043,183.922,273.64,182.555z"/>
								</g>
							</g>
						</g>
					</g>
				</g>
				<g>
					<g>
						<g>
							<g>
								<g>
									<g>
										<path style="fill:#FAFAFA;" d="M273.64,182.555c0,0,0.584,0.137,1.47,0.737c0.867,0.59,2.04,1.759,2.579,3.628
											c0.259,0.923,0.364,2.005,0.139,3.121c-0.228,1.107-0.723,2.265-1.589,3.215c-0.418,0.485-0.928,0.911-1.499,1.261
											c-0.566,0.359-1.203,0.636-1.88,0.804c-1.348,0.366-2.861,0.273-4.24-0.267c-1.37-0.564-2.527-1.543-3.248-2.741
											c-0.373-0.59-0.641-1.23-0.802-1.881c-0.17-0.648-0.244-1.309-0.21-1.948c0.031-1.286,0.476-2.464,1.077-3.421
											c0.61-0.962,1.434-1.671,2.26-2.157c1.682-0.976,3.338-1.009,4.372-0.835C273.124,182.25,273.64,182.555,273.64,182.555
											c-0.015,0.045-0.554-0.207-1.591-0.338c-1.018-0.126-2.617-0.048-4.214,0.919c-0.784,0.482-1.561,1.172-2.131,2.096
											c-0.561,0.92-0.973,2.045-0.993,3.264c-0.028,0.606,0.047,1.232,0.211,1.844c0.155,0.616,0.412,1.22,0.767,1.776
											c0.686,1.13,1.779,2.051,3.073,2.584c1.303,0.509,2.729,0.601,4.005,0.259c0.641-0.156,1.244-0.415,1.782-0.752
											c0.543-0.329,1.029-0.728,1.428-1.185c0.829-0.893,1.31-1.99,1.541-3.043c0.228-1.061,0.144-2.097-0.089-2.988
											c-0.484-1.803-1.584-2.966-2.406-3.58C274.184,182.789,273.62,182.598,273.64,182.555z"/>
									</g>
								</g>
							</g>
						</g>
					</g>
				</g>
				<g>
					<g>
						<g>
							<g>
								<g>
									<g>
										<path style="fill:#FAFAFA;" d="M280.038,176.397c-0.005,0.002,0.003-0.076,0.023-0.232
											c0.024-0.172,0.056-0.403,0.097-0.701c0.095-0.642,0.233-1.567,0.411-2.768l0.037,0.066
											c-1.474-0.582-3.412-1.348-5.756-2.274l0.115-0.035c-0.64,0.935-1.352,1.973-2.113,3.085l-0.038,0.056l-0.068-0.008
											c-1.249-0.149-2.602-0.15-4.003,0.057l-0.075,0.011l-0.045-0.062c-0.686-0.943-1.429-1.964-2.201-3.025l0.163,0.045
											c-1.791,0.769-3.691,1.585-5.686,2.442l0.089-0.165c0.21,1.139,0.442,2.393,0.679,3.679l0.017,0.094l-0.075,0.059
											c-0.979,0.765-1.956,1.734-2.789,2.857l-0.059,0.08l-0.099-0.016c-1.145-0.182-2.407-0.383-3.693-0.588l0.184-0.104
											c-0.722,1.805-1.502,3.751-2.3,5.746l-0.064-0.212c0.959,0.661,2.011,1.387,3.078,2.123l0.09,0.062l-0.013,0.109
											c-0.153,1.24-0.154,2.617,0.047,3.986l0.016,0.11l-0.091,0.066c-0.949,0.687-1.984,1.437-3.03,2.194l0.062-0.224
											c0.77,1.802,1.595,3.733,2.431,5.691l-0.208-0.112c1.162-0.212,2.417-0.442,3.68-0.673l0.113-0.021l0.071,0.091
											c0.778,0.999,1.746,1.969,2.843,2.786l0.001,0.001l0.001,0.001c0.033,0.082-0.073-0.182,0.075,0.184l0,0.004l-0.001,0.007
											l-0.002,0.015l-0.005,0.029l-0.009,0.058l-0.019,0.116l-0.037,0.232l-0.075,0.464l-0.149,0.926
											c-0.099,0.616-0.198,1.23-0.296,1.841l-0.117-0.207c1.941,0.78,3.856,1.55,5.743,2.309l-0.225,0.068
											c0.716-1.035,1.425-2.06,2.127-3.075l0.065-0.093l0.112,0.014c1.338,0.166,2.683,0.148,3.985-0.041l0.111-0.016
											l0.065,0.091c0.741,1.026,1.47,2.035,2.19,3.033l-0.218-0.06c1.944-0.827,3.843-1.635,5.694-2.423l-0.104,0.193
											c-0.227-1.249-0.449-2.476-0.667-3.681l-0.018-0.102l0.082-0.063c1.076-0.837,2.015-1.802,2.797-2.846l0.06-0.08
											l0.098,0.016c1.266,0.205,2.492,0.405,3.691,0.599l-0.172,0.097c0.816-2.019,1.586-3.924,2.32-5.738l0.052,0.174
											c-1.08-0.75-2.094-1.454-3.071-2.133l-0.068-0.047l0.01-0.082c0.177-1.417,0.143-2.752-0.033-4l-0.011-0.076l0.061-0.044
											c1.104-0.793,2.099-1.507,3.038-2.182l-0.038,0.135c-0.931-2.209-1.725-4.092-2.404-5.703l0.094,0.05
											c-1.471,0.259-2.679,0.471-3.684,0.648l-0.037,0.007l-0.022-0.029c-0.831-1.076-1.574-1.768-2.073-2.212
											c-0.246-0.209-0.434-0.369-0.572-0.486C280.092,176.451,280.033,176.399,280.038,176.397
											c0.005-0.002,0.076,0.045,0.208,0.138c0.134,0.099,0.335,0.248,0.594,0.463c0.514,0.43,1.275,1.112,2.129,2.184
											l-0.059-0.023c1.003-0.19,2.208-0.418,3.676-0.696l0.067-0.013l0.027,0.063c0.693,1.605,1.503,3.481,2.454,5.682
											l0.036,0.082l-0.073,0.053c-0.935,0.681-1.925,1.402-3.024,2.202l0.051-0.119c0.187,1.267,0.229,2.626,0.056,4.07
											l-0.058-0.129c0.981,0.674,1.998,1.374,3.081,2.119l0.096,0.066l-0.043,0.109c-0.726,1.817-1.488,3.725-2.296,5.747
											l-0.047,0.117l-0.125-0.02c-1.199-0.19-2.426-0.385-3.693-0.586l0.158-0.064c-0.796,1.07-1.753,2.059-2.851,2.918
											l0.063-0.165c0.221,1.205,0.447,2.431,0.677,3.679l0.025,0.138l-0.129,0.055c-1.85,0.792-3.747,1.604-5.689,2.435
											l-0.133,0.057l-0.085-0.118c-0.722-0.996-1.453-2.005-2.195-3.029l0.176,0.074c-1.335,0.195-2.712,0.215-4.084,0.047
											l0.177-0.079c-0.701,1.016-1.409,2.041-2.124,3.077l-0.086,0.124l-0.14-0.056c-1.888-0.758-3.803-1.527-5.744-2.306
											l-0.141-0.057l0.024-0.15c0.098-0.611,0.197-1.225,0.296-1.841l0.149-0.926l0.075-0.464l0.037-0.232l0.019-0.116
											l0.009-0.058l0.005-0.029l0.002-0.014l0.001-0.007l0.001-0.004c0.148,0.365,0.041,0.101,0.073,0.182l-0.001-0.001
											l-0.001-0.001c-1.125-0.838-2.118-1.833-2.915-2.857l0.184,0.07c-1.264,0.23-2.518,0.459-3.681,0.671l-0.149,0.027
											l-0.059-0.139c-0.835-1.959-1.658-3.891-2.427-5.693l-0.059-0.137l0.121-0.087c1.047-0.756,2.083-1.504,3.033-2.19
											l-0.074,0.176c-0.204-1.402-0.2-2.813-0.042-4.083l0.077,0.171c-1.065-0.738-2.116-1.466-3.073-2.129l-0.117-0.081
											l0.053-0.131c0.803-1.993,1.587-3.937,2.314-5.74l0.051-0.126l0.134,0.022c1.285,0.208,2.547,0.413,3.691,0.599
											l-0.158,0.064c0.855-1.144,1.857-2.132,2.859-2.908l-0.058,0.152c-0.232-1.287-0.459-2.542-0.665-3.682l-0.021-0.118
											l0.11-0.047c1.999-0.848,3.903-1.655,5.697-2.416l0.1-0.043l0.063,0.088c0.766,1.066,1.503,2.091,2.184,3.038
											l-0.119-0.051c1.425-0.202,2.8-0.192,4.066-0.031l-0.105,0.048c0.77-1.105,1.49-2.138,2.138-3.067l0.044-0.064
											l0.071,0.029c2.333,0.953,4.262,1.741,5.729,2.341l0.046,0.019l-0.008,0.048c-0.204,1.186-0.362,2.099-0.471,2.733
											c-0.055,0.301-0.097,0.533-0.128,0.706C280.06,176.313,280.042,176.395,280.038,176.397z"/>
									</g>
								</g>
							</g>
						</g>
					</g>
				</g>
			</g>
			<g>
				<g>
					<rect x="244.622" y="247.766" style="fill:#263238;" width="73.077" height="52.864"/>
				</g>
				<g>
					<rect x="220.616" y="247.766" style="fill:#455A64;" width="63.705" height="52.864"/>
				</g>
				<g>
					<polygon style="fill:#455A64;" points="220.616,247.766 209.307,236.457 237.966,236.457 248.611,247.766 					"/>
				</g>
				<g>
					<polygon style="fill:#455A64;" points="284.321,247.766 297.331,236.457 333.023,236.457 317.699,247.766 					"/>
				</g>
				<g>
					<g>
						<path style="fill:#263238;" d="M284.321,247.766c0,0.144-14.262,0.26-31.851,0.26c-17.595,0-31.854-0.117-31.854-0.26
							c0-0.144,14.259-0.26,31.854-0.26C270.059,247.505,284.321,247.622,284.321,247.766z"/>
					</g>
				</g>
			</g>
			<g>
				<g>
					<g>
						<path style="fill:#E0E0E0;" d="M329.171,367.285H211.532c-2.804,0-5.078-2.273-5.078-5.078v-0.246
							c0-2.804,2.273-5.078,5.078-5.078h117.639c2.804,0,5.078,2.273,5.078,5.078v0.246
							C334.249,365.011,331.975,367.285,329.171,367.285z"/>
					</g>
					<g>
						<path style="fill:#E8505B;" d="M269.18,367.285h-57.648c-2.804,0-5.078-2.273-5.078-5.078v-0.246
							c0-2.804,2.273-5.078,5.078-5.078h57.648c2.804,0,5.078,2.273,5.078,5.078v0.246
							C274.258,365.011,271.984,367.285,269.18,367.285z"/>
					</g>
				</g>
			</g>
		</g>
		<g>
			<path style="fill:#E8505B;" d="M261.901,392.839c0,2.13-1.485,3.795-4.546,3.795c-1.809,0-3.526-0.627-4.493-1.611l0.627-1.02
				c0.805,0.841,2.237,1.449,3.848,1.449c2.13,0,3.258-1.038,3.258-2.56c0-1.61-1.002-2.613-4.189-2.613h-2.667l0.645-6.282h6.855
				v1.146h-5.727l-0.43,3.991h1.61C260.469,389.134,261.901,390.62,261.901,392.839z"/>
			<path style="fill:#E8505B;" d="M271.941,392.839c0,2.13-1.485,3.795-4.546,3.795c-1.809,0-3.526-0.627-4.493-1.611l0.627-1.02
				c0.805,0.841,2.237,1.449,3.848,1.449c2.13,0,3.258-1.038,3.258-2.56c0-1.61-1.002-2.613-4.189-2.613h-2.667l0.645-6.282h6.855
				v1.146h-5.728l-0.43,3.991h1.61C270.509,389.134,271.941,390.62,271.941,392.839z"/>
			<path style="fill:#E8505B;" d="M273.211,387.309c0-2.04,1.145-3.4,2.828-3.4c1.664,0,2.827,1.342,2.827,3.4s-1.163,3.4-2.827,3.4
				C274.356,390.709,273.211,389.349,273.211,387.309z M277.971,387.309c0-1.629-0.77-2.596-1.933-2.596
				c-1.182,0-1.934,0.984-1.934,2.596s0.752,2.596,1.934,2.596C277.202,389.905,277.971,388.938,277.971,387.309z M283.628,383.997
				h1.056l-8.556,12.529h-1.056L283.628,383.997z M280.889,393.215c0-2.04,1.163-3.4,2.827-3.4c1.683,0,2.828,1.36,2.828,3.4
				c0,2.041-1.146,3.401-2.828,3.401C282.052,396.616,280.889,395.256,280.889,393.215z M285.65,393.215
				c0-1.61-0.752-2.595-1.934-2.595c-1.163,0-1.933,0.966-1.933,2.595c0,1.629,0.77,2.596,1.933,2.596
				C284.898,395.811,285.65,394.827,285.65,393.215z"/>
		</g>
	</g>
</g>
<g id="Floor">
	<g>
		<g>
			<path style="fill:#263238;" d="M485.198,445.579c0,0.144-105.31,0.26-235.186,0.26c-129.922,0-235.209-0.117-235.209-0.26
				c0-0.144,105.287-0.26,235.209-0.26C379.888,445.318,485.198,445.435,485.198,445.579z"/>
		</g>
	</g>
</g>
<g id="Character">
	<g>
		<g>
			<path style="fill:#FFBE9D;" d="M198.363,434.164l2.872,11l32.191-0.295c0,0-4.401-3.326-20.577-3.085l-1.569-7.62H198.363z"/>
		</g>
		<g>
			<g>
				<path style="fill:#E8505B;" d="M163.269,309.898l-24.146,2.278l-9.81,2.777c-4.192,1.187-8.028,3.385-11.172,6.402
					l-31.609,30.34l-5.77-47.132l-15.792,1.374l2.635,60.669c2.354,7.381,9.21,12.557,17.213,12.577
					c4.738,0.012,9.264-1.989,12.716-5.234l22.507-21.155l-2.236,27.915l-7.736,17.353l55.249,31.202c0,0,6.489-32.122,9.974-54.344
					c2.818-17.977,4.251-57.133,4.251-57.133L163.269,309.898z"/>
			</g>
			<g>
				<path style="fill:#E8505B;" d="M178.105,317.231c0,0,12.217,4.528,15.171,14.096c2.62,8.485,11.359,56.198,11.359,56.198
					l8.672,50.499l-18.157,0.69l-20.908-86.065L178.105,317.231z"/>
			</g>
			<g>
				<g>
					<path style="fill:#263238;" d="M117.347,379.472c-0.143-0.014,0.666-9.681,1.807-21.59c1.142-11.913,2.183-21.557,2.326-21.543
						c0.143,0.014-0.666,9.679-1.808,21.592C118.532,369.841,117.49,379.486,117.347,379.472z"/>
				</g>
			</g>
			<g>
				<g>
					<path style="fill:#263238;" d="M157.56,355.736c0.017,0.007-0.039,0.169-0.16,0.472c-0.15,0.356-0.332,0.79-0.552,1.315
						c-0.237,0.574-0.547,1.266-0.972,2.038c-0.416,0.776-0.848,1.685-1.454,2.615c-0.292,0.474-0.598,0.969-0.915,1.483
						c-0.322,0.513-0.707,1.013-1.079,1.549c-0.728,1.086-1.631,2.151-2.556,3.292c-1.925,2.216-4.218,4.505-6.863,6.63
						c-2.669,2.096-5.419,3.812-8.014,5.185c-1.321,0.643-2.563,1.281-3.785,1.744c-0.607,0.241-1.181,0.503-1.754,0.701
						c-0.572,0.192-1.124,0.378-1.652,0.555c-1.043,0.381-2.027,0.594-2.877,0.825c-0.848,0.239-1.593,0.384-2.205,0.485
						c-0.561,0.096-1.025,0.175-1.406,0.24c-0.322,0.049-0.493,0.066-0.495,0.049c-0.003-0.018,0.161-0.07,0.477-0.152
						c0.374-0.091,0.831-0.201,1.382-0.335c0.603-0.13,1.337-0.303,2.173-0.568c0.837-0.255,1.807-0.492,2.835-0.892
						c0.52-0.186,1.063-0.38,1.627-0.582c0.564-0.206,1.13-0.475,1.728-0.722c1.205-0.476,2.428-1.123,3.73-1.771
						c2.558-1.384,5.27-3.093,7.913-5.168c2.618-2.103,4.897-4.357,6.824-6.535c0.926-1.121,1.833-2.166,2.57-3.232
						c0.376-0.526,0.767-1.016,1.095-1.519c0.324-0.504,0.636-0.988,0.935-1.453c0.622-0.91,1.073-1.801,1.511-2.559
						c0.447-0.754,0.782-1.43,1.046-1.988c0.255-0.507,0.466-0.926,0.64-1.271C157.455,355.877,157.543,355.729,157.56,355.736z"/>
				</g>
			</g>
			<g style="opacity:0.2;">
				<g>
					<path d="M123.758,384.369c-1.762-0.502-2.675-2.665-2.225-4.441c0.451-1.776,1.945-3.129,3.597-3.922
						c1.652-0.793,3.48-1.122,5.26-1.557c7.722-1.884,14.908-5.916,20.542-11.524c0.522-0.52,1.267-1.096,1.914-0.743
						c0.869,0.474,0.324,1.802-0.32,2.554c-7.758,9.048-18.016,15.931-29.33,19.678"/>
				</g>
			</g>
			<g>
				<g>
					<path style="fill:#263238;" d="M178.921,373.003c-0.035,0.009-0.164-0.357-0.369-1.027c-0.205-0.67-0.481-1.644-0.807-2.853
						c-0.652-2.416-1.492-5.771-2.33-9.497c-0.838-3.727-1.515-7.119-1.961-9.582c-0.223-1.231-0.391-2.23-0.492-2.923
						c-0.102-0.693-0.142-1.079-0.106-1.086c0.035-0.007,0.142,0.367,0.305,1.047c0.18,0.793,0.398,1.757,0.654,2.889
						c0.567,2.565,1.298,5.877,2.108,9.54c0.837,3.656,1.593,6.962,2.179,9.522c0.253,1.133,0.468,2.097,0.646,2.891
						C178.892,372.611,178.956,372.994,178.921,373.003z"/>
				</g>
			</g>
			<g>
				<g>
					<path style="fill:#263238;" d="M67.763,310.467c-0.143,0.012-0.35-1.054-0.462-2.381c-0.112-1.327-0.087-2.413,0.057-2.425
						c0.143-0.012,0.35,1.054,0.462,2.381C67.932,309.37,67.906,310.455,67.763,310.467z"/>
				</g>
			</g>
			<g>
				<g>
					<path style="fill:#263238;" d="M72.384,310.613c-0.144,0.007-0.318-1.128-0.39-2.535c-0.072-1.408-0.013-2.554,0.13-2.561
						s0.318,1.127,0.39,2.535C72.586,309.459,72.527,310.606,72.384,310.613z"/>
				</g>
			</g>
			<g>
				<g>
					<path style="fill:#263238;" d="M76.977,310.318c-0.144,0.008-0.331-1.256-0.419-2.823c-0.088-1.568-0.042-2.844,0.101-2.852
						c0.144-0.008,0.331,1.256,0.418,2.823C77.166,309.033,77.12,310.31,76.977,310.318z"/>
				</g>
			</g>
			<g>
				<g>
					<path style="fill:#263238;" d="M85.857,358.935c-0.143-0.015-0.067-1.884,0.169-4.176c0.236-2.292,0.544-4.137,0.687-4.123
						c0.143,0.015,0.067,1.884-0.169,4.176C86.307,357.104,86,358.949,85.857,358.935z"/>
				</g>
			</g>
			<g>
				<g>
					<path style="fill:#263238;" d="M198.136,433.456c0.142-0.024,0.456,1.109,0.701,2.532c0.246,1.423,0.33,2.596,0.188,2.62
						c-0.142,0.025-0.456-1.109-0.701-2.532C198.079,434.654,197.994,433.481,198.136,433.456z"/>
				</g>
			</g>
			<g>
				<g>
					<path style="fill:#263238;" d="M204.107,433.452c0.142-0.024,0.431,1.004,0.646,2.295c0.215,1.291,0.274,2.357,0.132,2.38
						c-0.142,0.023-0.431-1.004-0.646-2.295C204.025,434.542,203.966,433.476,204.107,433.452z"/>
				</g>
			</g>
			<g>
				<g>
					<path style="fill:#263238;" d="M209.772,432.877c0.146-0.011,0.353,1.158,0.596,2.594c0.24,1.436,0.428,2.609,0.286,2.646
						c-0.136,0.037-0.555-1.097-0.8-2.56C209.607,434.096,209.632,432.888,209.772,432.877z"/>
				</g>
			</g>
			<g>
				<g>
					<path style="fill:#263238;" d="M187.91,323.113c0,0.096-1.268,0.02-3.236,0.432c-1.954,0.397-4.622,1.409-6.928,3.419
						c-2.305,2.013-3.668,4.521-4.326,6.403c-0.674,1.895-0.77,3.161-0.865,3.148c-0.032-0.003-0.04-0.32,0.016-0.89
						c0.055-0.57,0.2-1.391,0.5-2.375c0.582-1.957,1.94-4.589,4.333-6.678c2.393-2.087,5.184-3.077,7.202-3.389
						c1.015-0.164,1.848-0.197,2.42-0.174C187.598,323.03,187.911,323.081,187.91,323.113z"/>
				</g>
			</g>
			<g>
				<g>
					<path style="fill:#FAFAFA;" d="M195.377,343.64c0.024,0.065-1.123,0.563-3.012,1.277c-1.889,0.715-4.523,1.638-7.465,2.557
						c-2.943,0.918-5.635,1.658-7.595,2.146c-1.96,0.488-3.186,0.731-3.204,0.664c-0.018-0.072,1.174-0.441,3.106-1.019
						c2.075-0.63,4.668-1.417,7.537-2.287c2.853-0.916,5.434-1.745,7.498-2.407C194.16,343.946,195.351,343.57,195.377,343.64z"/>
				</g>
			</g>
			<g>
				<g>
					<path style="fill:#FAFAFA;" d="M203.078,378.449c0.014,0.071-1.185,0.39-3.132,0.849c-1.948,0.459-4.644,1.058-7.629,1.688
						c-2.986,0.63-5.695,1.172-7.662,1.539c-1.967,0.367-3.192,0.559-3.208,0.489c-0.016-0.07,1.18-0.389,3.127-0.848
						c1.947-0.459,4.646-1.059,7.635-1.69c2.988-0.631,5.698-1.173,7.665-1.54C201.841,378.57,203.065,378.378,203.078,378.449z"/>
				</g>
			</g>
			<g>
				<g>
					<path style="fill:#FAFAFA;" d="M211.809,422.02c-0.002,0.075-1.149,0.106-3,0.155c-1.851,0.048-4.405,0.126-7.223,0.287
						c-2.818,0.163-5.366,0.378-7.21,0.543c-1.844,0.164-2.987,0.265-2.997,0.19c-0.01-0.068,1.117-0.298,2.956-0.556
						c1.838-0.259,4.391-0.534,7.221-0.697c2.829-0.162,5.397-0.182,7.253-0.135C210.665,421.853,211.811,421.952,211.809,422.02z"
						/>
				</g>
			</g>
			<g>
				<g>
					<path style="fill:#FAFAFA;" d="M131.664,381.058c-0.035,0.065-0.822-0.287-2.077-0.884c-1.437-0.688-3.081-1.475-4.895-2.343
						c-1.821-0.858-3.47-1.634-4.91-2.313c-1.256-0.595-2.026-0.983-1.998-1.051c0.027-0.065,0.848,0.203,2.144,0.713
						c1.297,0.51,3.066,1.269,4.987,2.181c1.92,0.912,3.626,1.804,4.841,2.487C130.971,380.529,131.697,380.996,131.664,381.058z"/>
				</g>
			</g>
			<g>
				<g>
					<path style="fill:#FAFAFA;" d="M171.908,387.885c-0.016,0.032-0.435-0.129-1.181-0.448c-0.84-0.366-1.894-0.825-3.146-1.37
						c-2.654-1.161-6.331-2.738-10.432-4.379c-4.104-1.64-7.855-3.033-10.577-4.022c-1.283-0.469-2.362-0.863-3.223-1.177
						c-0.76-0.283-1.175-0.455-1.164-0.49c0.011-0.034,0.447,0.073,1.227,0.297c0.781,0.222,1.902,0.57,3.28,1.022
						c2.757,0.902,6.537,2.243,10.65,3.887c4.111,1.645,7.773,3.28,10.392,4.528c1.31,0.624,2.362,1.145,3.08,1.522
						C171.534,387.63,171.924,387.853,171.908,387.885z"/>
				</g>
			</g>
			<g>
				<g>
					<path style="fill:#FAFAFA;" d="M175.042,359.471c-0.003,0.018-0.197,0-0.564-0.048c-0.423-0.063-0.951-0.142-1.598-0.239
						c-1.457-0.236-3.442-0.558-5.864-0.95c-4.95-0.808-11.791-1.903-19.36-3.018c-7.573-1.113-14.439-2.035-19.412-2.687
						c-2.432-0.322-4.426-0.586-5.889-0.779c-0.647-0.094-1.176-0.17-1.599-0.231c-0.365-0.059-0.556-0.098-0.554-0.116
						c0.002-0.018,0.197-0.013,0.565,0.012c0.426,0.035,0.958,0.08,1.61,0.134c1.397,0.126,3.417,0.335,5.91,0.615
						c4.986,0.558,11.866,1.423,19.444,2.537c7.575,1.116,14.411,2.268,19.347,3.17c2.468,0.45,4.463,0.831,5.837,1.113
						c0.64,0.136,1.163,0.247,1.581,0.335C174.858,359.402,175.046,359.454,175.042,359.471z"/>
				</g>
			</g>
			<g>
				<g>
					<path style="fill:#FAFAFA;" d="M172.78,329.46c-0.021,0.142-10.842-1.357-24.166-3.348
						c-13.329-1.992-24.113-3.721-24.091-3.863c0.021-0.142,10.84,1.356,24.168,3.348
						C162.014,327.589,172.801,329.318,172.78,329.46z"/>
				</g>
			</g>
			<g>
				<g>
					<path style="fill:#FAFAFA;" d="M116.098,355.707c-0.068,0.028-0.639-1.221-1.536-3.249c-0.957-2.154-2.172-4.889-3.515-7.914
						c-1.373-3.013-2.614-5.737-3.591-7.882c-0.922-2.016-1.478-3.271-1.412-3.304c0.032-0.016,0.215,0.276,0.517,0.819
						c0.303,0.542,0.722,1.336,1.226,2.325c1.008,1.978,2.344,4.739,3.735,7.828c1.389,3.089,2.569,5.92,3.38,7.986
						c0.406,1.033,0.722,1.874,0.927,2.46C116.033,355.363,116.131,355.693,116.098,355.707z"/>
				</g>
			</g>
			<g>
				<g>
					<path style="fill:#FAFAFA;" d="M94.556,376.788c-0.141,0.029-1.519-6.01-3.079-13.487c-1.56-7.48-2.71-13.565-2.569-13.595
						c0.141-0.029,1.519,6.008,3.079,13.488C93.546,370.672,94.697,376.759,94.556,376.788z"/>
				</g>
			</g>
			<g>
				<g>
					<path style="fill:#FAFAFA;" d="M85.654,343.977c0.03,0.141-4.167,1.159-9.373,2.274c-5.208,1.116-9.453,1.906-9.483,1.765
						c-0.03-0.141,4.166-1.159,9.374-2.274C81.378,344.626,85.624,343.836,85.654,343.977z"/>
				</g>
			</g>
			<g>
				<g>
					<path style="fill:#FAFAFA;" d="M82.519,316.631c0.01,0.07-0.931,0.279-2.465,0.541c-1.534,0.261-3.663,0.569-6.022,0.837
						c-2.36,0.268-4.503,0.446-6.057,0.535c-1.554,0.09-2.518,0.097-2.523,0.026c-0.006-0.073,0.948-0.21,2.491-0.393
						c1.73-0.197,3.773-0.429,6.031-0.686c2.257-0.256,4.3-0.488,6.03-0.685C81.548,316.639,82.508,316.558,82.519,316.631z"/>
				</g>
			</g>
		</g>
		<g>
			<g>
				<g>
					<path style="fill:#455A64;" d="M90.648,269.128c0.286,0.565,7.794,39.166,7.794,39.166l-17.705,0.827l-6.855-33.194
						L90.648,269.128z"/>
				</g>
				<g>
					<polygon style="fill:#263238;" points="98.442,308.294 100.47,307.436 92.808,269.387 90.405,269.227 					"/>
				</g>
				<g>
					<path style="fill:#263238;" d="M83.53,277.566c0.062,0.503-0.296,0.961-0.798,1.023c-0.503,0.062-0.961-0.296-1.023-0.798
						c-0.062-0.503,0.296-0.961,0.798-1.023C83.01,276.706,83.468,277.063,83.53,277.566z"/>
				</g>
			</g>
			<g>
				<path style="fill:#FFBE9D;" d="M79.875,304.663l-0.262-5.055l7.563-3.116l-2.949-7.005c-1.437-3.267-5.358-4.608-8.495-2.907
					c-1.01,0.548-2.073,1.125-3.034,1.647c-2.161,1.174-3.733,3.204-4.305,5.597c-0.985,4.127-1.848,12.733-1.757,12.345"/>
			</g>
		</g>
		<g>
			<g>
				<path style="fill:#E8505B;" d="M59.629,433.349c0,0-31.116,8.612-32.365,9.052c-1.875,0.66-1.56,7.528,1.357,7.421
					c1.38-0.051,23.901,0.839,26.746,0.661c2.846-0.178,11.431-3.561,11.431-3.561L59.629,433.349z"/>
			</g>
			<g>
				<g>
					<path style="fill:#263238;" d="M46.667,445.223c-0.156,0.021-0.367-1.625-1.371-3.341c-0.98-1.732-2.297-2.74-2.2-2.864
						c0.054-0.12,1.6,0.757,2.651,2.604C46.816,443.458,46.798,445.236,46.667,445.223z"/>
				</g>
			</g>
			<g>
				<g>
					<path style="fill:#263238;" d="M49.911,443.751c-0.152,0.026-0.468-1.445-1.296-3.07c-0.813-1.634-1.807-2.763-1.694-2.87
						c0.086-0.102,1.301,0.915,2.16,2.636C49.951,442.161,50.044,443.743,49.911,443.751z"/>
				</g>
			</g>
			<g>
				<g>
					<path style="fill:#263238;" d="M52.954,442.936c-0.157-0.01-0.037-1.564-0.728-3.287c-0.661-1.735-1.803-2.796-1.695-2.91
						c0.062-0.118,1.458,0.844,2.18,2.72C53.453,441.328,53.08,442.981,52.954,442.936z"/>
				</g>
			</g>
			<g>
				<g>
					<path style="fill:#263238;" d="M52.402,438.917c-0.056,0.014-0.331-0.855-0.334-2.315c0.002-0.727,0.086-1.598,0.315-2.537
						c0.114-0.47,0.268-0.955,0.463-1.444c0.101-0.247,0.216-0.531,0.498-0.763c0.29-0.26,0.818-0.207,1.069,0.053
						c0.285,0.249,0.376,0.599,0.415,0.88c0.032,0.286,0.047,0.552,0.041,0.822c-0.008,0.536-0.077,1.049-0.192,1.523
						c-0.23,0.95-0.601,1.747-0.958,2.379c-0.725,1.263-1.354,1.908-1.398,1.873c-0.071-0.05,0.45-0.775,1.071-2.044
						c0.306-0.635,0.625-1.414,0.816-2.313c0.096-0.449,0.15-0.927,0.15-1.422c-0.014-0.478-0.007-1.076-0.287-1.306
						c-0.148-0.123-0.282-0.131-0.411-0.035c-0.137,0.105-0.253,0.318-0.341,0.544c-0.193,0.465-0.35,0.926-0.471,1.373
						c-0.245,0.894-0.363,1.727-0.411,2.43C52.345,438.024,52.487,438.905,52.402,438.917z"/>
				</g>
			</g>
			<g>
				<g>
					<path style="fill:#263238;" d="M52.441,438.601c-0.014-0.057,0.736-0.315,2.007-0.324c0.632-0.001,1.391,0.065,2.208,0.271
						c0.403,0.109,0.836,0.213,1.271,0.469c0.426,0.216,0.872,0.808,0.703,1.422c-0.133,0.579-0.629,0.984-1.121,1.111
						c-0.495,0.138-0.975,0.089-1.396-0.004c-0.854-0.196-1.518-0.617-2.021-0.994c-0.997-0.782-1.484-1.381-1.447-1.424
						c0.055-0.066,0.644,0.446,1.658,1.123c0.51,0.326,1.148,0.678,1.909,0.826c0.378,0.072,0.786,0.095,1.154-0.016
						c0.366-0.101,0.671-0.38,0.758-0.74c0.089-0.348-0.122-0.666-0.462-0.868c-0.333-0.207-0.746-0.325-1.129-0.44
						c-0.77-0.22-1.49-0.321-2.097-0.366C53.217,438.56,52.454,438.684,52.441,438.601z"/>
				</g>
			</g>
			<g>
				<g>
					<path style="fill:#263238;" d="M41.886,445.556c-0.154-0.017-0.001-1.348-0.613-2.806c-0.583-1.471-1.621-2.316-1.524-2.436
						c0.051-0.127,1.352,0.61,2.006,2.239C42.426,444.173,42.011,445.611,41.886,445.556z"/>
				</g>
			</g>
			<g>
				<g>
					<path style="fill:#263238;" d="M63.598,446.992c0.014,0.033-0.414,0.233-1.204,0.566c-0.8,0.302-1.969,0.725-3.463,1.073
						c-2.976,0.75-7.219,1.175-11.88,1.126c-4.663-0.051-8.865-0.264-11.912-0.385c-1.442-0.076-2.651-0.141-3.606-0.191
						c-0.851-0.057-1.321-0.105-1.32-0.141c0.001-0.036,0.473-0.056,1.326-0.062c0.956,0.007,2.166,0.015,3.611,0.026
						c3.152,0.062,7.308,0.143,11.904,0.233c4.64,0.049,8.832-0.315,11.796-0.964C61.825,447.661,63.562,446.896,63.598,446.992z"/>
				</g>
			</g>
			<g>
				<g>
					<path style="fill:#263238;" d="M64.518,447.701c-0.042,0.072-0.893-0.426-2.331-1.056c-1.421-0.61-3.55-1.34-5.888-0.979
						c-2.345,0.359-4.007,1.934-5.09,3.028c-1.091,1.133-1.73,1.885-1.793,1.832c-0.047-0.039,0.484-0.866,1.523-2.082
						c0.525-0.601,1.191-1.298,2.063-1.929c0.862-0.634,1.972-1.173,3.215-1.363c2.508-0.384,4.719,0.454,6.125,1.159
						C63.769,447.042,64.549,447.65,64.518,447.701z"/>
				</g>
			</g>
		</g>
		<g>
			<g>
				<path style="fill:#E8505B;" d="M92.658,424.759c0,0,29.445,19.279,30.501,20.077c1.586,1.198-0.233,6.903-2.98,5.916
					c-1.299-0.467-26.007-7.341-28.664-8.374c-2.657-1.034-9.809-6.864-9.809-6.864L92.658,424.759z"/>
			</g>
			<g>
				<g>
					<path style="fill:#263238;" d="M101.402,440.008c-0.129-0.027,0.394-1.726,1.97-3.151c1.563-1.441,3.302-1.807,3.317-1.676
						c0.055,0.148-1.507,0.709-2.966,2.061C102.245,438.571,101.545,440.075,101.402,440.008z"/>
				</g>
			</g>
			<g>
				<g>
					<path style="fill:#263238;" d="M98.758,437.621c-0.124-0.048,0.445-1.528,1.795-2.896c1.34-1.378,2.807-1.978,2.858-1.855
						c0.074,0.136-1.216,0.909-2.486,2.22C99.642,436.386,98.895,437.692,98.758,437.621z"/>
				</g>
			</g>
			<g>
				<g>
					<path style="fill:#263238;" d="M96.106,435.92c-0.134,0.004,0.013-1.684,1.287-3.239c1.258-1.569,2.88-2.061,2.903-1.93
						c0.069,0.141-1.341,0.805-2.498,2.258C96.617,434.441,96.258,435.958,96.106,435.92z"/>
				</g>
			</g>
			<g>
				<g>
					<path style="fill:#263238;" d="M97.853,432.258c-0.077-0.038,0.325-0.834,0.666-2.204c0.167-0.684,0.308-1.514,0.346-2.44
						c0.02-0.463,0.01-0.95-0.032-1.451c-0.016-0.242-0.061-0.48-0.16-0.622c-0.094-0.132-0.224-0.164-0.403-0.092
						c-0.336,0.134-0.511,0.706-0.67,1.157c-0.15,0.471-0.244,0.943-0.289,1.4c-0.091,0.914-0.024,1.754,0.075,2.452
						c0.206,1.398,0.483,2.247,0.4,2.273c-0.053,0.02-0.455-0.786-0.763-2.209c-0.148-0.71-0.259-1.582-0.19-2.557
						c0.034-0.487,0.124-0.997,0.28-1.509c0.076-0.259,0.171-0.508,0.288-0.771c0.122-0.256,0.315-0.562,0.662-0.712
						c0.317-0.171,0.837-0.062,1.034,0.274c0.199,0.306,0.222,0.612,0.243,0.878c0.037,0.526,0.037,1.035,0.003,1.517
						c-0.067,0.965-0.252,1.82-0.47,2.513C98.428,431.544,97.902,432.288,97.853,432.258z"/>
				</g>
			</g>
			<g>
				<g>
					<path style="fill:#263238;" d="M97.912,431.945c-0.038,0.076-0.728-0.275-1.914-0.564c-0.592-0.142-1.309-0.264-2.109-0.288
						c-0.4-0.007-0.829-0.019-1.209,0.076c-0.386,0.09-0.684,0.328-0.704,0.687c-0.026,0.369,0.179,0.728,0.497,0.935
						c0.317,0.218,0.712,0.32,1.095,0.366c0.769,0.09,1.484-0.052,2.069-0.207c1.171-0.337,1.888-0.646,1.92-0.566
						c0.022,0.053-0.623,0.475-1.811,0.918c-0.594,0.207-1.355,0.405-2.228,0.333c-0.429-0.039-0.901-0.138-1.331-0.42
						c-0.43-0.27-0.779-0.807-0.731-1.399c0.025-0.636,0.63-1.065,1.102-1.141c0.493-0.111,0.937-0.079,1.354-0.06
						c0.841,0.053,1.584,0.22,2.186,0.413C97.306,431.421,97.943,431.895,97.912,431.945z"/>
				</g>
			</g>
			<g>
				<g>
					<path style="fill:#263238;" d="M116.427,449.675c-0.034,0.046-0.495-0.298-0.72-1.141c-0.246-0.823-0.092-2.088,0.551-3.195
						c0.307-0.559,0.661-1.043,0.987-1.47c0.322-0.428,0.655-0.814,1-1.073c0.34-0.265,0.696-0.385,0.941-0.394
						c0.246-0.01,0.372,0.05,0.368,0.08c-0.001,0.081-0.526,0.042-1.071,0.595c-0.276,0.263-0.551,0.633-0.85,1.074
						c-0.301,0.438-0.63,0.915-0.918,1.438c-0.597,1.038-0.774,2.112-0.647,2.871C116.174,449.222,116.496,449.624,116.427,449.675z
						"/>
				</g>
			</g>
			<g>
				<g>
					<path style="fill:#263238;" d="M105.856,441.777c-0.136,0.014-0.095-1.481,1.037-2.821c1.117-1.353,2.581-1.661,2.591-1.524
						c0.057,0.144-1.189,0.633-2.191,1.858C106.267,440.493,106.008,441.807,105.856,441.777z"/>
				</g>
			</g>
			<g>
				<g>
					<path style="fill:#263238;" d="M84.734,436.552c0.026-0.031,0.477,0.301,1.294,0.888c0.828,0.573,2.045,1.376,3.63,2.225
						c1.584,0.85,3.538,1.733,5.767,2.567c2.23,0.832,4.73,1.616,7.375,2.382c5.297,1.525,10.093,2.92,13.553,3.961
						c1.66,0.51,3.036,0.932,4.091,1.256c0.963,0.308,1.491,0.494,1.481,0.529c-0.01,0.035-0.557-0.086-1.536-0.334
						c-1.067-0.283-2.459-0.652-4.137-1.097c-3.487-0.951-8.295-2.288-13.598-3.815c-2.65-0.768-5.161-1.571-7.399-2.434
						c-2.237-0.865-4.197-1.792-5.774-2.693c-1.579-0.899-2.777-1.757-3.573-2.384C85.12,436.961,84.713,436.576,84.734,436.552z"/>
				</g>
			</g>
			<g>
				<g>
					<path style="fill:#263238;" d="M83.642,436.948c-0.015-0.058,0.913-0.401,2.495-0.664c1.554-0.244,3.915-0.372,6.188,0.756
						c1.126,0.559,2.02,1.409,2.649,2.275c0.639,0.866,1.062,1.732,1.38,2.465c0.62,1.474,0.875,2.423,0.819,2.446
						c-0.076,0.031-0.457-0.879-1.152-2.29c-0.699-1.371-1.805-3.376-3.93-4.43c-2.118-1.054-4.368-1.005-5.907-0.856
						C84.622,436.813,83.66,437.029,83.642,436.948z"/>
				</g>
			</g>
		</g>
		<g>
			<g>
				<g>
					<g>
						<g>
							<g>
								<g>
									<g>
										<g>
											<g>
												<g>
													<g>
														<g>
															<path style="fill:#FFBE9D;" d="M161.66,272.019l1.922,38.891c0.327,6.614-4.947,12.155-11.569,12.155l0,0
																c-6.18,0-11.271-4.857-11.57-11.03c-0.142-2.928-0.266-5.369-0.3-5.669c0,0-9.947-0.442-11.146-10.206
																c-0.579-4.718-0.982-14.534-1.243-23.418c-0.281-9.541,6.825-17.694,16.313-18.741l0.943-0.104
																C155.248,253.37,161.415,261.77,161.66,272.019z"/>
														</g>
													</g>
												</g>
											</g>
										</g>
									</g>
								</g>
								<g>
									<g>
										<g>
											<g>
												<g>
													<g>
														<g>
															<path style="fill:#EB996E;" d="M140.111,306.227c0,0,6.234-0.179,12.347-5.028c0,0-2.237,7.369-12.09,7.564
																L140.111,306.227z"/>
														</g>
													</g>
												</g>
											</g>
										</g>
									</g>
								</g>
							</g>
						</g>
					</g>
					<g>
						<g>
							<g>
								<g>
									<g>
										<g>
											<g>
												<g>
													<g>
														<g>
															<g>
																<g>
																	<g>
																		<path style="fill:#263238;" d="M130.861,278.846c0.055,0.74,0.728,1.304,1.502,1.26
																			c0.773-0.044,1.356-0.677,1.3-1.418c-0.055-0.74-0.727-1.305-1.5-1.261
																			C131.389,277.47,130.806,278.105,130.861,278.846z"/>
																	</g>
																</g>
															</g>
														</g>
													</g>
												</g>
											</g>
											<g>
												<g>
													<g>
														<g>
															<g>
																<g>
																	<g>
																		<g>
																			<path style="fill:#263238;" d="M130.384,277.309c0.193,0.163,1.165-0.737,2.668-0.898
																				c1.499-0.183,2.687,0.468,2.829,0.266c0.071-0.09-0.141-0.4-0.66-0.696c-0.511-0.296-1.354-0.546-2.29-0.438
																				c-0.935,0.108-1.685,0.54-2.098,0.942C130.41,276.891,130.289,277.237,130.384,277.309z"/>
																		</g>
																	</g>
																</g>
															</g>
														</g>
													</g>
												</g>
											</g>
										</g>
										<g>
											<g>
												<g>
													<g>
														<g>
															<g>
																<g>
																	<g>
																		<path style="fill:#263238;" d="M145.615,277.575c0.055,0.74,0.728,1.304,1.502,1.26
																			c0.773-0.043,1.356-0.677,1.3-1.418c-0.055-0.74-0.728-1.305-1.501-1.261
																			C146.142,276.2,145.559,276.835,145.615,277.575z"/>
																	</g>
																</g>
															</g>
														</g>
													</g>
												</g>
											</g>
											<g>
												<g>
													<g>
														<g>
															<g>
																<g>
																	<g>
																		<g>
																			<path style="fill:#263238;" d="M145.183,275.961c0.193,0.163,1.166-0.736,2.668-0.898
																				c1.499-0.183,2.687,0.468,2.83,0.266c0.071-0.09-0.14-0.399-0.661-0.696c-0.511-0.296-1.354-0.546-2.29-0.439
																				c-0.935,0.109-1.685,0.54-2.098,0.942C145.211,275.542,145.09,275.889,145.183,275.961z"/>
																		</g>
																	</g>
																</g>
															</g>
														</g>
													</g>
												</g>
											</g>
										</g>
										<g>
											<g>
												<g>
													<g>
														<g>
															<g>
																<g>
																	<g>
																		<path style="fill:#263238;" d="M140.959,287.705c-0.002-0.086-0.954-0.145-2.489-0.171
																			c-0.388,0.003-0.76-0.033-0.853-0.288c-0.121-0.267-0.006-0.698,0.131-1.165c0.258-0.968,0.529-1.983,0.812-3.047
																			c1.117-4.333,1.88-7.879,1.705-7.923c-0.175-0.043-1.222,3.434-2.339,7.767c-0.266,1.068-0.521,2.085-0.763,3.059
																			c-0.097,0.452-0.292,0.974-0.033,1.528c0.135,0.275,0.439,0.452,0.693,0.491c0.254,0.048,0.471,0.028,0.662,0.019
																			C140.018,287.888,140.963,287.791,140.959,287.705z"/>
																	</g>
																</g>
															</g>
														</g>
													</g>
												</g>
											</g>
										</g>
										<g>
											<g>
												<g>
													<g>
														<g>
															<g>
																<g>
																	<g>
																		<path style="fill:#263238;" d="M145.496,288.256c-0.246,0.013-0.069,1.644-1.337,2.955
																			c-1.265,1.315-3.024,1.324-3.012,1.553c-0.011,0.105,0.422,0.274,1.158,0.213
																			c0.722-0.055,1.748-0.402,2.524-1.204c0.773-0.804,1.035-1.791,1.017-2.467
																			C145.833,288.618,145.606,288.234,145.496,288.256z"/>
																	</g>
																</g>
															</g>
														</g>
													</g>
												</g>
											</g>
										</g>
									</g>
								</g>
							</g>
							<g>
								<g>
									<g>
										<g>
											<g>
												<g>
													<g>
														<path style="fill:#263238;" d="M144.146,270.115c0.193,0.392,1.672,0.033,3.458,0.051
															c1.787-0.018,3.265,0.341,3.458-0.051c0.085-0.187-0.205-0.544-0.824-0.876c-0.613-0.332-1.564-0.607-2.635-0.608
															c-1.071,0.001-2.021,0.276-2.635,0.608C144.351,269.572,144.061,269.929,144.146,270.115z"/>
													</g>
												</g>
											</g>
										</g>
									</g>
								</g>
							</g>
							<g>
								<g>
									<g>
										<g>
											<g>
												<g>
													<g>
														<path style="fill:#263238;" d="M130.456,272.9c0.302,0.312,1.298-0.156,2.541-0.31
															c1.237-0.198,2.324-0.024,2.527-0.408c0.087-0.185-0.116-0.508-0.613-0.781c-0.489-0.272-1.277-0.451-2.13-0.331
															c-0.852,0.121-1.559,0.512-1.954,0.91C130.427,272.379,130.322,272.746,130.456,272.9z"/>
													</g>
												</g>
											</g>
										</g>
									</g>
								</g>
							</g>
						</g>
					</g>
					<g>
						<g>
							<g>
								<g>
									<g>
										<g>
											<g>
												<g>
													<path style="fill:#FFBE9D;" d="M161.66,279.346c0.159-0.091,6.499-2.728,7.022,3.98
														c0.524,6.708-6.319,5.85-6.345,5.658C162.31,288.793,161.66,279.346,161.66,279.346z"/>
												</g>
											</g>
										</g>
									</g>
								</g>
							</g>
						</g>
						<g>
							<g>
								<g>
									<g>
										<g>
											<g>
												<g>
													<g>
														<path style="fill:#EB996E;" d="M164.187,286.283c0.028-0.024,0.123,0.073,0.328,0.148
															c0.199,0.073,0.535,0.108,0.875-0.05c0.688-0.315,1.197-1.487,1.135-2.699c-0.031-0.612-0.204-1.183-0.458-1.648
															c-0.243-0.475-0.587-0.793-0.949-0.828c-0.361-0.054-0.597,0.179-0.665,0.374c-0.075,0.194-0.022,0.325-0.057,0.339
															c-0.018,0.018-0.153-0.101-0.12-0.382c0.017-0.135,0.084-0.3,0.231-0.441c0.151-0.144,0.382-0.229,0.633-0.221
															c0.52-0.005,1.023,0.435,1.302,0.945c0.308,0.51,0.517,1.151,0.551,1.838c0.063,1.355-0.531,2.674-1.478,3.03
															c-0.462,0.16-0.867,0.048-1.083-0.094C164.212,286.444,164.165,286.297,164.187,286.283z"/>
													</g>
												</g>
											</g>
										</g>
									</g>
								</g>
							</g>
						</g>
					</g>
				</g>
			</g>
			<g>
				<g>
					<g>
						<path style="fill:#263238;" d="M165.354,278.709c-1.047-0.134-2.706,1.001-3.036,2.004c-0.329,1.003-0.306,2.095-0.634,3.098
							s-1.212,1.975-2.26,1.846c-0.722-0.089-1.298-0.693-1.561-1.372c-0.263-0.679-0.269-1.426-0.258-2.154
							c0.05-3.165,0.364-6.333,0.143-9.491c-0.221-3.158-1.029-6.375-2.975-8.871c-1.946-2.496-5.196-4.132-8.304-3.533
							c-2.059,0.397-3.845,1.69-5.877,2.207c-2.409,0.613-5.091,0.034-7.034-1.516c-0.249-0.199-1.368-0.772-1.368-0.772
							c-0.018-0.162-0.019-1.575,0.475-2.144c3.677-4.238,10.938-6.109,16.497-5.344c5.558,0.765,11.049,4.024,13.935,8.835
							C165.982,266.314,166.07,273.439,165.354,278.709"/>
					</g>
				</g>
			</g>
		</g>
		<g>
			<g>
				<path style="fill:#263238;" d="M56.092,432.99c0,0,72.209-47.364,75.166-48.35c2.957-0.986,10.102-5.667,17.248-3.696
					c7.145,1.971,13.552,8.378,16.755,17.741c3.203,9.363,3.45,30.307,3.45,30.307s-5.667,16.509-16.755,19.958
					c-0.924,0.287-1.891,0.527-2.887,0.725c-13.534,2.685-27.297-3.538-34.873-15.07l-1.611-2.453c0,0-47.237,17.354-47.976,17.108
					L56.092,432.99z"/>
			</g>
			<g>
				<path style="fill:#263238;" d="M31.468,377.741c0,0-8.833,3.154-8.87,13.059c-0.071,18.972,38.334,39.885,38.334,39.885
					l51.108-33.863v-3.558C112.039,393.264,46.251,369.61,31.468,377.741z"/>
			</g>
			<g>
				<g>
					<path style="fill:#455A64;" d="M145.427,419.953c0,0-0.131,0.067-0.396,0.175c-0.285,0.113-0.678,0.269-1.182,0.469
						c-1.066,0.41-2.603,1.002-4.578,1.763c-4.016,1.513-9.81,3.696-17.013,6.409c-7.227,2.696-15.883,5.902-25.595,9.436
						c-9.714,3.53-20.477,7.406-31.973,11.299l-0.209,0.071l-0.103-0.196c-1.805-3.447-3.709-7.083-5.642-10.773
						c-0.985-1.882-1.963-3.75-2.875-5.494l-0.111-0.212l0.2-0.127c21.683-13.764,41.082-26.079,55.081-34.966
						c6.99-4.409,12.631-7.967,16.545-10.436c1.938-1.21,3.448-2.152,4.493-2.804c0.501-0.307,0.891-0.545,1.173-0.717
						c0.266-0.159,0.408-0.23,0.408-0.23s-0.125,0.1-0.381,0.273c-0.276,0.183-0.656,0.435-1.147,0.759
						c-1.034,0.671-2.527,1.64-4.443,2.884c-3.894,2.501-9.505,6.106-16.458,10.572c-13.976,8.921-33.343,21.283-54.99,35.101
						l0.089-0.339c0.913,1.744,1.891,3.612,2.876,5.494c1.931,3.691,3.834,7.328,5.638,10.775l-0.311-0.125
						c11.489-3.882,22.259-7.739,31.98-11.241c9.706-3.533,18.377-6.688,25.632-9.328c7.226-2.651,13.038-4.783,17.067-6.261
						c1.989-0.724,3.537-1.287,4.61-1.677c0.512-0.181,0.909-0.322,1.199-0.424C145.284,419.988,145.427,419.953,145.427,419.953z"
						/>
				</g>
			</g>
			<g>
				<g>
					<path style="fill:#455A64;" d="M86.15,413.926c-0.022,0.029-0.495-0.294-1.331-0.903c-0.838-0.607-2.033-1.508-3.495-2.639
						c-2.926-2.262-6.907-5.467-11.19-9.143c-4.283-3.679-8.054-7.13-10.732-9.681c-1.34-1.275-2.411-2.32-3.138-3.056
						c-0.728-0.735-1.119-1.153-1.094-1.179c0.025-0.026,0.463,0.343,1.233,1.032c0.835,0.754,1.929,1.742,3.248,2.933
						c2.74,2.479,6.544,5.882,10.821,9.555c4.277,3.671,8.215,6.917,11.08,9.25c1.377,1.124,2.519,2.056,3.391,2.768
						C85.741,413.52,86.172,413.897,86.15,413.926z"/>
				</g>
			</g>
			<g>
				<g>
					<path style="fill:#455A64;" d="M45.896,384.832c-0.019-0.127,2.261-0.35,4.925,0.447c2.671,0.777,4.464,2.202,4.379,2.299
						c-0.085,0.135-1.948-1.052-4.526-1.799C48.103,385.007,45.893,384.992,45.896,384.832z"/>
				</g>
			</g>
			<g>
				<g>
					<path style="fill:#455A64;" d="M50.298,381.842c0.046-0.123,1.684,0.597,3.03,2.279c1.361,1.67,1.72,3.423,1.59,3.442
						c-0.149,0.052-0.707-1.54-1.995-3.115C51.655,382.858,50.216,381.977,50.298,381.842z"/>
				</g>
			</g>
			<g>
				<g>
					<path style="fill:#263238;" d="M28.657,441.915c-0.027-0.06,0.61-0.183,1.317,0.4c0.696,0.556,1.287,1.669,1.477,2.966
						c0.192,1.307-0.099,2.508-0.466,3.271c-0.362,0.776-0.76,1.141-0.804,1.104c-0.07-0.048,0.21-0.479,0.462-1.241
						c0.26-0.752,0.468-1.862,0.292-3.061c-0.175-1.192-0.664-2.222-1.209-2.766C29.185,442.02,28.647,441.998,28.657,441.915z"/>
				</g>
			</g>
		</g>
		<g>
			<path style="fill:#FFBE9D;" d="M66.642,302.02"/>
		</g>
	</g>
</g>
<g id="Plant">
	<g>
		<g>
			<g>
				<rect x="383.114" y="387.397" style="fill:#263238;" width="69.761" height="9.585"/>
			</g>
			<g>
				<path style="fill:#263238;" d="M452.993,397.102h-69.999v-9.824h69.999V397.102z M383.233,396.863h69.522v-9.347h-69.522
					V396.863z"/>
			</g>
		</g>
		<g>
			<g>
				<polygon style="fill:#263238;" points="389.582,393.792 399.623,443.33 436.777,443.33 446.484,396.983 				"/>
			</g>
		</g>
		<g>
			<g>
				<polygon style="fill:#455A64;" points="389.582,438.644 394.937,446.008 440.097,446.008 446.484,438.644 				"/>
			</g>
		</g>
		<g>
			<g>
				<g>
					<path style="fill:#263238;" d="M415.374,395.239c-0.137,0-0.313-22.949-0.393-51.253c-0.08-28.314-0.033-51.259,0.104-51.259
						c0.137,0,0.313,22.944,0.393,51.258C415.558,372.288,415.512,395.239,415.374,395.239z"/>
				</g>
			</g>
		</g>
		<g>
			<g>
				<g>
					<path style="fill:#263238;" d="M430.914,337.808c0.015,0.008-0.05,0.191-0.187,0.534c-0.163,0.389-0.37,0.881-0.623,1.485
						c-0.139,0.327-0.291,0.684-0.455,1.069c-0.144,0.404-0.299,0.839-0.465,1.303c-0.169,0.469-0.348,0.968-0.538,1.494
						c-0.186,0.53-0.333,1.108-0.516,1.704c-0.762,2.378-1.368,5.295-1.951,8.541c-0.508,3.262-0.889,6.874-1.08,10.681
						c-0.339,7.622,0.091,14.533,0.552,19.511c0.224,2.491,0.45,4.504,0.616,5.893c0.072,0.652,0.13,1.182,0.176,1.603
						c0.035,0.367,0.045,0.561,0.028,0.564c-0.017,0.003-0.06-0.187-0.127-0.55c-0.07-0.417-0.159-0.944-0.269-1.591
						c-0.225-1.383-0.504-3.392-0.774-5.884c-0.551-4.979-1.039-11.912-0.698-19.57c0.192-3.825,0.589-7.456,1.125-10.733
						c0.612-3.262,1.257-6.189,2.067-8.569c0.195-0.597,0.354-1.174,0.553-1.703c0.203-0.525,0.396-1.022,0.577-1.49
						c0.18-0.461,0.349-0.893,0.505-1.294c0.172-0.391,0.348-0.74,0.497-1.057c0.289-0.59,0.524-1.071,0.71-1.451
						C430.804,337.969,430.899,337.8,430.914,337.808z"/>
				</g>
			</g>
		</g>
		<g>
			<g>
				<g>
					<path style="fill:#263238;" d="M429.131,319.246c0.016,0.006-0.061,0.267-0.222,0.757c-0.181,0.531-0.423,1.242-0.726,2.134
						c-0.162,0.467-0.34,0.98-0.533,1.538c-0.173,0.573-0.361,1.191-0.561,1.853c-0.408,1.328-0.881,2.837-1.301,4.535
						c-0.223,0.846-0.457,1.732-0.7,2.653c-0.21,0.932-0.428,1.9-0.654,2.902c-0.488,1.997-0.839,4.168-1.289,6.434
						c-0.769,4.558-1.446,9.597-1.913,14.912c-0.441,5.319-0.633,10.402-0.7,15.026c-0.014,4.624,0.045,8.791,0.235,12.284
						c0.062,1.749,0.174,3.327,0.264,4.714c0.08,1.388,0.167,2.582,0.256,3.556c0.072,0.94,0.128,1.689,0.171,2.248
						c0.034,0.515,0.043,0.786,0.026,0.788c-0.017,0.002-0.06-0.266-0.126-0.777c-0.066-0.557-0.154-1.303-0.264-2.24
						c-0.118-0.973-0.234-2.166-0.34-3.553c-0.117-1.387-0.253-2.966-0.338-4.717c-0.235-3.497-0.33-7.671-0.342-12.306
						c0.042-4.635,0.221-9.731,0.663-15.065c0.468-5.33,1.161-10.383,1.957-14.95c0.463-2.271,0.831-4.445,1.338-6.445
						c0.236-1.003,0.464-1.971,0.684-2.904c0.255-0.922,0.499-1.807,0.733-2.653c0.443-1.697,0.941-3.203,1.375-4.526
						c0.215-0.659,0.416-1.275,0.602-1.845c0.209-0.554,0.401-1.064,0.576-1.527c0.341-0.88,0.612-1.581,0.815-2.105
						C429.007,319.488,429.115,319.24,429.131,319.246z"/>
				</g>
			</g>
		</g>
		<g>
			<g>
				<g>
					<path style="fill:#263238;" d="M410.962,399.299c-0.009,0-0.022-0.09-0.039-0.268c-0.017-0.206-0.039-0.466-0.066-0.79
						c-0.049-0.731-0.118-1.748-0.205-3.039c-0.167-2.677-0.406-6.487-0.699-11.179c-0.606-9.437-1.481-22.475-3.069-36.812
						c-0.811-7.169-1.752-13.977-2.731-20.149c-0.52-3.081-0.992-6.013-1.527-8.74c-0.491-2.736-1.02-5.269-1.506-7.582
						c-0.458-2.319-0.97-4.395-1.381-6.227c-0.404-1.834-0.795-3.403-1.122-4.684c-0.308-1.256-0.55-2.246-0.724-2.957
						c-0.072-0.317-0.13-0.571-0.176-0.773c-0.037-0.175-0.052-0.266-0.044-0.268c0.008-0.002,0.04,0.084,0.093,0.254
						c0.058,0.198,0.132,0.448,0.224,0.76c0.196,0.706,0.469,1.688,0.815,2.935c0.356,1.274,0.775,2.838,1.205,4.668
						c0.437,1.828,0.973,3.901,1.454,6.218c0.509,2.311,1.059,4.844,1.567,7.579c0.554,2.727,1.041,5.66,1.574,8.743
						c1.004,6.176,1.96,12.991,2.773,20.168c1.589,14.352,2.41,27.402,2.926,36.847c0.256,4.723,0.435,8.546,0.542,11.189
						c0.048,1.293,0.085,2.312,0.112,3.044c0.007,0.325,0.012,0.586,0.017,0.792C410.974,399.207,410.971,399.299,410.962,399.299z"
						/>
				</g>
			</g>
		</g>
		<g>
			<g>
				<path style="fill:#E8505B;" d="M414.805,303.759c-0.303-3.251-3.589-5.704-6.854-5.738c-3.265-0.034-6.309,1.924-8.306,4.508
					c-1.997,2.584-3.098,5.738-3.999,8.876c-2.199,7.66-3.401,15.707-2.461,23.621c0.94,7.913,4.151,15.705,9.829,21.296
					c0.923,0.909,2.119,1.818,3.386,1.548c0.693-0.148,1.261-0.629,1.786-1.104c11.155-10.077,17.597-25.17,17.155-40.197
					c-0.088-3.009-0.483-6.141-2.15-8.648C421.527,305.415,417.642,302.753,414.805,303.759"/>
			</g>
		</g>
		<g>
			<g>
				<g>
					<path style="fill:#E8505B;" d="M390.424,277.718c-1.533,2.776-3.066,5.552-4.599,8.329c-0.107,0.194-0.249,0.412-0.47,0.43
						c-0.242,0.02-0.422-0.208-0.555-0.411c-4.053-6.22-8.106-12.44-12.158-18.66l2.801-1.587L390.424,277.718z"/>
				</g>
			</g>
			<g style="opacity:0.2;">
				<g>
					<g>
						<path d="M390.424,277.718c-1.533,2.776-3.066,5.552-4.599,8.329c-0.107,0.194-0.249,0.412-0.47,0.43
							c-0.242,0.02-0.422-0.208-0.555-0.411c-4.053-6.22-8.106-12.44-12.158-18.66l2.801-1.587L390.424,277.718z"/>
					</g>
				</g>
			</g>
			<g>
				<g>
					<path style="fill:#E8505B;" d="M415.086,292.726c-13.825-8.158-27.65-16.316-41.475-24.474c-0.423-0.25-0.882-0.545-1.01-1.019
						c-0.166-0.614,0.295-1.206,0.738-1.662c5.704-5.885,13.99-9.296,22.165-8.708c8.175,0.588,16.036,5.31,20.038,12.462
						C419.544,276.478,419.677,285.937,415.086,292.726"/>
				</g>
			</g>
			<g>
				<g>
					<g>
						<path style="fill:#263238;" d="M379.588,260.44c-0.001-0.017,0.186-0.04,0.543-0.068c0.358-0.018,0.886-0.083,1.567-0.075
							c1.362-0.033,3.344,0.056,5.755,0.457c2.409,0.396,5.239,1.171,8.196,2.49c2.955,1.312,6.012,3.212,8.797,5.708
							c2.762,2.523,4.958,5.377,6.558,8.186c1.607,2.811,2.66,5.549,3.294,7.907c0.639,2.359,0.925,4.321,1.028,5.68
							c0.075,0.678,0.063,1.209,0.081,1.567c0.008,0.359,0.004,0.547-0.013,0.547c-0.044,0.002-0.096-0.749-0.26-2.094
							c-0.161-1.345-0.498-3.282-1.174-5.604c-1.311-4.619-4.356-10.846-9.848-15.821c-5.496-4.967-11.995-7.376-16.721-8.22
							c-2.378-0.441-4.34-0.583-5.694-0.609C380.343,260.461,379.591,260.484,379.588,260.44z"/>
					</g>
				</g>
			</g>
			<g>
				<g>
					<g>
						<path style="fill:#263238;" d="M409.472,275.834c0.024,0.063-0.775,0.432-2.097,0.953c-1.321,0.521-3.168,1.186-5.233,1.843
							c-2.066,0.656-3.959,1.178-5.339,1.515c-1.38,0.337-2.245,0.496-2.262,0.431c-0.018-0.068,0.815-0.347,2.168-0.77
							c1.529-0.478,3.312-1.035,5.282-1.65c1.964-0.634,3.741-1.208,5.266-1.7C408.606,276.021,409.448,275.768,409.472,275.834z"/>
					</g>
				</g>
			</g>
			<g>
				<g>
					<g>
						<path style="fill:#263238;" d="M402.941,258.29c0.134-0.012,0.427,2.056,0.491,4.627c0.067,2.572-0.122,4.651-0.256,4.646
							c-0.14-0.005-0.174-2.079-0.241-4.633C402.872,260.376,402.801,258.302,402.941,258.29z"/>
					</g>
				</g>
			</g>
			<g>
				<g>
					<g>
						<path style="fill:#263238;" d="M373.249,267.788c-0.019-0.063,1.128-0.48,3.013-1.06c1.884-0.581,4.509-1.316,7.434-2.022
							c2.927-0.704,5.598-1.245,7.54-1.586c1.942-0.341,3.153-0.493,3.165-0.428c0.013,0.07-1.175,0.344-3.096,0.773
							c-1.921,0.428-4.574,1.022-7.493,1.724c-2.917,0.704-5.549,1.383-7.454,1.877
							C374.452,267.559,373.269,267.856,373.249,267.788z"/>
					</g>
				</g>
			</g>
		</g>
		<g>
			<g>
				<g>
					<path style="fill:#E8505B;" d="M395.962,296.064c-3.567-2.705-7.339-3.238-11.812-3.06c-4.473,0.177-8.827,1.54-12.928,3.336
						c-6.994,3.063-13.568,7.578-17.746,13.968c-4.179,6.39-5.633,14.849-2.504,21.814c0.312,0.694,0.717,1.419,1.416,1.719
						c0.736,0.315,1.579,0.069,2.341-0.179c7.954-2.595,15.965-5.214,23.279-9.278c7.314-4.064,13.971-9.712,17.895-17.102
						c0.942-1.773,1.73-3.673,1.884-5.675C397.941,299.605,397.388,297.477,395.962,296.064"/>
				</g>
			</g>
			<g>
				<g>
					<g>
						<path style="fill:#263238;" d="M396.033,295.225c0.005,0.017-0.193,0.096-0.573,0.233c-0.43,0.148-0.983,0.338-1.667,0.573
							c-0.368,0.123-0.771,0.257-1.207,0.402c-0.438,0.157-0.904,0.354-1.41,0.549c-1.006,0.407-2.175,0.814-3.405,1.411
							c-0.623,0.284-1.273,0.58-1.95,0.888c-0.676,0.312-1.352,0.696-2.066,1.06c-1.442,0.708-2.9,1.613-4.454,2.53
							c-3.049,1.928-6.277,4.249-9.418,6.985c-3.115,2.768-5.828,5.674-8.129,8.453c-1.108,1.424-2.191,2.756-3.077,4.096
							c-0.452,0.663-0.919,1.284-1.315,1.915c-0.392,0.632-0.769,1.24-1.129,1.821c-0.749,1.144-1.301,2.251-1.833,3.197
							c-0.259,0.477-0.513,0.915-0.724,1.329c-0.2,0.414-0.384,0.796-0.553,1.146c-0.32,0.648-0.579,1.172-0.781,1.58
							c-0.184,0.359-0.288,0.545-0.304,0.538c-0.016-0.007,0.057-0.206,0.212-0.578c0.18-0.419,0.411-0.956,0.697-1.622
							c0.157-0.356,0.329-0.746,0.516-1.168c0.2-0.422,0.443-0.867,0.69-1.353c0.511-0.962,1.044-2.087,1.777-3.249
							c0.354-0.59,0.724-1.207,1.108-1.848c0.39-0.64,0.851-1.27,1.299-1.942c0.877-1.358,1.955-2.708,3.06-4.149
							c2.296-2.814,5.02-5.751,8.157-8.539c3.164-2.756,6.423-5.082,9.506-7.001c1.57-0.913,3.046-1.81,4.505-2.507
							c0.723-0.358,1.407-0.736,2.091-1.041c0.685-0.3,1.344-0.588,1.974-0.864c1.246-0.579,2.429-0.965,3.449-1.349
							c0.513-0.184,0.986-0.368,1.429-0.513c0.443-0.131,0.851-0.252,1.225-0.362c0.697-0.199,1.26-0.36,1.698-0.485
							C395.822,295.256,396.028,295.208,396.033,295.225z"/>
					</g>
				</g>
			</g>
			<g>
				<g>
					<g>
						<path style="fill:#263238;" d="M368.165,310.314c0.038,0.132-3.847,1.384-8.677,2.796c-4.832,1.413-8.778,2.451-8.817,2.319
							c-0.039-0.132,3.846-1.383,8.677-2.796C364.179,311.221,368.126,310.182,368.165,310.314z"/>
					</g>
				</g>
			</g>
			<g>
				<g>
					<g>
						<path style="fill:#263238;" d="M367.808,329.462c-0.067,0.001-0.145-1.032-0.191-2.704c-0.046-1.671-0.053-3.982,0.018-6.532
							c0.072-2.551,0.208-4.858,0.347-6.524c0.139-1.667,0.275-2.693,0.341-2.688c0.07,0.005,0.058,1.039,0.009,2.708
							c-0.056,1.832-0.125,4.057-0.201,6.518c-0.062,2.461-0.117,4.687-0.163,6.518
							C367.924,328.427,367.878,329.461,367.808,329.462z"/>
					</g>
				</g>
			</g>
			<g>
				<g>
					<g>
						<path style="fill:#263238;" d="M384.211,321.106c-0.137,0.01-0.573-4.685-0.974-10.485
							c-0.401-5.802-0.615-10.511-0.478-10.521c0.137-0.009,0.573,4.685,0.974,10.486
							C384.133,316.386,384.347,321.096,384.211,321.106z"/>
					</g>
				</g>
			</g>
			<g>
				<g>
					<g>
						<path style="fill:#263238;" d="M363.793,299.644c0.004-0.069,1.066-0.096,2.781-0.084c1.715,0.012,4.082,0.062,6.695,0.148
							c2.614,0.087,4.98,0.193,6.692,0.294c1.712,0.102,2.771,0.199,2.769,0.267c-0.001,0.069-1.062,0.096-2.777,0.084
							c-1.715-0.012-4.084-0.062-6.701-0.149c-2.616-0.087-4.983-0.193-6.695-0.294C364.847,299.81,363.79,299.712,363.793,299.644z
							"/>
					</g>
				</g>
			</g>
		</g>
		<g>
			<g>
				<g>
					<path style="fill:#263238;" d="M404.794,358.557c-0.017,0-0.037-0.195-0.059-0.567c-0.019-0.427-0.043-0.966-0.073-1.63
						c-0.063-1.415-0.077-3.466-0.023-5.999c0.045-2.533,0.214-5.548,0.512-8.886c0.323-3.335,0.79-6.992,1.46-10.802
						c0.688-3.808,1.512-7.402,2.36-10.645c0.873-3.236,1.756-6.123,2.588-8.517c0.825-2.395,1.546-4.315,2.093-5.622
						c0.257-0.612,0.466-1.11,0.631-1.504c0.149-0.342,0.236-0.518,0.251-0.511c0.016,0.006-0.039,0.195-0.158,0.548
						c-0.142,0.402-0.322,0.911-0.544,1.536c-0.491,1.326-1.161,3.26-1.941,5.663c-0.788,2.401-1.633,5.29-2.478,8.522
						c-0.822,3.238-1.629,6.822-2.314,10.616c-0.667,3.796-1.146,7.438-1.493,10.759c-0.322,3.324-0.526,6.327-0.616,8.853
						c-0.098,2.525-0.137,4.571-0.134,5.985c-0.008,0.664-0.015,1.203-0.02,1.629C404.825,358.36,404.811,358.556,404.794,358.557z"
						/>
				</g>
			</g>
		</g>
		<g>
			<g>
				<g>
					<path style="fill:#263238;" d="M406.982,330.258c0.047,0.048-0.581,0.746-1.654,1.816c-1.073,1.07-2.596,2.506-4.335,4.031
						c-1.739,1.524-3.363,2.847-4.564,3.77c-1.201,0.924-1.975,1.455-2.017,1.402c-0.044-0.055,0.652-0.683,1.794-1.674
						c1.275-1.107,2.787-2.42,4.459-3.872c1.658-1.467,3.158-2.795,4.422-3.913C406.219,330.816,406.933,330.208,406.982,330.258z"
						/>
				</g>
			</g>
		</g>
		<g>
			<g>
				<g>
					<path style="fill:#263238;" d="M420.11,340.833c-0.06,0.037-0.718-0.906-1.762-2.441c-1.134-1.654-2.542-3.709-4.098-5.981
						c-1.59-2.25-3.027-4.285-4.184-5.923c-1.076-1.513-1.732-2.457-1.676-2.501c0.053-0.041,0.807,0.829,1.957,2.29
						c1.15,1.461,2.689,3.52,4.311,5.849c1.62,2.33,3.015,4.488,3.986,6.074C419.613,339.788,420.166,340.798,420.11,340.833z"/>
				</g>
			</g>
		</g>
		<g>
			<g>
				<g>
					<path style="fill:#263238;" d="M413.233,307.576c0.074,0.116-4.287,3.051-9.739,6.557c-5.454,3.507-9.934,6.255-10.009,6.139
						c-0.074-0.115,4.286-3.051,9.74-6.557C408.677,310.209,413.158,307.46,413.233,307.576z"/>
				</g>
			</g>
		</g>
		<g>
			<g>
				<g>
					<path style="fill:#263238;" d="M425.529,320.847c-0.096,0.098-3.049-2.631-6.596-6.095c-3.548-3.465-6.345-6.353-6.249-6.451
						c0.096-0.098,3.049,2.63,6.596,6.096C422.827,317.861,425.625,320.749,425.529,320.847z"/>
				</g>
			</g>
		</g>
		<g>
			<g>
				<g>
					<path style="fill:#E8505B;" d="M428.621,320.581l3.744-0.31c2.657-0.22,5.237-1.007,7.56-2.314
						c1.148-0.646,2.302-1.279,3.523-1.77c4.628-1.858,9.792-1.526,14.773-1.776c8.13-0.408,16.174-2.464,23.502-6.01
						c0.423-0.205,0.798-0.517,1.024-0.929c0.769-1.401-0.659-2.648-1.889-3.405c-6.307-3.886-12.727-7.822-19.879-9.751
						c-7.152-1.929-15.271-1.603-21.374,2.597C432.442,301.843,429.832,311.969,428.621,320.581"/>
				</g>
			</g>
			<g>
				<g>
					<g>
						<path style="fill:#263238;" d="M482.832,307.013c-0.008,0.015-0.227-0.087-0.635-0.296c-0.449-0.235-1.039-0.544-1.775-0.929
							c-1.539-0.809-3.754-2.004-6.554-3.346c-2.801-1.328-6.195-2.827-10.145-3.91c-3.933-1.093-8.47-1.665-13.149-1.065
							c-4.659,0.614-8.949,2.427-11.986,5.147c-3.056,2.711-4.923,5.985-6.241,8.767c-1.315,2.806-2.126,5.193-2.716,6.826
							c-0.276,0.783-0.498,1.41-0.666,1.888c-0.156,0.431-0.246,0.654-0.262,0.649c-0.016-0.005,0.042-0.239,0.167-0.68
							c0.146-0.485,0.338-1.123,0.578-1.919c0.535-1.655,1.295-4.064,2.58-6.912c1.289-2.822,3.146-6.166,6.257-8.962
							c3.094-2.807,7.484-4.674,12.225-5.297c4.758-0.611,9.369-0.012,13.335,1.117c3.984,1.119,7.384,2.662,10.176,4.035
							c2.79,1.388,4.982,2.631,6.493,3.493c0.717,0.419,1.292,0.756,1.73,1.011C482.638,306.866,482.84,306.998,482.832,307.013z"/>
					</g>
				</g>
			</g>
			<g>
				<g>
					<g>
						<path style="fill:#263238;" d="M473.841,311.843c-0.077,0.114-4.973-3.053-10.935-7.073
							c-5.964-4.021-10.735-7.372-10.658-7.486c0.077-0.114,4.972,3.053,10.936,7.074
							C469.146,308.377,473.918,311.729,473.841,311.843z"/>
					</g>
				</g>
			</g>
			<g>
				<g>
					<g>
						<path style="fill:#263238;" d="M469.138,296.815c0.026,0.13-1.673,0.572-3.822,0.767c-2.149,0.2-3.9,0.077-3.897-0.056
							c0-0.142,1.73-0.241,3.852-0.439C467.393,296.894,469.112,296.676,469.138,296.815z"/>
					</g>
				</g>
			</g>
			<g>
				<g>
					<g>
						<path style="fill:#263238;" d="M447.186,292.882c0.118,0.07-0.601,1.508-1.606,3.212c-1.005,1.704-1.916,3.029-2.034,2.96
							c-0.118-0.07,0.601-1.508,1.606-3.212C446.157,294.137,447.068,292.812,447.186,292.882z"/>
					</g>
				</g>
			</g>
			<g>
				<g>
					<g>
						<path style="fill:#263238;" d="M451.573,314.727c-0.034,0.056-0.942-0.419-2.356-1.277c-1.414-0.858-3.326-2.116-5.368-3.599
							c-2.042-1.484-3.843-2.886-5.137-3.912c-1.293-1.028-2.074-1.688-2.033-1.743c0.041-0.055,0.897,0.506,2.244,1.462
							c1.469,1.067,3.249,2.361,5.218,3.791c2.036,1.478,3.906,2.775,5.267,3.706C450.768,314.086,451.61,314.666,451.573,314.727z"
							/>
					</g>
				</g>
			</g>
		</g>
		<g>
			<g>
				<g>
					<path style="fill:#E8505B;" d="M434.133,336.486c-3.571-0.943-7.827,2.53-8.563,6.149c-0.736,3.619,0.621,7.32,2.21,10.654
						c3.518,7.38,8.372,14.225,14.766,19.32c6.394,5.095,14.402,8.353,22.577,8.312c-1.509-7.011,0.4-14.336-0.442-21.459
						c-0.735-6.217-3.633-12.157-8.082-16.561c-4.448-4.404-10.417-7.243-16.641-7.916
						C437.68,334.739,435.043,334.381,434.133,336.486"/>
				</g>
			</g>
			<g>
				<g>
					<g>
						<path style="fill:#263238;" d="M465.124,380.921c-0.008,0.015-0.182-0.066-0.508-0.237c-0.322-0.176-0.788-0.459-1.336-0.897
							c-1.121-0.851-2.405-2.491-3.526-4.715c-0.569-1.105-1.206-2.306-1.827-3.634c-0.603-1.333-1.246-2.754-1.921-4.247
							c-0.681-1.488-1.43-3.032-2.361-4.539c-0.926-1.509-2.028-2.984-3.249-4.418c-2.445-2.872-5.068-5.356-7.341-7.729
							c-2.286-2.364-4.208-4.641-5.598-6.716c-1.403-2.067-2.253-3.918-2.735-5.224c-0.23-0.658-0.395-1.173-0.477-1.532
							c-0.09-0.355-0.129-0.544-0.113-0.548c0.046-0.013,0.249,0.729,0.77,2.009c0.534,1.273,1.42,3.076,2.845,5.096
							c1.411,2.027,3.342,4.259,5.636,6.596c2.284,2.348,4.922,4.826,7.392,7.726c1.233,1.449,2.348,2.947,3.285,4.486
							c0.941,1.537,1.689,3.104,2.362,4.604c0.66,1.498,1.288,2.924,1.878,4.263c0.599,1.323,1.218,2.535,1.766,3.646
							c1.075,2.23,2.276,3.845,3.338,4.728C464.448,380.539,465.154,380.873,465.124,380.921z"/>
					</g>
				</g>
			</g>
			<g>
				<g>
					<g>
						<path style="fill:#263238;" d="M446.66,375.094c-0.065-0.013,0.047-0.933,0.328-2.404c0.28-1.47,0.738-3.489,1.357-5.688
							c0.62-2.2,1.283-4.161,1.812-5.561c0.529-1.401,0.913-2.244,0.975-2.221c0.067,0.025-0.201,0.91-0.643,2.335
							c-0.442,1.425-1.048,3.393-1.666,5.582c-0.616,2.189-1.126,4.184-1.492,5.63C446.964,374.213,446.73,375.108,446.66,375.094z"
							/>
					</g>
				</g>
			</g>
			<g>
				<g>
					<g>
						<path style="fill:#263238;" d="M464.448,357.884c-0.022,0.068-0.977-0.176-2.515-0.578c-1.539-0.402-3.663-0.952-6.027-1.485
							c-2.365-0.532-4.52-0.946-6.082-1.242c-1.562-0.296-2.53-0.485-2.52-0.556c0.009-0.065,0.994,0.001,2.576,0.209
							c1.581,0.208,3.758,0.57,6.136,1.104c2.376,0.536,4.498,1.142,6.016,1.632C463.549,357.458,464.467,357.821,464.448,357.884z"
							/>
					</g>
				</g>
			</g>
			<g>
				<g>
					<g>
						<path style="fill:#263238;" d="M433.41,362.884c-0.065-0.013,0.073-1.077,0.386-2.782c0.314-1.704,0.814-4.048,1.481-6.608
							c0.669-2.561,1.379-4.85,1.938-6.49c0.56-1.641,0.96-2.636,1.022-2.615c0.067,0.022-0.214,1.056-0.687,2.72
							c-0.472,1.664-1.126,3.96-1.792,6.511c-0.665,2.551-1.217,4.873-1.618,6.555C433.739,361.858,433.479,362.898,433.41,362.884z
							"/>
					</g>
				</g>
			</g>
			<g>
				<g>
					<g>
						<path style="fill:#263238;" d="M456.256,342.885c-0.014,0.136-4.472-0.224-9.955-0.806c-5.485-0.582-9.918-1.163-9.904-1.3
							c0.014-0.136,4.471,0.224,9.956,0.806C451.836,342.167,456.27,342.749,456.256,342.885z"/>
					</g>
				</g>
			</g>
		</g>
		<g>
			<g>
				<g>
					<path style="fill:#455A64;" d="M452.99,396.942c0,0.137-15.669,0.248-34.994,0.248c-19.331,0-34.998-0.111-34.998-0.248
						c0-0.137,15.666-0.249,34.998-0.249C437.321,396.694,452.99,396.805,452.99,396.942z"/>
				</g>
			</g>
		</g>
		<g>
			<g>
				<g>
					<path style="fill:#455A64;" d="M442.089,417.107c0,0.137-10.558,0.249-23.578,0.249c-13.025,0-23.58-0.111-23.58-0.249
						c0-0.137,10.555-0.248,23.58-0.248C431.531,416.858,442.089,416.97,442.089,417.107z"/>
				</g>
			</g>
		</g>
		<g>
			<g>
				<g>
					<path style="fill:#455A64;" d="M442.5,419.99c0,0.137-10.558,0.249-23.578,0.249c-13.025,0-23.58-0.111-23.58-0.249
						c0-0.137,10.555-0.248,23.58-0.248C431.942,419.742,442.5,419.853,442.5,419.99z"/>
				</g>
			</g>
		</g>
		<g>
			<g>
				<g>
					<path style="fill:#455A64;" d="M442.5,414.73c0,0.137-10.921,0.249-24.388,0.249c-13.473,0-24.391-0.111-24.391-0.249
						c0-0.137,10.918-0.249,24.391-0.249C431.58,414.482,442.5,414.593,442.5,414.73z"/>
				</g>
			</g>
		</g>
	</g>
</g>
</svg>
