<?xml version="1.0" encoding="utf-8"?>
<!-- Generator: Adobe Illustrator 27.5.0, SVG Export Plug-In . SVG Version: 6.00 Build 0)  -->
<svg version="1.1" xmlns="http://www.w3.org/2000/svg" xmlns:xlink="http://www.w3.org/1999/xlink" x="0px" y="0px"
	 viewBox="0 0 3710 3710" style="enable-background:new 0 0 3710 3710;" xml:space="preserve">
<g id="Background">
	<g>
		<g>
			<rect style="fill:#FFFFFF;" width="3710" height="3710"/>
		</g>
	</g>
</g>
<g id="Illustration">
	<g>
		<path style="fill:#F4F7FA;" d="M2967.558,2949.183c-75.645,77.973-143.33,123.808-195.153,158.41
			c-505.41,337.467-1083.149,240.201-1261.771,206.956c-288.186-53.638-531.454-91.476-740.465-280.31
			c-474.936-429.086-451.836-1324.191-88.927-1878.67c43.03-65.745,405.39-602.875,984.38-678.561
			c14.161-1.851,24.727-2.905,33.982-3.885c89.568-9.483,644.606-59.534,1097.183,319.635
			c64.784,54.276,169.041,152.177,265.72,301.491C3416.012,1640.209,3417.132,2485.78,2967.558,2949.183z"/>
		<g>
			
				<linearGradient id="SVGID_1_" gradientUnits="userSpaceOnUse" x1="728.9929" y1="457.2463" x2="676.2988" y2="2815.3816" gradientTransform="matrix(0.9913 0.1319 -0.1319 0.9913 548.0719 199.1372)">
				<stop  offset="0" style="stop-color:#AA80F9"/>
				<stop  offset="0.9964" style="stop-color:#6165D7"/>
			</linearGradient>
			<path style="fill:url(#SVGID_1_);" d="M1354.146,2608.925c118.904-19.04,120.474-618.407,67.049-1036.599
				c-43.877-343.449-136.524-656.124-205.634-652.016c-52.9,3.143-72.561,190.738-118.059,188.077
				c-60.962-3.566-41.074-341.238-153.905-374.89c-69.52-20.734-181.213,76.397-232.978,186.077
				c-93.393,197.882,24.982,401.231,255.986,902.692C1262.63,2464.868,1292.947,2618.725,1354.146,2608.925z"/>
			
				<linearGradient id="SVGID_00000018199107510347843690000015806544631398716850_" gradientUnits="userSpaceOnUse" x1="728.9929" y1="457.2463" x2="676.2988" y2="2815.3816" gradientTransform="matrix(0.9913 0.1319 -0.1319 0.9913 548.0719 199.1372)">
				<stop  offset="0" style="stop-color:#AA80F9"/>
				<stop  offset="0.9964" style="stop-color:#6165D7"/>
			</linearGradient>
			<path style="fill:url(#SVGID_00000018199107510347843690000015806544631398716850_);" d="M1354.146,2608.925
				c118.904-19.04,120.474-618.407,67.049-1036.599c-43.877-343.449-136.524-656.124-205.634-652.016
				c-52.9,3.143-72.561,190.738-118.059,188.077c-60.962-3.566-41.074-341.238-153.905-374.89
				c-69.52-20.734-181.213,76.397-232.978,186.077c-93.393,197.882,24.982,401.231,255.986,902.692
				C1262.63,2464.868,1292.947,2618.725,1354.146,2608.925z"/>
			<path style="opacity:0.3;fill:#FFFFFF;" d="M1342.143,2216.364c12.275-164.336,57.829-254.053,4.685-384.801
				c-46.419-114.208-107.925-111.574-163.518-244.374c-62.963-150.407,0.604-190.41-55.147-309.697
				c-77.408-165.627-229.55-151.843-292.597-298.099c-19.926-46.222-32.405-111.859-11.094-204.961
				c-44.549,35.443-87.166,88.599-113.851,145.142c-93.393,197.882,24.983,401.232,255.986,902.692
				c296.024,642.603,326.341,796.459,387.54,786.659c9.3-1.488,17.881-6.531,25.775-14.754
				C1338.693,2439.238,1334.997,2312.029,1342.143,2216.364z"/>
		</g>
		<g>
			<polygon style="fill:#D8DEE8;" points="1389.226,2868.181 849.551,2686.776 1625.818,2634.976 			"/>
			
				<linearGradient id="SVGID_00000042733278215136404600000000882886162348082103_" gradientUnits="userSpaceOnUse" x1="535.4985" y1="2458.8296" x2="925.549" y2="2259.2686">
				<stop  offset="0" style="stop-color:#FF9085"/>
				<stop  offset="1" style="stop-color:#FB6FBB"/>
			</linearGradient>
			<path style="fill:url(#SVGID_00000042733278215136404600000000882886162348082103_);" d="M1067.437,1288.268L857.313,2636.251
				c-3.994,25.996,14.552,49.471,38.201,48.355l1051.671-49.631L1067.437,1288.268z"/>
			<g>
				
					<linearGradient id="SVGID_00000008126563378533706360000004170734683838277765_" gradientUnits="userSpaceOnUse" x1="1442.1034" y1="2850.3894" x2="779.4675" y2="1681.5747" gradientTransform="matrix(0.9757 -0.2189 0.2189 0.9757 -1077.4481 -50.0154)">
					<stop  offset="0.0036" style="stop-color:#E38DDD"/>
					<stop  offset="1" style="stop-color:#9571F6"/>
				</linearGradient>
				<path style="fill:url(#SVGID_00000008126563378533706360000004170734683838277765_);" d="M1508.635,2776.073
					c-128.721-317.641-283.643-546.535-401.419-696.133c-264.988-336.585-404.276-350.938-465.998-348.317
					c-82.257,3.494-190.371,44.089-211.574,116.771c-39.67,135.984,242.43,324.144,206.716,374.904
					c-18.481,26.268-96.808-20.165-132.065,13.907c-48.215,46.595,28.443,200.907,49.353,238.179
					C715.265,2763.471,1314.944,2777.005,1508.635,2776.073z"/>
				<path style="opacity:0.5;fill:#FFFFFF;" d="M1235.307,2528.284c-129.284-84.493-170.128-77.562-237.381-154.241
					c-124.018-141.398-66.978-258.287-184.622-349.992c-83.875-65.381-138.012-25.563-257.227-95.557
					c-48.522-28.49-87.504-63.246-118.769-98.699c-3.178,5.947-5.779,12.139-7.663,18.599
					c-39.67,135.984,242.43,324.144,206.716,374.904c-18.481,26.268-96.808-20.165-132.066,13.907
					c-48.215,46.595,28.443,200.907,49.353,238.179c161.618,288.087,761.297,301.621,954.988,300.689
					c-2.348-5.794-4.722-11.493-7.086-17.228C1401.296,2647.024,1306.593,2574.872,1235.307,2528.284z"/>
			</g>
			<g>
				
					<linearGradient id="SVGID_00000005244758219161293220000013566251722421640890_" gradientUnits="userSpaceOnUse" x1="1066.7472" y1="2071.2549" x2="3306.9084" y2="2071.2549">
					<stop  offset="0.0036" style="stop-color:#EBEFF2"/>
					<stop  offset="1" style="stop-color:#FFFFFF"/>
				</linearGradient>
				<path style="fill:url(#SVGID_00000005244758219161293220000013566251722421640890_);" d="M2991.04,1316.362l-1883.217-58.246
					c-27.465-0.85-45.474,20.182-40.139,46.976l305.475,1534.206c5.335,26.795,31.542,46.935,58.451,44.991l1845.072-133.333
					c20.875-1.508,33.957-21.78,29.278-45.28l-267.916-1345.572C3033.365,1336.605,3012.346,1317.021,2991.04,1316.362z"/>
				
					<linearGradient id="SVGID_00000075883096976377622660000009302605608406214563_" gradientUnits="userSpaceOnUse" x1="2534.7632" y1="1476.3002" x2="3827.6172" y2="3858.3433" gradientTransform="matrix(1 0 0.2218 1 -1122.9679 1.000000e-04)">
					<stop  offset="0" style="stop-color:#FF9085"/>
					<stop  offset="1" style="stop-color:#FB6FBB"/>
				</linearGradient>
				<path style="fill:url(#SVGID_00000075883096976377622660000009302605608406214563_);" d="M3001.203,1316.362l-1883.217-58.246
					c-27.465-0.85-45.474,20.182-40.139,46.976l305.475,1534.206c5.335,26.795,31.542,46.935,58.451,44.991l1845.072-133.333
					c20.875-1.508,33.957-21.78,29.278-45.28l-267.917-1345.572C3043.528,1336.605,3022.51,1317.021,3001.203,1316.362z"/>
				<g style="opacity:0.3;">
					
						<linearGradient id="SVGID_00000001658566496065797190000002515913061380774317_" gradientUnits="userSpaceOnUse" x1="2141.167" y1="1698.0856" x2="3453.675" y2="4116.3403" gradientTransform="matrix(1 0 0.2218 1 -1122.9679 1.000000e-04)">
						<stop  offset="0" style="stop-color:#FF9085"/>
						<stop  offset="1" style="stop-color:#FB6FBB"/>
					</linearGradient>
					<path style="fill:url(#SVGID_00000001658566496065797190000002515913061380774317_);" d="M2509.736,2129.302
						c-370.667-201.4-721.927-44.841-974.839-303.173c-155.733-159.07-184.322-384.296-179.651-560.676l-237.261-7.338
						c-27.465-0.849-45.474,20.182-40.139,46.978l305.475,1534.206c5.335,26.793,31.542,46.935,58.451,44.99l1600.888-115.687
						C2867.682,2388.791,2670.406,2216.603,2509.736,2129.302z"/>
				</g>
				<path style="fill:#D8DEE8;" d="M3223.829,2699.857l-1747.798,119.295c-29.04,1.982-57.338-19.901-63.109-48.884
					l-272.137-1366.77c-5.771-28.983,13.613-51.873,43.195-51.13l1780.462,44.755c23.253,0.584,46.177,21.792,51.27,47.371
					l240.172,1206.231C3260.977,2676.305,3246.656,2698.299,3223.829,2699.857z"/>
				
					<linearGradient id="SVGID_00000090269302305403273430000014007628740508491393_" gradientUnits="userSpaceOnUse" x1="2750.7563" y1="2962.6418" x2="3012.6206" y2="1077.2278" gradientTransform="matrix(1 0 0.2218 1 -1122.9679 1.000000e-04)">
					<stop  offset="0.0036" style="stop-color:#EBEFF2"/>
					<stop  offset="1" style="stop-color:#FFFFFF"/>
				</linearGradient>
				<path style="fill:url(#SVGID_00000090269302305403273430000014007628740508491393_);" d="M3231.667,2699.323l-1745.7,119.152
					c-29.002,1.979-57.268-19.891-63.035-48.855l-271.964-1365.898c-5.767-28.964,13.589-51.84,43.134-51.098l1778.325,44.701
					c23.227,0.584,46.127,21.779,51.217,47.343l240.037,1205.552C3268.771,2675.785,3254.468,2697.766,3231.667,2699.323z"/>
				<g>
					<path style="fill:#D8DEE8;" d="M2079.992,1845.503l-190.557,1.179c-5.716,0.035-11.297-4.68-12.462-10.533l-31.521-158.312
						c-1.166-5.853,2.537-10.571,8.267-10.539l191.004,1.067c5.583,0.031,11.036,4.735,12.186,10.507l31.084,156.118
						C2089.141,1840.762,2085.561,1845.468,2079.992,1845.503z M1895.559,1825.453l170.171-0.816l-26.959-135.399l-170.476-0.716
						L1895.559,1825.453z"/>
					<path style="fill:#D8DEE8;" d="M2320.8,1844.013l-184.46,1.142c-5.531,0.034-10.948-4.605-12.094-10.363l-31.01-155.741
						c-1.147-5.758,2.422-10.4,7.967-10.369l184.893,1.033c5.405,0.03,10.7,4.658,11.831,10.337l30.586,153.617
						C2329.644,1839.349,2326.192,1843.979,2320.8,1844.013z M2142.199,1824.271l164.727-0.79l-26.527-133.227l-165.022-0.693
						L2142.199,1824.271z"/>
					<path style="fill:#D8DEE8;" d="M2554.009,1842.57l-178.651,1.105c-5.357,0.033-10.616-4.532-11.744-10.198l-30.514-153.252
						c-1.128-5.666,2.313-10.234,7.682-10.204l179.07,1.001c5.236,0.029,10.379,4.584,11.493,10.173l30.104,151.195
						C2562.561,1837.98,2559.232,1842.537,2554.009,1842.57z M2380.967,1823.126l159.539-0.766l-26.108-131.125l-159.825-0.671
						L2380.967,1823.126z"/>
					<path style="fill:#D8DEE8;" d="M2779.974,1841.171l-173.112,1.071c-5.189,0.032-10.299-4.462-11.409-10.038l-30.034-150.842
						c-1.11-5.576,2.208-10.073,7.41-10.044l173.518,0.97c5.074,0.029,10.073,4.512,11.169,10.015l29.637,148.849
						C2788.249,1836.653,2785.036,1841.14,2779.974,1841.171z M2612.233,1822.017l154.592-0.741l-25.702-129.087l-154.87-0.651
						L2612.233,1822.017z"/>
					<path style="fill:#D8DEE8;" d="M2999.027,1839.815l-167.826,1.039c-5.03,0.031-9.996-4.394-11.089-9.884l-29.569-148.506
						c-1.093-5.49,2.11-9.918,7.152-9.89l168.22,0.94c4.92,0.028,9.781,4.442,10.86,9.861l29.184,146.574
						C3007.038,1835.368,3003.936,1839.785,2999.027,1839.815z M2836.346,1820.942l149.872-0.719l-25.309-127.111l-150.141-0.631
						L2836.346,1820.942z"/>
					<path style="fill:#D8DEE8;" d="M1617.012,2064.413l-203.132,4.091c-6.096,0.123-12.017-4.684-13.222-10.736l-32.598-163.717
						c-1.205-6.053,2.774-11,8.885-11.051l203.61-1.689c5.948-0.049,11.729,4.746,12.917,10.712l32.131,161.372
						C1626.791,2059.36,1622.947,2064.293,1617.012,2064.413z M1420.547,2046.395l181.401-3.399l-27.868-139.963l-181.728,1.761
						L1420.547,2046.395z"/>
					<path style="fill:#D8DEE8;" d="M1873.462,2059.248l-196.416,3.956c-5.893,0.119-11.634-4.609-12.818-10.56l-32.051-160.969
						c-1.185-5.951,2.646-10.815,8.553-10.864l196.879-1.634c5.753-0.048,11.36,4.669,12.528,10.537l31.599,158.701
						C1882.903,2054.283,1879.201,2059.132,1873.462,2059.248z M1683.419,2041.469l175.404-3.287l-27.406-137.643l-175.719,1.703
						L1683.419,2041.469z"/>
					<path style="fill:#D8DEE8;" d="M2121.556,2054.252l-190.03,3.827c-5.7,0.115-11.268-4.536-12.434-10.389l-31.521-158.312
						c-1.165-5.852,2.524-10.635,8.238-10.682l190.477-1.58c5.567-0.046,11.009,4.595,12.157,10.367l31.085,156.118
						C2130.677,2049.371,2127.11,2054.14,2121.556,2054.252z M1937.622,2036.706l169.701-3.18l-26.96-135.399l-170.005,1.648
						L1937.622,2036.706z"/>
					<path style="fill:#D8DEE8;" d="M2361.697,2049.415l-183.95,3.705c-5.516,0.111-10.92-4.466-12.067-10.224l-31.01-155.741
						c-1.147-5.758,2.409-10.462,7.939-10.508l184.383-1.53c5.39-0.045,10.673,4.523,11.803,10.202l30.587,153.617
						C2370.514,2044.616,2367.075,2049.307,2361.697,2049.415z M2183.58,2032.097l164.271-3.078l-26.527-133.228l-164.567,1.595
						L2183.58,2032.097z"/>
					<path style="fill:#D8DEE8;" d="M2594.261,2044.731l-178.156,3.588c-5.341,0.108-10.589-4.398-11.717-10.063l-30.514-153.252
						c-1.128-5.666,2.301-10.294,7.655-10.339l178.576-1.482c5.221-0.043,10.354,4.453,11.466,10.042l30.105,151.195
						C2602.788,2040.011,2599.47,2044.626,2594.261,2044.731z M2421.687,2027.635l159.097-2.981l-26.108-131.125l-159.384,1.545
						L2421.687,2027.635z"/>
					<path style="fill:#D8DEE8;" d="M2819.601,2040.193l-172.633,3.477c-5.175,0.104-10.273-4.332-11.383-9.908l-30.034-150.842
						c-1.11-5.576,2.198-10.132,7.385-10.175l173.039-1.436c5.06-0.042,10.048,4.384,11.144,9.887l29.637,148.849
						C2827.851,2035.549,2824.649,2040.091,2819.601,2040.193z M2652.313,2023.314l154.165-2.889l-25.702-129.087l-154.442,1.497
						L2652.313,2023.314z"/>
					<path style="fill:#D8DEE8;" d="M3038.048,2035.794l-167.362,3.37c-5.016,0.101-9.971-4.267-11.064-9.757l-29.569-148.506
						c-1.093-5.49,2.099-9.974,7.127-10.016l167.756-1.391c4.907-0.041,9.757,4.319,10.835,9.737l29.184,146.573
						C3046.035,2031.223,3042.944,2035.695,3038.048,2035.794z M2875.806,2019.126l149.458-2.8l-25.309-127.111l-149.727,1.451
						L2875.806,2019.126z"/>
					<path style="fill:#D8DEE8;" d="M1659.976,2280.191l-202.569,6.921c-6.079,0.208-11.987-4.53-13.192-10.583l-32.598-163.717
						c-1.205-6.052,2.76-11.069,8.854-11.205l203.047-4.52c5.932-0.132,11.7,4.597,12.888,10.563l32.131,161.372
						C1669.725,2274.989,1665.894,2279.989,1659.976,2280.191z M1464.044,2264.85l180.898-5.926l-27.868-139.963l-181.224,4.288
						L1464.044,2264.85z"/>
					<path style="fill:#D8DEE8;" d="M1915.714,2271.453l-195.871,6.693c-5.877,0.2-11.604-4.461-12.789-10.411l-32.051-160.969
						c-1.185-5.951,2.633-10.881,8.523-11.012l196.334-4.37c5.737-0.128,11.331,4.525,12.499,10.392l31.599,158.701
						C1925.126,2266.344,1921.437,2271.257,1915.714,2271.453z M1726.186,2256.263l174.917-5.73l-27.406-137.644l-175.233,4.147
						L1726.186,2256.263z"/>
					<path style="fill:#D8DEE8;" d="M2163.119,2263l-189.502,6.475c-5.684,0.194-11.239-4.392-12.405-10.245l-31.521-158.312
						c-1.165-5.853,2.512-10.7,8.209-10.826l189.949-4.228c5.552-0.123,10.981,4.455,12.13,10.227l31.085,156.118
						C2172.213,2257.979,2168.658,2262.811,2163.119,2263z M1979.684,2247.958l169.229-5.544l-26.959-135.399l-169.535,4.011
						L1979.684,2247.958z"/>
					<path style="fill:#D8DEE8;" d="M2402.595,2254.817l-183.439,6.268c-5.501,0.188-10.893-4.327-12.039-10.084l-31.01-155.741
						c-1.146-5.758,2.397-10.524,7.912-10.647l183.873-4.093c5.375-0.12,10.646,4.387,11.777,10.066l30.587,153.617
						C2411.385,2249.882,2407.958,2254.634,2402.595,2254.817z M2224.96,2239.924l163.815-5.367l-26.527-133.227l-164.111,3.883
						L2224.96,2239.924z"/>
					<path style="fill:#D8DEE8;" d="M2634.513,2246.893l-177.662,6.07c-5.327,0.182-10.563-4.263-11.69-9.929l-30.514-153.252
						c-1.128-5.665,2.289-10.355,7.628-10.474l178.082-3.964c5.207-0.116,10.327,4.321,11.44,9.911l30.104,151.195
						C2643.014,2242.041,2639.708,2246.716,2634.513,2246.893z M2462.406,2232.145l158.656-5.198l-26.108-131.125l-158.943,3.761
						L2462.406,2232.145z"/>
					<path style="fill:#D8DEE8;" d="M2859.228,2239.215l-172.154,5.882c-5.161,0.176-10.247-4.201-11.357-9.778l-30.034-150.842
						c-1.11-5.576,2.186-10.19,7.358-10.305l172.56-3.841c5.046-0.112,10.023,4.257,11.119,9.76l29.637,148.848
						C2867.453,2234.443,2864.263,2239.043,2859.228,2239.215z M2692.393,2224.611l153.737-5.036l-25.702-129.086l-154.014,3.644
						L2692.393,2224.611z"/>
					<path style="fill:#D8DEE8;" d="M3077.069,2231.772l-166.897,5.702c-5.002,0.171-9.946-4.141-11.039-9.631l-29.569-148.506
						c-1.093-5.49,2.088-10.031,7.102-10.143l167.291-3.724c4.893-0.109,9.732,4.195,10.811,9.614l29.184,146.573
						C3085.031,2227.078,3081.951,2231.605,3077.069,2231.772z M2915.266,2217.31l149.043-4.882l-25.309-127.111l-149.312,3.533
						L2915.266,2217.31z"/>
					<path style="fill:#D8DEE8;" d="M1702.939,2495.969l-202.005,9.752c-6.062,0.293-11.956-4.376-13.161-10.428l-32.598-163.717
						c-1.205-6.052,2.747-11.138,8.823-11.358l202.483-7.35c5.915-0.215,11.67,4.447,12.858,10.413l32.131,161.372
						C1712.659,2490.618,1708.841,2495.685,1702.939,2495.969z M1507.54,2483.306l180.395-8.453l-27.868-139.963l-180.721,6.815
						L1507.54,2483.306z"/>
					<path style="fill:#D8DEE8;" d="M1957.966,2483.658l-195.327,9.429c-5.86,0.283-11.574-4.312-12.759-10.263l-32.051-160.969
						c-1.185-5.951,2.62-10.948,8.494-11.161l195.789-7.107c5.721-0.208,11.303,4.38,12.471,10.247l31.599,158.701
						C1967.35,2478.404,1963.673,2483.383,1957.966,2483.658z M1768.954,2471.056l174.431-8.173l-27.406-137.643l-174.746,6.59
						L1768.954,2471.056z"/>
					<path style="fill:#D8DEE8;" d="M2204.684,2471.748l-188.975,9.123c-5.668,0.273-11.211-4.249-12.376-10.101l-31.522-158.313
						c-1.165-5.852,2.499-10.764,8.181-10.97l189.422-6.875c5.536-0.201,10.952,4.314,12.102,10.086l31.085,156.118
						C2213.749,2466.587,2210.207,2471.482,2204.684,2471.748z M2021.747,2459.211l168.759-7.907l-26.959-135.399l-169.064,6.375
						L2021.747,2459.211z"/>
					<path style="fill:#D8DEE8;" d="M2443.493,2460.22l-182.929,8.831c-5.486,0.265-10.865-4.188-12.011-9.946l-31.01-155.741
						c-1.146-5.758,2.385-10.587,7.884-10.786l183.362-6.656c5.36-0.195,10.619,4.251,11.75,9.93l30.587,153.617
						C2452.255,2455.149,2448.84,2459.962,2443.493,2460.22z M2266.34,2447.75l163.36-7.655l-26.527-133.228l-163.655,6.172
						L2266.34,2447.75z"/>
					<path style="fill:#D8DEE8;" d="M2674.766,2449.055l-177.168,8.553c-5.312,0.257-10.535-4.128-11.663-9.793l-30.514-153.252
						c-1.128-5.666,2.277-10.415,7.602-10.608l177.587-6.447c5.193-0.188,10.301,4.19,11.414,9.78l30.104,151.195
						C2683.24,2444.072,2679.946,2448.805,2674.766,2449.055z M2503.126,2436.655l158.215-7.414l-26.108-131.125l-158.501,5.977
						L2503.126,2436.655z"/>
					<path style="fill:#D8DEE8;" d="M2898.855,2438.238l-171.674,8.287c-5.147,0.249-10.221-4.071-11.331-9.646l-30.034-150.842
						c-1.11-5.576,2.174-10.248,7.333-10.436l172.081-6.247c5.032-0.182,9.997,4.13,11.093,9.633l29.637,148.848
						C2907.055,2433.338,2903.876,2437.995,2898.855,2438.238z M2732.474,2425.908l153.31-7.183l-25.702-129.087l-153.587,5.792
						L2732.474,2425.908z"/>
					<path style="fill:#D8DEE8;" d="M3116.091,2427.751l-166.433,8.034c-4.989,0.241-9.921-4.014-11.014-9.505l-29.569-148.506
						c-1.093-5.49,2.076-10.087,7.076-10.269l166.827-6.055c4.88-0.177,9.707,4.072,10.786,9.49l29.184,146.574
						C3124.028,2422.933,3120.959,2427.516,3116.091,2427.751z M2954.727,2415.494l148.629-6.964l-25.309-127.112l-148.897,5.615
						L2954.727,2415.494z"/>
					<path style="fill:#D8DEE8;" d="M1745.903,2711.748l-201.441,12.582c-6.045,0.378-11.926-4.222-13.131-10.275l-32.598-163.717
						c-1.205-6.052,2.733-11.207,8.793-11.512l201.919-10.18c5.899-0.297,11.64,4.298,12.828,10.263l32.131,161.372
						C1755.592,2706.247,1751.788,2711.381,1745.903,2711.748z M1551.037,2701.761l179.892-10.98l-27.868-139.963l-180.218,9.342
						L1551.037,2701.761z"/>
					<path style="fill:#D8DEE8;" d="M2000.218,2695.864l-194.781,12.166c-5.844,0.365-11.545-4.163-12.73-10.114l-32.05-160.969
						c-1.185-5.951,2.606-11.014,8.464-11.31l195.244-9.844c5.705-0.288,11.274,4.235,12.442,10.103l31.599,158.701
						C2009.573,2690.465,2005.91,2695.508,2000.218,2695.864z M1811.721,2685.85l173.944-10.617l-27.406-137.643l-174.26,9.033
						L1811.721,2685.85z"/>
					<path style="fill:#D8DEE8;" d="M2246.247,2680.497l-188.448,11.771c-5.653,0.353-11.182-4.105-12.348-9.958l-31.521-158.312
						c-1.166-5.853,2.486-10.829,8.152-11.114l188.895-9.524c5.521-0.278,10.925,4.175,12.074,9.946l31.084,156.117
						C2255.285,2675.196,2251.755,2680.153,2246.247,2680.497z M2063.809,2670.464l168.289-10.271l-26.959-135.4l-168.593,8.74
						L2063.809,2670.464z"/>
					<path style="fill:#D8DEE8;" d="M2484.39,2665.622l-182.419,11.394c-5.47,0.342-10.837-4.048-11.984-9.806l-31.01-155.741
						c-1.146-5.758,2.373-10.649,7.856-10.926l182.852-9.219c5.345-0.269,10.592,4.116,11.723,9.795l30.587,153.617
						C2493.126,2660.416,2489.723,2665.289,2484.39,2665.622z M2307.72,2655.576l162.904-9.943l-26.527-133.228l-163.2,8.459
						L2307.72,2655.576z"/>
					
						<linearGradient id="SVGID_00000047743122303214279040000002975439407036569993_" gradientUnits="userSpaceOnUse" x1="2168.3286" y1="1446.3381" x2="2239.8066" y2="2439.0859" gradientTransform="matrix(1 0 0.2218 1 -1122.9679 1.000000e-04)">
						<stop  offset="0.0036" style="stop-color:#E38DDD"/>
						<stop  offset="1" style="stop-color:#9571F6"/>
					</linearGradient>
					<polygon style="fill:url(#SVGID_00000047743122303214279040000002975439407036569993_);" points="1523.965,1639.009 
						1316.978,1637.501 1308.15,1593.161 1515.253,1595.25 					"/>
					
						<linearGradient id="SVGID_00000177458227079457291030000002801237810255915928_" gradientUnits="userSpaceOnUse" x1="2431.4741" y1="1433.3561" x2="2501.4194" y2="2404.8179" gradientTransform="matrix(1 0 0.2218 1 -1122.9679 1.000000e-04)">
						<stop  offset="0.0036" style="stop-color:#E38DDD"/>
						<stop  offset="1" style="stop-color:#9571F6"/>
					</linearGradient>
					<polygon style="fill:url(#SVGID_00000177458227079457291030000002801237810255915928_);" points="1785.183,1640.913 
						1585.124,1639.455 1576.445,1595.868 1776.616,1597.887 					"/>
					
						<linearGradient id="SVGID_00000057114910311452309770000010739410909794145696_" gradientUnits="userSpaceOnUse" x1="2685.894" y1="1420.9465" x2="2754.3689" y2="2371.981" gradientTransform="matrix(1 0 0.2218 1 -1122.9679 1.000000e-04)">
						<stop  offset="0.0036" style="stop-color:#E38DDD"/>
						<stop  offset="1" style="stop-color:#9571F6"/>
					</linearGradient>
					<polygon style="fill:url(#SVGID_00000057114910311452309770000010739410909794145696_);" points="2037.786,1642.753 
						1844.311,1641.344 1835.778,1598.484 2029.36,1600.437 					"/>
					
						<linearGradient id="SVGID_00000040535860501456142690000010687805779113567656_" gradientUnits="userSpaceOnUse" x1="2932.0161" y1="1409.0751" x2="2999.0781" y2="2340.488" gradientTransform="matrix(1 0 0.2218 1 -1122.9679 1.000000e-04)">
						<stop  offset="0.0036" style="stop-color:#E38DDD"/>
						<stop  offset="1" style="stop-color:#9571F6"/>
					</linearGradient>
					<polygon style="fill:url(#SVGID_00000040535860501456142690000010687805779113567656_);" points="2282.192,1644.534 
						2094.983,1643.17 2086.59,1601.015 2273.903,1602.905 					"/>
					
						<linearGradient id="SVGID_00000114796196870687880130000013555263990337137294_" gradientUnits="userSpaceOnUse" x1="3170.2395" y1="1397.7118" x2="3235.9429" y2="2310.2559" gradientTransform="matrix(1 0 0.2218 1 -1122.9679 1.000000e-04)">
						<stop  offset="0.0036" style="stop-color:#E38DDD"/>
						<stop  offset="1" style="stop-color:#9571F6"/>
					</linearGradient>
					<polygon style="fill:url(#SVGID_00000114796196870687880130000013555263990337137294_);" points="2518.795,1646.258 
						2337.552,1644.937 2329.294,1603.464 2510.638,1605.293 					"/>
					
						<linearGradient id="SVGID_00000165200635698190202000000017493722338614322820_" gradientUnits="userSpaceOnUse" x1="3400.9385" y1="1386.8235" x2="3465.3352" y2="2281.2217" gradientTransform="matrix(1 0 0.2218 1 -1122.9679 1.000000e-04)">
						<stop  offset="0.0036" style="stop-color:#E38DDD"/>
						<stop  offset="1" style="stop-color:#9571F6"/>
					</linearGradient>
					<polygon style="fill:url(#SVGID_00000165200635698190202000000017493722338614322820_);" points="2747.962,1647.928 
						2572.405,1646.649 2564.279,1605.834 2739.934,1607.606 					"/>
					
						<linearGradient id="SVGID_00000176728575756741101490000012378024792449908627_" gradientUnits="userSpaceOnUse" x1="3624.4641" y1="1376.3821" x2="3687.6038" y2="2253.3193" gradientTransform="matrix(1 0 0.2218 1 -1122.9679 1.000000e-04)">
						<stop  offset="0.0036" style="stop-color:#E38DDD"/>
						<stop  offset="1" style="stop-color:#9571F6"/>
					</linearGradient>
					<polygon style="fill:url(#SVGID_00000176728575756741101490000012378024792449908627_);" points="2970.039,1649.546 
						2799.904,1648.306 2791.905,1608.131 2962.135,1609.849 					"/>
				</g>
				<polygon style="fill:#D8DEE8;" points="2951.393,1555.9 1296.152,1532.902 1279.465,1449.094 2936.454,1480.869 				"/>
				<g style="opacity:0.3;">
					<path style="fill:#D8DEE8;" d="M2509.736,2129.302c-370.667-201.4-721.927-44.841-974.839-303.173
						c-129.7-132.48-171.284-311.301-178.786-469.433l-163.03-4.098c-28.983-0.729-47.97,21.709-42.314,50.12l272.363,1367.902
						c5.657,28.411,33.383,49.864,61.835,47.922l1531.699-104.546C2848.418,2372.102,2662.515,2212.315,2509.736,2129.302z"/>
				</g>
			</g>
			
				<linearGradient id="SVGID_00000091005283205574411300000008591370958086881962_" gradientUnits="userSpaceOnUse" x1="2962.5552" y1="1565.5824" x2="3154.9419" y2="1565.5824" gradientTransform="matrix(0.9895 0.1446 -0.1446 0.9895 -582.9212 -318.8634)">
				<stop  offset="0" style="stop-color:#FF9085"/>
				<stop  offset="1" style="stop-color:#FB6FBB"/>
			</linearGradient>
			<path style="fill:url(#SVGID_00000091005283205574411300000008591370958086881962_);" d="M2320.359,1566.776
				c-4.282-9.76-18.859-16.144-27.845-7.805c-25.739,23.887-30.896,63.543-44.102,95.342
				c-10.083,24.271-21.302,48.031-32.175,71.945c-23.227-33.056-43.089-68.603-67.06-101.15
				c-8.317-11.296-28.141-0.959-21.864,12.288c24.81,52.34,41.297,106.743,74.316,155.158c11.57,16.967,36.545,11.731,44.839-5.089
				c19.148-38.838,38.677-77.542,55.299-117.557C2314.736,1638.696,2334.93,1599.981,2320.359,1566.776z"/>
		</g>
		<g>
			<g>
				
					<linearGradient id="SVGID_00000069381357822330703350000004131062170702616479_" gradientUnits="userSpaceOnUse" x1="1950.9277" y1="1548.6406" x2="2891.3291" y2="2731.7856">
					<stop  offset="0" style="stop-color:#893976"/>
					<stop  offset="1" style="stop-color:#311944"/>
				</linearGradient>
				<path style="fill:url(#SVGID_00000069381357822330703350000004131062170702616479_);" d="M2210.454,1863.314l-17.04-15.056
					c-3.301-2.917-5.109-7.148-4.946-11.551c0.238-6.41-0.132-15.796-3.738-20.722c-5.81-7.936-27.641-1.474-28.623,0
					c-4.294,6.447-5.828,17.579,7.109,21.695c12.938,4.115,16.257,10.938,16.257,10.938l20.468,28.914L2210.454,1863.314z"/>
				
					<linearGradient id="SVGID_00000103955399463113001360000008465325416539929783_" gradientUnits="userSpaceOnUse" x1="1825.3528" y1="1892.0223" x2="2431.6455" y2="2654.8159">
					<stop  offset="0" style="stop-color:#893976"/>
					<stop  offset="1" style="stop-color:#311944"/>
				</linearGradient>
				<path style="fill:url(#SVGID_00000103955399463113001360000008465325416539929783_);" d="M1966.374,2110.926l19.203-8.1
					c0,0,14.404-5.73,14.404-16.679c0-15.693-12.53-38.36-22.798-36.147c-10.268,2.213-10.821,20.406-1.97,30.395
					c8.852,9.99-11.896,19.464-11.896,19.464L1966.374,2110.926z"/>
				
					<linearGradient id="SVGID_00000063616175657569388200000013987582312550700434_" gradientUnits="userSpaceOnUse" x1="2056.1494" y1="3183.3511" x2="2089.127" y2="3212.6846" gradientTransform="matrix(1 0 0 1 64.2785 0)">
					<stop  offset="0" style="stop-color:#444B8C"/>
					<stop  offset="0.9964" style="stop-color:#26264F"/>
				</linearGradient>
				<path style="fill:url(#SVGID_00000063616175657569388200000013987582312550700434_);" d="M2127.52,3199.422
					c1.652-4.987,18.838-7.283,26.054,0.73c3.582,3.978,5.407,11.275,2.614,14.058c-1.016,1.014,2.206,3.503-1.157,3.068
					C2143.878,3215.833,2125.877,3204.377,2127.52,3199.422z"/>
				
					<linearGradient id="SVGID_00000109006667332608839130000002347736306331019921_" gradientUnits="userSpaceOnUse" x1="1162.6052" y1="3212.7429" x2="1162.6052" y2="3155.293" gradientTransform="matrix(1 0 0 1 989.5887 0)">
					<stop  offset="0" style="stop-color:#FFC444"/>
					<stop  offset="0.9964" style="stop-color:#F36F56"/>
				</linearGradient>
				<path style="fill:url(#SVGID_00000109006667332608839130000002347736306331019921_);" d="M2144.583,3203.734h17.34
					c-6.536-10.597-0.809-40.588-0.809-40.588l-18.65,1.48c0,0,0.888,8.58,2.664,21.302
					C2145.736,3190.283,2145.347,3196.91,2144.583,3203.734z"/>
				
					<linearGradient id="SVGID_00000066475992404449928850000015050235104448116125_" gradientUnits="userSpaceOnUse" x1="174.535" y1="3243.0518" x2="-40.504" y2="2374.834" gradientTransform="matrix(-1 0 0 1 2340.0256 0)">
					<stop  offset="0" style="stop-color:#444B8C"/>
					<stop  offset="0.9964" style="stop-color:#26264F"/>
				</linearGradient>
				<path style="fill:url(#SVGID_00000066475992404449928850000015050235104448116125_);" d="M2099.644,2547.993
					c-8.033,26.526-19.505,69.34-26.888,123.055c-21.063,153.211,23.704,158.099,15.344,327.877
					c-2.668,54.194,46.95,179.16,51.323,181.919c2.117,0.205,4.414,0.343,6.862,0.268c4.316-0.129,10.401-0.791,17.477-2.913
					c7.859-1.354,36.198-78.111,29.629-123.747c-7.914-54.982,1.808-93.168-0.605-136.292
					c-5.777-103.24-0.358-212.297,6.841-212.705c4.555-0.258,12.093,42.861,20.014,88.169c9.094,52.02,10.563,75.796,29.837,98.476
					c13.017,15.317,28.581,23.574,39.399,28.096c131.355,54.908,113.072,55.298,141.718,78.973
					c4.745,3.922,17.599,14.956,26.64,10.954c6.06-2.683,7.843-10.988,8.597-14.735c5.994-29.799-12.452-91.915-61.201-115.219
					c-17.462-8.348-22.338-3.935-39.198-14.342c-20.948-12.929-35.906-34.029-42.341-53.595
					c-11.324-34.439,6.458-55.939,16.218-101.659c1.873-8.775-0.953-87.177-9.408-138.946
					C2318.851,2503.97,2099.644,2547.993,2099.644,2547.993z"/>
				
					<linearGradient id="SVGID_00000066511181287762119510000003092774011309030844_" gradientUnits="userSpaceOnUse" x1="2059.4653" y1="3179.625" x2="2092.4421" y2="3208.958" gradientTransform="matrix(1 0 0 1 64.2785 0)">
					<stop  offset="0" style="stop-color:#444B8C"/>
					<stop  offset="0.9964" style="stop-color:#26264F"/>
				</linearGradient>
				<path style="fill:url(#SVGID_00000066511181287762119510000003092774011309030844_);" d="M2143.371,3201.427
					c0,0,21.134-1.822,22.774,2.551c1.64,4.372,1.822,15.486-11.114,13.3C2142.095,3215.091,2141.731,3204.707,2143.371,3201.427z"
					/>
				
					<linearGradient id="SVGID_00000145744870860493383600000011753892166412533389_" gradientUnits="userSpaceOnUse" x1="1931.2246" y1="2699.7783" x2="2745.9421" y2="1376.3073">
					<stop  offset="0" style="stop-color:#FFC444"/>
					<stop  offset="0.9964" style="stop-color:#F36F56"/>
				</linearGradient>
				<path style="fill:url(#SVGID_00000145744870860493383600000011753892166412533389_);" d="M1970.417,2093.608
					c1.833,5.788,3.667,11.575,5.5,17.363c-13.261,10.158-49.745,40.472-45.372,72.99c6.321,46.999,93.917,68.31,149.397,68.198
					c15.208-0.03,113.984-0.23,160.376-71.102c40.752-62.257,15.511-139.984-5.308-204.095
					c-16.096-49.569-38.329-86.832-54.387-110.279c9.192-7.807,18.384-15.613,27.577-23.42
					c33.333,20.19,95.545,64.68,135.721,144.573c37.039,73.653,39.166,145.216,38.771,172.406
					c-0.489,33.68-5.481,42.933-6.316,91.66c-0.771,44.967,2.865,72.967,8.408,125.275c19.477,183.799,14.707,216.719,0.443,249.435
					c-12.02,27.566-22.373,51.313-47.549,65.582c-50.353,28.537-92.51-19.083-202.257-10.315
					c-38.167,3.049-51.7,10.296-67.369-0.683c-9.216-6.458-26.161-24.12-20.653-138.672c4.706-97.866,18.943-123.85-1.475-151.949
					c-17.902-24.639-36.302-14.92-91.464-42.781c-36.08-18.223-114.05-57.607-120.969-122.444
					c-5.009-46.951,29.727-83.941,35.406-89.989C1908.717,2092.956,1961.859,2093.396,1970.417,2093.608z"/>
				<g>
					
						<linearGradient id="SVGID_00000125602607094136053590000000200587385779514808_" gradientUnits="userSpaceOnUse" x1="2175.8933" y1="2206.3657" x2="2187.512" y2="2346.6848">
						<stop  offset="0" style="stop-color:#893976"/>
						<stop  offset="1" style="stop-color:#311944"/>
					</linearGradient>
					<path style="fill:url(#SVGID_00000125602607094136053590000000200587385779514808_);" d="M2167.666,2189.062
						c-0.648-12.216,7.379-21.595,9.136-23.61c7.358-8.435,8.985-9.447,11.841-10.554l3.93-1.355c0,0,0.218-0.036,0.445-0.063
						c2.392-0.292,9.994,1.171,11.45,1.842c4.652,2.139,5.391,23.211-2.404,51.02c-0.038,1.118-0.085,2.244-0.141,3.377
						c-0.082,1.667-0.131,2.957-0.169,4.041c-0.177,4.912,4.17,8.772,9.029,8.031c24.939-3.804,21.49,2.206,20.641,4.129
						c-1.994,4.52-25.086,17.26-52.889,24.105c-34.503,8.044-56.2,7.082-53.279,1.814c1.102-1.985,18.221-10.917,38.458-17.605
						c4.545-1.502,8.18-5.038,9.656-9.592c2-6.17,5.874-14.729,6.792-17.317C2178.417,2205.856,2168.142,2198.062,2167.666,2189.062
						z"/>
					<path style="fill:#26264F;" d="M2184.238,2143.277c-1.926,8.725,0.093,18.958,1.851,20.923
						c0.227,0.254,1.479,1.796,2.385,4.157c0.124,0.322,0.214,0.686,0.266,1.142c0.677,5.922-9.508,10.43-8.374,13.268
						c0.823,2.059,7.295,1.003,7.655,2.703c0.341,1.599-5.267,3.496-4.901,5.402c0.276,1.439,3.582,0.92,5.046,3.359
						c0.73,1.215,0.271,1.945,0.597,5.23c0.185,1.859,0.56,3.931,0.944,5.123c1.865,5.795,9.98,9.579,12.081,7.899
						c0.585-0.468,0.3-1.036,1.197-2.848c0,0,0.83-1.678,2.527-3.455c2.423-2.537,7.154-3.678,12.148-5.811
						c9.249-3.948,12.509-8.351,13.529-9.856c0.363-0.537,0.606-0.948,0.782-1.245c3.511-5.962,5.638-15.399,4.05-21.852
						c-2.659-10.81-14.613-8.641-21.388-20.281c-7.818-13.428,1.73-27.246-3.489-30.179
						C2205.392,2113.723,2187.8,2127.144,2184.238,2143.277z"/>
					
						<linearGradient id="SVGID_00000160888860375291170360000009183896274586150058_" gradientUnits="userSpaceOnUse" x1="4899.1216" y1="915.3173" x2="4910.7397" y2="1055.6288" gradientTransform="matrix(0.8865 0.4628 -0.4628 0.8865 -1747.8126 -861.8964)">
						<stop  offset="0" style="stop-color:#893976"/>
						<stop  offset="1" style="stop-color:#311944"/>
					</linearGradient>
					<path style="fill:url(#SVGID_00000160888860375291170360000009183896274586150058_);" d="M2183.96,2181.421
						c2.795-2.456,5.932,1.145,5.102,4.948c-0.829,3.803-5.396,6.928-8.799,5.376
						C2176.859,2190.195,2180.198,2184.728,2183.96,2181.421z"/>
				</g>
				
					<linearGradient id="SVGID_00000039126829505650549300000011231190837431260802_" gradientUnits="userSpaceOnUse" x1="-204.827" y1="4181.8877" x2="-204.827" y2="3981.6511" gradientTransform="matrix(-0.7767 0.6299 0.6299 0.7767 -310.6688 -87.2572)">
					<stop  offset="0" style="stop-color:#FFC444"/>
					<stop  offset="0.9964" style="stop-color:#F36F56"/>
				</linearGradient>
				<path style="fill:url(#SVGID_00000039126829505650549300000011231190837431260802_);" d="M2452.517,3005.604l11.003,8.772
					l7.423-8.046l-10.115-9.821c-1.995-1.937-5.123-2.077-7.281-0.325l-1.065,0.864
					C2449.758,2999.258,2449.776,3003.419,2452.517,3005.604z"/>
				
					<linearGradient id="SVGID_00000085937817015039466930000000545992738950838207_" gradientUnits="userSpaceOnUse" x1="-188.9011" y1="4189.459" x2="-226.7018" y2="4064.8184" gradientTransform="matrix(-0.7767 0.6299 0.6299 0.7767 -310.6688 -87.2572)">
					<stop  offset="0" style="stop-color:#444B8C"/>
					<stop  offset="0.9964" style="stop-color:#26264F"/>
				</linearGradient>
				<path style="fill:url(#SVGID_00000085937817015039466930000000545992738950838207_);" d="M2473.09,3021.077
					c0.264-8.115,4.281-10.564,2.38-14.499c-1.494-3.091-5.652-5.049-9.051-4.358c-4.778,0.972-6.796,6.928-7.252,8.273
					c-3.098,9.142,3.727,14.238-0.056,21.764c-0.762,1.514-2.201,3.62-2.728,7.095c-0.223,1.476-0.777,5.132,0.798,6.108
					c1.821,1.128,5.556-1.904,9.106-4.789c4.261-3.459,6.394-5.188,7.446-8.117
					C2475.192,3028.497,2472.885,3027.341,2473.09,3021.077z"/>
				
					<linearGradient id="SVGID_00000056415513091461134790000000610529026758397322_" gradientUnits="userSpaceOnUse" x1="1931.2882" y1="2699.8176" x2="2746.0076" y2="1376.3435">
					<stop  offset="0" style="stop-color:#FFC444"/>
					<stop  offset="0.9964" style="stop-color:#F36F56"/>
				</linearGradient>
				<path style="opacity:0.3;fill:url(#SVGID_00000056415513091461134790000000610529026758397322_);" d="M2245.74,2579.829
					c-43.596-19.533-91.552,26.212-106.018,10.818c-16.448-17.504,49.772-72.143,43.272-147.127
					c-3.792-43.745-32.536-96.742-75.728-112.51c-45.021-16.434-80.332,16.852-116.837-8.655
					c-19.567-13.672-12.29-25.24-34.618-47.6c-38.223-38.277-79.256-24.113-101.691-49.764c-8.061-9.217-14.212-24.16-11.94-49.9
					c-6.323,14.259-10.696,31.455-8.69,50.257c6.919,64.836,84.889,104.221,120.969,122.444
					c55.161,27.862,73.561,18.142,91.464,42.781c20.417,28.099,6.181,54.084,1.476,151.95
					c-5.508,114.551,11.437,132.214,20.653,138.671c15.668,10.979,29.202,3.732,67.369,0.683
					c109.747-8.768,151.904,38.852,202.257,10.315c8.792-4.983,15.75-11.143,21.63-18.198c-28.081-0.225-45.721-8.205-57.314-18.439
					C2275.203,2631.903,2278.89,2594.682,2245.74,2579.829z"/>
			</g>
		</g>
		<g>
			
				<linearGradient id="SVGID_00000094608731450262949130000012980962732052023479_" gradientUnits="userSpaceOnUse" x1="-1030.1925" y1="3349.7026" x2="-1077.2168" y2="3194.6492" gradientTransform="matrix(-0.993 0.1177 0.1177 0.993 1497.196 -89.6996)">
				<stop  offset="0" style="stop-color:#444B8C"/>
				<stop  offset="0.9964" style="stop-color:#26264F"/>
			</linearGradient>
			<path style="fill:url(#SVGID_00000094608731450262949130000012980962732052023479_);" d="M2951.099,3035.287
				c5.806,9.262,4.902,13.599,3.903,15.569c-2.927,5.78-11.871,1.546-33.554,6.44c-2.543,0.575-7.387,1.752-13.671,0.949
				c-5.383-0.689-11.869-2.838-11.752-4.273c0.043-0.522,0.955-0.825,1.301-0.937c5.957-1.936,42.873-17.627,42.873-17.627
				L2951.099,3035.287z"/>
			
				<linearGradient id="SVGID_00000087412431864643660110000009551246366193651135_" gradientUnits="userSpaceOnUse" x1="-1070.7312" y1="3319.5112" x2="-1070.7312" y2="3070.4026" gradientTransform="matrix(-0.993 0.1177 0.1177 0.993 1497.196 -89.6996)">
				<stop  offset="0" style="stop-color:#FFC444"/>
				<stop  offset="0.9964" style="stop-color:#F36F56"/>
			</linearGradient>
			<path style="fill:url(#SVGID_00000087412431864643660110000009551246366193651135_);" d="M2951.782,3013.52l-1.124,22.181
				c0,0-8.682,7.607-11.986-0.18c-2.377-5.602-3.958-21.203-3.958-21.203L2951.782,3013.52z"/>
			
				<linearGradient id="SVGID_00000129892189979715062340000000895399595960937918_" gradientUnits="userSpaceOnUse" x1="-979.0099" y1="3319.5105" x2="-979.0099" y2="3070.3992" gradientTransform="matrix(-0.993 0.1177 0.1177 0.993 1497.196 -89.6996)">
				<stop  offset="0" style="stop-color:#FFC444"/>
				<stop  offset="0.9964" style="stop-color:#F36F56"/>
			</linearGradient>
			<polygon style="fill:url(#SVGID_00000129892189979715062340000000895399595960937918_);" points="2842.219,3035.895 
				2854.049,3060.062 2867.201,3056.534 2861.668,3033.589 			"/>
			
				<linearGradient id="SVGID_00000162348519874121262360000016922854000710693513_" gradientUnits="userSpaceOnUse" x1="-961.689" y1="3328.9277" x2="-1008.7141" y2="3173.8718" gradientTransform="matrix(-0.993 0.1177 0.1177 0.993 1497.196 -89.6996)">
				<stop  offset="0" style="stop-color:#444B8C"/>
				<stop  offset="0.9964" style="stop-color:#26264F"/>
			</linearGradient>
			<path style="fill:url(#SVGID_00000162348519874121262360000016922854000710693513_);" d="M2859.661,3073.467
				c5.672-8.358,11.523-8.265,12.138-13.666c0.483-4.243-2.589-9.065-6.623-10.597c-5.67-2.151-11.75,2.771-13.125,3.882
				c-9.332,7.556-5.541,17.45-14.52,22.85c-1.808,1.087-4.72,2.345-7.583,5.65c-1.216,1.404-4.227,4.881-3.22,6.954
				c1.165,2.398,7.108,1.689,12.759,1.016c6.781-0.808,10.171-1.209,13.223-3.59
				C2856.941,3082.667,2855.284,3079.917,2859.661,3073.467z"/>
			
				<linearGradient id="SVGID_00000051372202501405581390000008234152099393562257_" gradientUnits="userSpaceOnUse" x1="-1092.2704" y1="2781.9868" x2="-1115.1475" y2="3296.7227" gradientTransform="matrix(-0.993 0.1177 0.1177 0.993 1497.196 -89.6996)">
				<stop  offset="0" style="stop-color:#311944"/>
				<stop  offset="1" style="stop-color:#893976"/>
			</linearGradient>
			<path style="fill:url(#SVGID_00000051372202501405581390000008234152099393562257_);" d="M2968.777,2483.997
				c2.832,51.023,0.094,95.118-4.482,131.31c-4.923,38.933-9.089,45.935-9.421,72.602c-0.72,58.029,18.517,64.732,27.318,129.525
				c9.719,71.544-4.654,130.239-10.36,152.647c-4.988,19.589-10.587,35.539-14.871,46.649c-6.112,6.29-16.368,4.919-27.167,3.64
				c-9.316-64.851-19.277-125.783-28.593-190.634c-20.745-97.001-41.49-193.999-62.234-291
				C2882.237,2520.489,2925.507,2502.245,2968.777,2483.997z"/>
			
				<linearGradient id="SVGID_00000174567267263575986280000013892309686019824312_" gradientUnits="userSpaceOnUse" x1="-1092.2704" y1="2781.9868" x2="-1115.1476" y2="3296.7229" gradientTransform="matrix(-0.993 0.1177 0.1177 0.993 1497.196 -89.6996)">
				<stop  offset="0" style="stop-color:#311944"/>
				<stop  offset="1" style="stop-color:#893976"/>
			</linearGradient>
			<path style="opacity:0.3;fill:url(#SVGID_00000174567267263575986280000013892309686019824312_);" d="M2929.795,3020.37
				c-9.316-64.851-19.277-125.783-28.593-190.634c-20.745-97.001-41.49-193.999-62.234-291c43.27-18.248,86.54-36.491,129.81-54.739
				c0.187,3.379,0.288,6.644,0.428,9.964c-57.909,59.362-66.564,103.303-63.527,132.534c3.683,35.452,24.562,51.447,25.035,103.252
				c0.339,37.042-10.191,44.445-7.432,77.668c3.553,42.78,23.907,65.312,34.899,89.291c10.623,23.176,16.504,56.763,3.798,106.281
				c-1.781,5.152-3.484,9.771-5.017,13.743C2950.85,3023.019,2940.594,3021.651,2929.795,3020.37z"/>
			
				<linearGradient id="SVGID_00000156551162184250645310000008369207323163675581_" gradientUnits="userSpaceOnUse" x1="-743.5186" y1="3000.9617" x2="-1162.9384" y2="2981.8967" gradientTransform="matrix(-0.993 0.1177 0.1177 0.993 1497.196 -89.6996)">
				<stop  offset="0" style="stop-color:#311944"/>
				<stop  offset="1" style="stop-color:#893976"/>
			</linearGradient>
			<path style="fill:url(#SVGID_00000156551162184250645310000008369207323163675581_);" d="M2894.096,2539.562
				c-28.125,57.924-42.683,102.888-50.319,130.541c-4.658,16.87-8.695,34.374-8.111,56.842c0.716,27.525,8.029,49.587,13.946,63.609
				c8.407,17.897,16.405,38.92,22.319,62.928c19.18,77.858,6.173,145.422-5.136,184.594c-7.662,3.581-15.324,7.166-22.986,10.748
				c-22.054-48.603-49.875-117.838-72.885-204.155c-12.567-47.144-22.249-84.131-26.263-131.801
				c-4.235-50.28-3.675-130.41,29.592-228.852C2814.2,2502.531,2854.148,2521.047,2894.096,2539.562z"/>
			
				<linearGradient id="SVGID_00000096024568230476330230000011740049747612315011_" gradientUnits="userSpaceOnUse" x1="-1364.276" y1="3110.8572" x2="-1066.8706" y2="2475.3755" gradientTransform="matrix(-0.993 0.1177 0.1177 0.993 1497.196 -89.6996)">
				<stop  offset="0" style="stop-color:#FF9085"/>
				<stop  offset="1" style="stop-color:#FB6FBB"/>
			</linearGradient>
			<path style="fill:url(#SVGID_00000096024568230476330230000011740049747612315011_);" d="M2839.746,2105.801
				c-49.552,12.8-87.077,24.958-101.981,52.702c-15.742,29.304,14.686,47.858,27.545,108.224
				c19.688,92.418-31.125,131.764-7.876,224.537c7.833,31.259,20.64,54.876,29.264,68.825c17.342,11.903,44.66,27.843,80.702,37.193
				c52.45,13.605,76.734,1.156,145.637-0.609c112.704-2.89,132.195,28.252,181.215,4.046
				c49.542-24.465,82.084-82.172,69.287-104.618c-7.666-13.441-27.465-3.011-58.32-17.736c-39.767-18.977-35.897-49.7-68.821-73.05
				c-47.29-33.539-86.701,7.557-127.192-21.66c-40.959-29.555-52.121-108.759-39.791-157.482
				c8.054-31.825,5.462-65.492,10.71-97.896c0.437-2.692,0.604-6.943-1.432-11.578c-7.781-17.728-41.464-18.464-66.905-18.783
				C2872.987,2097.427,2843.82,2104.748,2839.746,2105.801z"/>
			
				<linearGradient id="SVGID_00000060025793305061415420000016222927767291274923_" gradientUnits="userSpaceOnUse" x1="3539.2495" y1="2788.1045" x2="3771.5474" y2="3265.7878" gradientTransform="matrix(0.9575 -0.2886 0.2886 0.9575 -1502.8842 536.33)">
				<stop  offset="0" style="stop-color:#FF9085"/>
				<stop  offset="1" style="stop-color:#FB6FBB"/>
			</linearGradient>
			<path style="opacity:0.3;fill:url(#SVGID_00000060025793305061415420000016222927767291274923_);" d="M3185.431,2565.783
				c-16.387-9.062-10.409-39.098-34.702-52.766c-22.547-12.686-37.63,7.6-69.893,0.562c-41.38-9.027-42.49-48.055-82.191-57.25
				c-28.548-6.611-35.467,11.835-75.515,15.927c-39.979,4.086-93.843-8.088-130.602-47.781
				c-15.619-16.866-25.106-35.454-30.875-52.888c-7.841,35.479-16.696,69.884-4.218,119.678
				c7.833,31.259,20.64,54.876,29.264,68.825c17.342,11.903,44.66,27.843,80.702,37.192c52.449,13.606,76.734,1.157,145.637-0.608
				c112.704-2.89,132.195,28.252,181.215,4.046c31.663-15.635,56.31-44.827,66.686-69.736
				C3219.279,2566.906,3197.324,2572.359,3185.431,2565.783z"/>
			
				<linearGradient id="SVGID_00000112602536014463737070000001688022458741675950_" gradientUnits="userSpaceOnUse" x1="-1036.549" y1="2286.4456" x2="-1090.199" y2="2373.2322" gradientTransform="matrix(-0.993 0.1177 0.1177 0.993 1497.196 -89.6996)">
				<stop  offset="0" style="stop-color:#FFC444"/>
				<stop  offset="0.9964" style="stop-color:#F36F56"/>
			</linearGradient>
			<path style="fill:url(#SVGID_00000112602536014463737070000001688022458741675950_);" d="M2803.499,2021.212
				c0,0-11.697,27.152-11.058,45.472c0.639,18.319,21.122,15.285,21.122,15.285l0.181,11.575
				c0.155,9.881-5.518,18.928-14.479,23.093l-7.883,3.664c0,0,53.978,6.959,81.244-15.904l-8.414-0.125
				c-11.914-0.177-22.052-8.726-24.237-20.44l-0.911-4.885C2839.064,2078.947,2843.549,2021.307,2803.499,2021.212z"/>
			<g>
				
					<linearGradient id="SVGID_00000148622934104379102710000004736285387623563693_" gradientUnits="userSpaceOnUse" x1="-836.735" y1="2420.8123" x2="-944.8757" y2="2595.7456" gradientTransform="matrix(-0.993 0.1177 0.1177 0.993 1497.196 -89.6996)">
					<stop  offset="0" style="stop-color:#444B8C"/>
					<stop  offset="0.9964" style="stop-color:#26264F"/>
				</linearGradient>
				<path style="fill:url(#SVGID_00000148622934104379102710000004736285387623563693_);" d="M2749.414,2317.607l-80.704-139.21
					c-0.996-1.719-2.999-2.584-4.934-2.132l-112.914,26.387c-3.015,0.704-4.442,4.165-2.801,6.79l93.649,149.746
					c1.127,1.802,3.361,2.575,5.362,1.852l99.24-35.84L2749.414,2317.607z"/>
				
					<linearGradient id="SVGID_00000031913908403671313730000004881781442410576537_" gradientUnits="userSpaceOnUse" x1="-817.6531" y1="2397.9751" x2="-911.0634" y2="2573.3572" gradientTransform="matrix(-0.9946 0.104 0.104 0.9946 1561.4523 -80.9972)">
					<stop  offset="0" style="stop-color:#FFC444"/>
					<stop  offset="0.9964" style="stop-color:#F36F56"/>
				</linearGradient>
				<path style="fill:url(#SVGID_00000031913908403671313730000004881781442410576537_);" d="M2729.56,2301.807l-65.345-112.718
					c-0.807-1.392-2.428-2.093-3.995-1.727l-91.425,21.365c-2.442,0.57-3.598,3.373-2.268,5.498l75.827,121.248
					c0.912,1.46,2.721,2.084,4.341,1.499l80.354-29.018L2729.56,2301.807z"/>
				
					<linearGradient id="SVGID_00000000186034651930156960000008700955318347272331_" gradientUnits="userSpaceOnUse" x1="-847.78" y1="2409.5908" x2="-822.0429" y2="2356.2102" gradientTransform="matrix(-0.993 0.1177 0.1177 0.993 1497.196 -89.6996)">
					<stop  offset="0" style="stop-color:#AA80F9"/>
					<stop  offset="0.9964" style="stop-color:#6165D7"/>
				</linearGradient>
				<path style="fill:url(#SVGID_00000000186034651930156960000008700955318347272331_);" d="M2644.93,2190.382l-5.189-9.041
					c-0.722-1.256-2.177-1.896-3.59-1.578l-47.029,10.576c-2.183,0.492-3.257,2.966-2.124,4.895l5.77,9.83
					c0.739,1.26,2.217,1.884,3.634,1.537l46.447-11.367C2644.986,2194.713,2646.025,2192.29,2644.93,2190.382z"/>
				
					<linearGradient id="SVGID_00000008843135610024636750000017041855183646457993_" gradientUnits="userSpaceOnUse" x1="-862.3309" y1="2396.5186" x2="-774.1429" y2="2396.5186" gradientTransform="matrix(-0.9946 0.104 0.104 0.9946 1561.4523 -80.9972)">
					<stop  offset="0" style="stop-color:#444B8C"/>
					<stop  offset="0.9964" style="stop-color:#26264F"/>
				</linearGradient>
				<path style="fill:url(#SVGID_00000008843135610024636750000017041855183646457993_);" d="M2583.333,2229.145
					c0.075-0.009,0.143-0.024,0.217-0.041l82.792-19.539c1.025-0.241,1.66-1.269,1.42-2.29c-0.246-1.028-1.305-1.645-2.294-1.416
					l-82.792,19.539c-1.025,0.241-1.661,1.269-1.419,2.29C2581.482,2228.644,2582.387,2229.257,2583.333,2229.145z"/>
				
					<linearGradient id="SVGID_00000150787478010292955400000011756688851181090239_" gradientUnits="userSpaceOnUse" x1="-866.2338" y1="2404.6267" x2="-778.4734" y2="2404.6267" gradientTransform="matrix(-0.9946 0.104 0.104 0.9946 1561.4523 -80.9972)">
					<stop  offset="0" style="stop-color:#444B8C"/>
					<stop  offset="0.9964" style="stop-color:#26264F"/>
				</linearGradient>
				<path style="fill:url(#SVGID_00000150787478010292955400000011756688851181090239_);" d="M2588.525,2237.168
					c0.077-0.01,0.158-0.027,0.235-0.043l82.284-20.31c1.025-0.25,1.647-1.283,1.395-2.31c-0.249-1.021-1.271-1.642-2.306-1.392
					l-82.283,20.31c-1.024,0.249-1.648,1.282-1.395,2.31C2586.685,2236.674,2587.586,2237.279,2588.525,2237.168z"/>
				
					<linearGradient id="SVGID_00000122718849840161773960000003749346782271913151_" gradientUnits="userSpaceOnUse" x1="-870.3021" y1="2420.0308" x2="-820.7117" y2="2420.0308" gradientTransform="matrix(-0.9946 0.104 0.104 0.9946 1561.4523 -80.9972)">
					<stop  offset="0" style="stop-color:#444B8C"/>
					<stop  offset="0.9964" style="stop-color:#26264F"/>
				</linearGradient>
				<path style="fill:url(#SVGID_00000122718849840161773960000003749346782271913151_);" d="M2631.929,2246.098
					c0.096-0.011,0.191-0.03,0.285-0.056l44.737-12.343c1.018-0.279,1.613-1.331,1.331-2.347c-0.277-1.01-1.346-1.611-2.343-1.328
					l-44.738,12.344c-1.017,0.278-1.612,1.331-1.33,2.348C2630.122,2245.63,2631.012,2246.207,2631.929,2246.098z"/>
			</g>
			
				<linearGradient id="SVGID_00000176040497736724925680000002320938840919699856_" gradientUnits="userSpaceOnUse" x1="-813.8569" y1="2489.9451" x2="-839.8047" y2="2531.9194" gradientTransform="matrix(-0.993 0.1177 0.1177 0.993 1497.196 -89.6996)">
				<stop  offset="0" style="stop-color:#FFC444"/>
				<stop  offset="0.9964" style="stop-color:#F36F56"/>
			</linearGradient>
			<path style="fill:url(#SVGID_00000176040497736724925680000002320938840919699856_);" d="M2618.792,2322.539
				c0,0-19.971-10.733-23.081-19.446c-3.109-8.713-4.322-25.591-4.322-25.591l13.345,22.561c0,0,5.094-2.054,6.541-10.1
				c1.446-8.046,6.018-1.292,5.091,4.769C2615.438,2300.792,2618.792,2322.539,2618.792,2322.539z"/>
			
				<linearGradient id="SVGID_00000108987675099899259690000006192796748284911233_" gradientUnits="userSpaceOnUse" x1="-1230.7986" y1="3173.3118" x2="-933.398" y2="2537.8408" gradientTransform="matrix(-0.993 0.1177 0.1177 0.993 1497.196 -89.6996)">
				<stop  offset="0" style="stop-color:#FF9085"/>
				<stop  offset="1" style="stop-color:#FB6FBB"/>
			</linearGradient>
			<path style="fill:url(#SVGID_00000108987675099899259690000006192796748284911233_);" d="M2745.762,2148.757
				c-9.221,7.028-22.97,19.11-34.32,37.474c-32.289,52.243-12.349,102.22-41.334,123.664c-8.289,6.135-23.353,11.985-52.384,5.01
				l-10.134,6.829c0,0-6.138,68.032,75.07,62.063c81.208-5.965,111.021-110.814,111.021-110.814L2745.762,2148.757z"/>
			
				<linearGradient id="SVGID_00000000186925705738370400000016162613094530712201_" gradientUnits="userSpaceOnUse" x1="-1334.5039" y1="2649.9707" x2="-1117.6055" y2="2186.5127" gradientTransform="matrix(-0.993 0.1177 0.1177 0.993 1497.196 -89.6996)">
				<stop  offset="0" style="stop-color:#444B8C"/>
				<stop  offset="0.9964" style="stop-color:#26264F"/>
			</linearGradient>
			<path style="fill:url(#SVGID_00000000186925705738370400000016162613094530712201_);" d="M2813.93,2046.384
				c2.722-0.454,4.699-4.119,6.661-3.241c2.06,0.918,2.26,6.004,0.844,9.704c-1.163,3.032-3.316,4.87-4.528,5.745
				c2.36,2.754,5.434,7.083,7.05,12.951c3.577,12.976-2.552,24.159-4.951,30.604c-10.818,29.057,13.283,71.58,37.563,92.05
				c19.731,16.641,27.632,8.636,39.742,22.56c23.573,27.095-3.033,61.234,11.139,99.159
				c21.551,57.668,116.247,67.505,120.169,67.866c1.545,0.143,2.582,0.226,4.188,0.347c42.378,3.178,106.609,7.994,148.409-30.038
				c31.275-28.452,42.889-74.428,37.095-113.594c-1.523-10.302-7.92-49.359-42.616-78.792c-5.507-4.67-38.111-32.265-78.83-29.256
				c-21.566,1.592-25.283,9.546-42.153,6.217c-23.097-4.558-38.696-23.92-48.373-35.929c-17.8-22.093-11.769-27.625-24.133-38.192
				c-24.228-20.701-48.99-0.815-74.52-18.741c-25.166-17.669-13.171-45.464-37.301-60.563c-24.892-15.571-69.223-5.74-77.052,15.911
				C2785.604,2019.753,2805.583,2047.774,2813.93,2046.384z"/>
		</g>
		
			<linearGradient id="SVGID_00000123405193289082606000000005110604695575213469_" gradientUnits="userSpaceOnUse" x1="305.381" y1="743.6805" x2="704.1681" y2="743.6805" gradientTransform="matrix(0.9552 -0.2958 0.2958 0.9552 1365.7959 409.9056)">
			<stop  offset="0" style="stop-color:#FF9085"/>
			<stop  offset="1" style="stop-color:#FB6FBB"/>
		</linearGradient>
		<path style="fill:url(#SVGID_00000123405193289082606000000005110604695575213469_);" d="M1904.988,1118.777l46.867,33.091
			c0,0,1.099-102.873,115.741-134.714c114.643-31.841,193.005-74.418,172.783-163.364l-119.846-44.083
			c0,0-19.573,117.239-100.126,137.839C1884.68,982.253,1904.988,1118.777,1904.988,1118.777z"/>
		
			<linearGradient id="SVGID_00000007416262261870086100000003022765386267470244_" gradientUnits="userSpaceOnUse" x1="744.048" y1="800.0293" x2="397.7276" y2="1660.5823" gradientTransform="matrix(0.9552 -0.2958 0.2958 0.9552 1365.7959 409.9056)">
			<stop  offset="0" style="stop-color:#AA80F9"/>
			<stop  offset="0.9964" style="stop-color:#6165D7"/>
		</linearGradient>
		<path style="fill:url(#SVGID_00000007416262261870086100000003022765386267470244_);" d="M2075.731,1197.729
			c-2.774-51.897,1.956-116.831,42.942-145.126c40.184-27.742,84.78,0.751,149.653-13.388
			c42.46-9.254,98.674-37.876,155.365-125.013c32.524,65.607,65.047,131.213,97.571,196.82
			c-100.391,73.958-165.164,77.636-207.168,64.157c-50.092-16.075-75.047-58.88-115.946-51.851
			c-37.994,6.529-62.41,51.365-77.382,89.751C2105.754,1207.96,2090.742,1202.845,2075.731,1197.729z"/>
		
			<linearGradient id="SVGID_00000066500831215407270400000011354254560797887112_" gradientUnits="userSpaceOnUse" x1="4561.8599" y1="597.9658" x2="4803.4404" y2="597.9658" gradientTransform="matrix(0.927 0.3751 -0.3751 0.927 -1486.3483 -1098.4408)">
			<stop  offset="0" style="stop-color:#FF9085"/>
			<stop  offset="1" style="stop-color:#FB6FBB"/>
		</linearGradient>
		<path style="fill:url(#SVGID_00000066500831215407270400000011354254560797887112_);" d="M2497.066,1219.252l9.31,33.486
			c0,0,39.938-47.849,105.932-18.856c65.994,28.992,119.079,39.043,143.676-10.441l-39.341-66.611c0,0-54.111,47.51-99.802,26.307
			C2539.855,1147.41,2497.066,1219.252,2497.066,1219.252z"/>
		
			<linearGradient id="SVGID_00000178895314252330074820000003854941567702573709_" gradientUnits="userSpaceOnUse" x1="-820.3455" y1="-136.2124" x2="-1030.1421" y2="385.0997" gradientTransform="matrix(0.7825 -0.6226 0.6226 0.7825 3145.1846 321.4355)">
			<stop  offset="0.0036" style="stop-color:#E38DDD"/>
			<stop  offset="1" style="stop-color:#9571F6"/>
		</linearGradient>
		<path style="fill:url(#SVGID_00000178895314252330074820000003854941567702573709_);" d="M2338.081,915.408
			c-12.986-28.682-24.605-66.375-7.698-91.365c16.577-24.501,48.018-18.232,81.524-40.488
			c21.93-14.567,47.361-43.092,60.184-104.751c32.795,29.874,65.589,59.748,98.384,89.622
			c-40.39,63.836-76.141,80.166-102.816,81.801c-31.811,1.949-55.316-16.72-76.854-3.753
			c-20.008,12.046-23.924,42.726-23.928,67.687C2357.279,914.577,2347.679,914.993,2338.081,915.408z"/>
		
			<linearGradient id="SVGID_00000117655552520529751960000016405248715729076398_" gradientUnits="userSpaceOnUse" x1="1363.9867" y1="644.8809" x2="781.8795" y2="2091.3276" gradientTransform="matrix(0.9552 -0.2958 0.2958 0.9552 1365.7959 409.9056)">
			<stop  offset="0" style="stop-color:#FFC444"/>
			<stop  offset="0.9964" style="stop-color:#F36F56"/>
		</linearGradient>
		<path style="fill:url(#SVGID_00000117655552520529751960000016405248715729076398_);" d="M2537.66,1043.054
			c-26.021-35.277,16.519-119.501,67.841-171.146c94.625-95.22,190.829-51.229,277.251-133.465
			c33.139-31.533,70.15-86.679,80.408-189.686c60.821,70.27,121.644,140.54,182.465,210.81
			c-23.235,143.127-72.682,192.608-114.06,211.093c-89.493,39.98-177.667-48.759-304.005-12.049
			c-68.642,19.945-115.487,67.315-143.832,103.133C2567.049,1060.938,2547.896,1056.931,2537.66,1043.054z"/>
		
			<linearGradient id="SVGID_00000009586130812349618560000007485392525747388085_" gradientUnits="userSpaceOnUse" x1="271.4322" y1="411.5718" x2="168.1219" y2="668.2818" gradientTransform="matrix(0.9172 -0.3983 0.3983 0.9172 1908.6003 428.2446)">
			<stop  offset="0" style="stop-color:#FFC444"/>
			<stop  offset="0.9964" style="stop-color:#F36F56"/>
		</linearGradient>
		<path style="fill:url(#SVGID_00000009586130812349618560000007485392525747388085_);" d="M2299.094,697.828
			c25.286-17.743,66.134-21.675,77.842-3.967c10.647,16.102-5.443,46.095-22.761,62.098c-26.214,24.223-72.383,32.227-85.576,14.785
			C2256.284,754.461,2272.872,716.227,2299.094,697.828z"/>
		
			<linearGradient id="SVGID_00000145781293727113247550000015801438256153340085_" gradientUnits="userSpaceOnUse" x1="5865.5415" y1="-397.1581" x2="5762.2402" y2="-140.4702" gradientTransform="matrix(0.7987 0.6018 -0.6018 0.7987 -2077.2795 -2148.8835)">
			<stop  offset="0" style="stop-color:#FFC444"/>
			<stop  offset="0.9964" style="stop-color:#F36F56"/>
		</linearGradient>
		<path style="fill:url(#SVGID_00000145781293727113247550000015801438256153340085_);" d="M2835.326,1044.404
			c27.9,13.256,51.455,46.859,41.819,65.774c-8.762,17.2-42.79,17.984-65.25,10.803c-33.997-10.869-63.717-47.095-55.043-67.172
			C2764.949,1035.069,2806.393,1030.657,2835.326,1044.404z"/>
		
			<linearGradient id="SVGID_00000140737293038003079120000015938763872608099222_" gradientUnits="userSpaceOnUse" x1="-236.4365" y1="722.9202" x2="-320.0887" y2="930.783" gradientTransform="matrix(0.9172 -0.3983 0.3983 0.9172 1908.6003 428.2446)">
			<stop  offset="0" style="stop-color:#FFC444"/>
			<stop  offset="0.9964" style="stop-color:#F36F56"/>
		</linearGradient>
		<path style="fill:url(#SVGID_00000140737293038003079120000015938763872608099222_);" d="M1961.548,1185.642
			c20.474-14.367,53.549-17.55,63.03-3.212c8.621,13.038-4.407,37.324-18.43,50.282c-21.226,19.614-58.61,26.095-69.292,11.971
			C1926.884,1231.499,1940.315,1200.541,1961.548,1185.642z"/>
		
			<linearGradient id="SVGID_00000173147250446372587830000008261027005706238085_" gradientUnits="userSpaceOnUse" x1="-3476.6929" y1="-3366.3523" x2="-3600.7429" y2="-3058.1072" gradientTransform="matrix(0.1872 -0.9823 0.9428 0.1797 5583.353 -1720.5411)">
			<stop  offset="0" style="stop-color:#FFC444"/>
			<stop  offset="0.9964" style="stop-color:#F36F56"/>
		</linearGradient>
		<path style="fill:url(#SVGID_00000173147250446372587830000008261027005706238085_);" d="M1744.194,1112.118
			c-0.218-37.034,22.895-80.346,47.393-80.182c22.275,0.148,40.163,36.203,43.966,64.14c5.758,42.287-16.989,93.618-42.21,95.11
			C1769.798,1192.579,1744.42,1150.523,1744.194,1112.118z"/>
		
			<linearGradient id="SVGID_00000051353198837245829850000016532414472651195281_" gradientUnits="userSpaceOnUse" x1="-103.6512" y1="373.7652" x2="-206.9616" y2="630.4756" gradientTransform="matrix(0.9172 -0.3983 0.3983 0.9172 1908.6003 428.2446)">
			<stop  offset="0" style="stop-color:#FFC444"/>
			<stop  offset="0.9964" style="stop-color:#F36F56"/>
		</linearGradient>
		<path style="fill:url(#SVGID_00000051353198837245829850000016532414472651195281_);" d="M1940.009,812.547
			c25.286-17.742,66.133-21.675,77.842-3.967c10.646,16.102-5.443,46.095-22.761,62.098c-26.215,24.224-72.383,32.227-85.576,14.785
			C1897.199,869.18,1913.787,830.946,1940.009,812.547z"/>
	</g>
</g>
</svg>
