<?xml version="1.0" encoding="utf-8"?>
<!-- Generator: Adobe Illustrator 27.5.0, SVG Export Plug-In . SVG Version: 6.00 Build 0)  -->
<svg version="1.1" xmlns="http://www.w3.org/2000/svg" xmlns:xlink="http://www.w3.org/1999/xlink" x="0px" y="0px"
	 viewBox="0 0 500 500" style="enable-background:new 0 0 500 500;" xml:space="preserve">
<g id="Background">
	<rect id="XMLID_431_" style="fill:#2B2B4D;" width="500" height="500"/>
</g>
<g id="Objects">
	<g>
		<circle id="XMLID_430_" style="opacity:0.2;fill:#8580F4;" cx="250" cy="290.271" r="123.999"/>
		<g id="XMLID_417_">
			<rect id="XMLID_427_" y="440" style="fill:#BFB9A9;" width="500" height="60"/>
			<rect id="XMLID_424_" y="420.641" style="fill:#BFB9A9;" width="500" height="19.359"/>
			<rect id="XMLID_421_" y="440" style="fill:#A49C87;" width="500" height="12"/>
			<rect id="XMLID_418_" y="378" style="fill:#D4D0C5;" width="500" height="45"/>
			<path style="fill:#D4D0C5;" d="M105.612,428.625H4.958c-0.621,0-1.125-0.504-1.125-1.125l0,0c0-0.621,0.504-1.125,1.125-1.125
				h100.654c0.621,0,1.125,0.504,1.125,1.125l0,0C106.737,428.121,106.233,428.625,105.612,428.625z"/>
			<path style="fill:#D4D0C5;" d="M462.612,428.625H361.958c-0.621,0-1.125-0.504-1.125-1.125l0,0c0-0.621,0.504-1.125,1.125-1.125
				h100.654c0.621,0,1.125,0.504,1.125,1.125l0,0C463.737,428.121,463.233,428.625,462.612,428.625z"/>
			<circle style="fill:#D4D0C5;" cx="119.71" cy="427.5" r="1.125"/>
			<path style="fill:#D4D0C5;" d="M268.612,428.625h-64.356c-0.621,0-1.125-0.504-1.125-1.125l0,0c0-0.621,0.504-1.125,1.125-1.125
				h64.356c0.621,0,1.125,0.504,1.125,1.125l0,0C269.737,428.121,269.233,428.625,268.612,428.625z"/>
			<circle style="fill:#D4D0C5;" cx="272.71" cy="427.5" r="1.125"/>
			<circle style="fill:#D4D0C5;" cx="475.71" cy="427.5" r="1.125"/>
			<circle style="fill:#D4D0C5;" cx="198.71" cy="427.5" r="1.125"/>
		</g>
		<ellipse id="XMLID_416_" style="opacity:0.2;fill:#FFFFFF;" cx="249" cy="402.603" rx="92.5" ry="12.444"/>
		<ellipse id="XMLID_415_" style="opacity:0.2;fill:#FFFFFF;" cx="249" cy="402.603" rx="72.5" ry="9.754"/>
		<path id="XMLID_414_" style="opacity:0.5;fill:#FFFFFF;" d="M197.441,402.603c0,3.831,23.084,6.936,51.559,6.936
			s51.559-3.105,51.559-6.936c0-3.831-23.084-6.936-51.559-6.936S197.441,398.772,197.441,402.603z"/>
		<g id="XMLID_265_">
			
				<linearGradient id="XMLID_00000039856511201797090470000008489681893433885095_" gradientUnits="userSpaceOnUse" x1="285.0324" y1="370.958" x2="285.0324" y2="165.6414" gradientTransform="matrix(1 0 0 1 -29.0777 0)">
				<stop  offset="0" style="stop-color:#8580F4;stop-opacity:0"/>
				<stop  offset="1" style="stop-color:#8580F4;stop-opacity:0.8"/>
			</linearGradient>
			<polygon id="XMLID_272_" style="opacity:0.3;fill:url(#XMLID_00000039856511201797090470000008489681893433885095_);" points="
				171.119,74.307 170.591,400.222 341.318,400.5 180.478,74.307 			"/>
			
				<linearGradient id="XMLID_00000028291711475166067750000017791767198767349938_" gradientUnits="userSpaceOnUse" x1="193.3836" y1="313.632" x2="174.5479" y2="130.7698" gradientTransform="matrix(1 0 0 1 -29.0777 0)">
				<stop  offset="0" style="stop-color:#81C3EF;stop-opacity:0"/>
				<stop  offset="1" style="stop-color:#81C3EF"/>
			</linearGradient>
			<polygon id="XMLID_271_" style="opacity:0.3;fill:url(#XMLID_00000028291711475166067750000017791767198767349938_);" points="
				96.88,66.458 238.479,400.5 108.001,400.232 82.118,66.458 			"/>
		</g>
		<g id="XMLID_273_">
			
				<linearGradient id="XMLID_00000083782861838213843240000017110254108464616122_" gradientUnits="userSpaceOnUse" x1="281.6975" y1="370.958" x2="281.6975" y2="165.6414" gradientTransform="matrix(-1 0 0 1 525.7428 0)">
				<stop  offset="0" style="stop-color:#8580F4;stop-opacity:0"/>
				<stop  offset="1" style="stop-color:#8580F4;stop-opacity:0.8"/>
			</linearGradient>
			<polygon id="XMLID_275_" style="opacity:0.3;fill:url(#XMLID_00000083782861838213843240000017110254108464616122_);" points="
				328.881,74.307 329.409,400.222 158.682,400.5 319.522,74.307 			"/>
			
				<linearGradient id="XMLID_00000127042106318843757050000012649211597332731322_" gradientUnits="userSpaceOnUse" x1="190.0487" y1="313.632" x2="171.213" y2="130.7698" gradientTransform="matrix(-1 0 0 1 525.7428 0)">
				<stop  offset="0" style="stop-color:#81C3EF;stop-opacity:0"/>
				<stop  offset="1" style="stop-color:#81C3EF"/>
			</linearGradient>
			<polygon id="XMLID_274_" style="opacity:0.3;fill:url(#XMLID_00000127042106318843757050000012649211597332731322_);" points="
				403.12,66.458 261.521,400.5 391.999,400.232 417.882,66.458 			"/>
		</g>
		<g id="XMLID_387_">
			<path id="XMLID_408_" style="fill:none;stroke:#0A1925;stroke-width:1.7595;stroke-linecap:round;stroke-miterlimit:10;" d="
				M274.193,308.874v-17.541c0-2.1-0.834-4.115-2.319-5.6l-4.829-4.829"/>
			<path id="XMLID_407_" style="fill:#0A1925;" d="M265.725,281.719l-1.18-1.175c-0.605-0.603-0.607-1.582-0.005-2.187l0,0
				c0.603-0.605,1.582-0.607,2.187-0.005l1.18,1.175c0.605,0.603,0.607,1.582,0.005,2.187l0,0
				C267.31,282.32,266.33,282.322,265.725,281.719z"/>
			<polygon id="XMLID_406_" style="fill:#892E27;" points="283.064,327.203 216.936,327.203 215.176,311.074 284.824,311.074 			"/>
			<polygon id="XMLID_405_" style="fill:#B2423D;" points="222.507,315.326 277.492,315.326 273.093,405.607 226.907,405.607 			"/>
			<path id="XMLID_403_" style="fill:#E3917B;" d="M273.281,401.396h-46.563c-2.326,0-4.211,1.885-4.211,4.211l0,0h54.985l0,0
				C277.492,403.281,275.607,401.396,273.281,401.396z"/>
			<path id="XMLID_401_" style="fill:#E3917B;" d="M280.425,306.675h-60.85c-2.429,0-4.399,1.97-4.399,4.399l0,0h69.648l0,0
				C284.824,308.644,282.854,306.675,280.425,306.675z"/>
			<polygon id="XMLID_400_" style="fill:#892E27;" points="233.285,315.326 266.715,315.326 263.196,401.396 236.804,401.396 			"/>
			<polygon id="XMLID_399_" style="fill:#B2423D;" points="235.704,315.326 264.296,315.326 260.777,401.396 239.223,401.396 			"/>
			<g id="XMLID_374_">
				<g id="XMLID_313_">
					<g id="XMLID_262_">
						<polygon id="XMLID_264_" style="fill:#E3917B;" points="249.669,341.363 248.952,341.295 248.392,340.014 249.109,340.082 
													"/>
						<polygon id="XMLID_263_" style="fill:#892E27;" points="249.669,341.363 248.952,341.295 248.163,342.449 248.88,342.517 
													"/>
					</g>
					<g>
						<polygon style="fill:#E3917B;" points="247.849,341.171 247.167,340.973 246.862,339.629 247.544,339.827 						"/>
						<polygon style="fill:#892E27;" points="247.849,341.171 247.167,340.973 246.19,341.944 246.872,342.142 						"/>
					</g>
					<g>
						<polygon style="fill:#E3917B;" points="246.16,340.635 245.535,340.32 245.482,338.963 246.107,339.277 						"/>
						<polygon style="fill:#892E27;" points="246.16,340.635 245.535,340.32 244.413,341.086 245.038,341.401 						"/>
					</g>
					<g>
						<polygon style="fill:#E3917B;" points="244.535,339.792 243.984,339.379 244.167,338.052 244.719,338.466 						"/>
						<polygon style="fill:#892E27;" points="244.535,339.792 243.984,339.379 242.762,339.927 243.314,340.34 						"/>
					</g>
					<g>
						<polygon style="fill:#E3917B;" points="243.078,338.683 242.612,338.189 243.013,336.932 243.479,337.427 						"/>
						<polygon style="fill:#892E27;" points="243.078,338.683 242.612,338.189 241.334,338.517 241.8,339.011 						"/>
					</g>
					<g>
						<polygon style="fill:#E3917B;" points="241.844,337.351 241.472,336.794 242.068,335.64 242.44,336.196 						"/>
						<polygon style="fill:#892E27;" points="241.844,337.351 241.472,336.794 240.177,336.902 240.549,337.459 						"/>
					</g>
					<g>
						<polygon style="fill:#E3917B;" points="240.858,335.784 240.589,335.182 241.358,334.159 241.627,334.762 						"/>
						<polygon style="fill:#892E27;" points="240.858,335.784 240.589,335.182 239.314,335.073 239.583,335.675 						"/>
					</g>
					<g>
						<polygon style="fill:#E3917B;" points="240.146,334.027 239.987,333.398 240.906,332.536 241.065,333.165 						"/>
						<polygon style="fill:#892E27;" points="240.146,334.027 239.987,333.398 238.768,333.076 238.927,333.705 						"/>
					</g>
					<g>
						<polygon style="fill:#E3917B;" points="239.719,332.15 239.677,331.512 240.72,330.84 240.762,331.478 						"/>
						<polygon style="fill:#892E27;" points="239.719,332.15 239.677,331.512 238.553,330.984 238.596,331.622 						"/>
					</g>
					<g>
						<polygon style="fill:#E3917B;" points="239.687,330.361 239.756,329.735 240.883,329.264 240.814,329.889 						"/>
						<polygon style="fill:#892E27;" points="239.687,330.361 239.756,329.735 238.759,329.03 238.69,329.656 						"/>
					</g>
					<g>
						<polygon style="fill:#E3917B;" points="239.887,328.722 240.056,328.126 241.226,327.853 241.057,328.449 						"/>
						<polygon style="fill:#892E27;" points="239.887,328.722 240.056,328.126 239.203,327.28 239.034,327.875 						"/>
					</g>
					<g>
						<polygon style="fill:#E3917B;" points="240.423,327.097 240.683,326.546 241.863,326.469 241.603,327.02 						"/>
						<polygon style="fill:#892E27;" points="240.423,327.097 240.683,326.546 239.992,325.587 239.732,326.138 						"/>
					</g>
					<g>
						<polygon style="fill:#E3917B;" points="241.242,325.519 241.583,325.027 242.74,325.144 242.399,325.636 						"/>
						<polygon style="fill:#892E27;" points="241.242,325.519 241.583,325.027 241.069,323.985 240.727,324.477 						"/>
					</g>
					<g>
						<polygon style="fill:#E3917B;" points="242.327,324.056 242.74,323.637 243.841,323.943 243.428,324.363 						"/>
						<polygon style="fill:#892E27;" points="242.327,324.056 242.74,323.637 242.416,322.541 242.003,322.96 						"/>
					</g>
					<g>
						<polygon style="fill:#E3917B;" points="243.665,322.791 244.138,322.457 245.149,322.947 244.676,323.28 						"/>
						<polygon style="fill:#892E27;" points="243.665,322.791 244.138,322.457 244.016,321.341 243.543,321.674 						"/>
					</g>
					<g>
						<polygon style="fill:#E3917B;" points="245.287,321.772 245.804,321.536 246.691,322.192 246.174,322.428 						"/>
						<polygon style="fill:#892E27;" points="245.287,321.772 245.804,321.536 245.889,320.436 245.372,320.672 						"/>
					</g>
					<g id="XMLID_243_">
						<polygon id="XMLID_245_" style="fill:#E3917B;" points="247.195,321.051 247.738,320.919 248.471,321.718 247.929,321.849 
													"/>
						<polygon id="XMLID_244_" style="fill:#892E27;" points="247.195,321.051 247.738,320.919 248.025,319.874 247.482,320.005 
													"/>
					</g>
				</g>
				<g id="XMLID_252_">
					<g id="XMLID_207_">
						<polygon id="XMLID_242_" style="fill:#E3917B;" points="250.331,341.363 251.048,341.295 251.608,340.014 250.891,340.082 
													"/>
						<polygon id="XMLID_241_" style="fill:#892E27;" points="250.331,341.363 251.048,341.295 251.837,342.449 251.12,342.517 
													"/>
					</g>
					<g>
						<polygon style="fill:#E3917B;" points="252.151,341.171 252.833,340.973 253.138,339.629 252.456,339.827 						"/>
						<polygon style="fill:#892E27;" points="252.151,341.171 252.833,340.973 253.81,341.944 253.128,342.142 						"/>
					</g>
					<g>
						<polygon style="fill:#E3917B;" points="253.84,340.635 254.465,340.32 254.518,338.963 253.893,339.277 						"/>
						<polygon style="fill:#892E27;" points="253.84,340.635 254.465,340.32 255.587,341.086 254.962,341.401 						"/>
					</g>
					<g>
						<polygon style="fill:#E3917B;" points="255.464,339.792 256.016,339.379 255.832,338.052 255.281,338.466 						"/>
						<polygon style="fill:#892E27;" points="255.464,339.792 256.016,339.379 257.238,339.927 256.686,340.34 						"/>
					</g>
					<g>
						<polygon style="fill:#E3917B;" points="256.921,338.683 257.388,338.189 256.987,336.932 256.521,337.427 						"/>
						<polygon style="fill:#892E27;" points="256.921,338.683 257.388,338.189 258.666,338.517 258.199,339.011 						"/>
					</g>
					<g>
						<polygon style="fill:#E3917B;" points="258.156,337.351 258.528,336.794 257.931,335.64 257.56,336.196 						"/>
						<polygon style="fill:#892E27;" points="258.156,337.351 258.528,336.794 259.823,336.902 259.451,337.459 						"/>
					</g>
					<g>
						<polygon style="fill:#E3917B;" points="259.142,335.784 259.411,335.182 258.641,334.159 258.372,334.762 						"/>
						<polygon style="fill:#892E27;" points="259.142,335.784 259.411,335.182 260.686,335.073 260.417,335.675 						"/>
					</g>
					<g>
						<polygon style="fill:#E3917B;" points="259.854,334.027 260.013,333.398 259.093,332.536 258.935,333.165 						"/>
						<polygon style="fill:#892E27;" points="259.854,334.027 260.013,333.398 261.232,333.076 261.073,333.705 						"/>
					</g>
					<g>
						<polygon style="fill:#E3917B;" points="260.281,332.15 260.323,331.512 259.28,330.84 259.238,331.478 						"/>
						<polygon style="fill:#892E27;" points="260.281,332.15 260.323,331.512 261.447,330.984 261.404,331.622 						"/>
					</g>
					<g>
						<polygon style="fill:#E3917B;" points="260.313,330.361 260.244,329.735 259.117,329.264 259.186,329.889 						"/>
						<polygon style="fill:#892E27;" points="260.313,330.361 260.244,329.735 261.241,329.03 261.31,329.656 						"/>
					</g>
					<g>
						<polygon style="fill:#E3917B;" points="260.113,328.722 259.944,328.126 258.774,327.853 258.943,328.449 						"/>
						<polygon style="fill:#892E27;" points="260.113,328.722 259.944,328.126 260.796,327.28 260.965,327.875 						"/>
					</g>
					<g>
						<polygon style="fill:#E3917B;" points="259.577,327.097 259.317,326.546 258.137,326.469 258.397,327.02 						"/>
						<polygon style="fill:#892E27;" points="259.577,327.097 259.317,326.546 260.008,325.587 260.268,326.138 						"/>
					</g>
					<g>
						<polygon style="fill:#E3917B;" points="258.758,325.519 258.417,325.027 257.26,325.144 257.601,325.636 						"/>
						<polygon style="fill:#892E27;" points="258.758,325.519 258.417,325.027 258.931,323.985 259.272,324.477 						"/>
					</g>
					<g>
						<polygon style="fill:#E3917B;" points="257.673,324.056 257.26,323.637 256.159,323.943 256.572,324.363 						"/>
						<polygon style="fill:#892E27;" points="257.673,324.056 257.26,323.637 257.584,322.541 257.997,322.96 						"/>
					</g>
					<g>
						<polygon style="fill:#E3917B;" points="256.335,322.791 255.862,322.457 254.851,322.947 255.323,323.28 						"/>
						<polygon style="fill:#892E27;" points="256.335,322.791 255.862,322.457 255.984,321.341 256.457,321.674 						"/>
					</g>
					<g>
						<polygon style="fill:#E3917B;" points="254.713,321.772 254.196,321.536 253.309,322.192 253.826,322.428 						"/>
						<polygon style="fill:#892E27;" points="254.713,321.772 254.196,321.536 254.111,320.436 254.628,320.672 						"/>
					</g>
					<g id="XMLID_176_">
						<polygon id="XMLID_178_" style="fill:#E3917B;" points="252.805,321.051 252.262,320.919 251.528,321.718 252.071,321.849 
													"/>
						<polygon id="XMLID_177_" style="fill:#892E27;" points="252.805,321.051 252.262,320.919 251.975,319.874 252.517,320.005 
													"/>
					</g>
				</g>
				<g id="XMLID_246_">
					<polygon id="XMLID_251_" style="fill:#E3917B;" points="250.999,320.462 250,319.886 249.001,320.462 250,321.039 					"/>
					<polygon id="XMLID_250_" style="fill:#892E27;" points="250.999,320.462 249.001,320.462 250,321.039 					"/>
				</g>
			</g>
			<path id="XMLID_375_" style="fill:#E3917B;" d="M250.406,326.118l1.163,2.851l3.071,0.225c0.392,0.029,0.551,0.518,0.251,0.772
				l-2.352,1.987l0.735,2.99c0.094,0.381-0.323,0.684-0.656,0.477L250,333.797l-2.617,1.623c-0.334,0.207-0.75-0.096-0.656-0.477
				l0.735-2.99l-2.352-1.987c-0.3-0.253-0.141-0.743,0.251-0.772l3.071-0.225l1.163-2.851
				C249.743,325.754,250.257,325.754,250.406,326.118z"/>
			
				<line id="XMLID_376_" style="fill:none;stroke:#EFB6AB;stroke-width:0.8798;stroke-linecap:round;stroke-miterlimit:10;" x1="220.471" y1="307.903" x2="254.635" y2="307.903"/>
			<path id="XMLID_377_" style="fill:#EFB6AB;" d="M218.591,307.903c0-0.243,0.197-0.44,0.44-0.44c0.243,0,0.44,0.197,0.44,0.44
				c0,0.243-0.197,0.44-0.44,0.44C218.788,308.343,218.591,308.146,218.591,307.903z"/>
			<path id="XMLID_379_" style="fill:#EFB6AB;" d="M256.085,307.903c0-0.243,0.197-0.44,0.44-0.44c0.243,0,0.44,0.197,0.44,0.44
				c0,0.243-0.197,0.44-0.44,0.44C256.282,308.343,256.085,308.146,256.085,307.903z"/>
		</g>
		<g id="XMLID_392_">
			<defs>
				<rect id="XMLID_391_" width="500" height="500"/>
			</defs>
			<clipPath id="XMLID_00000134960539742453844000000013527475057579746694_">
				<use xlink:href="#XMLID_391_"  style="overflow:visible;"/>
			</clipPath>
			<g id="XMLID_390_" style="clip-path:url(#XMLID_00000134960539742453844000000013527475057579746694_);">
				<g id="XMLID_166_">
					<path id="XMLID_247_" style="opacity:0.3;fill:#241056;" d="M0,61.541v352.672c0,1.604,6.484,2.587,10.292,2.954
						c4.805,0.567,11.661-0.01,13.9-1.726c1.008,2.557,5.163,2.513,6.086-0.118c0.874,1.487,3.814,1.986,9.241,2.008
						c5.069,0.053,10.266-0.983,10.271-3.114c0.002,2.078,1.631,3.117,3.25,3.117c1.62,0,3.25-1.04,3.25-3.12
						c0,2.08,5.96,3.12,11.93,3.12c5.96,0,11.92-1.04,11.92-3.12V61.541H0z M420,61.541v352.672c0,2.08,5.96,3.12,11.92,3.12
						c5.97,0,11.93-1.04,11.93-3.12c0,2.08,1.63,3.12,3.25,3.12c1.619,0,3.248-1.039,3.25-3.117
						c0.005,2.131,5.203,3.168,10.272,3.114c5.427-0.022,8.367-0.521,9.241-2.008c0.919,2.622,5.813,2.676,7.032,0.145
						c2.034,1.696,8.173,2.263,12.954,1.699c3.808-0.367,10.152-1.35,10.152-2.954V61.541H420z"/>
					<g id="XMLID_184_">
						<g id="XMLID_168_">
							<path id="XMLID_171_" style="fill:#F94E4E;" d="M480.198,409c0,4.222,19.802,4.222,19.802,0V75.331h-19.802V409z"/>
							<path id="XMLID_170_" style="fill:#F94E4E;" d="M454.349,409c0,4.163,19.802,4.163,19.802,0V75.331h-19.802V409z"/>
							<path id="XMLID_188_" style="fill:#F94E4E;" d="M447.85,75.33V409c0,2.08-5.96,3.12-11.93,3.12
								c-5.96,0-11.92-1.04-11.92-3.12V75.33H447.85z"/>
							<path id="XMLID_167_" style="fill:#D33333;" d="M473.667,409c0,4.163,6.504,4.163,6.504,0V75.331h-6.504V409z"/>
							<path id="XMLID_191_" style="fill:#D33333;" d="M454.35,75.33V409c0,2.08-1.63,3.12-3.25,3.12s-3.25-1.04-3.25-3.12V75.33
								H454.35z"/>
							<path id="XMLID_186_" style="fill:#E94643;" d="M447.85,75.33V409c0,2.08-5.96,3.12-11.93,3.12V75.33H447.85z"/>
							<path id="XMLID_179_" style="fill:#E94643;" d="M474.151,75.33V409c0,2.406-3.028,3.12-9.901,3.12V75.33H474.151z"/>
							<path id="XMLID_180_" style="fill:#E94643;" d="M500,75.33V409c0,2.08-3.931,3.12-9.901,3.12V75.33H500z"/>
							<path id="XMLID_189_" style="fill:#C12323;" d="M454.35,81.04V409c0,2.08-1.63,3.12-3.25,3.12V81.04H454.35z"/>
							<path id="XMLID_169_" style="fill:#C12323;" d="M480.169,81.04V409c0,2.08-1.63,3.12-3.25,3.12V81.04H480.169z"/>
						</g>
						<g id="XMLID_181_">
							<path id="XMLID_183_" style="fill:#F77777;" d="M428.25,386.23c-0.828,0-1.5-0.672-1.5-1.5V269.063
								c0-0.829,0.672-1.5,1.5-1.5c0.828,0,1.5,0.671,1.5,1.5V384.73C429.75,385.558,429.078,386.23,428.25,386.23z"/>
						</g>
						<g id="XMLID_187_">
							<path id="XMLID_190_" style="fill:#F77777;" d="M428.25,248.333c-0.828,0-1.5-0.672-1.5-1.5V131.167
								c0-0.829,0.672-1.5,1.5-1.5c0.828,0,1.5,0.671,1.5,1.5v115.667C429.75,247.661,429.078,248.333,428.25,248.333z"/>
						</g>
						<g id="XMLID_193_">
							<path id="XMLID_194_" style="fill:#F77777;" d="M458.667,196.833c-0.828,0-1.5-0.672-1.5-1.5V129.5
								c0-0.829,0.672-1.5,1.5-1.5c0.828,0,1.5,0.671,1.5,1.5v65.833C460.167,196.161,459.496,196.833,458.667,196.833z"/>
						</g>
						<circle id="XMLID_182_" style="fill:#F77777;" cx="428.285" cy="392.926" r="1.535"/>
						<path id="XMLID_185_" style="fill:#F77777;" d="M429.819,258.862c0,0.847-0.687,1.535-1.535,1.535
							c-0.848,0-1.535-0.687-1.535-1.535c0-0.848,0.687-1.535,1.535-1.535C429.132,257.328,429.819,258.015,429.819,258.862z"/>
						<g id="XMLID_204_">
							<path id="XMLID_205_" style="fill:#F77777;" d="M484.292,278.333c-0.828,0-1.5-0.672-1.5-1.5V161.167
								c0-0.829,0.672-1.5,1.5-1.5c0.828,0,1.5,0.671,1.5,1.5v115.667C485.792,277.661,485.12,278.333,484.292,278.333z"/>
						</g>
						<path id="XMLID_203_" style="fill:#F77777;" d="M485.861,288.862c0,0.847-0.687,1.535-1.535,1.535
							c-0.848,0-1.535-0.687-1.535-1.535c0-0.848,0.687-1.535,1.535-1.535C485.174,287.328,485.861,288.015,485.861,288.862z"/>
						<circle id="XMLID_206_" style="fill:#F77777;" cx="484.327" cy="150.667" r="1.535"/>
						<circle id="XMLID_192_" style="fill:#F77777;" cx="458.667" cy="119.5" r="1.535"/>
						<circle id="XMLID_195_" style="fill:#F77777;" cx="458.667" cy="206.5" r="1.535"/>
						<g id="XMLID_198_">
							<path id="XMLID_199_" style="fill:#F77777;" d="M458.667,351.333c-0.828,0-1.5-0.672-1.5-1.5V284c0-0.829,0.672-1.5,1.5-1.5
								c0.828,0,1.5,0.671,1.5,1.5v65.833C460.167,350.661,459.496,351.333,458.667,351.333z"/>
						</g>
						<circle id="XMLID_197_" style="fill:#F77777;" cx="458.667" cy="274" r="1.535"/>
						<g id="XMLID_201_">
							<path id="XMLID_202_" style="fill:#F77777;" d="M484.5,407.333c-0.828,0-1.5-0.672-1.5-1.5V340c0-0.829,0.672-1.5,1.5-1.5
								c0.828,0,1.5,0.671,1.5,1.5v65.833C486,406.661,485.328,407.333,484.5,407.333z"/>
						</g>
						<path id="XMLID_200_" style="fill:#F77777;" d="M486.035,330c0,0.848-0.687,1.535-1.535,1.535
							c-0.848,0-1.535-0.687-1.535-1.535c0-0.848,0.687-1.535,1.535-1.535C485.347,328.465,486.035,329.152,486.035,330z"/>
						<circle id="XMLID_196_" style="fill:#F77777;" cx="458.667" cy="361" r="1.535"/>
					</g>
					<g id="XMLID_208_">
						<g id="XMLID_230_">
							<path id="XMLID_240_" style="fill:#F94E4E;" d="M19.942,409c0,4.222-19.802,4.222-19.802,0V75.331h19.802V409z"/>
							<path id="XMLID_239_" style="fill:#F94E4E;" d="M45.791,409c0,4.163-19.802,4.163-19.802,0V75.331h19.802V409z"/>
							<path id="XMLID_238_" style="fill:#F94E4E;" d="M52.29,75.33V409c0,2.08,5.96,3.12,11.93,3.12c5.96,0,11.92-1.04,11.92-3.12
								V75.33H52.29z"/>
							<path id="XMLID_237_" style="fill:#D33333;" d="M26.473,409c0,4.163-6.504,4.163-6.504,0l0-333.669h6.504L26.473,409z"/>
							<path id="XMLID_236_" style="fill:#D33333;" d="M45.79,75.33V409c0,2.08,1.63,3.12,3.25,3.12c1.62,0,3.25-1.04,3.25-3.12
								V75.33H45.79z"/>
							<path id="XMLID_235_" style="fill:#E94643;" d="M52.29,75.33V409c0,2.08,5.96,3.12,11.93,3.12V75.33H52.29z"/>
							<path id="XMLID_234_" style="fill:#E94643;" d="M25.989,75.33V409c0,2.406,3.028,3.12,9.901,3.12V75.33H25.989z"/>
							<path id="XMLID_233_" style="fill:#E94643;" d="M0.14,75.33V409c0,2.08,3.931,3.12,9.901,3.12V75.33H0.14z"/>
							<path id="XMLID_232_" style="fill:#C12323;" d="M45.79,81.04V409c0,2.08,1.63,3.12,3.25,3.12V81.04H45.79z"/>
							<path id="XMLID_231_" style="fill:#C12323;" d="M19.971,81.04V409c0,2.08,1.63,3.12,3.25,3.12V81.04H19.971z"/>
						</g>
						<g id="XMLID_228_">
							<path id="XMLID_229_" style="fill:#F77777;" d="M71.89,386.23c0.828,0,1.5-0.672,1.5-1.5V269.063c0-0.829-0.672-1.5-1.5-1.5
								c-0.828,0-1.5,0.671-1.5,1.5V384.73C70.39,385.558,71.062,386.23,71.89,386.23z"/>
						</g>
						<g id="XMLID_226_">
							<path id="XMLID_227_" style="fill:#F77777;" d="M71.89,248.333c0.828,0,1.5-0.672,1.5-1.5V131.167c0-0.829-0.672-1.5-1.5-1.5
								c-0.828,0-1.5,0.671-1.5,1.5v115.667C70.39,247.661,71.062,248.333,71.89,248.333z"/>
						</g>
						<g id="XMLID_224_">
							<path id="XMLID_225_" style="fill:#F77777;" d="M41.473,196.833c0.828,0,1.5-0.672,1.5-1.5V129.5c0-0.829-0.672-1.5-1.5-1.5
								s-1.5,0.671-1.5,1.5v65.833C39.973,196.161,40.644,196.833,41.473,196.833z"/>
						</g>
						<circle id="XMLID_223_" style="fill:#F77777;" cx="71.855" cy="392.926" r="1.535"/>
						<path id="XMLID_222_" style="fill:#F77777;" d="M70.321,258.862c0,0.847,0.687,1.535,1.535,1.535
							c0.848,0,1.535-0.687,1.535-1.535c0-0.848-0.687-1.535-1.535-1.535C71.008,257.328,70.321,258.015,70.321,258.862z"/>
						<g id="XMLID_220_">
							<path id="XMLID_221_" style="fill:#F77777;" d="M15.848,278.333c0.828,0,1.5-0.672,1.5-1.5V161.167
								c0-0.829-0.672-1.5-1.5-1.5c-0.828,0-1.5,0.671-1.5,1.5v115.667C14.348,277.661,15.02,278.333,15.848,278.333z"/>
						</g>
						<path id="XMLID_219_" style="fill:#F77777;" d="M14.279,288.862c0,0.847,0.687,1.535,1.535,1.535
							c0.848,0,1.535-0.687,1.535-1.535c0-0.848-0.687-1.535-1.535-1.535C14.966,287.328,14.279,288.015,14.279,288.862z"/>
						<path id="XMLID_218_" style="fill:#F77777;" d="M14.279,150.667c0,0.848,0.687,1.535,1.535,1.535
							c0.848,0,1.535-0.687,1.535-1.535c0-0.848-0.687-1.535-1.535-1.535C14.966,149.132,14.279,149.819,14.279,150.667z"/>
						<circle id="XMLID_217_" style="fill:#F77777;" cx="41.473" cy="119.5" r="1.535"/>
						<circle id="XMLID_216_" style="fill:#F77777;" cx="41.473" cy="206.5" r="1.535"/>
						<g id="XMLID_214_">
							<path id="XMLID_215_" style="fill:#F77777;" d="M41.473,351.333c0.828,0,1.5-0.672,1.5-1.5V284c0-0.829-0.672-1.5-1.5-1.5
								s-1.5,0.671-1.5,1.5v65.833C39.973,350.661,40.644,351.333,41.473,351.333z"/>
						</g>
						<circle id="XMLID_213_" style="fill:#F77777;" cx="41.473" cy="274" r="1.535"/>
						<g id="XMLID_211_">
							<path id="XMLID_212_" style="fill:#F77777;" d="M15.64,407.333c0.828,0,1.5-0.672,1.5-1.5V340c0-0.829-0.672-1.5-1.5-1.5
								c-0.828,0-1.5,0.671-1.5,1.5v65.833C14.14,406.661,14.812,407.333,15.64,407.333z"/>
						</g>
						<circle id="XMLID_210_" style="fill:#F77777;" cx="15.64" cy="330" r="1.535"/>
						<circle id="XMLID_209_" style="fill:#F77777;" cx="41.473" cy="361" r="1.535"/>
					</g>
				</g>
				<g id="XMLID_163_">
					<path id="XMLID_165_" style="opacity:0.3;fill:#241056;" d="M337.527,53.991v11.677c0,0,7.149,43.486,99.723,43.486
						s99.722-43.486,99.722-43.486V53.991H337.527z"/>
					<path id="XMLID_162_" style="opacity:0.3;fill:#241056;" d="M-40.308,65.668c0,0,7.149,43.486,99.723,43.486
						s99.723-43.486,99.723-43.486V53.991H-40.308V65.668z"/>
					<g id="XMLID_133_">
						<g id="XMLID_141_">
							<path id="XMLID_161_" style="fill:#E53C3C;" d="M337.527,59.427c0,0,7.149,43.486,99.723,43.486s99.723-43.486,99.723-43.486
								V47.75H337.527V59.427z"/>
							<path id="XMLID_160_" style="fill:#CE2929;" d="M339.138,47.75v11.677c0,0,11.407,34.628,98.112,34.628
								s98.112-34.628,98.112-34.628V47.75H339.138z"/>
							<path id="XMLID_157_" style="fill:#E53C3C;" d="M342.359,47.75v11.274c0,0,17.044,29.796,94.891,29.796
								s94.891-29.796,94.891-29.796V47.75H342.359z"/>
							<path id="XMLID_156_" style="fill:none;stroke:#F77777;stroke-width:1.6106;stroke-linecap:round;stroke-miterlimit:10;" d="
								M395.952,82.966c-15.569-2.878-27.394-7.113-34.668-10.923"/>
							<path id="XMLID_155_" style="fill:none;stroke:#F77777;stroke-width:1.6106;stroke-linecap:round;stroke-miterlimit:10;" d="
								M512.949,72.044c-9.34,4.892-25.302,10.485-48.826,13.005c-7.98,0.855-16.908,1.356-26.873,1.356"/>
							<path id="XMLID_145_" style="fill:#CE2929;" d="M349.003,47.75v10.872c0,0,21.643,22.951,88.247,22.951
								s88.247-22.951,88.247-22.951V47.75H349.003z"/>
							<path id="XMLID_144_" style="fill:#E53C3C;" d="M354.974,47.75v10.872c0,0,29.848,16.71,82.276,16.71
								s82.276-16.71,82.276-16.71V47.75H354.974z"/>
							<path id="XMLID_143_" style="fill:none;stroke:#F77777;stroke-width:1.6106;stroke-linecap:round;stroke-miterlimit:10;" d="
								M456.468,72.131c-6.016,0.498-12.428,0.785-19.218,0.785c-19.033,0-35.099-2.254-47.783-5.09"/>
							<path id="XMLID_142_" style="fill:#CE2929;" d="M373.194,47.75v11.274c0,0,20.302,7.65,64.056,7.65s64.056-7.65,64.056-7.65
								V47.75H373.194z"/>
						</g>
						<path id="XMLID_140_" style="fill:#F77777;" d="M431.915,86.404c0-0.427,0.346-0.772,0.772-0.772s0.772,0.346,0.772,0.772
							c0,0.426-0.346,0.772-0.772,0.772S431.915,86.831,431.915,86.404z"/>
						<path id="XMLID_139_" style="fill:#F77777;" d="M516.136,70.13c0-0.426,0.346-0.772,0.772-0.772
							c0.427,0,0.772,0.346,0.772,0.772c0,0.427-0.346,0.772-0.772,0.772C516.482,70.902,516.136,70.557,516.136,70.13z"/>
						<path id="XMLID_138_" style="fill:#F77777;" d="M460.369,71.675c0-0.426,0.346-0.772,0.772-0.772
							c0.426,0,0.772,0.346,0.772,0.772s-0.346,0.772-0.772,0.772C460.715,72.447,460.369,72.101,460.369,71.675z"/>
						<path id="XMLID_137_" style="fill:#F77777;" d="M357.089,70.13c0-0.426,0.346-0.772,0.772-0.772
							c0.427,0,0.772,0.346,0.772,0.772c0,0.427-0.346,0.772-0.772,0.772C357.435,70.902,357.089,70.557,357.089,70.13z"/>
						<path id="XMLID_136_" style="fill:#F77777;" d="M484.327,94.827c0-0.427,0.346-0.772,0.772-0.772
							c0.426,0,0.772,0.346,0.772,0.772c0,0.426-0.346,0.772-0.772,0.772C484.672,95.599,484.327,95.254,484.327,94.827z"/>
						<path id="XMLID_135_" style="fill:none;stroke:#F77777;stroke-width:1.6106;stroke-linecap:round;stroke-miterlimit:10;" d="
							M480.198,95.723c-11.584,2.426-25.723,3.969-42.948,3.969c-8.102,0-15.521-0.341-22.312-0.955"/>
						<path id="XMLID_134_" style="fill:none;stroke:#F77777;stroke-width:1.6106;stroke-linecap:round;stroke-miterlimit:10;" d="
							M521.539,78.795c-6.952,4.602-17.204,10.368-31.349,14.455"/>
					</g>
					<g id="XMLID_124_">
						<g id="XMLID_132_">
							<path id="XMLID_154_" style="fill:#E53C3C;" d="M159.138,59.427c0,0-7.149,43.486-99.723,43.486
								s-99.723-43.486-99.723-43.486V47.75h199.445V59.427z"/>
							<path id="XMLID_153_" style="fill:#CE2929;" d="M157.527,47.75v11.677c0,0-11.407,34.628-98.112,34.628
								s-98.112-34.628-98.112-34.628V47.75H157.527z"/>
							<path id="XMLID_152_" style="fill:#E53C3C;" d="M154.306,47.75v11.274c0,0-17.044,29.796-94.891,29.796
								s-94.891-29.796-94.891-29.796V47.75H154.306z"/>
							<path id="XMLID_151_" style="fill:none;stroke:#F77777;stroke-width:1.6106;stroke-linecap:round;stroke-miterlimit:10;" d="
								M100.713,82.966c15.569-2.878,27.394-7.113,34.668-10.923"/>
							<path id="XMLID_150_" style="fill:none;stroke:#F77777;stroke-width:1.6106;stroke-linecap:round;stroke-miterlimit:10;" d="
								M-16.284,72.044c9.34,4.892,25.302,10.485,48.826,13.005c7.98,0.855,16.908,1.356,26.873,1.356"/>
							<path id="XMLID_149_" style="fill:#CE2929;" d="M147.662,47.75v10.872c0,0-21.643,22.951-88.247,22.951
								s-88.247-22.951-88.247-22.951V47.75H147.662z"/>
							<path id="XMLID_148_" style="fill:#E53C3C;" d="M141.691,47.75v10.872c0,0-29.848,16.71-82.276,16.71
								s-82.276-16.71-82.276-16.71V47.75H141.691z"/>
							<path id="XMLID_147_" style="fill:none;stroke:#F77777;stroke-width:1.6106;stroke-linecap:round;stroke-miterlimit:10;" d="
								M40.197,72.131c6.016,0.498,12.428,0.785,19.218,0.785c19.033,0,35.099-2.254,47.783-5.09"/>
							<path id="XMLID_146_" style="fill:#CE2929;" d="M123.471,47.75v11.274c0,0-20.302,7.65-64.056,7.65s-64.056-7.65-64.056-7.65
								V47.75H123.471z"/>
						</g>
						<circle id="XMLID_131_" style="fill:#F77777;" cx="63.978" cy="86.404" r="0.772"/>
						<path id="XMLID_130_" style="fill:#F77777;" d="M-19.471,70.13c0-0.426-0.346-0.772-0.772-0.772s-0.772,0.346-0.772,0.772
							c0,0.427,0.346,0.772,0.772,0.772S-19.471,70.557-19.471,70.13z"/>
						<path id="XMLID_129_" style="fill:#F77777;" d="M36.296,71.675c0-0.426-0.346-0.772-0.772-0.772
							c-0.427,0-0.772,0.346-0.772,0.772s0.346,0.772,0.772,0.772C35.95,72.447,36.296,72.101,36.296,71.675z"/>
						<path id="XMLID_128_" style="fill:#F77777;" d="M139.576,70.13c0-0.426-0.346-0.772-0.772-0.772s-0.772,0.346-0.772,0.772
							c0,0.427,0.346,0.772,0.772,0.772S139.576,70.557,139.576,70.13z"/>
						<path id="XMLID_127_" style="fill:#F77777;" d="M12.338,94.827c0-0.427-0.346-0.772-0.772-0.772
							c-0.427,0-0.772,0.346-0.772,0.772c0,0.426,0.346,0.772,0.772,0.772C11.993,95.599,12.338,95.254,12.338,94.827z"/>
						<path id="XMLID_126_" style="fill:none;stroke:#F77777;stroke-width:1.6106;stroke-linecap:round;stroke-miterlimit:10;" d="
							M16.467,95.723c11.584,2.426,25.723,3.969,42.948,3.969c8.102,0,15.521-0.341,22.312-0.955"/>
						<path id="XMLID_125_" style="fill:none;stroke:#F77777;stroke-width:1.6106;stroke-linecap:round;stroke-miterlimit:10;" d="
							M-24.874,78.795c6.952,4.602,17.204,10.368,31.349,14.455"/>
					</g>
					<path id="XMLID_159_" style="opacity:0.3;fill:#241056;" d="M124.5,55.5V70c0,0,8.878,54,123.833,54s123.833-54,123.833-54
						V55.5H124.5z"/>
					<g id="XMLID_106_">
						<g id="XMLID_114_">
							<path id="XMLID_123_" style="fill:#E53C3C;" d="M124.5,62.25c0,0,8.878,54,123.833,54s123.833-54,123.833-54v-14.5H124.5
								V62.25z"/>
							<path id="XMLID_122_" style="fill:#CE2929;" d="M126.5,47.75v14.5c0,0,14.165,43,121.832,43s121.833-43,121.833-43v-14.5
								H126.5z"/>
							<path id="XMLID_121_" style="fill:#E53C3C;" d="M130.5,47.75v14c0,0,21.165,37,117.832,37s117.833-37,117.833-37v-14H130.5z"
								/>
							<path id="XMLID_120_" style="fill:none;stroke:#F77777;stroke-width:2;stroke-linecap:round;stroke-miterlimit:10;" d="
								M197.05,91.481c-19.334-3.573-34.017-8.832-43.05-13.563"/>
							<path id="XMLID_119_" style="fill:none;stroke:#F77777;stroke-width:2;stroke-linecap:round;stroke-miterlimit:10;" d="
								M342.333,77.918c-11.598,6.075-31.419,13.02-60.63,16.149c-9.909,1.061-20.995,1.684-33.37,1.684"/>
							<path id="XMLID_118_" style="fill:#CE2929;" d="M138.75,47.75v13.5c0,0,26.876,28.5,109.582,28.5s109.583-28.5,109.583-28.5
								v-13.5H138.75z"/>
							<path id="XMLID_117_" style="fill:#E53C3C;" d="M146.165,47.75v13.5c0,0,37.065,20.75,102.167,20.75S350.5,61.25,350.5,61.25
								v-13.5H146.165z"/>
							<path id="XMLID_116_" style="fill:none;stroke:#F77777;stroke-width:2;stroke-linecap:round;stroke-miterlimit:10;" d="
								M272.196,78.026C264.726,78.644,256.764,79,248.332,79c-23.635,0-43.585-2.798-59.335-6.321"/>
							<path id="XMLID_115_" style="fill:#CE2929;" d="M168.79,47.75v14c0,0,25.21,9.5,79.542,9.5s79.543-9.5,79.543-9.5v-14H168.79
								z"/>
						</g>
						<circle id="XMLID_113_" style="fill:#F77777;" cx="242.667" cy="95.75" r="0.959"/>
						<circle id="XMLID_112_" style="fill:#F77777;" cx="347.25" cy="75.541" r="0.959"/>
						<circle id="XMLID_111_" style="fill:#F77777;" cx="278" cy="77.459" r="0.959"/>
						<circle id="XMLID_110_" style="fill:#F77777;" cx="149.75" cy="75.541" r="0.959"/>
						<circle id="XMLID_109_" style="fill:#F77777;" cx="307.75" cy="106.209" r="0.959"/>
						<path id="XMLID_108_" style="fill:none;stroke:#F77777;stroke-width:2;stroke-linecap:round;stroke-miterlimit:10;" d="
							M301.664,107.322c-14.385,3.012-31.942,4.928-53.332,4.928c-10.061,0-19.273-0.424-27.707-1.186"/>
						<path id="XMLID_107_" style="fill:none;stroke:#F77777;stroke-width:2;stroke-linecap:round;stroke-miterlimit:10;" d="
							M353,86.3c-8.633,5.715-21.364,12.875-38.928,17.95"/>
					</g>
				</g>
				<g id="XMLID_164_">
					<path id="XMLID_158_" style="opacity:0.3;fill:#241056;" d="M0,6.958v58.22c0,3.18,9.54,4.76,19.07,4.76s19.07-1.58,19.07-4.76
						c0,3.18,3.58,4.77,7.15,4.76c3.58,0,7.14-1.58,7.14-4.76v0.11c0,3.1,12.27,4.65,24.53,4.65c12.27,0,24.54-1.55,24.54-4.65
						c0,3.1,1.62,4.65,3.25,4.65s3.25-1.55,3.25-4.65c0,3.1,7.66,4.65,15.33,4.65s15.34-1.55,15.34-4.65c0,3.1,1.41,4.65,2.83,4.65
						s2.83-1.55,2.83-4.65c0,3.1,5.42,4.65,10.84,4.65s10.83-1.55,10.83-4.65c0,3.1,2.84,4.65,5.67,4.65c2.84,0,5.66-1.55,5.66-4.65
						c0,3.1,7.75,4.65,15.5,4.65s15.5-1.55,15.5-4.65v-0.11c0,3.18,1.67,4.77,3.34,4.76c1.67-0.01,3.33-1.59,3.33-4.76
						c0,3.18,9.54,4.76,19.07,4.76c9.53,0,19.07-1.58,19.07-4.76c0,3.18,3.58,4.77,7.15,4.76c3.58,0,7.14-1.58,7.14-4.76v0.11
						c0,3.1,12.27,4.65,24.53,4.65c12.27,0,24.54-1.55,24.54-4.65c0,3.1,1.62,4.65,3.25,4.65s3.25-1.55,3.25-4.65
						c0,2.92,6.8,4.46,14,4.63c8.08,0.2,16.67-1.35,16.67-4.63c0,3.1,1.41,4.65,2.83,4.65s2.83-1.55,2.83-4.65
						c0,3.1,5.42,4.65,10.84,4.65c5.42,0,10.83-1.55,10.83-4.65c0,3.1,2.84,4.65,5.67,4.65c2.84,0,5.66-1.55,5.66-4.65
						c0,3.1,7.75,4.65,15.5,4.65s15.5-1.55,15.5-4.65v-0.11c0,3.17,2.79,4.76,5.59,4.76c2.79,0,5.58-1.59,5.58-4.76
						c0,3.17,5.75,4.76,11.5,4.76s11.5-1.59,11.5-4.76c0,3.17,2.25,4.76,4.5,4.76s4.5-1.59,4.5-4.76c0,3.17,8.38,4.76,16.75,4.76
						s16.75-1.59,16.75-4.76V6.958H0z"/>
					<g id="XMLID_30_">
						<path id="XMLID_105_" style="fill:#E94643;" d="M38.14,0v58.22c0,3.18-9.54,4.76-19.07,4.76S0,61.4,0,58.22V0H38.14z"/>
						<path id="XMLID_104_" style="fill:#D33333;" d="M52.43,0v58.22c0,3.18-3.56,4.76-7.14,4.76c-3.57,0.01-7.15-1.58-7.15-4.76V0
							H52.43z"/>
						<path id="XMLID_103_" style="fill:#E94643;" d="M101.5,0v58.33c0,3.1-12.27,4.65-24.54,4.65c-12.26,0-24.53-1.55-24.53-4.65V0
							H101.5z"/>
						<path id="XMLID_102_" style="fill:#D33333;" d="M108,0v58.33c0,3.1-1.62,4.65-3.25,4.65s-3.25-1.55-3.25-4.65V0H108z"/>
						<path id="XMLID_101_" style="fill:#E94643;" d="M138.67,0v58.33c0,3.1-7.67,4.65-15.34,4.65S108,61.43,108,58.33V0H138.67z"/>
						<path id="XMLID_100_" style="fill:#D33333;" d="M144.33,0v58.33c0,3.1-1.41,4.65-2.83,4.65s-2.83-1.55-2.83-4.65V0H144.33z"/>
						<path id="XMLID_99_" style="fill:#E94643;" d="M166,0v58.33c0,3.1-5.41,4.65-10.83,4.65s-10.84-1.55-10.84-4.65V0H166z"/>
						<path id="XMLID_98_" style="fill:#D33333;" d="M177.33,0v58.33c0,3.1-2.82,4.65-5.66,4.65c-2.83,0-5.67-1.55-5.67-4.65V0
							H177.33z"/>
						<path id="XMLID_97_" style="fill:#E94643;" d="M208.33,0v58.33c0,3.1-7.75,4.65-15.5,4.65s-15.5-1.55-15.5-4.65V0H208.33z"/>
						<path id="XMLID_96_" style="fill:#E94643;" d="M253.14,0v58.22c0,3.18-9.54,4.76-19.07,4.76c-9.53,0-19.07-1.58-19.07-4.76V0
							H253.14z"/>
						<path id="XMLID_95_" style="fill:#D33333;" d="M267.43,0v58.22c0,3.18-3.56,4.76-7.14,4.76c-3.57,0.01-7.15-1.58-7.15-4.76V0
							H267.43z"/>
						<path id="XMLID_94_" style="fill:#E94643;" d="M316.5,0v58.33c0,3.1-12.27,4.65-24.54,4.65c-12.26,0-24.53-1.55-24.53-4.65V0
							H316.5z"/>
						<path id="XMLID_93_" style="fill:#D33333;" d="M323,0v58.33c0,3.1-1.62,4.65-3.25,4.65s-3.25-1.55-3.25-4.65V0H323z"/>
						<path id="XMLID_92_" style="fill:#E94643;" d="M353.67,0v58.33c0,3.28-8.59,4.83-16.67,4.63c-7.2-0.17-14-1.71-14-4.63V0
							H353.67z"/>
						<path id="XMLID_91_" style="fill:#D33333;" d="M359.33,0v58.33c0,3.1-1.41,4.65-2.83,4.65s-2.83-1.55-2.83-4.65V0H359.33z"/>
						<path id="XMLID_90_" style="fill:#E94643;" d="M381,0v58.33c0,3.1-5.41,4.65-10.83,4.65c-5.42,0-10.84-1.55-10.84-4.65V0H381z
							"/>
						<path id="XMLID_89_" style="fill:#D33333;" d="M392.33,0v58.33c0,3.1-2.82,4.65-5.66,4.65c-2.83,0-5.67-1.55-5.67-4.65V0
							H392.33z"/>
						<path id="XMLID_88_" style="fill:#E94643;" d="M423.33,0v58.33c0,3.1-7.75,4.65-15.5,4.65s-15.5-1.55-15.5-4.65V0H423.33z"/>
						<path id="XMLID_87_" style="fill:#D33333;" d="M215,0v58.22c0,3.17-1.66,4.75-3.33,4.76c-1.67,0.01-3.34-1.58-3.34-4.76V0H215
							z"/>
						<path id="XMLID_86_" style="fill:#D33333;" d="M434.5,0v58.22c0,3.17-2.79,4.76-5.58,4.76c-2.8,0-5.59-1.59-5.59-4.76V0H434.5
							z"/>
						<path id="XMLID_85_" style="fill:#E94643;" d="M457.5,0v58.22c0,3.17-5.75,4.76-11.5,4.76s-11.5-1.59-11.5-4.76V0H457.5z"/>
						<path id="XMLID_84_" style="fill:#D33333;" d="M466.5,0v58.22c0,3.17-2.25,4.76-4.5,4.76s-4.5-1.59-4.5-4.76V0H466.5z"/>
						<path id="XMLID_83_" style="fill:#E94643;" d="M500,0v58.22c0,3.17-8.38,4.76-16.75,4.76s-16.75-1.59-16.75-4.76V0H500z"/>
						<path id="XMLID_82_" style="fill:#F94E4E;" d="M19.07,0v62.98C9.54,62.98,0,61.4,0,58.22V0H19.07z"/>
						<path id="XMLID_81_" style="fill:#F94E4E;" d="M76.96,0v62.98c-12.26,0-24.53-1.55-24.53-4.65V0H76.96z"/>
						<path id="XMLID_80_" style="fill:#F94E4E;" d="M123.33,0v62.98c-7.67,0-15.33-1.55-15.33-4.65V0H123.33z"/>
						<path id="XMLID_79_" style="fill:#F94E4E;" d="M155.17,0v62.98c-5.42,0-10.84-1.55-10.84-4.65V0H155.17z"/>
						<path id="XMLID_78_" style="fill:#F94E4E;" d="M192.83,0v62.98c-7.75,0-15.5-1.55-15.5-4.65V0H192.83z"/>
						<path id="XMLID_75_" style="fill:#F94E4E;" d="M234.07,0v62.98c-9.53,0-19.07-1.58-19.07-4.76V0H234.07z"/>
						<path id="XMLID_68_" style="fill:#F94E4E;" d="M291.96,0v62.98c-12.26,0-24.53-1.55-24.53-4.65V0H291.96z"/>
						<path id="XMLID_56_" style="fill:#F94E4E;" d="M337,0v62.96c-7.2-0.17-14-1.71-14-4.63V0H337z"/>
						<path id="XMLID_55_" style="fill:#F94E4E;" d="M370.17,0v62.98c-5.42,0-10.84-1.55-10.84-4.65V0H370.17z"/>
						<path id="XMLID_53_" style="fill:#F94E4E;" d="M407.83,0v62.98c-7.75,0-15.5-1.55-15.5-4.65V0H407.83z"/>
						<path id="XMLID_50_" style="fill:#F94E4E;" d="M446,0v62.98c-5.75,0-11.5-1.59-11.5-4.76V0H446z"/>
						<path id="XMLID_48_" style="fill:#F94E4E;" d="M483.25,0v62.98c-8.37,0-16.75-1.59-16.75-4.76V0H483.25z"/>
						<path id="XMLID_47_" style="fill:#C12323;" d="M52.43,0v58.22c0,3.18-3.56,4.76-7.14,4.76V0H52.43z"/>
						<path id="XMLID_46_" style="fill:#C12323;" d="M108,0v58.33c0,3.1-1.62,4.65-3.25,4.65V0H108z"/>
						<path id="XMLID_66_" style="fill:#C12323;" d="M144.33,0v58.33c0,3.1-1.41,4.65-2.83,4.65V0H144.33z"/>
						<path id="XMLID_54_" style="fill:#C12323;" d="M177.33,0v58.33c0,3.1-2.82,4.65-5.66,4.65V0H177.33z"/>
						<path id="XMLID_51_" style="fill:#C12323;" d="M215,0v58.22c0,3.17-1.66,4.75-3.33,4.76V0H215z"/>
						<path id="XMLID_49_" style="fill:#C12323;" d="M267.43,0v58.22c0,3.18-3.56,4.76-7.14,4.76V0H267.43z"/>
						<path id="XMLID_45_" style="fill:#C12323;" d="M323,0v58.33c0,3.1-1.62,4.65-3.25,4.65V0H323z"/>
						<path id="XMLID_73_" style="fill:#C12323;" d="M359.33,0v58.33c0,3.1-1.41,4.65-2.83,4.65V0H359.33z"/>
						<path id="XMLID_44_" style="fill:#C12323;" d="M392.33,0v58.33c0,3.1-2.82,4.65-5.66,4.65V0H392.33z"/>
						<path id="XMLID_43_" style="fill:#C12323;" d="M434.5,0v58.22c0,3.17-2.79,4.76-5.58,4.76V0H434.5z"/>
						<path id="XMLID_42_" style="fill:#C12323;" d="M466.5,0v58.22c0,3.17-2.25,4.76-4.5,4.76V0H466.5z"/>
						<path id="XMLID_41_" style="fill:#F77777;" d="M4.25,48.75L4.25,48.75c-0.828,0-1.5-0.672-1.5-1.5V4
							c0-0.828,0.672-1.5,1.5-1.5l0,0c0.828,0,1.5,0.672,1.5,1.5v43.25C5.75,48.078,5.078,48.75,4.25,48.75z"/>
						<circle id="XMLID_40_" style="fill:#F77777;" cx="4.187" cy="53.438" r="1.437"/>
						<path id="XMLID_60_" style="fill:#F77777;" d="M181.333,48.75L181.333,48.75c-0.828,0-1.5-0.672-1.5-1.5V4
							c0-0.828,0.672-1.5,1.5-1.5l0,0c0.828,0,1.5,0.672,1.5,1.5v43.25C182.833,48.078,182.162,48.75,181.333,48.75z"/>
						<circle id="XMLID_59_" style="fill:#F77777;" cx="181.271" cy="53.438" r="1.438"/>
						<path id="XMLID_65_" style="fill:#F77777;" d="M327.875,48.75L327.875,48.75c-0.828,0-1.5-0.672-1.5-1.5V4
							c0-0.828,0.672-1.5,1.5-1.5l0,0c0.828,0,1.5,0.672,1.5,1.5v43.25C329.375,48.078,328.703,48.75,327.875,48.75z"/>
						<path id="XMLID_64_" style="fill:#F77777;" d="M329.25,53.438c0,0.794-0.644,1.438-1.438,1.438
							c-0.794,0-1.438-0.644-1.438-1.438S327.019,52,327.813,52C328.606,52,329.25,52.644,329.25,53.438z"/>
						<path id="XMLID_72_" style="fill:#F77777;" d="M438.75,48.75L438.75,48.75c-0.828,0-1.5-0.672-1.5-1.5V4
							c0-0.828,0.672-1.5,1.5-1.5l0,0c0.828,0,1.5,0.672,1.5,1.5v43.25C440.25,48.078,439.578,48.75,438.75,48.75z"/>
						<path id="XMLID_71_" style="fill:#F77777;" d="M440.125,53.438c0,0.794-0.644,1.438-1.438,1.438
							c-0.794,0-1.438-0.644-1.438-1.438S437.894,52,438.688,52C439.481,52,440.125,52.644,440.125,53.438z"/>
						<path id="XMLID_39_" style="fill:#F77777;" d="M56.896,48.75L56.896,48.75c-0.828,0-1.5-0.672-1.5-1.5V21.833
							c0-0.828,0.672-1.5,1.5-1.5l0,0c0.829,0,1.5,0.672,1.5,1.5V47.25C58.396,48.078,57.724,48.75,56.896,48.75z"/>
						<circle id="XMLID_38_" style="fill:#F77777;" cx="56.833" cy="53.438" r="1.438"/>
						<circle id="XMLID_37_" style="fill:#F77777;" cx="56.833" cy="16.833" r="1.438"/>
						<path id="XMLID_58_" style="fill:#F77777;" d="M148.25,48.75L148.25,48.75c-0.828,0-1.5-0.672-1.5-1.5V21.833
							c0-0.828,0.672-1.5,1.5-1.5l0,0c0.828,0,1.5,0.672,1.5,1.5V47.25C149.75,48.078,149.078,48.75,148.25,48.75z"/>
						<circle id="XMLID_57_" style="fill:#F77777;" cx="148.188" cy="53.438" r="1.437"/>
						<circle id="XMLID_36_" style="fill:#F77777;" cx="148.188" cy="16.833" r="1.437"/>
						<path id="XMLID_61_" style="fill:#F77777;" d="M219.25,38.448L219.25,38.448c-0.828,0-1.5-0.672-1.5-1.5V11.531
							c0-0.828,0.672-1.5,1.5-1.5l0,0c0.828,0,1.5,0.672,1.5,1.5v25.417C220.75,37.776,220.078,38.448,219.25,38.448z"/>
						<circle id="XMLID_52_" style="fill:#F77777;" cx="219.188" cy="43.135" r="1.437"/>
						<circle id="XMLID_35_" style="fill:#F77777;" cx="219.188" cy="6.531" r="1.437"/>
						<path id="XMLID_67_" style="fill:#F77777;" d="M363.25,52.063L363.25,52.063c-0.828,0-1.5-0.672-1.5-1.5V25.146
							c0-0.828,0.672-1.5,1.5-1.5l0,0c0.828,0,1.5,0.672,1.5,1.5v25.417C364.75,51.391,364.078,52.063,363.25,52.063z"/>
						<path id="XMLID_34_" style="fill:#F77777;" d="M364.625,56.75c0,0.794-0.644,1.438-1.438,1.438
							c-0.794,0-1.438-0.644-1.438-1.438s0.644-1.438,1.438-1.438C363.981,55.313,364.625,55.956,364.625,56.75z"/>
						<path id="XMLID_33_" style="fill:#F77777;" d="M364.625,20.146c0,0.794-0.644,1.438-1.438,1.438
							c-0.794,0-1.438-0.644-1.438-1.438s0.644-1.438,1.438-1.438C363.981,18.708,364.625,19.352,364.625,20.146z"/>
						<path id="XMLID_77_" style="fill:#F77777;" d="M471.667,52.063L471.667,52.063c-0.828,0-1.5-0.672-1.5-1.5V25.146
							c0-0.828,0.672-1.5,1.5-1.5l0,0c0.828,0,1.5,0.672,1.5,1.5v25.417C473.167,51.391,472.495,52.063,471.667,52.063z"/>
						<circle id="XMLID_76_" style="fill:#F77777;" cx="471.604" cy="56.75" r="1.438"/>
						<circle id="XMLID_74_" style="fill:#F77777;" cx="471.604" cy="20.146" r="1.438"/>
						<path id="XMLID_32_" style="fill:#F77777;" d="M112.333,48.75L112.333,48.75c-0.828,0-1.5-0.672-1.5-1.5V10.094
							c0-0.828,0.672-1.5,1.5-1.5l0,0c0.829,0,1.5,0.672,1.5,1.5V47.25C113.833,48.078,113.162,48.75,112.333,48.75z"/>
						<circle id="XMLID_31_" style="fill:#F77777;" cx="112.271" cy="5.094" r="1.438"/>
						<path id="XMLID_63_" style="fill:#F77777;" d="M272.25,48.75L272.25,48.75c-0.828,0-1.5-0.672-1.5-1.5V10.094
							c0-0.828,0.672-1.5,1.5-1.5l0,0c0.828,0,1.5,0.672,1.5,1.5V47.25C273.75,48.078,273.078,48.75,272.25,48.75z"/>
						<circle id="XMLID_62_" style="fill:#F77777;" cx="272.188" cy="5.094" r="1.437"/>
						<path id="XMLID_70_" style="fill:#F77777;" d="M396.833,48.75L396.833,48.75c-0.828,0-1.5-0.672-1.5-1.5V10.094
							c0-0.828,0.672-1.5,1.5-1.5l0,0c0.828,0,1.5,0.672,1.5,1.5V47.25C398.333,48.078,397.662,48.75,396.833,48.75z"/>
						<circle id="XMLID_69_" style="fill:#F77777;" cx="396.771" cy="5.094" r="1.438"/>
					</g>
				</g>
			</g>
		</g>
		<rect id="XMLID_393_" y="440" style="fill:#847B67;" width="500" height="4.06"/>
	</g>
</g>
<g id="Designed_by_Freepik">
	<g id="XMLID_1_">
		<g id="XMLID_319_">
			<g id="XMLID_338_">
				<path id="XMLID_346_" style="fill:#1D262D;" d="M260.104,465.465c-0.432,0.443-0.803,0.931-1.108,1.453l-0.465-0.241
					c-0.067-0.298-0.349-0.503-0.659-0.466c-0.331,0.039-0.568,0.339-0.529,0.67c0.039,0.331,0.339,0.568,0.67,0.529
					c0.065-0.008,0.127-0.026,0.183-0.052l0.452,0.234c-0.251,0.554-0.433,1.139-0.539,1.744l0.747,0.132
					c0.23-1.306,0.85-2.507,1.792-3.473L260.104,465.465z"/>
				<path id="XMLID_345_" style="fill:#1D262D;" d="M265.592,463.163c-0.171,0-0.341,0.006-0.51,0.017l-0.074-0.626
					c0.188-0.149,0.296-0.389,0.266-0.645c-0.046-0.393-0.402-0.674-0.795-0.628c-0.393,0.046-0.674,0.402-0.628,0.795
					c0.03,0.254,0.189,0.461,0.405,0.564l0.073,0.624c-0.714,0.116-1.403,0.332-2.06,0.646l0.327,0.684
					c0.934-0.447,1.942-0.673,2.995-0.673c0.496,0,0.993,0.053,1.475,0.158l0.161-0.741
					C266.692,463.222,266.142,463.163,265.592,463.163z"/>
				<path id="XMLID_344_" style="fill:#1D262D;" d="M272.194,465.711c0.331-0.04,0.566-0.341,0.526-0.672
					c-0.04-0.331-0.341-0.566-0.672-0.526c-0.309,0.038-0.535,0.304-0.53,0.609l-0.416,0.363c-0.418-0.43-0.89-0.813-1.408-1.139
					l-0.404,0.641c1.134,0.715,2.021,1.726,2.563,2.925l0.691-0.313c-0.251-0.554-0.568-1.072-0.942-1.545l0.402-0.351
					C272.065,465.716,272.129,465.719,272.194,465.711z"/>
				<path id="XMLID_343_" style="fill:#1D262D;" d="M265.044,473.372c-0.386,0.023-0.775,0.035-1.157,0.035
					c-0.88,0-1.733-0.061-2.478-0.179c-0.39-0.062-0.846-0.155-1.27-0.292c1.046,1.861,3.069,3.125,5.388,3.125
					c2.855,0,5.262-1.916,5.95-4.504c-0.682,0.449-1.505,0.825-2.459,1.123C267.839,473.047,266.464,473.286,265.044,473.372z"/>
				<path id="XMLID_339_" style="fill:#1D262D;" d="M265.592,464.68c-3.352,0-6.08,2.666-6.08,5.943
					c0,0.426,0.046,0.849,0.137,1.261c0.673,0.483,2.706,0.89,5.348,0.731c2.879-0.173,5.297-0.957,6.672-2.159
					c-0.005-0.195-0.021-0.39-0.045-0.582C271.244,466.913,268.65,464.68,265.592,464.68z M263.432,471.194
					c-1.02,0-1.85-0.83-1.85-1.85c0-1.02,0.83-1.85,1.85-1.85c1.02,0,1.85,0.83,1.85,1.85
					C265.282,470.365,264.452,471.194,263.432,471.194z M268.17,470.286c-0.75,0-1.36-0.61-1.36-1.36s0.61-1.361,1.36-1.361
					c0.75,0,1.361,0.61,1.361,1.361S268.92,470.286,268.17,470.286z"/>
			</g>
			<path id="XMLID_336_" style="fill:#1D262D;" d="M281.595,466.547c-0.295-0.116-0.805-0.309-1.382-0.237
				c-0.551,0.069-0.844,0.341-0.844,1.007v0.866h2.228v1.717h-2.228v5.455h-1.932v-5.455h-1.34v-1.717h1.34v-0.888
				c0-1.68,0.896-2.783,2.568-2.783c0.643,0,1.157,0.122,1.59,0.308L281.595,466.547z"/>
			<path id="XMLID_334_" style="fill:#1D262D;" d="M286.298,469.879c-0.177-0.03-0.358-0.046-0.526-0.046
				c-0.896,0-1.51,0.548-1.51,1.614v3.908h-1.932v-7.172h1.873v0.785c0.451-0.673,1.14-0.977,2.021-0.977
				c0.414,0,0.848,0.128,1.094,0.337L286.298,469.879z"/>
			<path id="XMLID_331_" style="fill:#1D262D;" d="M293.965,471.757c0,0.222-0.015,0.489-0.037,0.651h-5.085
				c0.207,1.036,0.933,1.488,1.843,1.488c0.622,0,1.295-0.252,1.813-0.688l1.132,1.243c-0.814,0.748-1.85,1.088-3.057,1.088
				c-2.198,0-3.723-1.495-3.723-3.753c0-2.258,1.48-3.797,3.627-3.797C292.544,467.99,293.958,469.522,293.965,471.757z
				 M288.851,471.091h3.175c-0.177-0.918-0.733-1.436-1.562-1.436C289.554,469.655,289.021,470.203,288.851,471.091z"/>
			<path id="XMLID_328_" style="fill:#1D262D;" d="M301.618,471.757c0,0.222-0.015,0.489-0.037,0.651h-5.085
				c0.207,1.036,0.933,1.488,1.843,1.488c0.622,0,1.295-0.252,1.813-0.688l1.132,1.243c-0.814,0.748-1.85,1.088-3.057,1.088
				c-2.198,0-3.723-1.495-3.723-3.753c0-2.258,1.48-3.797,3.627-3.797C300.197,467.99,301.611,469.522,301.618,471.757z
				 M296.504,471.091h3.175c-0.178-0.918-0.733-1.436-1.562-1.436C297.207,469.655,296.674,470.203,296.504,471.091z"/>
			<path id="XMLID_325_" style="fill:#1D262D;" d="M309.964,471.764c0,2.154-1.495,3.775-3.471,3.775
				c-0.962,0-1.643-0.378-2.109-0.933v3.708h-1.924v-10.133h1.887v0.792c0.466-0.585,1.155-0.984,2.139-0.984
				C308.469,467.99,309.964,469.61,309.964,471.764z M304.287,471.764c0,1.132,0.747,1.976,1.843,1.976
				c1.14,0,1.85-0.881,1.85-1.976c0-1.095-0.71-1.976-1.85-1.976C305.035,469.788,304.287,470.632,304.287,471.764z"/>
			<path id="XMLID_322_" style="fill:#1D262D;" d="M313.068,465.836c0,0.696-0.54,1.229-1.236,1.229
				c-0.696,0-1.229-0.533-1.229-1.229c0-0.696,0.533-1.243,1.229-1.243C312.527,464.592,313.068,465.14,313.068,465.836z
				 M312.809,475.354h-1.932v-7.172h1.932V475.354z"/>
			<path id="XMLID_320_" style="fill:#1D262D;" d="M316.032,470.736l2.701-2.554h2.368l-3.479,3.375l3.501,3.797h-2.376
				l-2.716-2.901v2.901H314.1v-10.658h1.932V470.736z"/>
		</g>
		<g id="XMLID_2_">
			<path id="XMLID_3_" style="fill:#1D262D;" d="M184.412,475.289v-1.055c-0.527,0.718-1.391,1.23-2.387,1.23
				c-1.846,0-3.149-1.406-3.149-3.706c0-2.256,1.289-3.721,3.149-3.721c0.952,0,1.816,0.469,2.387,1.245v-3.765h1.099v9.77H184.412z
				 M184.412,473.37v-3.208c-0.395-0.615-1.245-1.143-2.124-1.143c-1.421,0-2.27,1.172-2.27,2.739c0,1.567,0.85,2.724,2.27,2.724
				C183.168,474.483,184.017,473.986,184.412,473.37z"/>
			<path id="XMLID_6_" style="fill:#1D262D;" d="M186.932,471.744c0-2.051,1.465-3.706,3.486-3.706c2.139,0,3.398,1.67,3.398,3.794
				v0.279h-5.727c0.088,1.333,1.025,2.446,2.549,2.446c0.805,0,1.626-0.322,2.182-0.894l0.527,0.718
				c-0.703,0.703-1.655,1.084-2.812,1.084C188.44,475.465,186.932,473.956,186.932,471.744z M190.403,468.947
				c-1.509,0-2.256,1.274-2.314,2.358h4.643C192.718,470.25,192.015,468.947,190.403,468.947z"/>
			<path id="XMLID_9_" style="fill:#1D262D;" d="M194.607,474.351l0.571-0.791c0.469,0.542,1.362,1.011,2.329,1.011
				c1.084,0,1.67-0.513,1.67-1.216c0-1.714-4.38-0.659-4.38-3.281c0-1.098,0.952-2.036,2.636-2.036c1.201,0,2.051,0.454,2.622,1.026
				l-0.513,0.762c-0.424-0.513-1.201-0.894-2.109-0.894c-0.967,0-1.567,0.483-1.567,1.113c0,1.552,4.38,0.527,4.38,3.281
				c0,1.187-0.952,2.138-2.783,2.138C196.306,475.465,195.325,475.113,194.607,474.351z"/>
			<path id="XMLID_11_" style="fill:#1D262D;" d="M201.477,466.471c0-0.41,0.337-0.747,0.732-0.747c0.41,0,0.747,0.337,0.747,0.747
				c0,0.41-0.337,0.732-0.747,0.732C201.814,467.203,201.477,466.881,201.477,466.471z M201.667,475.289v-7.075h1.099v7.075H201.667
				z"/>
			<path id="XMLID_14_" style="fill:#1D262D;" d="M204.582,477.105l0.556-0.82c0.586,0.703,1.289,0.967,2.3,0.967
				c1.172,0,2.27-0.571,2.27-2.124v-1.011c-0.513,0.718-1.377,1.26-2.373,1.26c-1.845,0-3.149-1.377-3.149-3.662
				c0-2.27,1.289-3.677,3.149-3.677c0.952,0,1.802,0.469,2.373,1.245v-1.069h1.098v6.87c0,2.344-1.641,3.076-3.369,3.076
				C206.237,478.16,205.417,477.926,204.582,477.105z M209.709,473.253v-3.091c-0.381-0.615-1.23-1.143-2.109-1.143
				c-1.421,0-2.27,1.128-2.27,2.695c0,1.553,0.849,2.695,2.27,2.695C208.478,474.41,209.328,473.868,209.709,473.253z"/>
			<path id="XMLID_17_" style="fill:#1D262D;" d="M217.413,475.289v-4.629c0-1.245-0.63-1.641-1.582-1.641
				c-0.865,0-1.685,0.527-2.095,1.099v5.17h-1.099v-7.075h1.099v1.025c0.498-0.586,1.465-1.201,2.519-1.201
				c1.48,0,2.256,0.747,2.256,2.285v4.966H217.413z"/>
			<path id="XMLID_19_" style="fill:#1D262D;" d="M219.932,471.744c0-2.051,1.465-3.706,3.486-3.706c2.139,0,3.398,1.67,3.398,3.794
				v0.279h-5.727c0.088,1.333,1.025,2.446,2.549,2.446c0.806,0,1.626-0.322,2.183-0.894l0.527,0.718
				c-0.703,0.703-1.655,1.084-2.812,1.084C221.441,475.465,219.932,473.956,219.932,471.744z M223.404,468.947
				c-1.509,0-2.256,1.274-2.314,2.358h4.643C225.718,470.25,225.015,468.947,223.404,468.947z"/>
			<path id="XMLID_22_" style="fill:#1D262D;" d="M233.35,475.289v-1.055c-0.527,0.718-1.392,1.23-2.388,1.23
				c-1.846,0-3.149-1.406-3.149-3.706c0-2.256,1.289-3.721,3.149-3.721c0.952,0,1.817,0.469,2.388,1.245v-3.765h1.098v9.77H233.35z
				 M233.35,473.37v-3.208c-0.396-0.615-1.245-1.143-2.124-1.143c-1.421,0-2.27,1.172-2.27,2.739c0,1.567,0.849,2.724,2.27,2.724
				C232.105,474.483,232.954,473.986,233.35,473.37z"/>
			<path id="XMLID_25_" style="fill:#1D262D;" d="M239.692,475.289v-9.77h1.098v3.765c0.572-0.776,1.421-1.245,2.388-1.245
				c1.845,0,3.149,1.465,3.149,3.721c0,2.299-1.304,3.706-3.149,3.706c-0.996,0-1.86-0.513-2.388-1.23v1.055H239.692z
				 M242.9,474.483c1.436,0,2.285-1.157,2.285-2.724c0-1.568-0.85-2.739-2.285-2.739c-0.864,0-1.728,0.527-2.109,1.143v3.208
				C241.171,473.986,242.036,474.483,242.9,474.483z"/>
			<path id="XMLID_28_" style="fill:#1D262D;" d="M247.528,477.061c0.161,0.073,0.425,0.117,0.601,0.117
				c0.483,0,0.805-0.161,1.055-0.747l0.469-1.069l-2.959-7.148h1.187l2.358,5.8l2.344-5.8h1.201l-3.545,8.51
				c-0.425,1.025-1.143,1.421-2.08,1.435c-0.234,0-0.601-0.044-0.806-0.103L247.528,477.061z"/>
		</g>
	</g>
</g>
</svg>
